<?xml version="1.0" encoding="UTF-8"?>
<!--Generator: Apple Native CoreSVG 175-->
<!DOCTYPE svg
PUBLIC "-//W3C//DTD SVG 1.1//EN"
       "http://www.w3.org/Graphics/SVG/1.1/DTD/svg11.dtd">
<svg version="1.1" xmlns="http://www.w3.org/2000/svg" xmlns:xlink="http://www.w3.org/1999/xlink" width="3300" height="2200">
 <!--glyph: "uni100250.medium", point size: 100.0, font version: "17.1d1e1", template writer version: "65.1"-->
 <g id="Notes">
  <rect height="2200" id="artboard" style="fill:white;opacity:1" width="3300" x="0" y="0"/>
  <line style="fill:none;stroke:black;opacity:1;stroke-width:0.5;" x1="263" x2="3036" y1="292" y2="292"/>
  <text style="stroke:none;fill:black;font-family:sans-serif;font-size:13;font-weight:bold;" transform="matrix(1 0 0 1 263 322)">Weight/Scale Variations</text>
  <text style="stroke:none;fill:black;font-family:sans-serif;font-size:13;text-anchor:middle;" transform="matrix(1 0 0 1 559.711 322)">Ultralight</text>
  <text style="stroke:none;fill:black;font-family:sans-serif;font-size:13;text-anchor:middle;" transform="matrix(1 0 0 1 856.422 322)">Thin</text>
  <text style="stroke:none;fill:black;font-family:sans-serif;font-size:13;text-anchor:middle;" transform="matrix(1 0 0 1 1153.13 322)">Light</text>
  <text style="stroke:none;fill:black;font-family:sans-serif;font-size:13;text-anchor:middle;" transform="matrix(1 0 0 1 1449.84 322)">Regular</text>
  <text style="stroke:none;fill:black;font-family:sans-serif;font-size:13;text-anchor:middle;" transform="matrix(1 0 0 1 1746.56 322)">Medium</text>
  <text style="stroke:none;fill:black;font-family:sans-serif;font-size:13;text-anchor:middle;" transform="matrix(1 0 0 1 2043.27 322)">Semibold</text>
  <text style="stroke:none;fill:black;font-family:sans-serif;font-size:13;text-anchor:middle;" transform="matrix(1 0 0 1 2339.98 322)">Bold</text>
  <text style="stroke:none;fill:black;font-family:sans-serif;font-size:13;text-anchor:middle;" transform="matrix(1 0 0 1 2636.69 322)">Heavy</text>
  <text style="stroke:none;fill:black;font-family:sans-serif;font-size:13;text-anchor:middle;" transform="matrix(1 0 0 1 2933.4 322)">Black</text>
  <line style="fill:none;stroke:black;opacity:1;stroke-width:0.5;" x1="263" x2="3036" y1="1903" y2="1903"/>
  <g transform="matrix(1 0 0 1 263 1933)">
   <path d="M9.24805 0.830078Q10.8691 0.830078 12.2949 0.214844Q13.7207-0.400391 14.8096-1.49414Q15.8984-2.58789 16.5186-4.01367Q17.1387-5.43945 17.1387-7.05078Q17.1387-8.66211 16.5186-10.0879Q15.8984-11.5137 14.8047-12.6074Q13.7109-13.7012 12.2852-14.3164Q10.8594-14.9316 9.23828-14.9316Q7.62695-14.9316 6.20117-14.3164Q4.77539-13.7012 3.69141-12.6074Q2.60742-11.5137 1.9873-10.0879Q1.36719-8.66211 1.36719-7.05078Q1.36719-5.43945 1.9873-4.01367Q2.60742-2.58789 3.69629-1.49414Q4.78516-0.400391 6.21094 0.214844Q7.63672 0.830078 9.24805 0.830078ZM9.24805-0.654297Q7.91992-0.654297 6.7627-1.14746Q5.60547-1.64062 4.73145-2.51953Q3.85742-3.39844 3.36426-4.56055Q2.87109-5.72266 2.87109-7.05078Q2.87109-8.37891 3.35938-9.54102Q3.84766-10.7031 4.72168-11.582Q5.5957-12.4609 6.75293-12.9541Q7.91016-13.4473 9.23828-13.4473Q10.5762-13.4473 11.7334-12.9541Q12.8906-12.4609 13.7695-11.582Q14.6484-10.7031 15.1465-9.54102Q15.6445-8.37891 15.6445-7.05078Q15.6445-5.72266 15.1514-4.56055Q14.6582-3.39844 13.7842-2.51953Q12.9102-1.64062 11.748-1.14746Q10.5859-0.654297 9.24805-0.654297ZM5.6543-7.05078Q5.6543-6.72852 5.85938-6.52832Q6.06445-6.32812 6.40625-6.32812L8.51562-6.32812L8.51562-4.20898Q8.51562-3.88672 8.71094-3.67676Q8.90625-3.4668 9.23828-3.4668Q9.56055-3.4668 9.77051-3.67676Q9.98047-3.88672 9.98047-4.20898L9.98047-6.32812L12.0898-6.32812Q12.4219-6.32812 12.627-6.52832Q12.832-6.72852 12.832-7.05078Q12.832-7.38281 12.627-7.58789Q12.4219-7.79297 12.0898-7.79297L9.98047-7.79297L9.98047-9.90234Q9.98047-10.2344 9.77051-10.4443Q9.56055-10.6543 9.23828-10.6543Q8.90625-10.6543 8.71094-10.4443Q8.51562-10.2344 8.51562-9.90234L8.51562-7.79297L6.40625-7.79297Q6.06445-7.79297 5.85938-7.58789Q5.6543-7.38281 5.6543-7.05078Z"/>
  </g>
  <g transform="matrix(1 0 0 1 281.867 1933)">
   <path d="M11.709 2.91016Q13.75 2.91016 15.5518 2.12891Q17.3535 1.34766 18.7305-0.0292969Q20.1074-1.40625 20.8887-3.20801Q21.6699-5.00977 21.6699-7.05078Q21.6699-9.0918 20.8887-10.8936Q20.1074-12.6953 18.7305-14.0723Q17.3535-15.4492 15.5469-16.2305Q13.7402-17.0117 11.6992-17.0117Q9.6582-17.0117 7.85645-16.2305Q6.05469-15.4492 4.68262-14.0723Q3.31055-12.6953 2.5293-10.8936Q1.74805-9.0918 1.74805-7.05078Q1.74805-5.00977 2.5293-3.20801Q3.31055-1.40625 4.6875-0.0292969Q6.06445 1.34766 7.86621 2.12891Q9.66797 2.91016 11.709 2.91016ZM11.709 1.25Q9.98047 1.25 8.47656 0.605469Q6.97266-0.0390625 5.83496-1.17676Q4.69727-2.31445 4.05762-3.81836Q3.41797-5.32227 3.41797-7.05078Q3.41797-8.7793 4.05762-10.2832Q4.69727-11.7871 5.83008-12.9297Q6.96289-14.0723 8.4668-14.7119Q9.9707-15.3516 11.6992-15.3516Q13.4277-15.3516 14.9316-14.7119Q16.4355-14.0723 17.5781-12.9297Q18.7207-11.7871 19.3652-10.2832Q20.0098-8.7793 20.0098-7.05078Q20.0098-5.32227 19.3701-3.81836Q18.7305-2.31445 17.5928-1.17676Q16.4551-0.0390625 14.9463 0.605469Q13.4375 1.25 11.709 1.25ZM7.17773-7.05078Q7.17773-6.69922 7.41211-6.47461Q7.64648-6.25 8.01758-6.25L10.8887-6.25L10.8887-3.36914Q10.8887-2.99805 11.1133-2.76855Q11.3379-2.53906 11.6895-2.53906Q12.0605-2.53906 12.29-2.76855Q12.5195-2.99805 12.5195-3.36914L12.5195-6.25L15.4004-6.25Q15.7715-6.25 16.001-6.47461Q16.2305-6.69922 16.2305-7.05078Q16.2305-7.42188 16.001-7.65137Q15.7715-7.88086 15.4004-7.88086L12.5195-7.88086L12.5195-10.752Q12.5195-11.1328 12.29-11.3623Q12.0605-11.5918 11.6895-11.5918Q11.3379-11.5918 11.1133-11.3574Q10.8887-11.123 10.8887-10.752L10.8887-7.88086L8.01758-7.88086Q7.63672-7.88086 7.40723-7.65137Q7.17773-7.42188 7.17773-7.05078Z"/>
  </g>
  <g transform="matrix(1 0 0 1 305.646 1933)">
   <path d="M14.9707 5.66406Q17.0605 5.66406 18.96 5.01465Q20.8594 4.36523 22.4512 3.19336Q24.043 2.02148 25.2197 0.429688Q26.3965-1.16211 27.0459-3.06641Q27.6953-4.9707 27.6953-7.05078Q27.6953-9.14062 27.0459-11.04Q26.3965-12.9395 25.2197-14.5312Q24.043-16.123 22.4512-17.2998Q20.8594-18.4766 18.9551-19.126Q17.0508-19.7754 14.9609-19.7754Q12.8711-19.7754 10.9717-19.126Q9.07227-18.4766 7.48535-17.2998Q5.89844-16.123 4.72168-14.5312Q3.54492-12.9395 2.90039-11.04Q2.25586-9.14062 2.25586-7.05078Q2.25586-4.9707 2.90527-3.06641Q3.55469-1.16211 4.72656 0.429688Q5.89844 2.02148 7.49023 3.19336Q9.08203 4.36523 10.9814 5.01465Q12.8809 5.66406 14.9707 5.66406ZM14.9707 3.84766Q13.1641 3.84766 11.5283 3.2959Q9.89258 2.74414 8.53516 1.74805Q7.17773 0.751953 6.17676-0.610352Q5.17578-1.97266 4.62891-3.6084Q4.08203-5.24414 4.08203-7.05078Q4.08203-8.86719 4.62891-10.5029Q5.17578-12.1387 6.17188-13.501Q7.16797-14.8633 8.52539-15.8594Q9.88281-16.8555 11.5186-17.4023Q13.1543-17.9492 14.9609-17.9492Q16.7773-17.9492 18.4131-17.4023Q20.0488-16.8555 21.4111-15.8594Q22.7734-14.8633 23.7695-13.501Q24.7656-12.1387 25.3174-10.5029Q25.8691-8.86719 25.8691-7.05078Q25.8789-5.24414 25.332-3.6084Q24.7852-1.97266 23.7842-0.610352Q22.7832 0.751953 21.4209 1.74805Q20.0586 2.74414 18.4229 3.2959Q16.7871 3.84766 14.9707 3.84766ZM9.19922-7.05078Q9.19922-6.66992 9.45801-6.4209Q9.7168-6.17188 10.1172-6.17188L14.0625-6.17188L14.0625-2.2168Q14.0625-1.81641 14.3115-1.55762Q14.5605-1.29883 14.9512-1.29883Q15.3516-1.29883 15.6104-1.55273Q15.8691-1.80664 15.8691-2.2168L15.8691-6.17188L19.8242-6.17188Q20.2246-6.17188 20.4785-6.4209Q20.7324-6.66992 20.7324-7.05078Q20.7324-7.46094 20.4785-7.71484Q20.2246-7.96875 19.8242-7.96875L15.8691-7.96875L15.8691-11.9141Q15.8691-12.3242 15.6104-12.583Q15.3516-12.8418 14.9512-12.8418Q14.5605-12.8418 14.3115-12.583Q14.0625-12.3242 14.0625-11.9141L14.0625-7.96875L10.1172-7.96875Q9.70703-7.96875 9.45312-7.71484Q9.19922-7.46094 9.19922-7.05078Z"/>
  </g>
  <text style="stroke:none;fill:black;font-family:sans-serif;font-size:13;font-weight:bold;" transform="matrix(1 0 0 1 263 1953)">Design Variations</text>
  <text style="stroke:none;fill:black;font-family:sans-serif;font-size:13;" transform="matrix(1 0 0 1 263 1971)">Symbols are supported in up to nine weights and three scales.</text>
  <text style="stroke:none;fill:black;font-family:sans-serif;font-size:13;" transform="matrix(1 0 0 1 263 1989)">For optimal layout with text and other symbols, vertically align</text>
  <text style="stroke:none;fill:black;font-family:sans-serif;font-size:13;" transform="matrix(1 0 0 1 263 2007)">symbols with the adjacent text.</text>
  <line style="fill:none;stroke:#00AEEF;stroke-width:0.5;opacity:1.0;" x1="776" x2="776" y1="1919" y2="1933"/>
  <g transform="matrix(1 0 0 1 776 1933)">
   <path d="M3.31055 0.15625Q3.70117 0.15625 3.91602-0.00976562Q4.13086-0.175781 4.26758-0.585938L5.52734-4.0332L11.2891-4.0332L12.5488-0.585938Q12.6855-0.175781 12.9004-0.00976562Q13.1152 0.15625 13.4961 0.15625Q13.8867 0.15625 14.1162-0.0585938Q14.3457-0.273438 14.3457-0.644531Q14.3457-0.869141 14.2383-1.17188L9.6582-13.3691Q9.48242-13.8184 9.17969-14.043Q8.87695-14.2676 8.4082-14.2676Q7.5-14.2676 7.17773-13.3789L2.59766-1.16211Q2.49023-0.859375 2.49023-0.634766Q2.49023-0.263672 2.70996-0.0537109Q2.92969 0.15625 3.31055 0.15625ZM6.00586-5.51758L8.37891-12.0898L8.42773-12.0898L10.8008-5.51758Z"/>
  </g>
  <line style="fill:none;stroke:#00AEEF;stroke-width:0.5;opacity:1.0;" x1="793.197" x2="793.197" y1="1919" y2="1933"/>
  <text style="stroke:none;fill:black;font-family:sans-serif;font-size:13;font-weight:bold;" transform="matrix(1 0 0 1 776 1953)">Margins</text>
  <text style="stroke:none;fill:black;font-family:sans-serif;font-size:13;" transform="matrix(1 0 0 1 776 1971)">Leading and trailing margins on the left and right side of each symbol</text>
  <text style="stroke:none;fill:black;font-family:sans-serif;font-size:13;" transform="matrix(1 0 0 1 776 1989)">can be adjusted by modifying the x-location of the margin guidelines.</text>
  <text style="stroke:none;fill:black;font-family:sans-serif;font-size:13;" transform="matrix(1 0 0 1 776 2007)">Modifications are automatically applied proportionally to all</text>
  <text style="stroke:none;fill:black;font-family:sans-serif;font-size:13;" transform="matrix(1 0 0 1 776 2025)">scales and weights.</text>
  <g transform="matrix(1 0 0 1 1289 1933)">
   <path d="M2.8418 1.86523L4.54102 3.57422Q5.18555 4.22852 5.90332 4.17969Q6.62109 4.13086 7.31445 3.35938L18.0078-8.42773L17.041-9.4043L6.42578 2.27539Q6.16211 2.57812 5.89355 2.61719Q5.625 2.65625 5.27344 2.30469L4.10156 1.14258Q3.75 0.791016 3.79395 0.522461Q3.83789 0.253906 4.14062-0.0195312L15.6152-10.8203L14.6387-11.7871L3.04688-0.898438Q2.30469-0.214844 2.25098 0.498047Q2.19727 1.21094 2.8418 1.86523ZM9.25781-16.3281Q8.94531-16.0254 8.90625-15.6348Q8.86719-15.2441 9.04297-14.9512Q9.21875-14.6777 9.55566-14.541Q9.89258-14.4043 10.3809-14.5215Q11.4746-14.7754 12.5977-14.7314Q13.7207-14.6875 14.7949-13.9844L14.209-12.5293Q13.9551-11.9043 14.0674-11.4404Q14.1797-10.9766 14.5801-10.5664L16.875-8.25195Q17.2363-7.88086 17.5781-7.82227Q17.9199-7.76367 18.3398-7.8418L19.4043-8.03711L20.0684-7.36328L20.0293-6.80664Q20-6.43555 20.1221-6.12305Q20.2441-5.81055 20.6055-5.44922L21.3672-4.70703Q21.7285-4.3457 22.1533-4.33105Q22.5781-4.31641 22.9297-4.66797L25.8398-7.58789Q26.1914-7.93945 26.1816-8.35449Q26.1719-8.76953 25.8105-9.13086L25.0391-9.89258Q24.6875-10.2539 24.3799-10.3857Q24.0723-10.5176 23.7109-10.4883L23.1348-10.4395L22.4902-11.0742L22.7344-12.1973Q22.832-12.6172 22.6953-12.9834Q22.5586-13.3496 22.1191-13.7891L19.9219-15.9766Q18.6719-17.2168 17.2607-17.8369Q15.8496-18.457 14.4189-18.4814Q12.9883-18.5059 11.665-17.959Q10.3418-17.4121 9.25781-16.3281ZM10.752-15.957Q11.6602-16.6211 12.7002-16.9043Q13.7402-17.1875 14.8047-17.085Q15.8691-16.9824 16.8701-16.5137Q17.8711-16.0449 18.7012-15.2051L21.1328-12.793Q21.3086-12.6172 21.3525-12.4512Q21.3965-12.2852 21.3379-12.0312L21.0156-10.5469L22.5195-9.0625L23.5059-9.12109Q23.6914-9.13086 23.7891-9.09668Q23.8867-9.0625 24.0332-8.91602L24.6094-8.33984L22.168-5.89844L21.5918-6.47461Q21.4453-6.62109 21.4062-6.71875Q21.3672-6.81641 21.377-7.01172L21.4453-7.98828L19.9512-9.47266L18.4277-9.21875Q18.1836-9.16992 18.042-9.2041Q17.9004-9.23828 17.7148-9.41406L15.7129-11.416Q15.5176-11.5918 15.4932-11.7529Q15.4688-11.9141 15.5859-12.1875L16.4648-14.2773Q15.293-15.3711 13.8281-15.791Q12.3633-16.2109 10.8398-15.7617Q10.7227-15.7324 10.6885-15.8057Q10.6543-15.8789 10.752-15.957Z"/>
  </g>
  <text style="stroke:none;fill:black;font-family:sans-serif;font-size:13;font-weight:bold;" transform="matrix(1 0 0 1 1289 1953)">Exporting</text>
  <text style="stroke:none;fill:black;font-family:sans-serif;font-size:13;" transform="matrix(1 0 0 1 1289 1971)">Symbols should be outlined when exporting to ensure the</text>
  <text style="stroke:none;fill:black;font-family:sans-serif;font-size:13;" transform="matrix(1 0 0 1 1289 1989)">design is preserved when submitting to Xcode.</text>
  <text id="template-version" style="stroke:none;fill:black;font-family:sans-serif;font-size:13;text-anchor:end;" transform="matrix(1 0 0 1 3036 1933)">Template v.3.0</text>
  <text style="stroke:none;fill:black;font-family:sans-serif;font-size:13;text-anchor:end;" transform="matrix(1 0 0 1 3036 1951)">Requires Xcode 13 or greater</text>
  <text id="descriptive-name" style="stroke:none;fill:black;font-family:sans-serif;font-size:13;text-anchor:end;" transform="matrix(1 0 0 1 3036 1969)">Generated from arrowshape.turn.up.right</text>
  <text style="stroke:none;fill:black;font-family:sans-serif;font-size:13;text-anchor:end;" transform="matrix(1 0 0 1 3036 1987)">Typeset at 100 points</text>
  <text style="stroke:none;fill:black;font-family:sans-serif;font-size:13;" transform="matrix(1 0 0 1 263 726)">Small</text>
  <text style="stroke:none;fill:black;font-family:sans-serif;font-size:13;" transform="matrix(1 0 0 1 263 1156)">Medium</text>
  <text style="stroke:none;fill:black;font-family:sans-serif;font-size:13;" transform="matrix(1 0 0 1 263 1586)">Large</text>
 </g>
 <g id="Guides">
  <g id="H-reference" style="fill:#27AAE1;stroke:none;" transform="matrix(1 0 0 1 339 696)">
   <path d="M0.993347 0L3.6377 0L29.3282-67.1326L30.0301-67.1326L30.0301-70.459L28.1227-70.459ZM11.6882-24.4797L46.9818-24.4797L46.2311-26.7288L12.4382-26.7288ZM55.1193 0L57.7637 0L30.6381-70.459L29.4327-70.459L29.4327-67.1326Z"/>
  </g>
  <line id="Baseline-S" style="fill:none;stroke:#27AAE1;opacity:1;stroke-width:0.5;" x1="263" x2="3036" y1="696" y2="696"/>
  <line id="Capline-S" style="fill:none;stroke:#27AAE1;opacity:1;stroke-width:0.5;" x1="263" x2="3036" y1="625.541" y2="625.541"/>
  <g id="H-reference" style="fill:#27AAE1;stroke:none;" transform="matrix(1 0 0 1 339 1126)">
   <path d="M0.993347 0L3.6377 0L29.3282-67.1326L30.0301-67.1326L30.0301-70.459L28.1227-70.459ZM11.6882-24.4797L46.9818-24.4797L46.2311-26.7288L12.4382-26.7288ZM55.1193 0L57.7637 0L30.6381-70.459L29.4327-70.459L29.4327-67.1326Z"/>
  </g>
  <line id="Baseline-M" style="fill:none;stroke:#27AAE1;opacity:1;stroke-width:0.5;" x1="263" x2="3036" y1="1126" y2="1126"/>
  <line id="Capline-M" style="fill:none;stroke:#27AAE1;opacity:1;stroke-width:0.5;" x1="263" x2="3036" y1="1055.54" y2="1055.54"/>
  <g id="H-reference" style="fill:#27AAE1;stroke:none;" transform="matrix(1 0 0 1 339 1556)">
   <path d="M0.993347 0L3.6377 0L29.3282-67.1326L30.0301-67.1326L30.0301-70.459L28.1227-70.459ZM11.6882-24.4797L46.9818-24.4797L46.2311-26.7288L12.4382-26.7288ZM55.1193 0L57.7637 0L30.6381-70.459L29.4327-70.459L29.4327-67.1326Z"/>
  </g>
  <line id="Baseline-L" style="fill:none;stroke:#27AAE1;opacity:1;stroke-width:0.5;" x1="263" x2="3036" y1="1556" y2="1556"/>
  <line id="Capline-L" style="fill:none;stroke:#27AAE1;opacity:1;stroke-width:0.5;" x1="263" x2="3036" y1="1485.54" y2="1485.54"/>
  <line id="left-margin-Regular-M" style="fill:none;stroke:#00AEEF;stroke-width:0.5;opacity:1.0;" x1="1387.89" x2="1387.89" y1="1030.79" y2="1150.12"/>
  <line id="right-margin-Regular-M" style="fill:none;stroke:#00AEEF;stroke-width:0.5;opacity:1.0;" x1="1511.8" x2="1511.8" y1="1030.79" y2="1150.12"/>
 </g>
 <g id="Symbols">
  <g id="Black-L" transform="matrix(1 0 0 1 2851.9 1556)">
   <path d="M87.5703 26.2473Q90.9227 26.2473 93.7114 24.906Q96.5001 23.5647 99.67 20.6116L150.106-25.9881Q152.098-27.8409 153.102-30.4031Q154.106-32.9652 154.106-35.2113Q154.106-37.6534 153.132-40.0988Q152.157-42.5441 150.164-44.3969L99.67-90.9105Q96.2416-94.0625 93.5148-95.3662Q90.7879-96.6699 87.612-96.6699Q82.4424-96.6699 78.963-93.1441Q75.4837-89.6184 75.4837-84.4916L75.4837-66.0911L74.7894-66.0911Q55.6607-66.0911 42.3461-58.0732Q29.0314-50.0553 22.1332-34.823Q15.235-19.5907 15.235 1.9251Q15.235 13.5159 18.3235 19.2976Q21.412 25.0792 27.1083 25.0792Q30.999 25.0792 34.0008 23.1841Q37.0025 21.289 39.4779 16.5155Q42.7703 10.5862 47.4099 5.98734Q52.0496 1.38846 58.7425-1.23311Q65.4354-3.85469 74.7894-3.85469L75.4837-3.85469L75.4837 14.1939Q75.4837 19.3207 78.963 22.784Q82.4424 26.2473 87.5703 26.2473ZM92.7681 1.57867Q91.6671 1.57867 91.6671 0.357244L91.6671-19.5956Q91.6671-21.6041 89.6585-21.6041L82.6866-21.6041Q63.2923-21.6041 50.9338-16.9094Q38.5753-12.2147 32.5888-0.794573Q32.3415-0.296496 32.0359-0.296496Q31.6462-0.296496 31.6462-0.80939Q31.7699-9.87636 33.9046-17.4134Q36.0392-24.9504 40.2019-30.775Q44.3646-36.5996 50.5015-40.6423Q56.6384-44.685 64.6678-46.7574Q72.6972-48.8297 82.6866-48.8297L89.6585-48.8297Q91.6671-48.8297 91.6671-50.8175L91.6671-70.8904Q91.6671-72.051 92.7693-72.051Q93.0361-72.051 93.2694-71.9566Q93.5026-71.8621 93.7475-71.6989L131.199-36.253Q131.784-35.6701 131.784-35.2113Q131.784-34.9813 131.669-34.7513Q131.553-34.5213 131.199-34.1696L93.7463 1.10978Q93.2542 1.57867 92.7681 1.57867Z"/>
  </g>
  <g id="Heavy-L" transform="matrix(1 0 0 1 2555.64 1556)">
   <path d="M87.8412 25.2876Q90.9249 25.2876 93.5164 24.0349Q96.1079 22.7821 99.0241 20.0601L149.291-26.5935Q151.254-28.431 152.18-30.7896Q153.106-33.1483 153.106-35.2251Q153.106-37.4659 152.205-39.7353Q151.304-42.0048 149.336-43.8422L99.0241-90.3348Q95.8533-93.2611 93.3496-94.4995Q90.8459-95.7378 87.9015-95.7378Q83.2013-95.7378 80.0749-92.5286Q76.9485-89.3194 76.9485-84.6851L76.9485-64.9125L75.9586-64.9125Q56.0892-64.9125 42.5196-56.6599Q28.9499-48.4072 22.0436-32.7904Q15.1373-17.1737 15.1373 4.79992Q15.1373 14.5678 17.9412 19.4815Q20.7452 24.3952 25.6766 24.3952Q29.1003 24.3952 31.8546 22.7504Q34.6089 21.1056 36.8709 16.7794Q40.6445 9.82458 45.8877 4.92106Q51.1308 0.0175319 58.504-2.55914Q65.8771-5.13581 75.9586-5.13581L76.9485-5.13581L76.9485 14.4161Q76.9485 19.0503 80.0749 22.169Q83.2013 25.2876 87.8412 25.2876ZM92.5926 3.45882Q91.5429 3.45882 91.5429 2.30294L91.5429-18.7744Q91.5429-20.8028 89.5145-20.8028L82.2965-20.8028Q62.1661-20.8028 49.3579-15.5173Q36.5497-10.2318 30.648 1.36563Q30.3787 1.92114 30.0647 1.92114Q29.6535 1.92114 29.6535 1.36359Q29.829-7.78989 31.9362-15.6555Q34.0433-23.521 38.2097-29.776Q42.3761-36.0311 48.6321-40.4842Q54.8882-44.9373 63.2622-47.285Q71.6362-49.6327 82.2965-49.6327L89.5145-49.6327Q91.5429-49.6327 91.5429-51.6309L91.5429-72.9612Q91.5429-74.0612 92.5982-74.0612Q92.8921-74.0612 93.1295-73.9489Q93.3669-73.8365 93.625-73.6644L132.929-36.3607Q133.57-35.7314 133.57-35.2251Q133.57-34.9691 133.439-34.7131Q133.308-34.4571 132.929-34.0894L93.6193 2.97277Q93.0919 3.45882 92.5926 3.45882Z"/>
  </g>
  <g id="Bold-L" transform="matrix(1 0 0 1 2259.6 1556)">
   <path d="M87.9408 24.0668Q90.6865 24.0668 93.0173 22.9292Q95.3481 21.7916 97.9268 19.3762L147.987-27.2868Q149.941-29.1312 150.778-31.2475Q151.616-33.3638 151.616-35.2405Q151.616-37.2427 150.799-39.3007Q149.983-41.3587 148.016-43.2028L97.9268-89.6426Q95.1085-92.255 92.8852-93.4014Q90.6618-94.5478 88.0166-94.5478Q83.9004-94.5478 81.2157-91.7343Q78.5309-88.9208 78.5309-84.8935L78.5309-63.4228L77.1648-63.4228Q56.6195-63.4228 42.7646-54.9825Q28.9097-46.5423 21.9434-30.5422Q14.9772-14.5422 14.9772 8.03722Q14.9772 15.6803 17.4239 19.5815Q19.8707 23.4828 23.9092 23.4828Q26.7862 23.4828 29.2183 22.1194Q31.6504 20.756 33.6361 16.9756Q37.8972 8.88692 43.8261 3.62922Q49.755-1.62848 57.9547-4.17364Q66.1545-6.71881 77.1648-6.71881L78.5309-6.71881L78.5309 14.6404Q78.5309 18.6675 81.2157 21.3672Q83.9004 24.0668 87.9408 24.0668ZM92.0645 5.82434Q91.0614 5.82434 91.0614 4.72303L91.0614-17.7675Q91.0614-19.7967 89.0322-19.7967L81.7156-19.7967Q60.7081-19.7967 47.3876-13.8557Q34.067-7.91466 28.2281 4.04709Q27.9206 4.70166 27.5839 4.70166Q27.1272 4.70166 27.1272 4.07546Q27.3421-5.3943 29.4519-13.7304Q31.5617-22.0666 35.7804-28.8258Q39.999-35.5851 46.4272-40.4746Q52.8554-45.364 61.6148-47.9903Q70.3743-50.6166 81.7156-50.6166L89.0322-50.6166Q91.0614-50.6166 91.0614-52.6077L91.0614-75.5052Q91.0614-76.5509 92.0776-76.5509Q92.4099-76.5509 92.6585-76.4117Q92.9072-76.2726 93.1882-76.0853L134.753-36.5883Q135.522-35.8455 135.522-35.2405Q135.522-34.9313 135.361-34.6222Q135.2-34.3132 134.753-33.8927L93.1749 5.30035Q92.5866 5.82434 92.0645 5.82434Z"/>
  </g>
  <g id="Semibold-L" transform="matrix(1 0 0 1 1963.34 1556)">
   <path d="M88.0095 23.2252Q90.5221 23.2252 92.6732 22.167Q94.8243 21.1087 97.1704 18.9048L147.087-27.7648Q149.035-29.6139 149.812-31.5631Q150.588-33.5123 150.588-35.2511Q150.588-37.0889 149.83-39.0011Q149.072-40.9133 147.106-42.7621L97.1704-89.1655Q94.5951-91.5614 92.565-92.6444Q90.5348-93.7275 88.0959-93.7275Q84.3823-93.7275 82.0021-91.1867Q79.6218-88.646 79.6218-85.0371L79.6218-62.3957L77.9964-62.3957Q56.985-62.3957 42.9334-53.8261Q28.8819-45.2565 21.8743-28.9923Q14.8668-12.728 14.8668 10.269Q14.8668 16.4472 17.0673 19.6505Q19.2678 22.8537 22.6907 22.8537Q25.191 22.8537 27.4008 21.6843Q29.6107 20.5149 31.4061 17.1109Q36.0032 8.24049 42.4049 2.73863Q48.8066-2.76322 57.5761-5.28667Q66.3457-7.81012 77.9964-7.81012L79.6218-7.81012L79.6218 14.7951Q79.6218 18.4036 82.0021 20.8144Q84.3823 23.2252 88.0095 23.2252ZM91.7004 7.45512Q90.7294 7.45512 90.7294 6.39143L90.7294-17.0734Q90.7294-19.103 88.6997-19.103L81.3151-19.103Q59.703-19.103 46.0292-12.7101Q32.3554-6.31722 26.5599 5.89568Q26.2261 6.61853 25.8737 6.61853Q25.3856 6.61853 25.3856 5.945Q25.6276-3.7428 27.7393-12.4034Q29.8509-21.0639 34.1056-28.1708Q38.3603-35.2776 44.9071-40.4679Q51.454-45.6582 60.4792-48.4766Q69.5044-51.2949 81.3151-51.2949L88.6997-51.2949Q90.7294-51.2949 90.7294-53.2811L90.7294-77.259Q90.7294-78.2672 91.7187-78.2672Q92.0774-78.2672 92.3338-78.1096Q92.5903-77.952 92.8871-77.7542L136.01-36.7453Q136.868-35.9242 136.868-35.2511Q136.868-34.9053 136.686-34.5596Q136.504-34.2139 136.01-33.757L92.8685 6.90497Q92.2382 7.45512 91.7004 7.45512Z"/>
  </g>
  <g id="Medium-L" transform="matrix(1 0 0 1 1666.98 1556)">
   <path d="M88.0616 22.5871Q90.3975 22.5871 92.4123 21.589Q94.4271 20.5909 96.5968 18.5473L146.405-28.1272Q148.349-29.9799 149.079-31.8024Q149.809-33.625 149.809-35.2592Q149.809-36.9722 149.095-38.7739Q148.382-40.5756 146.416-42.4279L96.5968-88.8036Q94.2058-91.0354 92.3222-92.0704Q90.4386-93.1054 88.1561-93.1054Q84.7477-93.1054 82.5984-90.7715Q80.449-88.4376 80.449-85.1461L80.449-61.617L78.6269-61.617Q57.2622-61.617 43.0615-52.9493Q28.8608-44.2817 21.8219-27.8171Q14.783-11.3525 14.783 11.9612Q14.783 17.0288 16.7969 19.7028Q18.8107 22.3768 21.7668 22.3768Q23.9813 22.3768 26.0228 21.3545Q28.0642 20.3321 29.7151 17.2134Q34.5671 7.75035 41.3272 2.06335Q48.0874-3.62364 57.289-6.13062Q66.4906-8.6376 78.6269-8.6376L80.449-8.6376L80.449 14.9124Q80.449 18.2036 82.5984 20.3953Q84.7477 22.5871 88.0616 22.5871ZM91.4243 8.69165Q90.4777 8.69165 90.4777 7.65648L90.4777-16.547Q90.4777-18.5771 88.4476-18.5771L81.0114-18.5771Q58.9409-18.5771 44.9993-11.8415Q31.0576-5.10598 25.2949 7.29735Q24.9412 8.07199 24.5769 8.07199Q24.0651 8.07199 24.0651 7.36256Q24.3275-2.49056 26.4406-11.3971Q28.5538-20.3037 32.8357-27.6741Q37.1177-35.0445 43.7545-40.4629Q50.3913-45.8813 59.6181-48.8453Q68.8448-51.8093 81.0114-51.8093L88.4476-51.8093Q90.4777-51.8093 90.4777-53.7917L90.4777-78.5889Q90.4777-79.5686 91.4466-79.5686Q91.8253-79.5686 92.0876-79.397Q92.35-79.2254 92.6588-79.0196L136.963-36.8642Q137.888-35.9838 137.888-35.2592Q137.888-34.8855 137.69-34.5121Q137.492-34.1386 136.963-33.6541L92.6361 8.12166Q91.974 8.69165 91.4243 8.69165Z"/>
  </g>
  <g id="Regular-L" transform="matrix(1 0 0 1 1370.72 1556)">
   <path d="M88.1295 21.7547Q90.235 21.7547 92.072 20.8351Q93.909 19.9156 95.8486 18.0811L145.516-28.5999Q147.453-30.4574 148.123-32.1146Q148.793-33.7719 148.793-35.2697Q148.793-36.8201 148.137-38.4776Q147.481-40.1351 145.516-41.992L95.8486-88.3317Q93.698-90.3494 92.0055-91.3218Q90.3131-92.2941 88.2346-92.2941Q85.2244-92.2941 83.3761-90.23Q81.5279-88.1658 81.5279-85.2881L81.5279-60.6013L79.4493-60.6013Q57.6237-60.6013 43.2285-51.8057Q28.8333-43.0101 21.7536-26.2842Q14.6738-9.55827 14.6738 14.1685Q14.6738 17.7873 16.4442 19.771Q18.2145 21.7547 20.5617 21.7547Q22.4036 21.7547 24.2253 20.9242Q26.047 20.0937 27.5096 17.3472Q32.6939 7.11103 39.9216 1.18256Q47.1494-4.74592 56.9146-7.23142Q66.6797-9.71692 79.4493-9.71692L81.5279-9.71692L81.5279 15.0654Q81.5279 17.9426 83.3761 19.8486Q85.2244 21.7547 88.1295 21.7547ZM91.0642 10.3045Q90.1494 10.3045 90.1494 9.30654L90.1494-15.8605Q90.1494-17.8911 88.1188-17.8911L80.6153-17.8911Q57.9469-17.8911 43.6559-10.7086Q29.3649-3.5261 23.645 9.12563Q23.2652 9.9678 22.8855 9.9678Q22.3427 9.9678 22.3427 9.21156Q22.6319-0.857208 24.7468-10.0846Q26.8618-19.312 31.1794-27.0262Q35.497-34.7404 42.2512-40.4563Q49.0053-46.1723 58.4949-49.3262Q67.9844-52.4801 80.6153-52.4801L88.1188-52.4801Q90.1494-52.4801 90.1494-54.4577L90.1494-80.3234Q90.1494-81.2661 91.0916-81.2661Q91.4964-81.2661 91.7665-81.0762Q92.0366-80.8864 92.361-80.6702L138.206-37.0194Q139.219-36.0616 139.219-35.2697Q139.219-34.8598 139.001-34.4501Q138.782-34.0405 138.206-33.52L92.3331 9.70864Q91.6294 10.3045 91.0642 10.3045Z"/>
  </g>
  <g id="Light-L" transform="matrix(1 0 0 1 1075.16 1556)">
   <path d="M86.6791 20.7049Q88.5172 20.7049 90.0681 19.8999Q91.6189 19.095 93.1766 17.6039L142.71-28.7144Q144.819-30.7437 145.48-32.296Q146.14-33.8482 146.14-35.2697Q146.14-36.7245 145.503-38.2771Q144.866-39.8298 142.71-41.8583L93.1766-87.9883Q91.4841-89.567 90.0112-90.4057Q88.5383-91.2443 86.7457-91.2443Q84.1556-91.2443 82.6414-89.4761Q81.1271-87.7079 81.1271-85.2307L81.1271-59.3799L78.7239-59.3799Q57.9863-59.3799 43.5912-51.1187Q29.196-42.8575 21.7536-26.4655Q14.3112-10.0736 14.3112 14.3211Q14.3112 17.3294 15.8048 19.0171Q17.2984 20.7049 19.3785 20.7049Q21.0485 20.7049 22.5457 19.884Q24.0429 19.0632 25.2384 16.6411Q30.06 6.50018 37.3641 0.476312Q44.6682-5.54756 54.901-8.16661Q65.1338-10.7857 78.7239-10.7857L81.1271-10.7857L81.1271 14.8935Q81.1271 17.3699 82.6414 19.0374Q84.1556 20.7049 86.6791 20.7049ZM88.6977 12.1749Q87.7066 12.1749 87.7066 11.0432L87.7066-15.2307Q87.7066-17.1087 85.8287-17.1087L79.5847-17.1087Q56.5347-17.1087 42.1769-9.96435Q27.819-2.82001 21.8701 11.0149Q21.3949 12.1053 20.9196 12.1053Q20.2241 12.1053 20.2241 11.2157Q20.3799-0.41823 22.7334-10.3804Q25.0869-20.3426 29.748-28.219Q34.409-36.0955 41.4399-41.6492Q48.4708-47.2029 57.9604-50.1469Q67.4499-53.091 79.5847-53.091L85.8287-53.091Q87.7066-53.091 87.7066-54.9348L87.7066-81.9456Q87.7066-82.9838 88.7441-82.9838Q89.2063-82.9838 89.524-82.7462Q89.8417-82.5086 90.2235-82.2543L137.404-37.7829Q138.895-36.3861 138.895-35.2697Q138.895-34.6879 138.581-34.1066Q138.267-33.5252 137.404-32.7565L90.1764 11.4453Q89.32 12.1749 88.6977 12.1749Z"/>
  </g>
  <g id="Thin-L" transform="matrix(1 0 0 1 779.959 1556)">
   <path d="M84.761 19.3164Q86.2453 19.3164 87.4177 18.6631Q88.59 18.0098 89.6427 16.9729L139-28.8658Q141.336-31.1224 141.984-32.5358Q142.632-33.9491 142.632-35.2697Q142.632-36.5981 142.02-38.0121Q141.408-39.4261 139-41.6815L89.6427-87.5341Q88.5562-88.5323 87.3736-89.194Q86.1909-89.8558 84.7767-89.8558Q82.7421-89.8558 81.6695-88.4791Q80.597-87.1023 80.597-85.1548L80.597-57.7646L77.7646-57.7646Q58.466-57.7646 44.0708-50.2101Q29.6757-42.6556 21.7536-26.7053Q13.8315-10.7551 13.8315 14.523Q13.8315 16.7238 14.9591 18.0201Q16.0867 19.3164 17.8136 19.3164Q19.2563 19.3164 20.3243 18.5083Q21.3923 17.7001 22.2345 15.7073Q26.5765 5.69228 33.9815-0.457753Q41.3865-6.60779 52.2379-9.40348Q63.0893-12.1992 77.7646-12.1992L80.597-12.1992L80.597 14.6662Q80.597 16.6125 81.6695 17.9644Q82.7421 19.3164 84.761 19.3164ZM85.5679 14.6486Q84.4759 14.6486 84.4759 13.3401L84.4759-14.3978Q84.4759-16.0739 82.7998-16.0739L78.2217-16.0739Q54.667-16.0739 40.2207-8.98003Q25.7744-1.88616 19.5228 13.5137Q18.9211 14.9323 18.3195 14.9323Q17.4221 14.9323 17.4221 13.8662Q17.4015 0.162353 20.0705-10.7716Q22.7396-21.7056 27.8548-29.7967Q32.97-37.8877 40.3669-43.2268Q47.7638-48.5659 57.2534-51.2324Q66.7429-53.8989 78.2217-53.8989L82.7998-53.8989Q84.4759-53.8989 84.4759-55.5659L84.4759-84.0911Q84.4759-85.2557 85.6393-85.2557Q86.1775-85.2557 86.5581-84.9549Q86.9387-84.654 87.3965-84.3493L136.344-38.7927Q138.465-36.8153 138.465-35.2697Q138.465-34.4606 138.025-33.6521Q137.585-32.8437 136.344-31.7467L87.3239 13.7422Q86.2657 14.6486 85.5679 14.6486Z"/>
  </g>
  <g id="Ultralight-L" transform="matrix(1 0 0 1 484.024 1556)">
   <path d="M83.7785 18.6052Q85.0817 18.6052 86.0602 18.0296Q87.0387 17.4539 87.8326 16.6497L137.099-28.9433Q139.552-31.3164 140.193-32.6586Q140.834-34.0008 140.834-35.2697Q140.834-36.5334 140.236-37.8763Q139.637-39.2193 137.099-41.5909L87.8326-87.3014Q87.0565-88.0022 86.0226-88.5734Q84.9886-89.1446 83.7681-89.1446Q82.0181-89.1446 81.1718-87.9684Q80.3254-86.7921 80.3254-85.1159L80.3254-56.9372L77.2733-56.9372Q58.7117-56.9372 44.3165-49.7447Q29.9213-42.5522 21.7536-26.8282Q13.5858-11.1041 13.5858 14.6264Q13.5858 16.4136 14.526 17.5094Q15.4662 18.6052 17.012 18.6052Q18.3383 18.6052 19.1865 17.8036Q20.0347 17.002 20.696 15.2289Q24.7923 5.27848 32.249-0.936177Q39.7057-7.15083 50.8739-10.037Q62.0421-12.9232 77.2733-12.9232L80.3254-12.9232L80.3254 14.5498Q80.3254 16.2245 81.1718 17.4149Q82.0181 18.6052 83.7785 18.6052ZM83.9649 15.9157Q82.8211 15.9157 82.8211 14.5166L82.8211-13.9712Q82.8211-15.5439 81.2484-15.5439L77.5235-15.5439Q53.7104-15.5439 39.2188-8.47587Q24.7272-1.40785 18.3205 14.7935Q17.6541 16.3803 16.9877 16.3803Q15.9869 16.3803 15.9869 15.2239Q15.876 0.459725 18.7066-10.972Q21.5373-22.4038 26.8851-30.6047Q32.233-38.8056 39.8174-44.0348Q47.4017-49.264 56.8913-51.7884Q66.3808-54.3127 77.5235-54.3127L81.2484-54.3127Q82.8211-54.3127 82.8211-55.8891L82.8211-85.19Q82.8211-86.4194 84.049-86.4194Q84.6261-86.4194 85.039-86.0862Q85.4519-85.753 85.9485-85.4223L135.801-39.3099Q138.246-37.0351 138.246-35.2697Q138.246-34.3442 137.741-33.4194Q137.236-32.4946 135.801-31.2295L85.8629 14.9187Q84.7013 15.9157 83.9649 15.9157Z"/>
  </g>
  <g id="Black-M" transform="matrix(1 0 0 1 2870.03 1126)">
   <path d="M67.4151 13.0817Q70.207 13.0817 72.4982 11.982Q74.7894 10.8823 77.4116 8.44227L116.613-27.565Q118.205-29.0369 119.049-31.1826Q119.892-33.3283 119.892-35.2035Q119.892-37.2556 119.077-39.2871Q118.262-41.3186 116.671-42.7905L77.4116-78.8161Q74.5961-81.3926 72.3215-82.4407Q70.047-83.4888 67.4261-83.4888Q63.0746-83.4888 60.1209-80.5253Q57.1671-77.5617 57.1671-73.2209L57.1671-59.9867L56.8394-59.9867Q42.8035-59.9867 32.7073-54.049Q22.611-48.1113 17.2245-36.6859Q11.8381-25.2605 11.8381-8.89429Q11.8381 1.56958 14.4379 6.7547Q17.0378 11.9398 22.072 11.9398Q25.4645 11.9398 27.9587 10.2577Q30.4529 8.57567 32.5179 4.53707Q34.606 0.837673 37.6922-2.47637Q40.7785-5.79042 45.4425-7.87815Q50.1065-9.96589 56.8394-9.96589L57.1671-9.96589L57.1671 2.84672Q57.1671 7.18756 60.1209 10.1347Q63.0746 13.0817 67.4151 13.0817ZM71.7015-8.0751Q70.7941-8.0751 70.7941-9.09584L70.7941-23.7376Q70.7941-25.256 69.2757-25.256L64.2564-25.256Q49.8118-25.256 40.6146-22.1317Q31.4173-19.0074 26.6753-10.1519Q26.4898-9.78173 26.2473-9.78173Q25.9432-9.78173 25.9432-10.1588Q25.9764-17.3211 27.6862-22.9775Q29.3959-28.6339 32.6643-32.7986Q35.9327-36.9633 40.6223-39.7206Q45.3119-42.4779 51.2364-43.8184Q57.161-45.1588 64.2564-45.1588L69.2757-45.1588Q70.7941-45.1588 70.7941-46.6717L70.7941-61.2975Q70.7941-62.2617 71.7012-62.2617Q71.8925-62.2617 72.0761-62.1975Q72.2597-62.1333 72.4458-62.0093L100.05-36.0332Q100.52-35.5621 100.52-35.2035Q100.52-35.0244 100.431-34.8452Q100.341-34.6661 100.05-34.3739L72.446-8.44174Q72.0745-8.0751 71.7015-8.0751Z"/>
  </g>
  <g id="Heavy-M" transform="matrix(1 0 0 1 2573.65 1126)">
   <path d="M67.8137 12.2404Q70.3676 12.2404 72.4925 11.2167Q74.6173 10.1929 77.0267 7.94715L116.076-28.1463Q117.623-29.5873 118.391-31.5438Q119.16-33.5002 119.16-35.217Q119.16-37.0811 118.414-38.9503Q117.669-40.8195 116.12-42.2605L77.0267-78.285Q74.4208-80.6814 72.3441-81.6779Q70.2673-82.6745 67.8465-82.6745Q63.9151-82.6745 61.2756-79.9931Q58.6361-77.3117 58.6361-73.4153L58.6361-58.9472L58.0493-58.9472Q43.189-58.9472 32.8435-52.7308Q22.4979-46.5144 17.137-34.6823Q11.776-22.8502 11.776-6.09804Q11.776 2.64012 14.1232 7.00405Q16.4704 11.368 20.7816 11.368Q23.7334 11.368 26.0157 9.92974Q28.2979 8.4915 30.179 4.86019Q32.7709 0.149474 36.44-3.45359Q40.1092-7.05664 45.395-9.08816Q50.6809-11.1197 58.0493-11.1197L58.6361-11.1197L58.6361 3.07972Q58.6361 6.97609 61.2756 9.60825Q63.9151 12.2404 67.8137 12.2404ZM71.7483-6.40968Q70.898-6.40968 70.898-7.35401L70.898-22.993Q70.898-24.5449 69.3462-24.5449L63.9701-24.5449Q48.8411-24.5449 39.2104-20.8395Q29.5798-17.1342 24.9419-8.21443Q24.7436-7.81103 24.5017-7.81103Q24.1906-7.81103 24.1906-8.21944Q24.2868-15.3219 25.9477-21.2317Q27.6086-27.1415 30.8489-31.712Q34.0892-36.2824 38.8697-39.4559Q43.6503-42.6295 49.9117-44.2584Q56.1731-45.8874 63.9701-45.8874L69.3462-45.8874Q70.898-45.8874 70.898-47.4229L70.898-63.1722Q70.898-64.0684 71.7505-64.0684Q71.963-64.0684 72.1462-63.9911Q72.3295-63.9137 72.5232-63.7846L101.815-36.0681Q102.296-35.5921 102.296-35.217Q102.296-35.0283 102.2-34.8396Q102.105-34.6509 101.815-34.3659L72.5209-6.78076Q72.1289-6.40968 71.7483-6.40968Z"/>
  </g>
  <g id="Bold-M" transform="matrix(1 0 0 1 2277.32 1126)">
   <path d="M68.2596 11.2993Q70.5473 11.2993 72.4861 10.3605Q74.4248 9.42178 76.5961 7.3933L115.475-28.7965Q116.972-30.203 117.656-31.9478Q118.34-33.6925 118.34-35.2321Q118.34-36.8859 117.673-38.5736Q117.006-40.2613 115.503-41.6677L76.5961-77.6909Q74.2247-79.8858 72.3693-80.8246Q70.5138-81.7635 68.3168-81.7635Q64.8552-81.7635 62.5673-79.3978Q60.2793-77.0321 60.2793-73.6328L60.2793-57.7844L59.4027-57.7844Q43.6202-57.7844 32.9958-51.2561Q22.3714-44.7279 17.039-32.4409Q11.7066-20.1539 11.7066-2.97004Q11.7066 3.83766 13.7711 7.28298Q15.8357 10.7283 19.3382 10.7283Q21.7968 10.7283 23.8421 9.56282Q25.8873 8.39735 27.5625 5.22165Q30.7181-0.620375 35.0393-4.54674Q39.3605-8.4731 45.342-10.4417Q51.3235-12.4103 59.4027-12.4103L60.2793-12.4103L60.2793 3.34035Q60.2793 6.73953 62.5673 9.0194Q64.8552 11.2993 68.2596 11.2993ZM71.8006-4.54667Q71.0143-4.54667 71.0143-5.40552L71.0143-22.16Q71.0143-23.7493 69.425-23.7493L63.6499-23.7493Q47.7552-23.7493 37.6397-19.394Q27.5242-15.0387 23.0027-6.04711Q22.7901-5.60652 22.549-5.60652Q22.2301-5.60652 22.2301-6.04999Q22.3968-13.0855 24.003-19.2788Q25.6091-25.4721 28.818-30.4964Q32.0269-35.5208 36.9092-39.1599Q41.7915-42.799 48.4297-44.7507Q55.068-46.7025 63.6499-46.7025L69.425-46.7025Q71.0143-46.7025 71.0143-48.2631L71.0143-65.2694Q71.0143-66.0894 71.8057-66.0894Q72.0418-66.0894 72.2247-65.9974Q72.4075-65.9054 72.6099-65.7705L103.79-36.1072Q104.282-35.6257 104.282-35.2321Q104.282-35.0327 104.18-34.8334Q104.077-34.634 103.79-34.357L72.6047-4.92271Q72.1898-4.54667 71.8006-4.54667Z"/>
  </g>
  <g id="Semibold-M" transform="matrix(1 0 0 1 1980.86 1126)">
   <path d="M68.567 10.6504Q70.6712 10.6504 72.4817 9.77031Q74.2921 8.89017 76.2993 7.01147L115.06-29.2448Q116.523-30.6275 117.149-32.2263Q117.775-33.8251 117.775-35.2425Q117.775-36.7513 117.162-38.3139Q116.548-39.8764 115.078-41.259L76.2993-77.2813Q74.0895-79.3374 72.3866-80.2364Q70.6838-81.1354 68.641-81.1354Q65.5034-81.1354 63.4578-78.9873Q61.4122-76.8393 61.4122-73.7827L61.4122-56.9828L60.3357-56.9828Q43.9174-56.9828 33.1008-50.2395Q22.2842-43.4963 16.9714-30.8957Q11.6587-18.2951 11.6587-0.813616Q11.6587 4.66325 13.5284 7.47528Q15.3981 10.2873 18.343 10.2873Q20.4618 10.2873 22.3436 9.30987Q24.2255 8.33244 25.7587 5.47084Q29.3029-1.1511 34.0736-5.30035Q38.8444-9.44959 45.3054-11.3749Q51.7665-13.3001 60.3357-13.3001L61.4122-13.3001L61.4122 3.52004Q61.4122 6.57645 63.4578 8.61345Q65.5034 10.6504 68.567 10.6504ZM71.8367-3.26232Q71.0945-3.26232 71.0945-4.06224L71.0945-21.5858Q71.0945-23.2008 69.4794-23.2008L63.4291-23.2008Q47.0066-23.2008 36.5569-18.3974Q26.1071-13.594 21.6659-4.55297Q21.4434-4.08674 21.2028-4.08674Q20.8786-4.08674 20.8786-4.55438Q21.0938-11.5438 22.6623-17.9325Q24.2307-24.3212 27.4179-29.6585Q30.6051-34.9957 35.5576-38.9558Q40.5101-42.9158 47.4081-45.0901Q54.3061-47.2644 63.4291-47.2644L69.4794-47.2644Q71.0945-47.2644 71.0945-48.8424L71.0945-66.7151Q71.0945-67.4827 71.8438-67.4827Q72.0962-67.4827 72.2788-67.3805Q72.4613-67.2784 72.6696-67.1396L105.152-36.1341Q105.651-35.6488 105.651-35.2425Q105.651-35.0357 105.544-34.829Q105.437-34.6223 105.152-34.3509L72.6624-3.64178Q72.2318-3.26232 71.8367-3.26232Z"/>
  </g>
  <g id="Medium-M" transform="matrix(1 0 0 1 1684.35 1126)">
   <path d="M68.8001 10.1585Q70.7651 10.1585 72.4783 9.32278Q74.1915 8.48708 76.0742 6.72196L114.746-29.5847Q116.183-30.9493 116.765-32.4375Q117.347-33.9256 117.347-35.2504Q117.347-36.6493 116.774-38.117Q116.202-39.5846 114.756-40.9491L76.0742-76.9708Q73.987-78.9215 72.3998-79.7904Q70.8126-80.6592 68.8868-80.6592Q65.9949-80.6592 64.133-78.6762Q62.2711-76.6931 62.2711-73.8964L62.2711-56.3749L61.0432-56.3749Q44.1428-56.3749 33.1804-49.4687Q22.218-42.5625 16.9202-29.7241Q11.6224-16.8857 11.6224 0.821476Q11.6224 5.28924 13.3444 7.62108Q15.0663 9.95293 17.5885 9.95293Q19.4495 9.95293 21.2074 9.11808Q22.9654 8.28322 24.391 5.65978Q28.2299-1.55353 33.3414-5.87177Q38.453-10.19 45.2777-12.0824Q52.1024-13.9748 61.0432-13.9748L62.2711-13.9748L62.2711 3.65628Q62.2711 6.45279 64.133 8.30564Q65.9949 10.1585 68.8001 10.1585ZM71.8641-2.28847Q71.1552-2.28847 71.1552-3.04371L71.1552-21.1503Q71.1552-22.785 69.5206-22.785L63.2617-22.785Q46.439-22.785 35.7358-17.6418Q25.0326-12.4987 20.6523-3.42006Q20.4223-2.93438 20.182-2.93438Q19.8538-2.93438 19.8538-3.42035Q20.1058-10.3748 21.6457-16.9117Q23.1856-23.4485 26.3563-29.0231Q29.5271-34.5976 34.5328-38.801Q39.5384-43.0045 46.6335-45.3475Q53.7285-47.6905 63.2617-47.6905L69.5206-47.6905Q71.1552-47.6905 71.1552-49.2816L71.1552-67.8114Q71.1552-68.5391 71.8726-68.5391Q72.1374-68.5391 72.3198-68.4293Q72.5021-68.3194 72.7149-68.1776L106.184-36.1545Q106.69-35.6664 106.69-35.2504Q106.69-35.038 106.579-34.8258Q106.469-34.6135 106.184-34.3462L72.7062-2.67053Q72.2636-2.28847 71.8641-2.28847Z"/>
  </g>
  <g id="Regular-M" transform="matrix(1 0 0 1 1387.89 1126)">
   <path d="M69.1041 9.51679Q70.8877 9.51679 72.474 8.73905Q74.0603 7.96131 75.7806 6.34433L114.336-30.028Q115.739-31.3691 116.263-32.7129Q116.788-34.0567 116.788-35.2606Q116.788-36.5162 116.269-37.8601Q115.75-39.204 114.336-40.5449L75.7806-76.5657Q73.8533-78.3791 72.417-79.2086Q70.9807-80.0381 69.2074-80.0381Q66.6359-80.0381 65.0137-78.2702Q63.3915-76.5024 63.3915-74.0447L63.3915-55.5821L61.966-55.5821Q44.4368-55.5821 33.2843-48.4633Q22.1317-41.3444 16.8534-28.1959Q11.5751-15.0473 11.5751 2.9542Q11.5751 6.10574 13.1043 7.81127Q14.6336 9.51679 16.6043 9.51679Q18.1292 9.51679 19.7255 8.8679Q21.3217 8.21902 22.6071 5.90623Q26.8302-2.07842 32.3864-6.6171Q37.9425-11.1558 45.2415-13.0053Q52.5405-14.8548 61.966-14.8548L63.3915-14.8548L63.3915 3.83399Q63.3915 6.2915 65.0137 7.90414Q66.6359 9.51679 69.1041 9.51679ZM71.8998-1.01823Q71.2345-1.01823 71.2345-1.7152L71.2345-20.5824Q71.2345-22.2426 69.5744-22.2426L63.0433-22.2426Q45.6986-22.2426 34.6649-16.6562Q23.6311-11.0699 19.3301-1.94234Q19.0904-1.43131 18.8507-1.43131Q18.5171-1.43131 18.5171-1.94118Q18.8171-8.84999 20.3197-15.5801Q21.8223-22.3103 24.9717-28.1943Q28.121-34.0783 33.196-38.5992Q38.2711-43.12 45.623-45.6831Q52.975-48.2462 63.0433-48.2462L69.5744-48.2462Q71.2345-48.2462 71.2345-49.8545L71.2345-69.2412Q71.2345-69.9171 71.9102-69.9171Q72.1912-69.9171 72.3732-69.7972Q72.5553-69.6774 72.774-69.5317L107.531-36.1812Q108.044-35.6893 108.044-35.2606Q108.044-35.041 107.929-34.8215Q107.814-34.6019 107.531-34.3401L72.7633-1.40367Q72.3051-1.01823 71.8998-1.01823Z"/>
  </g>
  <g id="Light-M" transform="matrix(1 0 0 1 1092.21 1126)">
   <path d="M67.8038 8.57556Q69.3476 8.57556 70.6774 7.9006Q72.0071 7.22563 73.385 5.91655L111.821-30.1307Q113.378-31.6259 113.894-32.8755Q114.409-34.1252 114.409-35.2606Q114.409-36.4305 113.907-37.6804Q113.406-38.9303 111.821-40.425L73.385-76.2578Q71.8685-77.6776 70.629-78.3872Q69.3895-79.0969 67.8726-79.0969Q65.6777-79.0969 64.3549-77.5944Q63.0321-76.0919 63.0321-73.9933L63.0321-54.4871L61.3157-54.4871Q44.762-54.4871 33.6094-47.8473Q22.4569-41.2076 16.8534-28.3584Q11.2499-15.5093 11.2499 3.09105Q11.2499 5.69522 12.5311 7.13539Q13.8122 8.57556 15.5435 8.57556Q16.9143 8.57556 18.2196 7.9353Q19.525 7.29505 20.5708 5.27319Q24.4688-2.62608 30.0934-7.25028Q35.718-11.8745 43.4363-13.8437Q51.1545-15.813 61.3157-15.813L63.0321-15.813L63.0321 3.6799Q63.0321 5.77805 64.3549 7.17681Q65.6777 8.57556 67.8038 8.57556ZM69.7781 0.658668Q69.0445 0.658668 69.0445-0.158182L69.0445-20.0178Q69.0445-21.5411 67.5212-21.5411L62.1194-21.5411Q44.4325-21.5411 33.3388-15.989Q22.2452-10.4369 17.7389-0.248482Q17.4135 0.485066 17.0881 0.485066Q16.6176 0.485066 16.6176-0.144405Q16.7981-8.45643 18.5146-15.8453Q20.2311-23.2342 23.6883-29.2638Q27.1455-35.2933 32.4687-39.6686Q37.7919-44.044 45.1438-46.4189Q52.4958-48.7939 62.1194-48.7939L67.5212-48.7939Q69.0445-48.7939 69.0445-50.2823L69.0445-70.6956Q69.0445-71.4572 69.8055-71.4572Q70.1379-71.4572 70.3627-71.2945Q70.5875-71.1318 70.8576-70.9518L106.812-36.8657Q107.753-35.9802 107.753-35.2606Q107.753-34.8869 107.552-34.5134Q107.352-34.14 106.812-33.6556L70.8297 0.153341Q70.2347 0.658668 69.7781 0.658668Z"/>
  </g>
  <g id="Thin-M" transform="matrix(1 0 0 1 796.855 1126)">
   <path d="M66.084 7.33072Q67.3108 7.33072 68.3012 6.79168Q69.2915 6.25265 70.2166 5.35078L108.494-30.2664Q110.254-31.9654 110.759-33.0905Q111.264-34.2157 111.264-35.2606Q111.264-36.3172 110.784-37.4428Q110.305-38.5683 108.494-40.2665L70.2166-75.8506Q69.2434-76.7499 68.2642-77.3009Q67.285-77.852 66.1072-77.852Q64.4105-77.852 63.4837-76.7005Q62.5569-75.5489 62.5569-73.9252L62.5569-53.0388L60.4557-53.0388Q45.192-53.0388 34.0395-47.0327Q22.8869-41.0266 16.8534-28.5734Q10.8199-16.1203 10.8199 3.27203Q10.8199 5.15226 11.7729 6.24149Q12.7259 7.33072 14.1404 7.33072Q15.3075 7.33072 16.228 6.70187Q17.1486 6.07302 17.8777 4.43594Q21.3457-3.3504 27.0608-8.08772Q32.7758-12.825 41.0487-14.9527Q49.3215-17.0803 60.4557-17.0803L62.5569-17.0803L62.5569 3.4761Q62.5569 5.09898 63.4837 6.21485Q64.4105 7.33072 66.084 7.33072ZM66.9721 2.8765Q66.1479 2.8765 66.1479 1.9011L66.1479-19.271Q66.1479-20.6134 64.8056-20.6134L60.8973-20.6134Q42.758-20.6134 31.5851-15.1065Q20.4121-9.59962 15.6344 1.99178Q15.1957 3.01962 14.757 3.01962Q14.1055 3.01962 14.1055 2.23198Q14.1278-7.9359 16.1272-16.1961Q18.1266-24.4563 21.991-30.6782Q25.8555-36.9001 31.5067-41.0831Q37.158-45.266 44.51-47.3921Q51.8619-49.5182 60.8973-49.5182L64.8056-49.5182Q66.1479-49.5182 66.1479-50.848L66.1479-72.6192Q66.1479-73.494 67.0219-73.494Q67.4224-73.494 67.7036-73.2747Q67.9849-73.0553 68.3231-72.8301L105.862-37.771Q107.368-36.365 107.368-35.2606Q107.368-34.6831 107.054-34.106Q106.741-33.5289 105.862-32.7503L68.2724 2.21262Q67.4963 2.8765 66.9721 2.8765Z"/>
  </g>
  <g id="Ultralight-M" transform="matrix(1 0 0 1 500.839 1126)">
   <path d="M65.2032 6.69311Q66.2675 6.69311 67.0841 6.2237Q67.9007 5.75429 68.5938 5.061L106.79-30.3359Q108.655-32.1393 109.154-33.2007Q109.653-34.262 109.653-35.2606Q109.653-36.2592 109.185-37.3211Q108.717-38.3829 106.79-40.1853L68.5938-75.642Q67.8989-76.2747 67.053-76.7445Q66.207-77.2144 65.203-77.2144Q63.7614-77.2144 63.0374-76.2426Q62.3134-75.2708 62.3134-73.8904L62.3134-52.297L60.0151-52.297Q45.4123-52.297 34.2597-46.6155Q23.1072-40.9339 16.8534-28.6836Q10.5997-16.4332 10.5997 3.36473Q10.5997 4.87416 11.3846 5.78364Q12.1695 6.69311 13.4218 6.69311Q14.4844 6.69311 15.2079 6.07011Q15.9314 5.4471 16.4983 4.00711Q19.746-3.7214 25.5075-8.51665Q31.2689-13.3119 39.8257-15.5206Q48.3826-17.7294 60.0151-17.7294L62.3134-17.7294L62.3134 3.37171Q62.3134 4.75116 63.0374 5.72214Q63.7614 6.69311 65.2032 6.69311ZM65.5348 4.01246Q64.6643 4.01246 64.6643 2.95585L64.6643-18.8885Q64.6643-20.1382 63.4147-20.1382L60.2714-20.1382Q41.9004-20.1382 30.6868-14.6545Q19.4732-9.17078 14.5565 3.13923Q14.0597 4.31781 13.563 4.31781Q12.8188 4.31781 12.8188 3.44915Q12.7601-7.66929 14.9044-16.3757Q17.0486-25.0822 21.1217-31.4026Q25.1947-37.7231 31.014-41.8075Q36.8334-45.892 44.1853-47.8906Q51.5373-49.8892 60.2714-49.8892L63.4147-49.8892Q64.6643-49.8892 64.6643-51.1378L64.6643-73.6044Q64.6643-74.5373 65.5962-74.5373Q66.0315-74.5373 66.3417-74.2889Q66.6518-74.0405 67.0249-73.7922L105.375-38.2347Q107.171-36.5621 107.171-35.2606Q107.171-34.5787 106.799-33.8974Q106.428-33.216 105.375-32.2866L66.9625 3.26737Q66.0937 4.01246 65.5348 4.01246Z"/>
  </g>
  <g id="Black-S" transform="matrix(1 0 0 1 2883.69 696)">
   <path d="M52.6367 2.83203Q54.8828 2.83203 56.7139 1.95312Q58.5449 1.07422 60.6445-0.878906L91.4062-29.0527Q92.6758-30.2246 93.3594-31.958Q94.043-33.6914 94.043-35.2051Q94.043-36.8652 93.3838-38.501Q92.7246-40.1367 91.4551-41.3086L60.6445-69.5312Q58.3984-71.582 56.5674-72.4121Q54.7363-73.2422 52.6367-73.2422Q49.1211-73.2422 46.7285-70.8496Q44.3359-68.457 44.3359-64.9414L44.3359-54.8828L44.1406-54.8828Q33.4473-54.8828 25.6104-50.3418Q17.7734-45.8008 13.5254-36.9873Q9.27734-28.1738 9.27734-15.4297Q9.27734-6.73828 11.377-2.44141Q13.4766 1.85547 17.627 1.85547Q20.4102 1.85547 22.4121 0.463867Q24.4141-0.927734 26.0742-4.19922Q27.5391-6.78711 29.7852-9.30176Q32.0312-11.8164 35.5225-13.4766Q39.0137-15.1367 44.1406-15.1367L44.3359-15.1367L44.3359-5.46875Q44.3359-1.95312 46.7285 0.439453Q49.1211 2.83203 52.6367 2.83203ZM56.0547-14.3555Q55.3223-14.3555 55.3223-15.1855L55.3223-26.416Q55.3223-27.5879 54.1504-27.5879L50.3906-27.5879Q39.2578-27.5879 32.1777-25.3174Q25.0977-23.0469 21.3379-16.0645Q21.1914-15.7715 20.9961-15.7715Q20.752-15.7715 20.752-16.0645Q20.752-21.7773 22.1191-26.1719Q23.4863-30.5664 26.0742-33.7158Q28.6621-36.8652 32.3242-38.8916Q35.9863-40.918 40.5273-41.8701Q45.0684-42.8223 50.3906-42.8223L54.1504-42.8223Q55.3223-42.8223 55.3223-43.9941L55.3223-55.1758Q55.3223-55.957 56.0547-55.957Q56.2012-55.957 56.3477-55.9082Q56.4941-55.8594 56.6406-55.7617L77.832-35.8887Q78.2227-35.498 78.2227-35.2051Q78.2227-35.0586 78.1494-34.9121Q78.0762-34.7656 77.832-34.5215L56.6406-14.6484Q56.3477-14.3555 56.0547-14.3555Z"/>
  </g>
  <g id="Heavy-S" transform="matrix(1 0 0 1 2587.14 696)">
   <path d="M53.1438 2.23276Q55.217 2.23276 56.9386 1.40571Q58.6602 0.578667 60.6215-1.24769L91.268-29.5368Q92.4799-30.6625 93.1001-32.2461Q93.7203-33.8297 93.7203-35.2166Q93.7203-36.7269 93.1187-38.2359Q92.5172-39.7449 91.3053-40.8707L60.6215-69.1164Q58.5022-71.0634 56.8152-71.8647Q55.1282-72.666 53.1668-72.666Q49.9624-72.666 47.8003-70.4808Q45.6382-68.2957 45.6382-65.1143L45.6382-54.1337L45.2585-54.1337Q33.7354-54.1337 25.6853-49.2931Q17.6351-44.4524 13.4505-35.2529Q9.26582-26.0533 9.26582-13.0556Q9.26582-5.77023 11.181-2.14177Q13.0963 1.48669 16.6589 1.48669Q19.0848 1.48669 20.9427 0.302525Q22.8006-0.881637 24.334-3.84196Q26.2714-7.30571 29.0073-10.0566Q31.7431-12.8075 35.7126-14.4043Q39.6821-16.0011 45.2585-16.0011L45.6382-16.0011L45.6382-5.24979Q45.6382-2.06837 47.8003 0.0821947Q49.9624 2.23276 53.1438 2.23276ZM56.3658-13.1454Q55.691-13.1454 55.691-13.8948L55.691-25.8513Q55.691-27.0693 54.4731-27.0693L50.2639-27.0693Q38.5894-27.0693 31.1463-24.2975Q23.7032-21.5256 20.0587-14.6239Q19.9122-14.3309 19.7284-14.3309Q19.4958-14.3309 19.4958-14.6354Q19.5649-20.1178 20.863-24.6449Q22.161-29.1719 24.6855-32.6498Q27.21-36.1277 30.9182-38.5286Q34.6264-40.9295 39.4556-42.1525Q44.2847-43.3754 50.2639-43.3754L54.4731-43.3754Q55.691-43.3754 55.691-44.5819L55.691-56.5933Q55.691-57.3054 56.3658-57.3054Q56.5239-57.3054 56.6646-57.2508Q56.8053-57.1962 56.9518-57.0986L79.4339-35.831Q79.7785-35.4865 79.7785-35.2166Q79.7785-35.0816 79.711-34.9467Q79.6435-34.8117 79.4339-34.6022L56.9518-13.4268Q56.6588-13.1454 56.3658-13.1454Z"/>
  </g>
  <g id="Bold-S" transform="matrix(1 0 0 1 2290.6 696)">
   <path d="M53.7109 1.5625Q55.5908 1.5625 57.1899 0.793457Q58.7891 0.0244141 60.5957-1.66016L91.1133-30.0781Q92.2607-31.1523 92.8101-32.5684Q93.3594-33.9844 93.3594-35.2295Q93.3594-36.5723 92.8223-37.9395Q92.2852-39.3066 91.1377-40.3809L60.5957-68.6523Q58.6182-70.4834 57.0923-71.2524Q55.5664-72.0215 53.7598-72.0215Q50.9033-72.0215 48.999-70.0684Q47.0947-68.1152 47.0947-65.3076L47.0947-53.2959L46.5088-53.2959Q34.0576-53.2959 25.769-48.1201Q17.4805-42.9443 13.3667-33.313Q9.25293-23.6816 9.25293-10.4004Q9.25293-4.6875 10.9619-1.80664Q12.6709 1.07422 15.5762 1.07422Q17.6025 1.07422 19.2993 0.12207Q20.9961-0.830078 22.3877-3.44238Q24.8535-7.88574 28.1372-10.9009Q31.4209-13.916 35.9253-15.4419Q40.4297-16.9678 46.5088-16.9678L47.0947-16.9678L47.0947-5.00488Q47.0947-2.19727 48.999-0.317383Q50.9033 1.5625 53.7109 1.5625ZM56.7139-11.792Q56.1035-11.792 56.1035-12.4512L56.1035-25.2197Q56.1035-26.4893 54.834-26.4893L50.1221-26.4893Q37.8418-26.4893 29.9927-23.1567Q22.1436-19.8242 18.6279-13.0127Q18.4814-12.7197 18.3105-12.7197Q18.0908-12.7197 18.0908-13.0371Q18.2373-18.2617 19.458-22.937Q20.6787-27.6123 23.1323-31.4575Q25.5859-35.3027 29.3457-38.1226Q33.1055-40.9424 38.2568-42.4683Q43.4082-43.9941 50.1221-43.9941L54.834-43.9941Q56.1035-43.9941 56.1035-45.2393L56.1035-58.1787Q56.1035-58.8135 56.7139-58.8135Q56.8848-58.8135 57.019-58.7524Q57.1533-58.6914 57.2998-58.5938L81.2256-35.7666Q81.5186-35.4736 81.5186-35.2295Q81.5186-35.1074 81.4575-34.9854Q81.3965-34.8633 81.2256-34.6924L57.2998-12.0605Q57.0068-11.792 56.7139-11.792Z"/>
  </g>
  <g id="Semibold-S" transform="matrix(1 0 0 1 1994.01 696)">
   <path d="M54.102 1.10039Q55.8485 1.10039 57.3632 0.371338Q58.8779-0.357715 60.5779-1.94453L91.0066-30.4514Q92.1097-31.49 92.6101-32.7905Q93.1105-34.091 93.1105-35.2384Q93.1105-36.4656 92.6179-37.7351Q92.1252-39.0045 91.0222-40.0432L60.5779-68.3324Q58.6981-70.0835 57.2833-70.8303Q55.8686-71.5771 54.1686-71.5771Q51.5521-71.5771 49.8255-69.784Q48.0989-67.9908 48.0989-65.4409L48.0989-52.7183L47.3708-52.7183Q34.2798-52.7183 25.8268-47.3114Q17.3738-41.9046 13.3089-31.9755Q9.24404-22.0465 9.24404-8.56973Q9.24404-3.94102 10.8108-1.57559Q12.3776 0.789844 14.8297 0.789844Q16.5806 0.789844 18.1663-0.00234375Q19.752-0.794531 21.0458-3.16689Q23.876-8.28564 27.5374-11.483Q31.1987-14.6803 36.0719-16.1573Q40.9451-17.6343 47.3708-17.6343L48.0989-17.6343L48.0989-4.83604Q48.0989-2.28613 49.8255-0.592871Q51.5521 1.10039 54.102 1.10039ZM56.9538-10.8589Q56.3879-10.8589 56.3879-11.4559L56.3879-24.7843Q56.3879-26.0894 55.0828-26.0894L50.0243-26.0894Q37.3264-26.0894 29.1973-22.3703Q21.0683-18.6512 17.6415-11.9019Q17.495-11.6089 17.333-11.6089Q17.1222-11.6089 17.1222-11.9352Q17.322-16.982 18.4894-21.7595Q19.6567-26.537 22.0615-30.6355Q24.4662-34.734 28.2615-37.8426Q32.0568-40.9513 37.4304-42.686Q42.8039-44.4207 50.0243-44.4207L55.0828-44.4207Q56.3879-44.4207 56.3879-45.6925L56.3879-59.2718Q56.3879-59.8532 56.9538-59.8532Q57.1336-59.8532 57.2634-59.7877Q57.3933-59.7223 57.5397-59.6246L82.4608-35.7222Q82.7183-35.4647 82.7183-35.2384Q82.7183-35.1252 82.6617-35.012Q82.6051-34.8988 82.4608-34.7546L57.5397-11.1186Q57.2468-10.8589 56.9538-10.8589Z"/>
  </g>
  <g id="Medium-S" transform="matrix(1 0 0 1 1697.39 696)">
   <path d="M54.3984 0.75Q56.0439 0.75 57.4946 0.0512695Q58.9453-0.647461 60.5645-2.16016L90.9258-30.7344Q91.9951-31.7461 92.4585-32.959Q92.9219-34.1719 92.9219-35.2451Q92.9219-36.3848 92.4629-37.5801Q92.0039-38.7754 90.9346-39.7871L60.5645-68.0898Q58.7588-69.7803 57.4282-70.5103Q56.0977-71.2402 54.4785-71.2402Q52.0439-71.2402 50.4521-69.5684Q48.8604-67.8965 48.8604-65.542L48.8604-52.2803L48.0244-52.2803Q34.4482-52.2803 25.8706-46.6982Q17.293-41.1162 13.2651-30.9614Q9.2373-20.8066 9.2373-7.18164Q9.2373-3.375 10.6963-1.40039Q12.1553 0.574219 14.2637 0.574219Q15.8057 0.574219 17.3071-0.0966797Q18.8086-0.767578 20.0283-2.95801Q23.1348-8.58887 27.0825-11.9243Q31.0303-15.2598 36.1831-16.6997Q41.3359-18.1396 48.0244-18.1396L48.8604-18.1396L48.8604-4.70801Q48.8604-2.35352 50.4521-0.801758Q52.0439 0.75 54.3984 0.75ZM57.1357-10.1514Q56.6035-10.1514 56.6035-10.7012L56.6035-24.4541Q56.6035-25.7861 55.2715-25.7861L49.9502-25.7861Q36.9355-25.7861 28.5942-21.7739Q20.2529-17.7617 16.8936-11.0596Q16.7471-10.7666 16.5918-10.7666Q16.3877-10.7666 16.3877-11.0996Q16.6279-16.0117 17.7549-20.8667Q18.8818-25.7217 21.2495-30.0122Q23.6172-34.3027 27.4395-37.6304Q31.2617-40.958 36.8037-42.8511Q42.3457-44.7441 49.9502-44.7441L55.2715-44.7441Q56.6035-44.7441 56.6035-46.0361L56.6035-60.1006Q56.6035-60.6416 57.1357-60.6416Q57.3223-60.6416 57.4487-60.5728Q57.5752-60.5039 57.7217-60.4062L83.3975-35.6885Q83.6279-35.458 83.6279-35.2451Q83.6279-35.1387 83.5747-35.0322Q83.5215-34.9258 83.3975-34.8018L57.7217-10.4043Q57.4287-10.1514 57.1357-10.1514Z"/>
  </g>
  <g id="Regular-S" transform="matrix(1 0 0 1 1400.8 696)">
   <path d="M54.7852 0.292969Q56.2988 0.292969 57.666-0.366211Q59.0332-1.02539 60.5469-2.44141L90.8203-31.1035Q91.8457-32.0801 92.2607-33.1787Q92.6758-34.2773 92.6758-35.2539Q92.6758-36.2793 92.2607-37.3779Q91.8457-38.4766 90.8203-39.4531L60.5469-67.7734Q58.8379-69.3848 57.6172-70.0928Q56.3965-70.8008 54.8828-70.8008Q52.6855-70.8008 51.2695-69.2871Q49.8535-67.7734 49.8535-65.6738L49.8535-51.709L48.877-51.709Q34.668-51.709 25.9277-45.8984Q17.1875-40.0879 13.208-29.6387Q9.22852-19.1895 9.22852-5.37109Q9.22852-2.63672 10.5469-1.17188Q11.8652 0.292969 13.5254 0.292969Q14.7949 0.292969 16.1865-0.219727Q17.5781-0.732422 18.7012-2.68555Q22.168-8.98438 26.4893-12.5Q30.8105-16.0156 36.3281-17.4072Q41.8457-18.7988 48.877-18.7988L49.8535-18.7988L49.8535-4.54102Q49.8535-2.44141 51.2695-1.07422Q52.6855 0.292969 54.7852 0.292969ZM57.373-9.22852Q56.8848-9.22852 56.8848-9.7168L56.8848-24.0234Q56.8848-25.3906 55.5176-25.3906L49.8535-25.3906Q36.4258-25.3906 27.8076-20.9961Q19.1895-16.6016 15.918-9.96094Q15.7715-9.66797 15.625-9.66797Q15.4297-9.66797 15.4297-10.0098Q15.7227-14.7461 16.7969-19.7021Q17.8711-24.6582 20.1904-29.1992Q22.5098-33.7402 26.3672-37.3535Q30.2246-40.9668 35.9863-43.0664Q41.748-45.166 49.8535-45.166L55.5176-45.166Q56.8848-45.166 56.8848-46.4844L56.8848-61.1816Q56.8848-61.6699 57.373-61.6699Q57.5684-61.6699 57.6904-61.5967Q57.8125-61.5234 57.959-61.4258L84.6191-35.6445Q84.8145-35.4492 84.8145-35.2539Q84.8145-35.1562 84.7656-35.0586Q84.7168-34.9609 84.6191-34.8633L57.959-9.47266Q57.666-9.22852 57.373-9.22852Z"/>
  </g>
  <g id="Light-S" transform="matrix(1 0 0 1 1104.99 696)">
   <path d="M53.6349-0.539653Q54.9365-0.539653 56.0767-1.10792Q57.2169-1.67618 58.4277-2.81982L88.5953-31.1943Q89.7568-32.3072 90.1643-33.3225Q90.5718-34.3379 90.5718-35.2539Q90.5718-36.2035 90.1719-37.219Q89.772-38.2345 88.5953-39.3471L58.4277-67.5011Q57.0821-68.7642 56.0355-69.3662Q54.9889-69.9682 53.702-69.9682Q51.8379-69.9682 50.6868-68.6892Q49.5356-67.4103 49.5356-65.6283L49.5356-50.7403L48.3017-50.7403Q34.9556-50.7403 26.2154-45.3536Q17.4751-39.9668 13.208-29.7825Q8.94089-19.5981 8.94089-5.25004Q8.94089-2.99988 10.0398-1.76977Q11.1387-0.539653 12.587-0.539653Q13.7202-0.539653 14.8544-1.04472Q15.9887-1.54978 16.8999-3.24554Q20.079-9.46884 24.4609-13.0601Q28.8427-16.6514 34.7312-18.1489Q40.6197-19.6465 48.3017-19.6465L49.5356-19.6465L49.5356-4.67733Q49.5356-2.89561 50.6868-1.71763Q51.8379-0.539653 53.6349-0.539653ZM55.4962-7.74511Q54.9474-7.74511 54.9474-8.33944L54.9474-23.524Q54.9474-24.7701 53.7013-24.7701L49.0362-24.7701Q35.3058-24.7701 26.6346-20.4058Q17.9634-16.0416 14.5103-8.46252Q14.2881-7.97272 14.0658-7.97272Q13.7494-7.97272 13.7494-8.42031Q13.9366-14.3979 15.2-19.9368Q16.4635-25.4756 19.0552-30.1453Q21.6469-34.815 25.7238-38.2996Q29.8007-41.7842 35.5624-43.7173Q41.3241-45.6505 49.0362-45.6505L53.7013-45.6505Q54.9474-45.6505 54.9474-46.8628L54.9474-62.4682Q54.9474-63.0323 55.5112-63.0323Q55.7521-63.0323 55.9119-62.9211Q56.0717-62.81 56.2637-62.6821L83.9834-36.2501Q84.5571-35.7066 84.5571-35.2539Q84.5571-35.0199 84.4326-34.7861Q84.3081-34.5523 83.9834-34.2578L56.2485-8.0953Q55.8345-7.74511 55.4962-7.74511Z"/>
  </g>
  <g id="Thin-S" transform="matrix(1 0 0 1 809.484 696)">
   <path d="M52.1136-1.64086Q53.1346-1.64086 53.9747-2.08888Q54.8147-2.5369 55.6249-3.32031L85.6526-31.3144Q86.994-32.6075 87.3916-33.5127Q87.7892-34.4179 87.7892-35.2539Q87.7892-36.1033 87.4093-37.0088Q87.0294-37.9143 85.6526-39.2068L55.6249-67.1408Q54.76-67.9435 53.9436-68.4052Q53.1272-68.867 52.1404-68.867Q50.7169-68.867 49.916-67.8985Q49.1152-66.93 49.1152-65.5681L49.1152-49.4591L47.5409-49.4591Q35.336-49.4591 26.5958-44.6329Q17.8555-39.8067 13.208-29.9727Q8.56048-20.1386 8.56048-5.08994Q8.56048-3.48019 9.36909-2.56052Q10.1777-1.64086 11.3458-1.64086Q12.2988-1.64086 13.0926-2.13584Q13.8865-2.63081 14.5175-3.98619Q17.3163-10.1096 21.7781-13.8009Q26.24-17.4923 32.6191-19.1299Q38.9981-20.7675 47.5409-20.7675L49.1152-20.7675L49.1152-4.85761Q49.1152-3.49633 49.916-2.5686Q50.7169-1.64086 52.1136-1.64086ZM53.014-5.78318Q52.3851-5.78318 52.3851-6.51777L52.3851-22.8634Q52.3851-23.9494 51.2991-23.9494L47.9551-23.9494Q33.8245-23.9494 25.0832-19.6252Q16.3419-15.3009 12.6487-6.48075Q12.3261-5.73061 12.0036-5.73061Q11.5272-5.73061 11.5272-6.31812Q11.5744-13.9375 13.0881-20.247Q14.6018-26.5566 17.5537-31.3965Q20.5056-36.2364 24.8728-39.5508Q29.24-42.8652 35.0017-44.5782Q40.7634-46.2912 47.9551-46.2912L51.2991-46.2912Q52.3851-46.2912 52.3851-47.3633L52.3851-64.1698Q52.3851-64.8341 53.0488-64.8341Q53.3498-64.8341 53.5596-64.6729Q53.7694-64.5116 54.0216-64.3437L83.1425-37.0509Q84.2167-36.047 84.2167-35.2539Q84.2167-34.8397 83.9922-34.4257Q83.7676-34.0117 83.1425-33.4569L53.9862-6.27363Q53.4121-5.78318 53.014-5.78318Z"/>
  </g>
  <g id="Ultralight-S" transform="matrix(1 0 0 1 513.388 696)">
   <path d="M51.3344-2.2049Q52.2118-2.2049 52.898-2.59132Q53.5843-2.97775 54.1893-3.57666L84.1454-31.3759Q85.5789-32.7614 85.9715-33.6102Q86.364-34.4589 86.364-35.2539Q86.364-36.0519 85.9943-36.9011Q85.6247-37.7502 84.1454-39.135L54.1893-66.9563Q53.5706-67.5232 52.8721-67.9131Q52.1736-68.3029 51.3405-68.3029Q50.1427-68.3029 49.5213-67.4934Q48.8998-66.684 48.8998-65.5373L48.8998-48.8029L47.1512-48.8029Q35.5309-48.8029 26.7906-44.2638Q18.0504-39.7247 13.208-30.0701Q8.36563-20.4155 8.36563-5.00793Q8.36563-3.7262 9.02557-2.96555Q9.68552-2.2049 10.7101-2.2049Q11.5707-2.2049 12.1902-2.6947Q12.8098-3.18451 13.2973-4.36554Q15.9012-10.4378 20.4041-14.1804Q24.9069-17.923 31.5372-19.6323Q38.1676-21.3417 47.1512-21.3417L48.8998-21.3417L48.8998-4.94995Q48.8998-3.80402 49.5213-3.00446Q50.1427-2.2049 51.3344-2.2049ZM51.7426-4.77829Q51.0727-4.77829 51.0727-5.58472L51.0727-22.525Q51.0727-23.5291 50.0687-23.5291L47.4014-23.5291Q33.0658-23.5291 24.2886-19.2253Q15.5113-14.9216 11.6951-5.4657Q11.3213-4.58221 10.9474-4.58221Q10.3889-4.58221 10.3889-5.24139Q10.3645-13.7016 12.0064-20.406Q13.6482-27.1103 16.7847-32.0374Q19.9211-36.9644 24.437-40.1917Q28.9528-43.4189 34.7145-45.0191Q40.4762-46.6194 47.4014-46.6194L50.0687-46.6194Q51.0727-46.6194 51.0727-47.6196L51.0727-65.0414Q51.0727-65.757 51.7876-65.757Q52.1194-65.757 52.3548-65.5701Q52.5902-65.3831 52.8732-65.1947L82.7118-37.4611Q84.0424-36.2213 84.0424-35.2539Q84.0424-34.7473 83.7666-34.2411Q83.4908-33.7349 82.7118-33.0467L52.8275-5.34058Q52.1713-4.77829 51.7426-4.77829Z"/>
  </g>
 </g>
</svg>
