<?xml version="1.0" encoding="UTF-8"?>
<!--Generator: Apple Native CoreSVG 175-->
<!DOCTYPE svg
PUBLIC "-//W3C//DTD SVG 1.1//EN"
       "http://www.w3.org/Graphics/SVG/1.1/DTD/svg11.dtd">
<svg version="1.1" xmlns="http://www.w3.org/2000/svg" xmlns:xlink="http://www.w3.org/1999/xlink" width="3300" height="2200">
 <!--glyph: "uni100AD7.medium", point size: 100.0, font version: "17.1d1e1", template writer version: "65.1"-->
 <g id="Notes">
  <rect height="2200" id="artboard" style="fill:white;opacity:1" width="3300" x="0" y="0"/>
  <line style="fill:none;stroke:black;opacity:1;stroke-width:0.5;" x1="263" x2="3036" y1="292" y2="292"/>
  <text style="stroke:none;fill:black;font-family:sans-serif;font-size:13;font-weight:bold;" transform="matrix(1 0 0 1 263 322)">Weight/Scale Variations</text>
  <text style="stroke:none;fill:black;font-family:sans-serif;font-size:13;text-anchor:middle;" transform="matrix(1 0 0 1 559.711 322)">Ultralight</text>
  <text style="stroke:none;fill:black;font-family:sans-serif;font-size:13;text-anchor:middle;" transform="matrix(1 0 0 1 856.422 322)">Thin</text>
  <text style="stroke:none;fill:black;font-family:sans-serif;font-size:13;text-anchor:middle;" transform="matrix(1 0 0 1 1153.13 322)">Light</text>
  <text style="stroke:none;fill:black;font-family:sans-serif;font-size:13;text-anchor:middle;" transform="matrix(1 0 0 1 1449.84 322)">Regular</text>
  <text style="stroke:none;fill:black;font-family:sans-serif;font-size:13;text-anchor:middle;" transform="matrix(1 0 0 1 1746.56 322)">Medium</text>
  <text style="stroke:none;fill:black;font-family:sans-serif;font-size:13;text-anchor:middle;" transform="matrix(1 0 0 1 2043.27 322)">Semibold</text>
  <text style="stroke:none;fill:black;font-family:sans-serif;font-size:13;text-anchor:middle;" transform="matrix(1 0 0 1 2339.98 322)">Bold</text>
  <text style="stroke:none;fill:black;font-family:sans-serif;font-size:13;text-anchor:middle;" transform="matrix(1 0 0 1 2636.69 322)">Heavy</text>
  <text style="stroke:none;fill:black;font-family:sans-serif;font-size:13;text-anchor:middle;" transform="matrix(1 0 0 1 2933.4 322)">Black</text>
  <line style="fill:none;stroke:black;opacity:1;stroke-width:0.5;" x1="263" x2="3036" y1="1903" y2="1903"/>
  <g transform="matrix(1 0 0 1 263 1933)">
   <path d="M9.24805 0.830078Q10.8691 0.830078 12.2949 0.214844Q13.7207-0.400391 14.8096-1.49414Q15.8984-2.58789 16.5186-4.01367Q17.1387-5.43945 17.1387-7.05078Q17.1387-8.66211 16.5186-10.0879Q15.8984-11.5137 14.8047-12.6074Q13.7109-13.7012 12.2852-14.3164Q10.8594-14.9316 9.23828-14.9316Q7.62695-14.9316 6.20117-14.3164Q4.77539-13.7012 3.69141-12.6074Q2.60742-11.5137 1.9873-10.0879Q1.36719-8.66211 1.36719-7.05078Q1.36719-5.43945 1.9873-4.01367Q2.60742-2.58789 3.69629-1.49414Q4.78516-0.400391 6.21094 0.214844Q7.63672 0.830078 9.24805 0.830078ZM9.24805-0.654297Q7.91992-0.654297 6.7627-1.14746Q5.60547-1.64062 4.73145-2.51953Q3.85742-3.39844 3.36426-4.56055Q2.87109-5.72266 2.87109-7.05078Q2.87109-8.37891 3.35938-9.54102Q3.84766-10.7031 4.72168-11.582Q5.5957-12.4609 6.75293-12.9541Q7.91016-13.4473 9.23828-13.4473Q10.5762-13.4473 11.7334-12.9541Q12.8906-12.4609 13.7695-11.582Q14.6484-10.7031 15.1465-9.54102Q15.6445-8.37891 15.6445-7.05078Q15.6445-5.72266 15.1514-4.56055Q14.6582-3.39844 13.7842-2.51953Q12.9102-1.64062 11.748-1.14746Q10.5859-0.654297 9.24805-0.654297ZM5.6543-7.05078Q5.6543-6.72852 5.85938-6.52832Q6.06445-6.32812 6.40625-6.32812L8.51562-6.32812L8.51562-4.20898Q8.51562-3.88672 8.71094-3.67676Q8.90625-3.4668 9.23828-3.4668Q9.56055-3.4668 9.77051-3.67676Q9.98047-3.88672 9.98047-4.20898L9.98047-6.32812L12.0898-6.32812Q12.4219-6.32812 12.627-6.52832Q12.832-6.72852 12.832-7.05078Q12.832-7.38281 12.627-7.58789Q12.4219-7.79297 12.0898-7.79297L9.98047-7.79297L9.98047-9.90234Q9.98047-10.2344 9.77051-10.4443Q9.56055-10.6543 9.23828-10.6543Q8.90625-10.6543 8.71094-10.4443Q8.51562-10.2344 8.51562-9.90234L8.51562-7.79297L6.40625-7.79297Q6.06445-7.79297 5.85938-7.58789Q5.6543-7.38281 5.6543-7.05078Z"/>
  </g>
  <g transform="matrix(1 0 0 1 281.867 1933)">
   <path d="M11.709 2.91016Q13.75 2.91016 15.5518 2.12891Q17.3535 1.34766 18.7305-0.0292969Q20.1074-1.40625 20.8887-3.20801Q21.6699-5.00977 21.6699-7.05078Q21.6699-9.0918 20.8887-10.8936Q20.1074-12.6953 18.7305-14.0723Q17.3535-15.4492 15.5469-16.2305Q13.7402-17.0117 11.6992-17.0117Q9.6582-17.0117 7.85645-16.2305Q6.05469-15.4492 4.68262-14.0723Q3.31055-12.6953 2.5293-10.8936Q1.74805-9.0918 1.74805-7.05078Q1.74805-5.00977 2.5293-3.20801Q3.31055-1.40625 4.6875-0.0292969Q6.06445 1.34766 7.86621 2.12891Q9.66797 2.91016 11.709 2.91016ZM11.709 1.25Q9.98047 1.25 8.47656 0.605469Q6.97266-0.0390625 5.83496-1.17676Q4.69727-2.31445 4.05762-3.81836Q3.41797-5.32227 3.41797-7.05078Q3.41797-8.7793 4.05762-10.2832Q4.69727-11.7871 5.83008-12.9297Q6.96289-14.0723 8.4668-14.7119Q9.9707-15.3516 11.6992-15.3516Q13.4277-15.3516 14.9316-14.7119Q16.4355-14.0723 17.5781-12.9297Q18.7207-11.7871 19.3652-10.2832Q20.0098-8.7793 20.0098-7.05078Q20.0098-5.32227 19.3701-3.81836Q18.7305-2.31445 17.5928-1.17676Q16.4551-0.0390625 14.9463 0.605469Q13.4375 1.25 11.709 1.25ZM7.17773-7.05078Q7.17773-6.69922 7.41211-6.47461Q7.64648-6.25 8.01758-6.25L10.8887-6.25L10.8887-3.36914Q10.8887-2.99805 11.1133-2.76855Q11.3379-2.53906 11.6895-2.53906Q12.0605-2.53906 12.29-2.76855Q12.5195-2.99805 12.5195-3.36914L12.5195-6.25L15.4004-6.25Q15.7715-6.25 16.001-6.47461Q16.2305-6.69922 16.2305-7.05078Q16.2305-7.42188 16.001-7.65137Q15.7715-7.88086 15.4004-7.88086L12.5195-7.88086L12.5195-10.752Q12.5195-11.1328 12.29-11.3623Q12.0605-11.5918 11.6895-11.5918Q11.3379-11.5918 11.1133-11.3574Q10.8887-11.123 10.8887-10.752L10.8887-7.88086L8.01758-7.88086Q7.63672-7.88086 7.40723-7.65137Q7.17773-7.42188 7.17773-7.05078Z"/>
  </g>
  <g transform="matrix(1 0 0 1 305.646 1933)">
   <path d="M14.9707 5.66406Q17.0605 5.66406 18.96 5.01465Q20.8594 4.36523 22.4512 3.19336Q24.043 2.02148 25.2197 0.429688Q26.3965-1.16211 27.0459-3.06641Q27.6953-4.9707 27.6953-7.05078Q27.6953-9.14062 27.0459-11.04Q26.3965-12.9395 25.2197-14.5312Q24.043-16.123 22.4512-17.2998Q20.8594-18.4766 18.9551-19.126Q17.0508-19.7754 14.9609-19.7754Q12.8711-19.7754 10.9717-19.126Q9.07227-18.4766 7.48535-17.2998Q5.89844-16.123 4.72168-14.5312Q3.54492-12.9395 2.90039-11.04Q2.25586-9.14062 2.25586-7.05078Q2.25586-4.9707 2.90527-3.06641Q3.55469-1.16211 4.72656 0.429688Q5.89844 2.02148 7.49023 3.19336Q9.08203 4.36523 10.9814 5.01465Q12.8809 5.66406 14.9707 5.66406ZM14.9707 3.84766Q13.1641 3.84766 11.5283 3.2959Q9.89258 2.74414 8.53516 1.74805Q7.17773 0.751953 6.17676-0.610352Q5.17578-1.97266 4.62891-3.6084Q4.08203-5.24414 4.08203-7.05078Q4.08203-8.86719 4.62891-10.5029Q5.17578-12.1387 6.17188-13.501Q7.16797-14.8633 8.52539-15.8594Q9.88281-16.8555 11.5186-17.4023Q13.1543-17.9492 14.9609-17.9492Q16.7773-17.9492 18.4131-17.4023Q20.0488-16.8555 21.4111-15.8594Q22.7734-14.8633 23.7695-13.501Q24.7656-12.1387 25.3174-10.5029Q25.8691-8.86719 25.8691-7.05078Q25.8789-5.24414 25.332-3.6084Q24.7852-1.97266 23.7842-0.610352Q22.7832 0.751953 21.4209 1.74805Q20.0586 2.74414 18.4229 3.2959Q16.7871 3.84766 14.9707 3.84766ZM9.19922-7.05078Q9.19922-6.66992 9.45801-6.4209Q9.7168-6.17188 10.1172-6.17188L14.0625-6.17188L14.0625-2.2168Q14.0625-1.81641 14.3115-1.55762Q14.5605-1.29883 14.9512-1.29883Q15.3516-1.29883 15.6104-1.55273Q15.8691-1.80664 15.8691-2.2168L15.8691-6.17188L19.8242-6.17188Q20.2246-6.17188 20.4785-6.4209Q20.7324-6.66992 20.7324-7.05078Q20.7324-7.46094 20.4785-7.71484Q20.2246-7.96875 19.8242-7.96875L15.8691-7.96875L15.8691-11.9141Q15.8691-12.3242 15.6104-12.583Q15.3516-12.8418 14.9512-12.8418Q14.5605-12.8418 14.3115-12.583Q14.0625-12.3242 14.0625-11.9141L14.0625-7.96875L10.1172-7.96875Q9.70703-7.96875 9.45312-7.71484Q9.19922-7.46094 9.19922-7.05078Z"/>
  </g>
  <text style="stroke:none;fill:black;font-family:sans-serif;font-size:13;font-weight:bold;" transform="matrix(1 0 0 1 263 1953)">Design Variations</text>
  <text style="stroke:none;fill:black;font-family:sans-serif;font-size:13;" transform="matrix(1 0 0 1 263 1971)">Symbols are supported in up to nine weights and three scales.</text>
  <text style="stroke:none;fill:black;font-family:sans-serif;font-size:13;" transform="matrix(1 0 0 1 263 1989)">For optimal layout with text and other symbols, vertically align</text>
  <text style="stroke:none;fill:black;font-family:sans-serif;font-size:13;" transform="matrix(1 0 0 1 263 2007)">symbols with the adjacent text.</text>
  <line style="fill:none;stroke:#00AEEF;stroke-width:0.5;opacity:1.0;" x1="776" x2="776" y1="1919" y2="1933"/>
  <g transform="matrix(1 0 0 1 776 1933)">
   <path d="M3.31055 0.15625Q3.70117 0.15625 3.91602-0.00976562Q4.13086-0.175781 4.26758-0.585938L5.52734-4.0332L11.2891-4.0332L12.5488-0.585938Q12.6855-0.175781 12.9004-0.00976562Q13.1152 0.15625 13.4961 0.15625Q13.8867 0.15625 14.1162-0.0585938Q14.3457-0.273438 14.3457-0.644531Q14.3457-0.869141 14.2383-1.17188L9.6582-13.3691Q9.48242-13.8184 9.17969-14.043Q8.87695-14.2676 8.4082-14.2676Q7.5-14.2676 7.17773-13.3789L2.59766-1.16211Q2.49023-0.859375 2.49023-0.634766Q2.49023-0.263672 2.70996-0.0537109Q2.92969 0.15625 3.31055 0.15625ZM6.00586-5.51758L8.37891-12.0898L8.42773-12.0898L10.8008-5.51758Z"/>
  </g>
  <line style="fill:none;stroke:#00AEEF;stroke-width:0.5;opacity:1.0;" x1="793.197" x2="793.197" y1="1919" y2="1933"/>
  <text style="stroke:none;fill:black;font-family:sans-serif;font-size:13;font-weight:bold;" transform="matrix(1 0 0 1 776 1953)">Margins</text>
  <text style="stroke:none;fill:black;font-family:sans-serif;font-size:13;" transform="matrix(1 0 0 1 776 1971)">Leading and trailing margins on the left and right side of each symbol</text>
  <text style="stroke:none;fill:black;font-family:sans-serif;font-size:13;" transform="matrix(1 0 0 1 776 1989)">can be adjusted by modifying the x-location of the margin guidelines.</text>
  <text style="stroke:none;fill:black;font-family:sans-serif;font-size:13;" transform="matrix(1 0 0 1 776 2007)">Modifications are automatically applied proportionally to all</text>
  <text style="stroke:none;fill:black;font-family:sans-serif;font-size:13;" transform="matrix(1 0 0 1 776 2025)">scales and weights.</text>
  <g transform="matrix(1 0 0 1 1289 1933)">
   <path d="M2.8418 1.86523L4.54102 3.57422Q5.18555 4.22852 5.90332 4.17969Q6.62109 4.13086 7.31445 3.35938L18.0078-8.42773L17.041-9.4043L6.42578 2.27539Q6.16211 2.57812 5.89355 2.61719Q5.625 2.65625 5.27344 2.30469L4.10156 1.14258Q3.75 0.791016 3.79395 0.522461Q3.83789 0.253906 4.14062-0.0195312L15.6152-10.8203L14.6387-11.7871L3.04688-0.898438Q2.30469-0.214844 2.25098 0.498047Q2.19727 1.21094 2.8418 1.86523ZM9.25781-16.3281Q8.94531-16.0254 8.90625-15.6348Q8.86719-15.2441 9.04297-14.9512Q9.21875-14.6777 9.55566-14.541Q9.89258-14.4043 10.3809-14.5215Q11.4746-14.7754 12.5977-14.7314Q13.7207-14.6875 14.7949-13.9844L14.209-12.5293Q13.9551-11.9043 14.0674-11.4404Q14.1797-10.9766 14.5801-10.5664L16.875-8.25195Q17.2363-7.88086 17.5781-7.82227Q17.9199-7.76367 18.3398-7.8418L19.4043-8.03711L20.0684-7.36328L20.0293-6.80664Q20-6.43555 20.1221-6.12305Q20.2441-5.81055 20.6055-5.44922L21.3672-4.70703Q21.7285-4.3457 22.1533-4.33105Q22.5781-4.31641 22.9297-4.66797L25.8398-7.58789Q26.1914-7.93945 26.1816-8.35449Q26.1719-8.76953 25.8105-9.13086L25.0391-9.89258Q24.6875-10.2539 24.3799-10.3857Q24.0723-10.5176 23.7109-10.4883L23.1348-10.4395L22.4902-11.0742L22.7344-12.1973Q22.832-12.6172 22.6953-12.9834Q22.5586-13.3496 22.1191-13.7891L19.9219-15.9766Q18.6719-17.2168 17.2607-17.8369Q15.8496-18.457 14.4189-18.4814Q12.9883-18.5059 11.665-17.959Q10.3418-17.4121 9.25781-16.3281ZM10.752-15.957Q11.6602-16.6211 12.7002-16.9043Q13.7402-17.1875 14.8047-17.085Q15.8691-16.9824 16.8701-16.5137Q17.8711-16.0449 18.7012-15.2051L21.1328-12.793Q21.3086-12.6172 21.3525-12.4512Q21.3965-12.2852 21.3379-12.0312L21.0156-10.5469L22.5195-9.0625L23.5059-9.12109Q23.6914-9.13086 23.7891-9.09668Q23.8867-9.0625 24.0332-8.91602L24.6094-8.33984L22.168-5.89844L21.5918-6.47461Q21.4453-6.62109 21.4062-6.71875Q21.3672-6.81641 21.377-7.01172L21.4453-7.98828L19.9512-9.47266L18.4277-9.21875Q18.1836-9.16992 18.042-9.2041Q17.9004-9.23828 17.7148-9.41406L15.7129-11.416Q15.5176-11.5918 15.4932-11.7529Q15.4688-11.9141 15.5859-12.1875L16.4648-14.2773Q15.293-15.3711 13.8281-15.791Q12.3633-16.2109 10.8398-15.7617Q10.7227-15.7324 10.6885-15.8057Q10.6543-15.8789 10.752-15.957Z"/>
  </g>
  <text style="stroke:none;fill:black;font-family:sans-serif;font-size:13;font-weight:bold;" transform="matrix(1 0 0 1 1289 1953)">Exporting</text>
  <text style="stroke:none;fill:black;font-family:sans-serif;font-size:13;" transform="matrix(1 0 0 1 1289 1971)">Symbols should be outlined when exporting to ensure the</text>
  <text style="stroke:none;fill:black;font-family:sans-serif;font-size:13;" transform="matrix(1 0 0 1 1289 1989)">design is preserved when submitting to Xcode.</text>
  <text id="template-version" style="stroke:none;fill:black;font-family:sans-serif;font-size:13;text-anchor:end;" transform="matrix(1 0 0 1 3036 1933)">Template v.3.0</text>
  <text style="stroke:none;fill:black;font-family:sans-serif;font-size:13;text-anchor:end;" transform="matrix(1 0 0 1 3036 1951)">Requires Xcode 13 or greater</text>
  <text id="descriptive-name" style="stroke:none;fill:black;font-family:sans-serif;font-size:13;text-anchor:end;" transform="matrix(1 0 0 1 3036 1969)">Generated from text.book.closed</text>
  <text style="stroke:none;fill:black;font-family:sans-serif;font-size:13;text-anchor:end;" transform="matrix(1 0 0 1 3036 1987)">Typeset at 100 points</text>
  <text style="stroke:none;fill:black;font-family:sans-serif;font-size:13;" transform="matrix(1 0 0 1 263 726)">Small</text>
  <text style="stroke:none;fill:black;font-family:sans-serif;font-size:13;" transform="matrix(1 0 0 1 263 1156)">Medium</text>
  <text style="stroke:none;fill:black;font-family:sans-serif;font-size:13;" transform="matrix(1 0 0 1 263 1586)">Large</text>
 </g>
 <g id="Guides">
  <g id="H-reference" style="fill:#27AAE1;stroke:none;" transform="matrix(1 0 0 1 339 696)">
   <path d="M0.993347 0L3.6377 0L29.3282-67.1326L30.0301-67.1326L30.0301-70.459L28.1227-70.459ZM11.6882-24.4797L46.9818-24.4797L46.2311-26.7288L12.4382-26.7288ZM55.1193 0L57.7637 0L30.6381-70.459L29.4327-70.459L29.4327-67.1326Z"/>
  </g>
  <line id="Baseline-S" style="fill:none;stroke:#27AAE1;opacity:1;stroke-width:0.5;" x1="263" x2="3036" y1="696" y2="696"/>
  <line id="Capline-S" style="fill:none;stroke:#27AAE1;opacity:1;stroke-width:0.5;" x1="263" x2="3036" y1="625.541" y2="625.541"/>
  <g id="H-reference" style="fill:#27AAE1;stroke:none;" transform="matrix(1 0 0 1 339 1126)">
   <path d="M0.993347 0L3.6377 0L29.3282-67.1326L30.0301-67.1326L30.0301-70.459L28.1227-70.459ZM11.6882-24.4797L46.9818-24.4797L46.2311-26.7288L12.4382-26.7288ZM55.1193 0L57.7637 0L30.6381-70.459L29.4327-70.459L29.4327-67.1326Z"/>
  </g>
  <line id="Baseline-M" style="fill:none;stroke:#27AAE1;opacity:1;stroke-width:0.5;" x1="263" x2="3036" y1="1126" y2="1126"/>
  <line id="Capline-M" style="fill:none;stroke:#27AAE1;opacity:1;stroke-width:0.5;" x1="263" x2="3036" y1="1055.54" y2="1055.54"/>
  <g id="H-reference" style="fill:#27AAE1;stroke:none;" transform="matrix(1 0 0 1 339 1556)">
   <path d="M0.993347 0L3.6377 0L29.3282-67.1326L30.0301-67.1326L30.0301-70.459L28.1227-70.459ZM11.6882-24.4797L46.9818-24.4797L46.2311-26.7288L12.4382-26.7288ZM55.1193 0L57.7637 0L30.6381-70.459L29.4327-70.459L29.4327-67.1326Z"/>
  </g>
  <line id="Baseline-L" style="fill:none;stroke:#27AAE1;opacity:1;stroke-width:0.5;" x1="263" x2="3036" y1="1556" y2="1556"/>
  <line id="Capline-L" style="fill:none;stroke:#27AAE1;opacity:1;stroke-width:0.5;" x1="263" x2="3036" y1="1485.54" y2="1485.54"/>
  <line id="left-margin-Regular-M" style="fill:none;stroke:#00AEEF;stroke-width:0.5;opacity:1.0;" x1="1396.32" x2="1396.32" y1="1030.79" y2="1150.12"/>
  <line id="right-margin-Regular-M" style="fill:none;stroke:#00AEEF;stroke-width:0.5;opacity:1.0;" x1="1503.37" x2="1503.37" y1="1030.79" y2="1150.12"/>
 </g>
 <g id="Symbols">
  <g id="Black-L" transform="matrix(1 0 0 1 2859.63 1556)">
   <path d="M65.7426-60.763L100.063-60.763Q102.383-60.763 104.028-62.4084Q105.674-64.0538 105.674-66.3736Q105.674-68.6725 104.028-70.3179Q102.383-71.9634 100.063-71.9634L65.7426-71.9634Q63.4228-71.9634 61.7774-70.3179Q60.132-68.6725 60.132-66.3736Q60.132-64.0538 61.7774-62.4084Q63.4228-60.763 65.7426-60.763ZM65.7426-42.5313L91.9386-42.5313Q94.2572-42.5313 95.9032-44.1773Q97.5492-45.8233 97.5492-48.1419Q97.5492-50.4408 95.9032-52.0868Q94.2572-53.7329 91.9386-53.7329L65.7426-53.7329Q63.4228-53.7329 61.7774-52.0868Q60.132-50.4408 60.132-48.1419Q60.132-45.8233 61.7774-44.1773Q63.4228-42.5313 65.7426-42.5313ZM39.7604 35.1919L122.928 35.1919Q126.697 35.1919 129.077 32.8213Q131.457 30.4507 131.457 26.6615Q131.457 23.002 129.361 20.9073Q127.264 18.8126 124.544 17.0279Q121.041 14.8959 119.617 10.7429Q118.193 6.5898 119.291 2.04437Q120.388-2.50106 124.467-5.69267Q128.575-8.79163 129.929-11.7221Q131.282-14.6525 131.282-19.641L131.282-81.8172Q131.282-93.164 125.091-99.3764Q118.9-105.589 107.573-105.589L39.7724-105.589Q28.4464-105.589 22.2652-99.3868Q16.084-93.1848 16.084-81.8172L16.084 11.4441Q16.084 22.7962 22.264 28.994Q28.444 35.1919 39.7604 35.1919ZM36.065-19.4931L36.065-79.0865Q36.065-82.3517 37.6236-83.9798Q39.1823-85.6078 42.6072-85.6078L104.738-85.6078Q108.221-85.6078 109.751-83.9798Q111.282-82.3517 111.282-79.0865L111.282-23.1177Q111.282-20.5001 108.506-20.5001L43.2462-20.5001Q41.3409-20.5001 39.5142-20.2283Q37.6875-19.9564 36.065-19.4931ZM44.8147 18.1312Q39.0047 18.1312 36.1623 14.9309Q33.3199 11.7307 33.3199 7.33247Q33.3199 3.00028 36.256-0.21958Q39.192-3.43944 45.0008-3.43944L102.427-3.43944Q102.735-3.43944 103.008-3.44363Q103.281-3.44782 103.563-3.455Q101.038 1.7441 100.99 7.47628Q100.942 13.2085 103.336 18.1312ZM43.3356-13.2466L54.5568-13.2466L54.5568-90.9328L43.3356-90.9328Z"/>
  </g>
  <g id="Heavy-L" transform="matrix(1 0 0 1 2564.08 1556)">
   <path d="M62.5703-61.2762L100.125-61.2762Q102.278-61.2762 103.803-62.8019Q105.329-64.3276 105.329-66.4803Q105.329-68.6027 103.803-70.1284Q102.278-71.6541 100.125-71.6541L62.5703-71.6541Q60.4178-71.6541 58.892-70.1284Q57.3663-68.6027 57.3663-66.4803Q57.3663-64.3276 58.892-62.8019Q60.4178-61.2762 62.5703-61.2762ZM62.5703-43.28L91.09-43.28Q93.237-43.28 94.7655-44.8086Q96.294-46.3371 96.294-48.4841Q96.294-50.6065 94.7655-52.1351Q93.237-53.6636 91.09-53.6636L62.5703-53.6636Q60.4178-53.6636 58.892-52.1351Q57.3663-50.6065 57.3663-48.4841Q57.3663-46.3371 58.892-44.8086Q60.4178-43.28 62.5703-43.28ZM38.6546 34.4872L121.495 34.4872Q124.831 34.4872 126.977 32.3526Q129.124 30.2181 129.124 26.8525Q129.124 23.6904 127.296 21.7976Q125.468 19.9047 123.072 18.4272Q119.442 16.3866 117.93 12.3531Q116.418 8.31961 117.465 3.80832Q118.513-0.702973 122.549-4.0849Q126.115-6.88399 127.552-9.756Q128.99-12.628 128.99-17.531L128.99-82.1372Q128.99-93.0802 123.121-98.9824Q117.252-104.885 106.333-104.885L38.7107-104.885Q27.7979-104.885 21.941-98.9975Q16.084-93.1104 16.084-82.1372L16.084 11.8519Q16.084 22.7522 21.9353 28.6197Q27.7867 34.4872 38.6546 34.4872ZM33.5844-15.6233L33.5844-80.0129Q33.5844-83.6593 35.3843-85.5218Q37.1843-87.3842 40.9858-87.3842L104.058-87.3842Q107.904-87.3842 109.685-85.5218Q111.465-83.6593 111.465-80.0129L111.465-20.4964Q111.465-17.055 107.874-17.055L41.5415-17.055Q39.3229-17.055 37.3178-16.677Q35.3127-16.2989 33.5844-15.6233ZM42.6254 19.2179Q37.0392 19.2179 34.2631 16.1731Q31.4871 13.1282 31.4871 8.68696Q31.4871 4.35298 34.399 1.28363Q37.3108-1.78573 42.8914-1.78573L102.121-1.78573Q102.54-1.78573 102.898-1.80539Q103.255-1.82505 103.616-1.85872Q101.124 3.31733 101.175 8.8961Q101.225 14.4749 103.725 19.2179ZM40.9085-10.3102L51.3166-10.3102L51.3166-92.0177L40.9085-92.0177Z"/>
  </g>
  <g id="Bold-L" transform="matrix(1 0 0 1 2268.79 1556)">
   <path d="M58.6363-62.0778L100.157-62.0778Q102.08-62.0778 103.441-63.4388Q104.802-64.7998 104.802-66.7227Q104.802-68.6075 103.441-69.9685Q102.08-71.3295 100.157-71.3295L58.6363-71.3295Q56.7136-71.3295 55.3525-69.9685Q53.9914-68.6075 53.9914-66.7227Q53.9914-64.7998 55.3525-63.4388Q56.7136-62.0778 58.6363-62.0778ZM58.6363-44.396L89.8435-44.396Q91.7533-44.396 93.1208-45.7637Q94.4884-47.1314 94.4884-49.0409Q94.4884-50.9257 93.1208-52.2934Q91.7533-53.6611 89.8435-53.6611L58.6363-53.6611Q56.7136-53.6611 55.3525-52.2934Q53.9914-50.9257 53.9914-49.0409Q53.9914-47.1314 55.3525-45.7637Q56.7136-44.396 58.6363-44.396ZM37.257 33.656L119.817 33.656Q122.615 33.656 124.455 31.8284Q126.294 30.0007 126.294 27.1651Q126.294 24.6103 124.801 22.9822Q123.307 21.354 121.318 20.2307Q117.512 18.2308 115.881 14.2949Q114.25 10.359 115.236 5.8565Q116.222 1.35396 120.227-2.28103Q123.191-4.76342 124.699-7.58476Q126.207-10.4061 126.207-15.1867L126.207-82.5888Q126.207-93.0025 120.73-98.5243Q115.253-104.046 104.864-104.046L37.3893-104.046Q27.0136-104.046 21.5488-98.5433Q16.084-93.0406 16.084-82.5888L16.084 12.4633Q16.084 22.7431 21.5356 28.1996Q26.9872 33.656 37.257 33.656ZM30.5258-10.8286L30.5258-81.143Q30.5258-85.288 32.6291-87.4461Q34.7324-89.6043 39.0249-89.6043L103.228-89.6043Q107.55-89.6043 109.645-87.4461Q111.741-85.288 111.741-81.143L111.741-17.5294Q111.741-12.8424 106.919-12.8424L39.4285-12.8424Q36.8032-12.8424 34.5865-12.3189Q32.3697-11.7953 30.5258-10.8286ZM40.0024 20.6744Q34.6183 20.6744 31.8858 17.7807Q29.1532 14.887 29.1532 10.3547Q29.1532 5.97589 32.0567 3.05752Q34.9601 0.139161 40.3311 0.139161L101.752 0.139161Q102.347 0.139161 102.845 0.0928147Q103.344 0.0464688 103.835-0.032886Q101.306 5.18695 101.506 10.6557Q101.705 16.1244 104.448 20.6744ZM37.9339-6.82469L47.2235-6.82469L47.2235-93.4294L37.9339-93.4294Z"/>
  </g>
  <g id="Semibold-L" transform="matrix(1 0 0 1 1973.05 1556)">
   <path d="M55.9242-62.6305L100.18-62.6305Q101.944-62.6305 103.191-63.8779Q104.439-65.1254 104.439-66.8899Q104.439-68.6108 103.191-69.8583Q101.944-71.1058 100.18-71.1058L55.9242-71.1058Q54.16-71.1058 52.9124-69.8583Q51.6648-68.6108 51.6648-66.8899Q51.6648-65.1254 52.9124-63.8779Q54.16-62.6305 55.9242-62.6305ZM55.9242-45.1654L88.9842-45.1654Q90.7304-45.1654 91.987-46.4222Q93.2436-47.6789 93.2436-49.4248Q93.2436-51.1458 91.987-52.4025Q90.7304-53.6593 88.9842-53.6593L55.9242-53.6593Q54.16-53.6593 52.9124-52.4025Q51.6648-51.1458 51.6648-49.4248Q51.6648-47.6789 52.9124-46.4222Q54.16-45.1654 55.9242-45.1654ZM36.2935 33.0831L118.66 33.0831Q121.087 33.0831 122.715 31.467Q124.344 29.8509 124.344 27.3807Q124.344 25.2446 123.081 23.7988Q121.817 22.3531 120.108 21.474Q116.181 19.5022 114.468 15.6336Q112.756 11.765 113.699 7.2685Q114.643 2.77199 118.626-1.03745Q121.175-3.30151 122.732-6.08792Q124.288-8.87434 124.288-13.5705L124.288-82.9001Q124.288-92.949 119.081-98.2084Q113.874-103.468 103.85-103.468L36.4783-103.468Q26.4729-103.468 21.2785-98.2302Q16.084-92.9925 16.084-82.9001L16.084 12.8848Q16.084 22.7368 21.26 27.9099Q26.436 33.0831 36.2935 33.0831ZM28.4171-7.52314L28.4171-81.922Q28.4171-86.4108 30.7296-88.7728Q33.0421-91.1347 37.673-91.1347L102.655-91.1347Q107.305-91.1347 109.618-88.7728Q111.93-86.4108 111.93-81.922L111.93-15.4839Q111.93-9.93833 106.261-9.93833L37.9718-9.93833Q35.0661-9.93833 32.7035-9.31443Q30.3408-8.69053 28.4171-7.52314ZM38.1941 21.6786Q32.9494 21.6786 30.2468 18.889Q27.5442 16.0995 27.5442 11.5045Q27.5442 7.09471 30.4419 4.28044Q33.3396 1.46617 38.5659 1.46617L101.497 1.46617Q102.213 1.46617 102.809 1.40142Q103.405 1.33668 103.985 1.22583Q101.432 6.47586 101.734 11.8687Q102.036 17.2615 104.946 21.6786ZM35.8832-4.42177L44.4017-4.42177L44.4017-94.4026L35.8832-94.4026Z"/>
  </g>
  <g id="Medium-L" transform="matrix(1 0 0 1 1677.08 1556)">
   <path d="M53.8677-63.0495L100.196-63.0495Q101.84-63.0495 103.002-64.2109Q104.163-65.3722 104.163-67.0166Q104.163-68.6134 103.002-69.7747Q101.84-70.9361 100.196-70.9361L53.8677-70.9361Q52.2237-70.9361 51.0622-69.7747Q49.9006-68.6134 49.9006-67.0166Q49.9006-65.3722 51.0622-64.2109Q52.2237-63.0495 53.8677-63.0495ZM53.8677-45.7488L88.3326-45.7488Q89.9548-45.7488 91.1273-46.9214Q92.2998-48.0941 92.2998-49.7159Q92.2998-51.3126 91.1273-52.4853Q89.9548-53.658 88.3326-53.658L53.8677-53.658Q52.2237-53.658 51.0622-52.4853Q49.9006-51.3126 49.9006-49.7159Q49.9006-48.0941 51.0622-46.9214Q52.2237-45.7488 53.8677-45.7488ZM35.563 32.6486L117.783 32.6486Q119.929 32.6486 121.397 31.1929Q122.865 29.7372 122.865 27.5441Q122.865 25.7255 121.776 24.418Q120.688 23.1106 119.192 22.4167Q115.172 20.4662 113.397 16.6486Q111.622 12.8311 112.534 8.33914Q113.445 3.84721 117.412-0.0945153Q119.647-2.19303 121.24-4.95296Q122.833-7.71289 122.833-12.3451L122.833-83.1362Q122.833-92.9084 117.831-97.9689Q112.829-103.03 103.082-103.03L35.7875-103.03Q26.063-103.03 21.0735-97.9928Q16.084-92.956 16.084-83.1362L16.084 13.2044Q16.084 22.7321 21.051 27.6903Q26.0181 32.6486 35.563 32.6486ZM26.8183-5.01682L26.8183-82.5128Q26.8183-87.2622 29.2894-89.7787Q31.7604-92.2952 36.648-92.2952L102.221-92.2952Q107.12-92.2952 109.597-89.7787Q112.074-87.2622 112.074-82.5128L112.074-13.9329Q112.074-7.73631 105.762-7.73631L36.8672-7.73631Q33.749-7.73631 31.2757-7.03634Q28.8025-6.33636 26.8183-5.01682ZM36.823 22.4399Q31.6839 22.4399 29.0041 19.7294Q26.3242 17.0189 26.3242 12.3763Q26.3242 7.94305 29.2175 5.2077Q32.1108 2.47236 37.2276 2.47236L101.304 2.47236Q102.112 2.47236 102.781 2.39367Q103.451 2.31498 104.099 2.18024Q101.527 7.45316 101.907 12.7885Q102.287 18.1238 105.324 22.4399ZM34.3283-2.59978L42.2622-2.59978L42.2622-95.1405L34.3283-95.1405Z"/>
  </g>
  <g id="Regular-L" transform="matrix(1 0 0 1 1381.33 1556)">
   <path d="M51.1854-63.5961L100.218-63.5961Q101.706-63.5961 102.755-64.6452Q103.804-65.6942 103.804-67.1819Q103.804-68.6167 102.755-69.6657Q101.706-70.7148 100.218-70.7148L51.1854-70.7148Q49.6982-70.7148 48.6489-69.6657Q47.5996-68.6167 47.5996-67.1819Q47.5996-65.6942 48.6489-64.6452Q49.6982-63.5961 51.1854-63.5961ZM51.1854-46.5097L87.4828-46.5097Q88.9431-46.5097 90.0059-47.5727Q91.0687-48.6357 91.0687-50.0955Q91.0687-51.5302 90.0059-52.5932Q88.9431-53.6563 87.4828-53.6563L51.1854-53.6563Q49.6982-53.6563 48.6489-52.5932Q47.5996-51.5302 47.5996-50.0955Q47.5996-48.6357 48.6489-47.5727Q49.6982-46.5097 51.1854-46.5097ZM34.6101 32.0819L116.638 32.0819Q118.418 32.0819 119.677 30.8355Q120.935 29.589 120.935 27.7573Q120.935 26.3527 120.075 25.2257Q119.214 24.0988 117.996 23.6464Q113.856 21.7236 112 17.9726Q110.144 14.2216 111.014 9.73562Q111.884 5.24966 115.829 1.1354Q117.654-0.747186 119.294-3.47257Q120.935-6.19795 120.935-10.7467L120.935-83.4441Q120.935-92.8554 116.201-97.6566Q111.466-102.458 102.08-102.458L34.8865-102.458Q25.5282-102.458 20.8061-97.6831Q16.084-92.9084 16.084-83.4441L16.084 13.6212Q16.084 22.7259 20.7785 27.4039Q25.4729 32.0819 34.6101 32.0819ZM24.7329-1.74771L24.7329-83.2833Q24.7329-88.3726 27.4108-91.0907Q30.0887-93.8088 35.311-93.8088L101.655-93.8088Q106.878-93.8088 109.57-91.0907Q112.262-88.3726 112.262-83.2833L112.262-11.91Q112.262-4.86412 105.11-4.86412L35.4265-4.86412Q32.031-4.86412 29.4135-4.06491Q26.7959-3.26571 24.7329-1.74771ZM35.0345 23.433Q30.0334 23.433 27.3831 20.8255Q24.7329 18.218 24.7329 13.5134Q24.7329 9.04958 27.6205 6.41718Q30.5081 3.78478 35.4818 3.78478L101.053 3.78478Q101.98 3.78478 102.746 3.6879Q103.511 3.59101 104.248 3.42513Q101.651 8.7279 102.133 13.9882Q102.614 19.2484 105.817 23.433ZM32.3002-0.223268L39.4714-0.223268L39.4714-96.1031L32.3002-96.1031Z"/>
  </g>
  <g id="Light-L" transform="matrix(1 0 0 1 1085.41 1556)">
   <path d="M48.4371-65.2183L99.9511-65.2183Q101.133-65.2183 101.962-66.0479Q102.792-66.8774 102.792-68.0599Q102.792-69.2083 101.962-70.0379Q101.133-70.8674 99.9511-70.8674L48.4371-70.8674Q47.2554-70.8674 46.4254-70.0379Q45.5955-69.2083 45.5955-68.0599Q45.5955-66.8774 46.4254-66.0479Q47.2554-65.2183 48.4371-65.2183ZM48.4371-48.4945L85.3642-48.4945Q86.5003-48.4945 87.3531-49.3477Q88.2058-50.2008 88.2058-51.3361Q88.2058-52.4845 87.3531-53.3376Q86.5003-54.1908 85.3642-54.1908L48.4371-54.1908Q47.2554-54.1908 46.4254-53.3376Q45.5955-52.4845 45.5955-51.3361Q45.5955-50.2008 46.4254-49.3477Q47.2554-48.4945 48.4371-48.4945ZM33.465 31.7767L116.104 31.7767Q117.502 31.7767 118.436 30.8355Q119.37 29.8943 119.37 28.4633Q119.37 27.4215 118.748 26.5712Q118.126 25.721 117.232 25.3449Q112.844 22.9831 110.846 18.9745Q108.847 14.9658 109.678 10.27Q110.51 5.57416 114.57 1.17356Q116.432-0.842742 117.901-3.67298Q119.37-6.50322 119.37-10.8611L119.37-84.112Q119.37-92.9699 114.865-97.5325Q110.359-102.095 101.489-102.095L33.9323-102.095Q25.1085-102.095 20.5962-97.5495Q16.084-93.004 16.084-84.112L16.084 14.7281Q16.084 23.0123 20.5495 27.3945Q25.015 31.7767 33.465 31.7767ZM22.7099 1.573L22.7099-83.9512Q22.7099-89.5559 25.6263-92.5125Q28.5428-95.4692 34.2612-95.4692L101.159-95.4692Q106.878-95.4692 109.818-92.5125Q112.758-89.5559 112.758-83.9512L112.758-11.6618Q112.758-2.30657 103.336-2.30657L33.957-2.30657Q30.1606-2.30657 27.4571-1.31657Q24.7537-0.326575 22.7099 1.573ZM33.7939 25.1508Q28.4493 25.1508 25.5796 22.381Q22.7099 19.6113 22.7099 14.6014Q22.7099 9.83198 25.731 7.07565Q28.7522 4.31931 34.0504 4.31931L100.862 4.31931Q102.152 4.31931 103.252 4.15557Q104.351 3.99183 105.374 3.71147Q102.262 9.5103 103.02 15.2095Q103.779 20.9088 107.859 25.1508ZM30.449 1.20814L36.1315 1.20814L36.1315-97.5152L30.449-97.5152Z"/>
  </g>
  <g id="Thin-L" transform="matrix(1 0 0 1 789.73 1556)">
   <path d="M44.8022-67.3638L99.5979-67.3638Q100.375-67.3638 100.915-67.9031Q101.454-68.4424 101.454-69.2211Q101.454-69.9907 100.915-70.53Q100.375-71.0693 99.5979-71.0693L44.8022-71.0693Q44.0247-71.0693 43.4848-70.53Q42.9449-69.9907 42.9449-69.2211Q42.9449-68.4424 43.4848-67.9031Q44.0247-67.3638 44.8022-67.3638ZM44.8022-51.1196L82.5622-51.1196Q83.2696-51.1196 83.8446-51.6952Q84.4195-52.2708 84.4195-52.977Q84.4195-53.7466 83.8446-54.3222Q83.2696-54.8978 82.5622-54.8978L44.8022-54.8978Q44.0247-54.8978 43.4848-54.3222Q42.9449-53.7466 42.9449-52.977Q42.9449-52.2708 43.4848-51.6952Q44.0247-51.1196 44.8022-51.1196ZM31.9506 31.3729L115.397 31.3729Q116.29 31.3729 116.795 30.8355Q117.3 30.298 117.3 29.3972Q117.3 28.835 116.994 28.3507Q116.687 27.8664 116.222 27.5913Q111.506 24.6489 109.318 20.2995Q107.13 15.9501 107.911 10.9767Q108.692 6.00335 112.904 1.22402Q114.817-0.969121 116.059-3.93804Q117.3-6.90695 117.3-11.0125L117.3-84.9954Q117.3-93.1213 113.098-97.3684Q108.896-101.615 100.706-101.615L32.6702-101.615Q24.5534-101.615 20.3187-97.3729Q16.084-93.1304 16.084-84.9954L16.084 16.1921Q16.084 23.391 20.2467 27.3819Q24.4094 31.3729 31.9506 31.3729ZM20.0343 5.9649L20.0343-84.8346Q20.0343-91.1208 23.2662-94.393Q26.4982-97.6652 32.8727-97.6652L100.502-97.6652Q106.878-97.6652 110.146-94.393Q113.415-91.1208 113.415-84.8346L113.415-11.3335Q113.415 1.076 100.988 1.076L32.0134 1.076Q27.6869 1.076 24.8698 2.31833Q22.0526 3.56066 20.0343 5.9649ZM32.1531 27.4227Q26.3543 27.4227 23.1943 24.4383Q20.0343 21.454 20.0343 16.0403Q20.0343 10.8668 23.232 7.94652Q26.4298 5.02627 32.1573 5.02627L100.61 5.02627Q102.379 5.02627 103.921 4.77411Q105.462 4.52195 106.863 4.09019Q103.07 10.5451 104.194 16.8249Q105.318 23.1048 110.56 27.4227ZM28.0007 3.10129L31.7141 3.10129L31.7141-99.3829L28.0007-99.3829Z"/>
  </g>
  <g id="Ultralight-L" transform="matrix(1 0 0 1 493.549 1556)">
   <path d="M42.9404-68.4627L99.4169-68.4627Q99.9874-68.4627 100.378-68.8533Q100.769-69.2439 100.769-69.8158Q100.769-70.3915 100.378-70.7821Q99.9874-71.1727 99.4169-71.1727L42.9404-71.1727Q42.3699-71.1727 41.9786-70.7821Q41.5873-70.3915 41.5873-69.8158Q41.5873-69.2439 41.9786-68.8533Q42.3699-68.4627 42.9404-68.4627ZM42.9404-52.4642L81.1271-52.4642Q81.6148-52.4642 82.0475-52.8976Q82.4802-53.331 82.4802-53.8174Q82.4802-54.393 82.0475-54.8265Q81.6148-55.2599 81.1271-55.2599L42.9404-55.2599Q42.3699-55.2599 41.9786-54.8265Q41.5873-54.393 41.5873-53.8174Q41.5873-53.331 41.9786-52.8976Q42.3699-52.4642 42.9404-52.4642ZM31.1749 31.1661L115.035 31.1661Q115.669 31.1661 115.955 30.8355Q116.24 30.5048 116.24 29.8755Q116.24 29.5589 116.095 29.2622Q115.95 28.9654 115.705 28.742Q110.821 25.5022 108.536 20.9782Q106.251 16.4543 107.006 11.3387Q107.761 6.22317 112.051 1.24987Q113.99-1.03385 115.115-4.0738Q116.24-7.11375 116.24-11.0901L116.24-85.4479Q116.24-93.1988 112.193-97.2843Q108.146-101.37 100.305-101.37L32.0237-101.37Q24.269-101.37 20.1765-97.2824Q16.084-93.1951 16.084-85.4479L16.084 16.9419Q16.084 23.5849 20.0916 27.3755Q24.0992 31.1661 31.1749 31.1661ZM18.6638 8.21442L18.6638-85.287Q18.6638-91.9223 22.0574-95.3561Q25.451-98.7899 32.1615-98.7899L100.166-98.7899Q106.878-98.7899 110.314-95.3561Q113.751-91.9223 113.751-85.287L113.751-11.1654Q113.751 2.80853 99.7859 2.80853L31.0178 2.80853Q26.4199 2.80853 23.5445 4.18011Q20.6691 5.55169 18.6638 8.21442ZM31.3127 28.5863Q25.2812 28.5863 21.9725 25.492Q18.6638 22.3978 18.6638 16.7774Q18.6638 11.3968 21.9521 8.39258Q25.2403 5.38838 31.1876 5.38838L100.48 5.38838Q102.496 5.38838 104.263 5.09092Q106.03 4.79347 107.626 4.28416Q103.484 11.0751 104.796 17.6523Q106.107 24.2295 111.943 28.5863ZM26.7467 4.07095L29.4516 4.07095L29.4516-100.34L26.7467-100.34Z"/>
  </g>
  <g id="Black-M" transform="matrix(1 0 0 1 2875.35 1126)">
   <path d="M53.2875-54.79L77.4333-54.79Q79.3328-54.79 80.6807-56.138Q82.0286-57.4859 82.0286-59.3854Q82.0286-61.2794 80.6807-62.6273Q79.3328-63.9752 77.4333-63.9752L53.2875-63.9752Q51.388-63.9752 50.0401-62.6273Q48.6922-61.2794 48.6922-59.3854Q48.6922-57.4859 50.0401-56.138Q51.388-54.79 53.2875-54.79ZM53.2875-40.5119L71.671-40.5119Q73.5708-40.5119 74.9186-41.8596Q76.2664-43.2074 76.2664-45.1072Q76.2664-47.0012 74.9186-48.349Q73.5708-49.6968 71.671-49.6968L53.2875-49.6968Q51.388-49.6968 50.0401-48.349Q48.6922-47.0012 48.6922-45.1072Q48.6922-43.2074 50.0401-41.8596Q51.388-40.5119 53.2875-40.5119ZM31.5993 19.8932L96.3969 19.8932Q99.6368 19.8932 101.638 17.8951Q103.639 15.897 103.639 12.6516Q103.639 9.43802 101.816 7.67917Q99.9926 5.92031 97.6516 4.28402Q95.0125 2.49431 93.9657-0.860921Q92.919-4.21615 93.8073-7.79546Q94.6957-11.3748 97.9078-13.7227Q101.562-16.3994 102.515-18.7342Q103.467-21.0689 103.467-24.9813L103.467-71.1384Q103.467-80.2013 98.4255-85.2486Q93.3835-90.2959 84.3265-90.2959L31.5964-90.2959Q22.5391-90.2959 17.5-85.2513Q12.4609-80.2068 12.4609-71.1384L12.4609 0.730035Q12.4609 9.80204 17.5003 14.8476Q22.5397 19.8932 31.5993 19.8932ZM29.7989-25.9138L29.7989-68.5016Q29.7989-70.7736 30.8314-71.8658Q31.8639-72.958 34.2608-72.958L81.6622-72.958Q84.1161-72.958 85.12-71.8658Q86.1238-70.7736 86.1238-68.5016L86.1238-28.0651Q86.1238-26.4324 84.3658-26.4324L34.7706-26.4324Q33.5094-26.4324 32.2359-26.2871Q30.9623-26.1419 29.7989-25.9138ZM36.4332 5.41004Q31.6932 5.41004 29.4043 2.77511Q27.1154 0.140176 27.1154-3.27164Q27.1154-6.66782 29.429-9.30853Q31.7426-11.9492 36.4829-11.9492L79.5916-11.9492Q79.7835-11.9492 79.9681-11.9482Q80.1526-11.9473 80.3405-11.9456Q78.2871-7.83058 78.2026-3.19829Q78.118 1.434 80 5.41004ZM35.409-20.5282L44.5997-20.5282L44.5997-77.6441L35.409-77.6441Z"/>
  </g>
  <g id="Heavy-M" transform="matrix(1 0 0 1 2579.71 1126)">
   <path d="M50.44-55.1421L77.5187-55.1421Q79.283-55.1421 80.5341-56.3932Q81.7853-57.6444 81.7853-59.4087Q81.7853-61.1565 80.5341-62.4077Q79.283-63.6588 77.5187-63.6588L50.44-63.6588Q48.6757-63.6588 47.4245-62.4077Q46.1734-61.1565 46.1734-59.4087Q46.1734-57.6444 47.4245-56.3932Q48.6757-55.1421 50.44-55.1421ZM50.44-41.0608L71.0368-41.0608Q72.7989-41.0608 74.0511-42.313Q75.3034-43.5653 75.3034-45.3273Q75.3034-47.0752 74.0511-48.3275Q72.7989-49.5798 71.0368-49.5798L50.44-49.5798Q48.6757-49.5798 47.4245-48.3275Q46.1734-47.0752 46.1734-45.3273Q46.1734-43.5653 47.4245-42.313Q48.6757-41.0608 50.44-41.0608ZM30.6239 19.2324L95.0452 19.2324Q97.8971 19.2324 99.6997 17.4369Q101.502 15.6415 101.502 12.7731Q101.502 10.0124 99.9199 8.42536Q98.3376 6.83832 96.2827 5.49523Q93.5429 3.83535 92.4231 0.620776Q91.3033-2.5938 92.1462-6.12037Q92.989-9.64695 96.149-12.1545Q99.2692-14.5257 100.32-16.7937Q101.371-19.0617 101.371-22.9081L101.371-71.3896Q101.371-80.1088 96.6228-84.8749Q91.8743-89.641 83.1692-89.641L30.6466-89.641Q21.9439-89.641 17.2024-84.8831Q12.4609-80.1252 12.4609-71.3896L12.4609 1.02655Q12.4609 9.7326 17.2001 14.4825Q21.9393 19.2324 30.6239 19.2324ZM27.5605-22.4371L27.5605-69.3457Q27.5605-71.9427 28.8069-73.242Q30.0533-74.5413 32.7726-74.5413L81.0432-74.5413Q83.8062-74.5413 85.0319-73.242Q86.2576-71.9427 86.2576-69.3457L86.2576-25.5256Q86.2576-23.3005 83.9125-23.3005L33.2397-23.3005Q31.7093-23.3005 30.2692-23.069Q28.8292-22.8376 27.5605-22.4371ZM34.4075 6.3139Q29.9179 6.3139 27.7141 3.84588Q25.5103 1.37786 25.5103-2.0479Q25.5103-5.41765 27.7879-7.89979Q30.0655-10.3819 34.5529-10.3819L79.31-10.3819Q79.5775-10.3819 79.8135-10.3899Q80.0496-10.3979 80.2893-10.4115Q78.315-6.36482 78.3013-1.923Q78.2875 2.51882 80.1927 6.3139ZM33.2071-17.7897L41.7402-17.7897L41.7402-78.5744L33.2071-78.5744Z"/>
  </g>
  <g id="Bold-M" transform="matrix(1 0 0 1 2284.19 1126)">
   <path d="M47.2546-55.536L77.6144-55.536Q79.2273-55.536 80.3702-56.6788Q81.5131-57.8217 81.5131-59.4347Q81.5131-61.0191 80.3702-62.162Q79.2273-63.3049 77.6144-63.3049L47.2546-63.3049Q45.6416-63.3049 44.4987-62.162Q43.3558-61.0191 43.3558-59.4347Q43.3558-57.8217 44.4987-56.6788Q45.6416-55.536 47.2546-55.536ZM47.2546-41.6748L70.3274-41.6748Q71.9354-41.6748 73.0808-42.8202Q74.2262-43.9657 74.2262-45.5735Q74.2262-47.1579 73.0808-48.3034Q71.9354-49.4488 70.3274-49.4488L47.2546-49.4488Q45.6416-49.4488 44.4987-48.3034Q43.3558-47.1579 43.3558-45.5735Q43.3558-43.9657 44.4987-42.8202Q45.6416-41.6748 47.2546-41.6748ZM29.5328 18.4933L93.5331 18.4933Q95.951 18.4933 97.5316 16.9244Q99.1121 15.3556 99.1121 12.9091Q99.1121 10.6549 97.7993 9.26008Q96.4864 7.86525 94.7514 6.85013Q91.899 5.3355 90.6975 2.27827Q89.496-0.778964 90.2879-4.24655Q91.0798-7.71414 94.1816-10.4002Q96.7045-12.4298 97.8655-14.623Q99.0265-16.8163 99.0265-20.5889L99.0265-71.6706Q99.0265-80.0054 94.6063-84.4568Q90.186-88.9083 81.8747-88.9083L29.5842-88.9083Q21.278-88.9083 16.8695-84.4712Q12.4609-80.034 12.4609-71.6706L12.4609 1.35824Q12.4609 9.65492 16.8644 14.0741Q21.2678 18.4933 29.5328 18.4933ZM25.0566-18.5479L25.0566-70.2899Q25.0566-73.2505 26.5423-74.7816Q28.0279-76.3126 31.108-76.3126L80.3508-76.3126Q83.4595-76.3126 84.9335-74.7816Q86.4074-73.2505 86.4074-70.2899L86.4074-22.6847Q86.4074-19.797 83.4053-19.797L31.5272-19.797Q29.6955-19.797 28.0693-19.4691Q26.443-19.1413 25.0566-18.5479ZM32.1415 7.325Q27.932 7.325 25.8234 5.04369Q23.7149 2.76239 23.7149-0.678976Q23.7149-4.01915 25.9522-6.32391Q28.1895-8.62867 32.394-8.62867L78.995-8.62867Q79.347-8.62867 79.6406-8.64665Q79.9342-8.66464 80.2319-8.69543Q78.3463-4.72514 78.4117-0.496397Q78.477 3.73235 80.4084 7.325ZM30.7441-14.7263L38.5416-14.7263L38.5416-79.6151L30.7441-79.6151Z"/>
  </g>
  <g id="Semibold-M" transform="matrix(1 0 0 1 1988.3 1126)">
   <path d="M45.0586-55.8075L77.6803-55.8075Q79.1889-55.8075 80.2572-56.8757Q81.3254-57.944 81.3254-59.4527Q81.3254-60.9244 80.2572-61.9926Q79.1889-63.0608 77.6803-63.0608L45.0586-63.0608Q43.5499-63.0608 42.4816-61.9926Q41.4133-60.9244 41.4133-59.4527Q41.4133-57.944 42.4816-56.8757Q43.5499-55.8075 45.0586-55.8075ZM45.0586-42.098L69.8384-42.098Q71.3401-42.098 72.4118-43.1699Q73.4836-44.2417 73.4836-45.7433Q73.4836-47.2149 72.4118-48.2868Q71.3401-49.3586 69.8384-49.3586L45.0586-49.3586Q43.5499-49.3586 42.4816-48.2868Q41.4133-47.2149 41.4133-45.7433Q41.4133-44.2417 42.4816-43.1699Q43.5499-42.098 45.0586-42.098ZM28.7806 17.9838L92.4907 17.9838Q94.6094 17.9838 96.0369 16.5711Q97.4645 15.1585 97.4645 13.0028Q97.4645 11.0979 96.3373 9.83553Q95.2101 8.57321 93.6957 7.7842Q90.7658 6.36969 89.5079 3.42093Q88.25 0.472172 89.0068-2.95475Q89.7636-6.38167 92.8253-9.19089Q94.9365-10.9848 96.1732-13.1266Q97.41-15.2683 97.41-18.99L97.41-71.8643Q97.41-79.9341 93.216-84.1686Q89.0221-88.4032 80.9823-88.4032L28.8517-88.4032Q20.819-88.4032 16.64-84.1872Q12.4609-79.9712 12.4609-71.8643L12.4609 1.58691Q12.4609 9.60138 16.6329 13.7926Q20.8048 17.9838 28.7806 17.9838ZM23.3305-15.8668L23.3305-70.9408Q23.3305-74.1521 24.981-75.8429Q26.6316-77.5337 29.9603-77.5337L79.8735-77.5337Q83.2205-77.5337 84.8656-75.8429Q86.5106-74.1521 86.5106-70.9408L86.5106-20.7262Q86.5106-17.3817 83.0557-17.3817L30.3467-17.3817Q28.3073-17.3817 26.5526-16.9874Q24.798-16.5931 23.3305-15.8668ZM30.5793 8.02205Q26.5629 8.02205 24.52 5.86946Q22.4771 3.71687 22.4771 0.264752Q22.4771-3.05504 24.6867-5.23751Q26.8962-7.41998 30.9056-7.41998L78.7778-7.41998Q79.1881-7.41998 79.5214-7.44488Q79.8547-7.46977 80.1924-7.51239Q78.3678-3.59477 78.4878 0.487092Q78.6077 4.56895 80.557 8.02205ZM29.046-12.6144L36.3364-12.6144L36.3364-80.3325L29.046-80.3325Z"/>
  </g>
  <g id="Medium-M" transform="matrix(1 0 0 1 1692.22 1126)">
   <path d="M43.3935-56.0133L77.7303-56.0133Q79.1598-56.0133 80.1715-57.025Q81.1831-58.0366 81.1831-59.4663Q81.1831-60.8525 80.1715-61.8642Q79.1598-62.8758 77.7303-62.8758L43.3935-62.8758Q41.964-62.8758 40.9522-61.8642Q39.9405-60.8525 39.9405-59.4663Q39.9405-58.0366 40.9522-57.025Q41.964-56.0133 43.3935-56.0133ZM43.3935-42.419L69.4675-42.419Q70.8887-42.419 71.9046-43.435Q72.9205-44.451 72.9205-45.872Q72.9205-47.2582 71.9046-48.2742Q70.8887-49.2901 69.4675-49.2901L43.3935-49.2901Q41.964-49.2901 40.9522-48.2742Q39.9405-47.2582 39.9405-45.872Q39.9405-44.451 40.9522-43.435Q41.964-42.419 43.3935-42.419ZM28.2103 17.5974L91.7003 17.5974Q93.5921 17.5974 94.9036 16.3032Q96.2151 15.0091 96.2151 13.0739Q96.2151 11.4337 95.2288 10.2719Q94.2424 9.11001 92.8952 8.49245Q89.9065 7.15386 88.6059 4.28735Q87.3053 1.42083 88.0354-1.97525Q88.7656-5.37134 91.7969-8.2739Q93.5959-9.88921 94.8901-11.9919Q96.1843-14.0945 96.1843-17.7777L96.1843-72.0112Q96.1843-79.88 92.1619-83.9501Q88.1396-88.0202 80.3056-88.0202L28.2963-88.0202Q20.471-88.0202 16.4659-83.9719Q12.4609-79.9235 12.4609-72.0112L12.4609 1.76029Q12.4609 9.56077 16.4574 13.5791Q20.4538 17.5974 28.2103 17.5974ZM22.0216-13.8338L22.0216-71.4344Q22.0216-74.8358 23.7972-76.6477Q25.5728-78.4596 29.0902-78.4596L79.5115-78.4596Q83.0393-78.4596 84.8141-76.6477Q86.5889-74.8358 86.5889-71.4344L86.5889-19.2412Q86.5889-15.5503 82.7906-15.5503L29.4515-15.5503Q27.2546-15.5503 25.4026-15.1056Q23.5507-14.6609 22.0216-13.8338ZM29.3947 8.55058Q25.5248 8.55058 23.5317 6.49559Q21.5386 4.4406 21.5386 0.980327Q21.5386-2.32401 23.7271-4.41376Q25.9156-6.50351 29.777-6.50351L78.6132-6.50351Q79.0676-6.50351 79.431-6.53364Q79.7945-6.56377 80.1624-6.61536Q78.3842-2.73766 78.5455 1.23281Q78.7068 5.20329 80.6697 8.55058ZM27.7585-11.0131L34.6644-11.0131L34.6644-80.8765L27.7585-80.8765Z"/>
  </g>
  <g id="Regular-M" transform="matrix(1 0 0 1 1396.32 1126)">
   <path d="M41.2216-56.2819L77.7955-56.2819Q79.1219-56.2819 80.0597-57.2197Q80.9975-58.1575 80.9975-59.4841Q80.9975-60.7588 80.0597-61.6966Q79.1219-62.6345 77.7955-62.6345L41.2216-62.6345Q39.8953-62.6345 38.9573-61.6966Q38.0194-60.7588 38.0194-59.4841Q38.0194-58.1575 38.9573-57.2197Q39.8953-56.2819 41.2216-56.2819ZM41.2216-42.8376L68.9839-42.8376Q70.2999-42.8376 71.243-43.7808Q72.1861-44.7239 72.1861-46.0399Q72.1861-47.3146 71.243-48.2577Q70.2999-49.2009 68.9839-49.2009L41.2216-49.2009Q39.8953-49.2009 38.9573-48.2577Q38.0194-47.3146 38.0194-46.0399Q38.0194-44.7239 38.9573-43.7808Q39.8953-42.8376 41.2216-42.8376ZM27.4664 17.0934L90.6693 17.0934Q92.2652 17.0934 93.4254 15.9538Q94.5855 14.8142 94.5855 13.1666Q94.5855 11.8718 93.7828 10.841Q92.9802 9.81019 91.8512 9.41625Q88.7856 8.17669 87.4293 5.41745Q86.073 2.65822 86.7684-0.697646Q87.4638-4.05351 90.4554-7.07783Q91.8472-8.46015 93.2164-10.5119Q94.5855-12.5636 94.5855-16.1964L94.5855-72.2027Q94.5855-79.8095 90.787-83.6651Q86.9885-87.5207 79.4229-87.5207L27.5719-87.5207Q20.017-87.5207 16.239-83.691Q12.4609-79.8613 12.4609-72.2027L12.4609 1.98645Q12.4609 9.50781 16.2284 13.3006Q19.9959 17.0934 27.4664 17.0934ZM20.3144-11.1821L20.3144-72.0781Q20.3144-75.7275 22.2531-77.6973Q24.1919-79.6672 27.9552-79.6672L79.0395-79.6672Q82.8029-79.6672 84.747-77.6973Q86.691-75.7275 86.691-72.0781L86.691-17.3043Q86.691-13.1616 82.4448-13.1616L28.2839-13.1616Q25.8816-13.1616 23.9027-12.6511Q21.9237-12.1407 20.3144-11.1821ZM27.8497 9.23997Q24.1708 9.23997 22.2426 7.31228Q20.3144 5.38459 20.3144 1.91368Q20.3144-1.37049 22.4755-3.3393Q24.6365-5.3081 28.305-5.3081L78.3984-5.3081Q78.9104-5.3081 79.3131-5.34506Q79.7158-5.38203 80.1234-5.44531Q78.4055-1.61971 78.6208 2.2055Q78.8361 6.0307 80.8167 9.23997ZM26.0792-8.92439L32.4834-8.92439L32.4834-81.5861L26.0792-81.5861Z"/>
  </g>
  <g id="Light-M" transform="matrix(1 0 0 1 1100.31 1126)">
   <path d="M38.7576-57.7363L77.556-57.7363Q78.6084-57.7363 79.3495-58.4773Q80.0905-59.2184 80.0905-60.2712Q80.0905-61.2892 79.3495-62.0303Q78.6084-62.7713 77.556-62.7713L38.7576-62.7713Q37.7052-62.7713 36.9639-62.0303Q36.2226-61.2892 36.2226-60.2712Q36.2226-59.2184 36.9639-58.4773Q37.7052-57.7363 38.7576-57.7363ZM38.7576-44.6172L67.0844-44.6172Q68.1099-44.6172 68.8647-45.3722Q69.6194-46.1272 69.6194-47.1521Q69.6194-48.1701 68.8647-48.9251Q68.1099-49.6801 67.0844-49.6801L38.7576-49.6801Q37.7052-49.6801 36.9639-48.9251Q36.2226-48.1701 36.2226-47.1521Q36.2226-46.1272 36.9639-45.3722Q37.7052-44.6172 38.7576-44.6172ZM26.4398 16.8198L90.1901 16.8198Q91.4439 16.8198 92.3131 15.9538Q93.1823 15.0879 93.1823 13.7997Q93.1823 12.83 92.5935 12.0473Q92.0047 11.2646 91.1667 10.9391Q87.8786 9.30593 86.3941 6.3157Q84.9096 3.32547 85.5708-0.218553Q86.232-3.76258 89.3262-7.04362Q90.7522-8.54582 91.9673-10.6915Q93.1823-12.8373 93.1823-16.299L93.1823-72.8016Q93.1823-79.9121 89.5892-83.5538Q85.9961-87.1956 78.8925-87.1956L26.7163-87.1956Q19.6407-87.1956 16.0508-83.5713Q12.4609-79.947 12.4609-72.8016L12.4609 2.97884Q12.4609 9.76454 16.0231 13.2921Q19.5854 16.8198 26.4398 16.8198ZM18.5007-8.20487L18.5007-72.677Q18.5007-76.7883 20.6533-78.9721Q22.8059-81.1558 27.0139-81.1558L78.5944-81.1558Q82.8029-81.1558 84.9695-78.9721Q87.136-76.7883 87.136-72.677L87.136-17.0818Q87.136-10.8686 80.8536-10.8686L26.9663-10.8686Q24.2047-10.8686 22.1487-10.1871Q20.0927-9.50559 18.5007-8.20487ZM26.7374 10.78Q22.7506 10.78 20.6256 8.70687Q18.5007 6.63371 18.5007 2.88912Q18.5007-0.669026 20.7815-2.74895Q23.0622-4.82887 27.0216-4.82887L78.2274-4.82887Q79.0645-4.82887 79.7666-4.92577Q80.4688-5.02267 81.133-5.18859Q78.9531-0.918245 79.4165 3.30052Q79.8799 7.51929 82.6477 10.78ZM24.4195-7.64106L29.489-7.64106L29.489-82.8522L24.4195-82.8522Z"/>
  </g>
  <g id="Thin-M" transform="matrix(1 0 0 1 804.528 1126)">
   <path d="M35.4987-59.6598L77.2393-59.6598Q77.9293-59.6598 78.4101-60.1406Q78.8909-60.6214 78.8909-61.3123Q78.8909-61.9907 78.4101-62.4715Q77.9293-62.9523 77.2393-62.9523L35.4987-62.9523Q34.8087-62.9523 34.3275-62.4715Q33.8462-61.9907 33.8462-61.3123Q33.8462-60.6214 34.3275-60.1406Q34.8087-59.6598 35.4987-59.6598ZM35.4987-46.9707L64.5723-46.9707Q65.2134-46.9707 65.7191-47.4769Q66.2248-47.983 66.2248-48.6232Q66.2248-49.3017 65.7191-49.8078Q65.2134-50.3139 64.5723-50.3139L35.4987-50.3139Q34.8087-50.3139 34.3275-49.8078Q33.8462-49.3017 33.8462-48.6232Q33.8462-47.983 34.3275-47.4769Q34.8087-46.9707 35.4987-46.9707ZM25.082 16.4578L89.5563 16.4578Q90.3576 16.4578 90.842 15.9538Q91.3265 15.4498 91.3265 14.6369Q91.3265 14.0973 91.0205 13.6427Q90.7146 13.1881 90.2614 12.9531Q86.679 10.7994 85.0249 7.5037Q83.3708 4.20797 83.9868 0.415086Q84.6027-3.37779 87.8327-6.99837Q89.3039-8.65913 90.3152-10.9292Q91.3265-13.1992 91.3265-16.4348L91.3265-73.5936Q91.3265-80.0478 88.005-83.4067Q84.6835-86.7655 78.191-86.7655L25.5848-86.7655Q19.1429-86.7655 15.8019-83.4129Q12.4609-80.0603 12.4609-73.5936L12.4609 4.29137Q12.4609 10.1041 15.7517 13.2809Q19.0424 16.4578 25.082 16.4578ZM16.1019-4.2673L16.1019-73.469Q16.1019-78.1913 18.5374-80.658Q20.9729-83.1246 25.7691-83.1246L78.0058-83.1246Q82.8029-83.1246 85.2638-80.658Q87.7246-78.1913 87.7246-73.469L87.7246-16.7875Q87.7246-7.83596 78.749-7.83596L25.2238-7.83596Q21.9869-7.83596 19.829-6.92822Q17.6711-6.02048 16.1019-4.2673ZM25.2663 12.8169Q20.8723 12.8169 18.4871 10.5513Q16.1019 8.28578 16.1019 4.17921Q16.1019 0.258714 18.541-1.96816Q20.9801-4.19504 25.3243-4.19504L78.0011-4.19504Q79.2683-4.19504 80.3664-4.37122Q81.4646-4.54739 82.4683-4.84905Q79.6775 0.00949522 80.469 4.74879Q81.2605 9.48808 85.0693 12.8169ZM22.2245-5.94375L25.5286-5.94375L25.5286-84.5266L22.2245-84.5266Z"/>
  </g>
  <g id="Ultralight-M" transform="matrix(1 0 0 1 508.292 1126)">
   <path d="M33.8295-60.645L77.0771-60.645Q77.5815-60.645 77.929-60.9925Q78.2765-61.34 78.2765-61.8455Q78.2765-62.35 77.929-62.6975Q77.5815-63.045 77.0771-63.045L33.8295-63.045Q33.3251-63.045 32.9771-62.6975Q32.6291-62.35 32.6291-61.8455Q32.6291-61.34 32.9771-60.9925Q33.3251-60.645 33.8295-60.645ZM33.8295-48.1762L63.2856-48.1762Q63.7298-48.1762 64.1079-48.5549Q64.4861-48.9336 64.4861-49.3767Q64.4861-49.8812 64.1079-50.2599Q63.7298-50.6386 63.2856-50.6386L33.8295-50.6386Q33.3251-50.6386 32.9771-50.2599Q32.6291-49.8812 32.6291-49.3767Q32.6291-48.9336 32.9771-48.5549Q33.3251-48.1762 33.8295-48.1762ZM24.3866 16.2724L89.2316 16.2724Q89.8012 16.2724 90.0885 15.9538Q90.3759 15.6352 90.3759 15.0657Q90.3759 14.7464 90.2149 14.4598Q90.0539 14.1733 89.7977 13.9847Q86.0646 11.5644 84.3236 8.11219Q82.5827 4.65998 83.1754 0.739633Q83.7682-3.18071 87.0677-6.9752Q88.5622-8.71716 89.469-11.0509Q90.3759-13.3846 90.3759-16.5043L90.3759-73.9992Q90.3759-80.1174 87.1936-83.3313Q84.0113-86.5453 77.8317-86.5453L25.0052-86.5453Q18.888-86.5453 15.6745-83.3318Q12.4609-80.1183 12.4609-73.9992L12.4609 4.96364Q12.4609 10.278 15.6126 13.2752Q18.7643 16.2724 24.3866 16.2724ZM14.8732-2.25049L14.8732-73.8746Q14.8732-78.9099 17.4536-81.5215Q20.034-84.133 25.1315-84.133L77.7044-84.133Q82.8029-84.133 85.4145-81.5215Q88.0261-78.9099 88.0261-73.8746L88.0261-16.6368Q88.0261-6.28265 77.6711-6.28265L24.3312-6.28265Q20.8509-6.28265 18.6408-5.25904Q16.4307-4.23542 14.8732-2.25049ZM24.5129 13.8601Q19.9103 13.8601 17.3917 11.496Q14.8732 9.13195 14.8732 4.83999Q14.8732 0.733898 17.3934-1.56825Q19.9137-3.87039 24.455-3.87039L77.8853-3.87039Q79.3727-3.87039 80.6737-4.08718Q81.9746-4.30396 83.1523-4.67514Q80.0484 0.484679 81.008 5.49058Q81.9676 10.4965 86.3097 13.8601ZM21.1002-5.0744L23.5001-5.0744L23.5001-85.3843L21.1002-85.3843Z"/>
  </g>
  <g id="Black-S" transform="matrix(1 0 0 1 2887.62 696)">
   <path d="M42.4805-50.5371L60.6445-50.5371Q62.1582-50.5371 63.2324-51.6113Q64.3066-52.6855 64.3066-54.1992Q64.3066-55.7129 63.2324-56.7871Q62.1582-57.8613 60.6445-57.8613L42.4805-57.8613Q40.9668-57.8613 39.8926-56.7871Q38.8184-55.7129 38.8184-54.1992Q38.8184-52.6855 39.8926-51.6113Q40.9668-50.5371 42.4805-50.5371ZM42.4805-39.3066L56.25-39.3066Q57.7637-39.3066 58.8379-40.3809Q59.9121-41.4551 59.9121-42.9688Q59.9121-44.4824 58.8379-45.5566Q57.7637-46.6309 56.25-46.6309L42.4805-46.6309Q40.9668-46.6309 39.8926-45.5566Q38.8184-44.4824 38.8184-42.9688Q38.8184-41.4551 39.8926-40.3809Q40.9668-39.3066 42.4805-39.3066ZM25 8.1543L75.9277 8.1543Q78.5645 8.1543 80.1758 6.54297Q81.7871 4.93164 81.7871 2.29492Q81.7871-0.341797 80.2979-1.75781Q78.8086-3.17383 76.9043-4.54102Q74.8535-6.00586 74.0479-8.69141Q73.2422-11.377 73.9502-14.209Q74.6582-17.041 77.1973-18.8477Q80.2246-21.0449 80.9326-22.9004Q81.6406-24.7559 81.6406-27.832L81.6406-63.3301Q81.6406-70.5078 77.6123-74.5361Q73.584-78.5645 66.4062-78.5645L25-78.5645Q17.8223-78.5645 13.7939-74.5361Q9.76562-70.5078 9.76562-63.3301L9.76562-7.08008Q9.76562 0.0976562 13.7939 4.12598Q17.8223 8.1543 25 8.1543ZM23.9258-28.8086L23.9258-61.084Q23.9258-62.793 24.6826-63.5986Q25.4395-64.4043 27.2461-64.4043L64.1602-64.4043Q66.0156-64.4043 66.748-63.5986Q67.4805-62.793 67.4805-61.084L67.4805-30.3711Q67.4805-29.1504 66.1621-29.1504L27.6367-29.1504Q26.709-29.1504 25.7568-29.0527Q24.8047-28.9551 23.9258-28.8086ZM29.1016-3.56445Q25.293-3.56445 23.4619-5.68848Q21.6309-7.8125 21.6309-10.498Q21.6309-13.1836 23.4619-15.3076Q25.293-17.4316 29.1016-17.4316L62.4512-17.4316Q62.5977-17.4316 62.7441-17.4316Q62.8906-17.4316 63.0371-17.4316Q61.377-14.1602 61.3037-10.4492Q61.2305-6.73828 62.7441-3.56445ZM28.3203-24.4629L35.6445-24.4629L35.6445-68.2617L28.3203-68.2617Z"/>
  </g>
  <g id="Heavy-S" transform="matrix(1 0 0 1 2591.74 696)">
   <path d="M40.36-50.6524L60.7483-50.6524Q62.1813-50.6524 63.1978-51.669Q64.2144-52.6855 64.2144-54.1185Q64.2144-55.54 63.1978-56.5566Q62.1813-57.5732 60.7483-57.5732L40.36-57.5732Q38.927-57.5732 37.9104-56.5566Q36.8938-55.54 36.8938-54.1185Q36.8938-52.6855 37.9104-51.669Q38.927-50.6524 40.36-50.6524ZM40.36-39.5487L55.9504-39.5487Q57.3834-39.5487 58.4-40.5653Q59.4166-41.5818 59.4166-43.0148Q59.4166-44.4363 58.4-45.4529Q57.3834-46.4695 55.9504-46.4695L40.36-46.4695Q38.927-46.4695 37.9104-45.4529Q36.8938-44.4363 36.8938-43.0148Q36.8938-41.5818 37.9104-40.5653Q38.927-39.5487 40.36-39.5487ZM24.297 7.62417L74.8329 7.62417Q77.1815 7.62417 78.6603 6.15114Q80.1391 4.6781 80.1391 2.31797Q80.1391 0.026986 78.8285-1.27378Q77.5179-2.57456 75.821-3.69973Q73.7126-5.00323 72.8608-7.53896Q72.0091-10.0747 72.6825-12.8376Q73.3559-15.6005 75.8374-17.5108Q78.4037-19.4315 79.2155-21.2178Q80.0272-23.0041 80.0272-26.0457L80.0272-63.4684Q80.0272-70.4156 76.2236-74.2307Q72.42-78.0459 65.4843-78.0459L24.297-78.0459Q17.3613-78.0459 13.5635-74.2365Q9.76562-70.4271 9.76562-63.4684L9.76562-6.95331Q9.76562 0.00546053 13.5635 3.81482Q17.3613 7.62417 24.297 7.62417ZM22.2432-26.2156L22.2432-61.7294Q22.2432-63.6573 23.1556-64.6128Q24.068-65.5683 26.0936-65.5683L63.6877-65.5683Q65.7506-65.5683 66.6443-64.6128Q67.5381-63.6573 67.5381-61.7294L67.5381-28.2275Q67.5381-26.7648 65.9777-26.7648L26.4958-26.7648Q25.3837-26.7648 24.299-26.6153Q23.2143-26.4658 22.2432-26.2156ZM27.5112-2.98823Q23.9561-2.98823 22.223-4.95091Q20.4899-6.91359 20.4899-9.57609Q20.4899-12.204 22.2749-14.1782Q24.0599-16.1524 27.6149-16.1524L62.2322-16.1524Q62.4017-16.1524 62.554-16.1524Q62.7062-16.1524 62.8642-16.1524Q61.3309-12.9962 61.2864-9.49845Q61.242-6.00072 62.675-2.98823ZM26.6493-22.2848L33.5817-22.2848L33.5817-68.8956L26.6493-68.8956Z"/>
  </g>
  <g id="Bold-S" transform="matrix(1 0 0 1 2295.95 696)">
   <path d="M37.9883-50.7812L60.8643-50.7812Q62.207-50.7812 63.1592-51.7334Q64.1113-52.6855 64.1113-54.0283Q64.1113-55.3467 63.1592-56.2988Q62.207-57.251 60.8643-57.251L37.9883-57.251Q36.6455-57.251 35.6934-56.2988Q34.7412-55.3467 34.7412-54.0283Q34.7412-52.6855 35.6934-51.7334Q36.6455-50.7812 37.9883-50.7812ZM37.9883-39.8193L55.6152-39.8193Q56.958-39.8193 57.9102-40.7715Q58.8623-41.7236 58.8623-43.0664Q58.8623-44.3848 57.9102-45.3369Q56.958-46.2891 55.6152-46.2891L37.9883-46.2891Q36.6455-46.2891 35.6934-45.3369Q34.7412-44.3848 34.7412-43.0664Q34.7412-41.7236 35.6934-40.7715Q36.6455-39.8193 37.9883-39.8193ZM23.5107 7.03125L73.6084 7.03125Q75.6348 7.03125 76.9653 5.71289Q78.2959 4.39453 78.2959 2.34375Q78.2959 0.439453 77.1851-0.732422Q76.0742-1.9043 74.6094-2.75879Q72.4365-3.88184 71.5332-6.25Q70.6299-8.61816 71.2646-11.3037Q71.8994-13.9893 74.3164-16.0156Q76.3672-17.627 77.2949-19.3359Q78.2227-21.0449 78.2227-24.0479L78.2227-63.623Q78.2227-70.3125 74.6704-73.8892Q71.1182-77.4658 64.4531-77.4658L23.5107-77.4658Q16.8457-77.4658 13.3057-73.9014Q9.76562-70.3369 9.76562-63.623L9.76562-6.81152Q9.76562-0.0976562 13.3057 3.4668Q16.8457 7.03125 23.5107 7.03125ZM20.3613-23.3154L20.3613-62.4512Q20.3613-64.624 21.4478-65.7471Q22.5342-66.8701 24.8047-66.8701L63.1592-66.8701Q65.4541-66.8701 66.5283-65.7471Q67.6025-64.624 67.6025-62.4512L67.6025-25.8301Q67.6025-24.0967 65.7715-24.0967L25.2197-24.0967Q23.9014-24.0967 22.6685-23.8892Q21.4355-23.6816 20.3613-23.3154ZM25.7324-2.34375Q22.4609-2.34375 20.8374-4.12598Q19.2139-5.9082 19.2139-8.54492Q19.2139-11.1084 20.9473-12.915Q22.6807-14.7217 25.9521-14.7217L61.9873-14.7217Q62.1826-14.7217 62.3413-14.7217Q62.5-14.7217 62.6709-14.7217Q61.2793-11.6943 61.2671-8.43506Q61.2549-5.17578 62.5977-2.34375ZM24.7803-19.8486L31.2744-19.8486L31.2744-69.6045L24.7803-69.6045Z"/>
  </g>
  <g id="Semibold-S" transform="matrix(1 0 0 1 1999.87 696)">
   <path d="M36.3531-50.8701L60.9442-50.8701Q62.2248-50.8701 63.1325-51.7778Q64.0402-52.6855 64.0402-53.9661Q64.0402-55.2134 63.1325-56.1211Q62.2248-57.0288 60.9442-57.0288L36.3531-57.0288Q35.0726-57.0288 34.1648-56.1211Q33.2571-55.2134 33.2571-53.9661Q33.2571-52.6855 34.1648-51.7778Q35.0726-50.8701 36.3531-50.8701ZM36.3531-40.006L55.3842-40.006Q56.6647-40.006 57.5725-40.9137Q58.4802-41.8214 58.4802-43.102Q58.4802-44.3492 57.5725-45.2569Q56.6647-46.1646 55.3842-46.1646L36.3531-46.1646Q35.0726-46.1646 34.1648-45.2569Q33.2571-44.3492 33.2571-43.102Q33.2571-41.8214 34.1648-40.9137Q35.0726-40.006 36.3531-40.006ZM22.9687 6.62246L72.7642 6.62246Q74.5684 6.62246 75.7967 5.41074Q77.0251 4.19902 77.0251 2.36152Q77.0251 0.723828 76.052-0.35918Q75.0789-1.44219 73.774-2.11006Q71.5567-3.10869 70.6179-5.36133Q69.679-7.61396 70.2871-10.2462Q70.8952-12.8784 73.2678-14.9848Q74.9631-16.3828 75.9708-18.0385Q76.9785-19.6941 76.9785-22.6704L76.9785-63.7297Q76.9785-70.2414 73.5996-73.6537Q70.2206-77.0659 63.7422-77.0659L22.9687-77.0659Q16.4902-77.0659 13.1279-73.6703Q9.76562-70.2747 9.76562-63.7297L9.76562-6.71377Q9.76562-0.16875 13.1279 3.22686Q16.4902 6.62246 22.9687 6.62246ZM19.0639-21.3159L19.0639-62.9488Q19.0639-65.2905 20.2703-66.5291Q21.4767-67.7677 23.916-67.7677L62.7948-67.7677Q65.2497-67.7677 66.4483-66.5291Q67.647-65.2905 67.647-62.9488L67.647-24.1771Q67.647-22.2571 65.6293-22.2571L24.3399-22.2571Q22.8794-22.2571 21.5443-22.0096Q20.2092-21.7621 19.0639-21.3159ZM24.5061-1.89941Q21.4301-1.89941 19.8821-3.55723Q18.3341-5.21504 18.3341-7.83398Q18.3341-10.353 20.0319-12.0441Q21.7298-13.7353 24.8058-13.7353L61.8185-13.7353Q62.0315-13.7353 62.1947-13.7353Q62.3578-13.7353 62.5376-13.7353Q61.2437-10.7968 61.2538-7.7019Q61.2638-4.60703 62.5443-1.89941ZM23.4917-18.169L29.6837-18.169L29.6837-70.0933L23.4917-70.0933Z"/>
  </g>
  <g id="Medium-S" transform="matrix(1 0 0 1 1703.64 696)">
   <path d="M35.1133-50.9375L61.0049-50.9375Q62.2383-50.9375 63.1123-51.8115Q63.9863-52.6855 63.9863-53.9189Q63.9863-55.1123 63.1123-55.9863Q62.2383-56.8604 61.0049-56.8604L35.1133-56.8604Q33.8799-56.8604 33.0059-55.9863Q32.1318-55.1123 32.1318-53.9189Q32.1318-52.6855 33.0059-51.8115Q33.8799-50.9375 35.1133-50.9375ZM35.1133-40.1475L55.209-40.1475Q56.4424-40.1475 57.3164-41.0215Q58.1904-41.8955 58.1904-43.1289Q58.1904-44.3223 57.3164-45.1963Q56.4424-46.0703 55.209-46.0703L35.1133-46.0703Q33.8799-46.0703 33.0059-45.1963Q32.1318-44.3223 32.1318-43.1289Q32.1318-41.8955 33.0059-41.0215Q33.8799-40.1475 35.1133-40.1475ZM22.5576 6.3125L72.124 6.3125Q73.7598 6.3125 74.9106 5.18164Q76.0615 4.05078 76.0615 2.375Q76.0615 0.939453 75.1929-0.0761719Q74.3242-1.0918 73.1406-1.61816Q70.8896-2.52246 69.9238-4.6875Q68.958-6.85254 69.5459-9.44434Q70.1338-12.0361 72.4727-14.2031Q73.8984-15.4395 74.9668-17.0547Q76.0352-18.6699 76.0352-21.626L76.0352-63.8105Q76.0352-70.1875 72.7876-73.4751Q69.54-76.7627 63.2031-76.7627L22.5576-76.7627Q16.2207-76.7627 12.9932-73.4951Q9.76562-70.2275 9.76562-63.8105L9.76562-6.63965Q9.76562-0.222656 12.9932 3.04492Q16.2207 6.3125 22.5576 6.3125ZM18.0801-19.7998L18.0801-63.3262Q18.0801-65.7959 19.3774-67.1221Q20.6748-68.4482 23.2422-68.4482L62.5186-68.4482Q65.0947-68.4482 66.3877-67.1221Q67.6807-65.7959 67.6807-63.3262L67.6807-22.9238Q67.6807-20.8623 65.5215-20.8623L23.6729-20.8623Q22.1045-20.8623 20.6919-20.5845Q19.2793-20.3066 18.0801-19.7998ZM23.5762-1.5625Q20.6484-1.5625 19.1577-3.12598Q17.667-4.68945 17.667-7.29492Q17.667-9.78027 19.3379-11.3838Q21.0088-12.9873 23.9365-12.9873L61.6904-12.9873Q61.917-12.9873 62.0835-12.9873Q62.25-12.9873 62.4365-12.9873Q61.2168-10.1162 61.2437-7.146Q61.2705-4.17578 62.5039-1.5625ZM22.5146-16.8955L28.4775-16.8955L28.4775-70.4639L22.5146-70.4639Z"/>
  </g>
  <g id="Regular-S" transform="matrix(1 0 0 1 1407.56 696)">
   <path d="M33.4961-51.0254L61.084-51.0254Q62.2559-51.0254 63.0859-51.8555Q63.916-52.6855 63.916-53.8574Q63.916-54.9805 63.0859-55.8105Q62.2559-56.6406 61.084-56.6406L33.4961-56.6406Q32.3242-56.6406 31.4941-55.8105Q30.6641-54.9805 30.6641-53.8574Q30.6641-52.6855 31.4941-51.8555Q32.3242-51.0254 33.4961-51.0254ZM33.4961-40.332L54.9805-40.332Q56.1523-40.332 56.9824-41.1621Q57.8125-41.9922 57.8125-43.1641Q57.8125-44.2871 56.9824-45.1172Q56.1523-45.9473 54.9805-45.9473L33.4961-45.9473Q32.3242-45.9473 31.4941-45.1172Q30.6641-44.2871 30.6641-43.1641Q30.6641-41.9922 31.4941-41.1621Q32.3242-40.332 33.4961-40.332ZM22.0215 5.9082L71.2891 5.9082Q72.7051 5.9082 73.7549 4.88281Q74.8047 3.85742 74.8047 2.39258Q74.8047 1.2207 74.0723 0.292969Q73.3398-0.634766 72.3145-0.976562Q70.0195-1.75781 69.0186-3.80859Q68.0176-5.85938 68.5791-8.39844Q69.1406-10.9375 71.4355-13.1836Q72.5098-14.209 73.6572-15.7715Q74.8047-17.334 74.8047-20.2637L74.8047-63.916Q74.8047-70.1172 71.7285-73.2422Q68.6523-76.3672 62.5-76.3672L22.0215-76.3672Q15.8691-76.3672 12.8174-73.2666Q9.76562-70.166 9.76562-63.916L9.76562-6.54297Q9.76562-0.292969 12.8174 2.80762Q15.8691 5.9082 22.0215 5.9082ZM16.7969-17.8223L16.7969-63.8184Q16.7969-66.4551 18.2129-67.8955Q19.6289-69.3359 22.3633-69.3359L62.1582-69.3359Q64.8926-69.3359 66.3086-67.8955Q67.7246-66.4551 67.7246-63.8184L67.7246-21.2891Q67.7246-19.043 65.3809-19.043L22.8027-19.043Q21.0938-19.043 19.5801-18.7256Q18.0664-18.4082 16.7969-17.8223ZM22.3633-1.12305Q19.6289-1.12305 18.2129-2.56348Q16.7969-4.00391 16.7969-6.5918Q16.7969-9.0332 18.4326-10.5225Q20.0684-12.0117 22.8027-12.0117L61.5234-12.0117Q61.7676-12.0117 61.9385-12.0117Q62.1094-12.0117 62.3047-12.0117Q61.1816-9.22852 61.2305-6.4209Q61.2793-3.61328 62.4512-1.12305ZM21.2402-15.2344L26.9043-15.2344L26.9043-70.9473L21.2402-70.9473Z"/>
  </g>
  <g id="Light-S" transform="matrix(1 0 0 1 1111.47 696)">
   <path d="M31.3164-52.312L60.8721-52.312Q61.8017-52.312 62.4577-52.968Q63.1137-53.624 63.1137-54.5537Q63.1137-55.4497 62.4577-56.1057Q61.8017-56.7617 60.8721-56.7617L31.3164-56.7617Q30.3869-56.7617 29.7307-56.1057Q29.0746-55.4497 29.0746-54.5537Q29.0746-53.624 29.7307-52.968Q30.3869-52.312 31.3164-52.312ZM31.3164-41.9062L53.3002-41.9062Q54.215-41.9062 54.8785-42.5699Q55.542-43.2335 55.542-44.148Q55.542-45.0439 54.8785-45.7076Q54.215-46.3712 53.3002-46.3712L31.3164-46.3712Q30.3869-46.3712 29.7307-45.7076Q29.0746-45.0439 29.0746-44.148Q29.0746-43.2335 29.7307-42.5699Q30.3869-41.9062 31.3164-41.9062ZM21.1133 5.6661L70.8651 5.6661Q71.9785 5.6661 72.7709 4.88281Q73.5634 4.09953 73.5634 2.95258Q73.5634 2.06833 73.0202 1.36007Q72.477 0.651805 71.7089 0.370534Q69.2172-0.75887 68.1028-3.01399Q66.9884-5.26911 67.5196-7.97462Q68.0509-10.6801 70.4366-13.1533Q71.5411-14.2848 72.5522-15.9304Q73.5634-17.5761 73.5634-20.3545L73.5634-64.4457Q73.5634-70.208 70.6689-73.1438Q67.7745-76.0796 62.0308-76.0796L21.2646-76.0796Q15.5362-76.0796 12.6509-73.1607Q9.76562-70.2418 9.76562-64.4457L9.76562-5.66508Q9.76562-0.0658671 12.6358 2.80011Q15.506 5.6661 21.1133 5.6661ZM15.1924-15.1886L15.1924-64.3481Q15.1924-67.3935 16.7976-69.0231Q18.4029-70.6528 21.5307-70.6528L61.7645-70.6528Q64.8926-70.6528 66.5054-69.0231Q68.1183-67.3935 68.1183-64.3481L68.1183-21.0922Q68.1183-17.0146 63.9732-17.0146L21.6372-17.0146Q19.6103-17.0146 18.0285-16.5459Q16.4467-16.0772 15.1924-15.1886ZM21.3793 0.239309Q18.3726 0.239309 16.7825-1.3298Q15.1924-2.89892 15.1924-5.72891Q15.1924-8.41268 16.9341-10.0002Q18.6757-11.5878 21.6675-11.5878L61.3721-11.5878Q61.9039-11.5878 62.3397-11.6408Q62.7754-11.6938 63.1978-11.7846Q61.6661-8.60799 61.9344-5.45222Q62.2027-2.29645 64.0709 0.239309ZM19.7721-14.0991L24.2554-14.0991L24.2554-72.0673L19.7721-72.0673Z"/>
  </g>
  <g id="Thin-S" transform="matrix(1 0 0 1 815.578 696)">
   <path d="M28.4335-54.0136L60.592-54.0136Q61.2009-54.0136 61.6267-54.4393Q62.0525-54.8651 62.0525-55.4747Q62.0525-56.0702 61.6267-56.496Q61.2009-56.9218 60.592-56.9218L28.4335-56.9218Q27.8245-56.9218 27.3985-56.496Q26.9724-56.0702 26.9724-55.4747Q26.9724-54.8651 27.3985-54.4393Q27.8245-54.0136 28.4335-54.0136ZM28.4335-43.9882L51.078-43.9882Q51.6527-43.9882 52.0959-44.4317Q52.5391-44.8752 52.5391-45.4493Q52.5391-46.0449 52.0959-46.4884Q51.6527-46.9319 51.078-46.9319L28.4335-46.9319Q27.8245-46.9319 27.3985-46.4884Q26.9724-46.0449 26.9724-45.4493Q26.9724-44.8752 27.3985-44.4317Q27.8245-43.9882 28.4335-43.9882ZM19.9122 5.34589L70.3044 5.34589Q71.0176 5.34589 71.4696 4.88281Q71.9217 4.41973 71.9217 3.69322Q71.9217 3.18938 71.6287 2.77139Q71.3357 2.3534 70.9081 2.15218Q68.156 0.562311 66.8916-1.96307Q65.6272-4.48845 66.1184-7.4141Q66.6096-10.3397 69.1154-13.1133Q70.2599-14.385 71.0908-16.1406Q71.9217-17.8963 71.9217-20.4745L71.9217-65.1464Q71.9217-70.3281 69.2675-73.0136Q66.6134-75.6991 61.4102-75.6991L20.2637-75.6991Q15.096-75.6991 12.4308-73.0206Q9.76562-70.342 9.76562-65.1464L9.76562-4.504Q9.76562 0.234493 12.3956 2.79019Q15.0257 5.34589 19.9122 5.34589ZM13.0704-11.7054L13.0704-65.0487Q13.0704-68.6346 14.9259-70.5145Q16.7813-72.3944 20.4295-72.3944L61.2439-72.3944Q64.8926-72.3944 66.7658-70.5145Q68.639-68.6346 68.639-65.0487L68.639-20.8319Q68.639-14.3318 62.1115-14.3318L20.0957-14.3318Q17.6484-14.3318 15.9764-13.663Q14.3045-12.9942 13.0704-11.7054ZM20.078 2.04113Q16.711 2.04113 14.8907 0.301829Q13.0704-1.43748 13.0704-4.58768Q13.0704-7.59199 14.9521-9.30953Q16.8339-11.0271 20.166-11.0271L61.172-11.0271Q62.0842-11.0271 62.8702-11.1502Q63.6563-11.2734 64.3791-11.4843Q62.3069-7.7873 62.8654-4.17106Q63.424-0.554829 66.2131 2.04113ZM17.8303-12.5977L20.752-12.5977L20.752-73.5485L17.8303-73.5485Z"/>
  </g>
  <g id="Ultralight-S" transform="matrix(1 0 0 1 519.288 696)">
   <path d="M26.9569-54.8851L60.4485-54.8851Q60.8932-54.8851 61.2011-55.1929Q61.5089-55.5008 61.5089-55.9464Q61.5089-56.3881 61.2011-56.6959Q60.8932-57.0038 60.4485-57.0038L26.9569-57.0038Q26.5121-57.0038 26.2039-56.6959Q25.8957-56.3881 25.8957-55.9464Q25.8957-55.5008 26.2039-55.1929Q26.5121-54.8851 26.9569-54.8851ZM26.9569-45.0546L49.9397-45.0546Q50.3403-45.0546 50.6706-45.3854Q51.001-45.7161 51.001-46.1159Q51.001-46.5576 50.6706-46.8884Q50.3403-47.2191 49.9397-47.2191L26.9569-47.2191Q26.5121-47.2191 26.2039-46.8884Q25.8957-46.5576 25.8957-46.1159Q25.8957-45.7161 26.2039-45.3854Q26.5121-45.0546 26.9569-45.0546ZM19.297 5.18188L70.0172 5.18188Q70.5254 5.18188 70.8031 4.88281Q71.0808 4.58374 71.0808 4.07257Q71.0808 3.76358 70.916 3.49426Q70.7512 3.22495 70.4979 3.06473Q67.6125 1.23901 66.2712-1.42479Q64.93-4.08859 65.4007-7.127Q65.8714-10.1654 68.4387-13.0928Q69.6037-14.4363 70.3423-16.2483Q71.0808-18.0603 71.0808-20.536L71.0808-65.5052Q71.0808-70.3896 68.5497-72.9469Q66.0187-75.5043 61.0924-75.5043L19.751-75.5043Q14.8705-75.5043 12.318-72.9488Q9.76562-70.3934 9.76562-65.5052L9.76562-3.9093Q9.76562 0.388336 12.2726 2.78511Q14.7797 5.18188 19.297 5.18188ZM11.9835-9.92126L11.9835-65.4076Q11.9835-69.2703 13.9671-71.2784Q15.9508-73.2864 19.8654-73.2864L60.9772-73.2864Q64.8926-73.2864 66.8991-71.2784Q68.9056-69.2703 68.9056-65.4076L68.9056-20.6985Q68.9056-12.9578 61.158-12.9578L19.3062-12.9578Q16.6435-12.9578 14.9254-12.1864Q13.2072-11.4151 11.9835-9.92126ZM19.4115 2.96402Q15.86 2.96402 13.9217 1.13754Q11.9835-0.688934 11.9835-4.00314Q11.9835-7.17163 13.937-8.95576Q15.8905-10.7399 19.397-10.7399L61.0695-10.7399Q62.1765-10.7399 63.142-10.899Q64.1075-11.058 64.9841-11.3304Q62.635-7.36694 63.3423-3.51486Q64.0495 0.337219 67.3103 2.96402ZM16.8358-11.8286L18.9575-11.8286L18.9575-74.3073L16.8358-74.3073Z"/>
  </g>
 </g>
</svg>
