<?xml version="1.0" encoding="UTF-8"?>
<!--Generator: Apple Native CoreSVG 175-->
<!DOCTYPE svg
PUBLIC "-//W3C//DTD SVG 1.1//EN"
       "http://www.w3.org/Graphics/SVG/1.1/DTD/svg11.dtd">
<svg version="1.1" xmlns="http://www.w3.org/2000/svg" xmlns:xlink="http://www.w3.org/1999/xlink" width="3300" height="2200">
 <!--glyph: "uni100243.medium", point size: 100.0, font version: "17.1d1e1", template writer version: "65.1"-->
 <g id="Notes">
  <rect height="2200" id="artboard" style="fill:white;opacity:1" width="3300" x="0" y="0"/>
  <line style="fill:none;stroke:black;opacity:1;stroke-width:0.5;" x1="263" x2="3036" y1="292" y2="292"/>
  <text style="stroke:none;fill:black;font-family:sans-serif;font-size:13;font-weight:bold;" transform="matrix(1 0 0 1 263 322)">Weight/Scale Variations</text>
  <text style="stroke:none;fill:black;font-family:sans-serif;font-size:13;text-anchor:middle;" transform="matrix(1 0 0 1 559.711 322)">Ultralight</text>
  <text style="stroke:none;fill:black;font-family:sans-serif;font-size:13;text-anchor:middle;" transform="matrix(1 0 0 1 856.422 322)">Thin</text>
  <text style="stroke:none;fill:black;font-family:sans-serif;font-size:13;text-anchor:middle;" transform="matrix(1 0 0 1 1153.13 322)">Light</text>
  <text style="stroke:none;fill:black;font-family:sans-serif;font-size:13;text-anchor:middle;" transform="matrix(1 0 0 1 1449.84 322)">Regular</text>
  <text style="stroke:none;fill:black;font-family:sans-serif;font-size:13;text-anchor:middle;" transform="matrix(1 0 0 1 1746.56 322)">Medium</text>
  <text style="stroke:none;fill:black;font-family:sans-serif;font-size:13;text-anchor:middle;" transform="matrix(1 0 0 1 2043.27 322)">Semibold</text>
  <text style="stroke:none;fill:black;font-family:sans-serif;font-size:13;text-anchor:middle;" transform="matrix(1 0 0 1 2339.98 322)">Bold</text>
  <text style="stroke:none;fill:black;font-family:sans-serif;font-size:13;text-anchor:middle;" transform="matrix(1 0 0 1 2636.69 322)">Heavy</text>
  <text style="stroke:none;fill:black;font-family:sans-serif;font-size:13;text-anchor:middle;" transform="matrix(1 0 0 1 2933.4 322)">Black</text>
  <line style="fill:none;stroke:black;opacity:1;stroke-width:0.5;" x1="263" x2="3036" y1="1903" y2="1903"/>
  <g transform="matrix(1 0 0 1 263 1933)">
   <path d="M9.24805 0.830078Q10.8691 0.830078 12.2949 0.214844Q13.7207-0.400391 14.8096-1.49414Q15.8984-2.58789 16.5186-4.01367Q17.1387-5.43945 17.1387-7.05078Q17.1387-8.66211 16.5186-10.0879Q15.8984-11.5137 14.8047-12.6074Q13.7109-13.7012 12.2852-14.3164Q10.8594-14.9316 9.23828-14.9316Q7.62695-14.9316 6.20117-14.3164Q4.77539-13.7012 3.69141-12.6074Q2.60742-11.5137 1.9873-10.0879Q1.36719-8.66211 1.36719-7.05078Q1.36719-5.43945 1.9873-4.01367Q2.60742-2.58789 3.69629-1.49414Q4.78516-0.400391 6.21094 0.214844Q7.63672 0.830078 9.24805 0.830078ZM9.24805-0.654297Q7.91992-0.654297 6.7627-1.14746Q5.60547-1.64062 4.73145-2.51953Q3.85742-3.39844 3.36426-4.56055Q2.87109-5.72266 2.87109-7.05078Q2.87109-8.37891 3.35938-9.54102Q3.84766-10.7031 4.72168-11.582Q5.5957-12.4609 6.75293-12.9541Q7.91016-13.4473 9.23828-13.4473Q10.5762-13.4473 11.7334-12.9541Q12.8906-12.4609 13.7695-11.582Q14.6484-10.7031 15.1465-9.54102Q15.6445-8.37891 15.6445-7.05078Q15.6445-5.72266 15.1514-4.56055Q14.6582-3.39844 13.7842-2.51953Q12.9102-1.64062 11.748-1.14746Q10.5859-0.654297 9.24805-0.654297ZM5.6543-7.05078Q5.6543-6.72852 5.85938-6.52832Q6.06445-6.32812 6.40625-6.32812L8.51562-6.32812L8.51562-4.20898Q8.51562-3.88672 8.71094-3.67676Q8.90625-3.4668 9.23828-3.4668Q9.56055-3.4668 9.77051-3.67676Q9.98047-3.88672 9.98047-4.20898L9.98047-6.32812L12.0898-6.32812Q12.4219-6.32812 12.627-6.52832Q12.832-6.72852 12.832-7.05078Q12.832-7.38281 12.627-7.58789Q12.4219-7.79297 12.0898-7.79297L9.98047-7.79297L9.98047-9.90234Q9.98047-10.2344 9.77051-10.4443Q9.56055-10.6543 9.23828-10.6543Q8.90625-10.6543 8.71094-10.4443Q8.51562-10.2344 8.51562-9.90234L8.51562-7.79297L6.40625-7.79297Q6.06445-7.79297 5.85938-7.58789Q5.6543-7.38281 5.6543-7.05078Z"/>
  </g>
  <g transform="matrix(1 0 0 1 281.867 1933)">
   <path d="M11.709 2.91016Q13.75 2.91016 15.5518 2.12891Q17.3535 1.34766 18.7305-0.0292969Q20.1074-1.40625 20.8887-3.20801Q21.6699-5.00977 21.6699-7.05078Q21.6699-9.0918 20.8887-10.8936Q20.1074-12.6953 18.7305-14.0723Q17.3535-15.4492 15.5469-16.2305Q13.7402-17.0117 11.6992-17.0117Q9.6582-17.0117 7.85645-16.2305Q6.05469-15.4492 4.68262-14.0723Q3.31055-12.6953 2.5293-10.8936Q1.74805-9.0918 1.74805-7.05078Q1.74805-5.00977 2.5293-3.20801Q3.31055-1.40625 4.6875-0.0292969Q6.06445 1.34766 7.86621 2.12891Q9.66797 2.91016 11.709 2.91016ZM11.709 1.25Q9.98047 1.25 8.47656 0.605469Q6.97266-0.0390625 5.83496-1.17676Q4.69727-2.31445 4.05762-3.81836Q3.41797-5.32227 3.41797-7.05078Q3.41797-8.7793 4.05762-10.2832Q4.69727-11.7871 5.83008-12.9297Q6.96289-14.0723 8.4668-14.7119Q9.9707-15.3516 11.6992-15.3516Q13.4277-15.3516 14.9316-14.7119Q16.4355-14.0723 17.5781-12.9297Q18.7207-11.7871 19.3652-10.2832Q20.0098-8.7793 20.0098-7.05078Q20.0098-5.32227 19.3701-3.81836Q18.7305-2.31445 17.5928-1.17676Q16.4551-0.0390625 14.9463 0.605469Q13.4375 1.25 11.709 1.25ZM7.17773-7.05078Q7.17773-6.69922 7.41211-6.47461Q7.64648-6.25 8.01758-6.25L10.8887-6.25L10.8887-3.36914Q10.8887-2.99805 11.1133-2.76855Q11.3379-2.53906 11.6895-2.53906Q12.0605-2.53906 12.29-2.76855Q12.5195-2.99805 12.5195-3.36914L12.5195-6.25L15.4004-6.25Q15.7715-6.25 16.001-6.47461Q16.2305-6.69922 16.2305-7.05078Q16.2305-7.42188 16.001-7.65137Q15.7715-7.88086 15.4004-7.88086L12.5195-7.88086L12.5195-10.752Q12.5195-11.1328 12.29-11.3623Q12.0605-11.5918 11.6895-11.5918Q11.3379-11.5918 11.1133-11.3574Q10.8887-11.123 10.8887-10.752L10.8887-7.88086L8.01758-7.88086Q7.63672-7.88086 7.40723-7.65137Q7.17773-7.42188 7.17773-7.05078Z"/>
  </g>
  <g transform="matrix(1 0 0 1 305.646 1933)">
   <path d="M14.9707 5.66406Q17.0605 5.66406 18.96 5.01465Q20.8594 4.36523 22.4512 3.19336Q24.043 2.02148 25.2197 0.429688Q26.3965-1.16211 27.0459-3.06641Q27.6953-4.9707 27.6953-7.05078Q27.6953-9.14062 27.0459-11.04Q26.3965-12.9395 25.2197-14.5312Q24.043-16.123 22.4512-17.2998Q20.8594-18.4766 18.9551-19.126Q17.0508-19.7754 14.9609-19.7754Q12.8711-19.7754 10.9717-19.126Q9.07227-18.4766 7.48535-17.2998Q5.89844-16.123 4.72168-14.5312Q3.54492-12.9395 2.90039-11.04Q2.25586-9.14062 2.25586-7.05078Q2.25586-4.9707 2.90527-3.06641Q3.55469-1.16211 4.72656 0.429688Q5.89844 2.02148 7.49023 3.19336Q9.08203 4.36523 10.9814 5.01465Q12.8809 5.66406 14.9707 5.66406ZM14.9707 3.84766Q13.1641 3.84766 11.5283 3.2959Q9.89258 2.74414 8.53516 1.74805Q7.17773 0.751953 6.17676-0.610352Q5.17578-1.97266 4.62891-3.6084Q4.08203-5.24414 4.08203-7.05078Q4.08203-8.86719 4.62891-10.5029Q5.17578-12.1387 6.17188-13.501Q7.16797-14.8633 8.52539-15.8594Q9.88281-16.8555 11.5186-17.4023Q13.1543-17.9492 14.9609-17.9492Q16.7773-17.9492 18.4131-17.4023Q20.0488-16.8555 21.4111-15.8594Q22.7734-14.8633 23.7695-13.501Q24.7656-12.1387 25.3174-10.5029Q25.8691-8.86719 25.8691-7.05078Q25.8789-5.24414 25.332-3.6084Q24.7852-1.97266 23.7842-0.610352Q22.7832 0.751953 21.4209 1.74805Q20.0586 2.74414 18.4229 3.2959Q16.7871 3.84766 14.9707 3.84766ZM9.19922-7.05078Q9.19922-6.66992 9.45801-6.4209Q9.7168-6.17188 10.1172-6.17188L14.0625-6.17188L14.0625-2.2168Q14.0625-1.81641 14.3115-1.55762Q14.5605-1.29883 14.9512-1.29883Q15.3516-1.29883 15.6104-1.55273Q15.8691-1.80664 15.8691-2.2168L15.8691-6.17188L19.8242-6.17188Q20.2246-6.17188 20.4785-6.4209Q20.7324-6.66992 20.7324-7.05078Q20.7324-7.46094 20.4785-7.71484Q20.2246-7.96875 19.8242-7.96875L15.8691-7.96875L15.8691-11.9141Q15.8691-12.3242 15.6104-12.583Q15.3516-12.8418 14.9512-12.8418Q14.5605-12.8418 14.3115-12.583Q14.0625-12.3242 14.0625-11.9141L14.0625-7.96875L10.1172-7.96875Q9.70703-7.96875 9.45312-7.71484Q9.19922-7.46094 9.19922-7.05078Z"/>
  </g>
  <text style="stroke:none;fill:black;font-family:sans-serif;font-size:13;font-weight:bold;" transform="matrix(1 0 0 1 263 1953)">Design Variations</text>
  <text style="stroke:none;fill:black;font-family:sans-serif;font-size:13;" transform="matrix(1 0 0 1 263 1971)">Symbols are supported in up to nine weights and three scales.</text>
  <text style="stroke:none;fill:black;font-family:sans-serif;font-size:13;" transform="matrix(1 0 0 1 263 1989)">For optimal layout with text and other symbols, vertically align</text>
  <text style="stroke:none;fill:black;font-family:sans-serif;font-size:13;" transform="matrix(1 0 0 1 263 2007)">symbols with the adjacent text.</text>
  <line style="fill:none;stroke:#00AEEF;stroke-width:0.5;opacity:1.0;" x1="776" x2="776" y1="1919" y2="1933"/>
  <g transform="matrix(1 0 0 1 776 1933)">
   <path d="M3.31055 0.15625Q3.70117 0.15625 3.91602-0.00976562Q4.13086-0.175781 4.26758-0.585938L5.52734-4.0332L11.2891-4.0332L12.5488-0.585938Q12.6855-0.175781 12.9004-0.00976562Q13.1152 0.15625 13.4961 0.15625Q13.8867 0.15625 14.1162-0.0585938Q14.3457-0.273438 14.3457-0.644531Q14.3457-0.869141 14.2383-1.17188L9.6582-13.3691Q9.48242-13.8184 9.17969-14.043Q8.87695-14.2676 8.4082-14.2676Q7.5-14.2676 7.17773-13.3789L2.59766-1.16211Q2.49023-0.859375 2.49023-0.634766Q2.49023-0.263672 2.70996-0.0537109Q2.92969 0.15625 3.31055 0.15625ZM6.00586-5.51758L8.37891-12.0898L8.42773-12.0898L10.8008-5.51758Z"/>
  </g>
  <line style="fill:none;stroke:#00AEEF;stroke-width:0.5;opacity:1.0;" x1="793.197" x2="793.197" y1="1919" y2="1933"/>
  <text style="stroke:none;fill:black;font-family:sans-serif;font-size:13;font-weight:bold;" transform="matrix(1 0 0 1 776 1953)">Margins</text>
  <text style="stroke:none;fill:black;font-family:sans-serif;font-size:13;" transform="matrix(1 0 0 1 776 1971)">Leading and trailing margins on the left and right side of each symbol</text>
  <text style="stroke:none;fill:black;font-family:sans-serif;font-size:13;" transform="matrix(1 0 0 1 776 1989)">can be adjusted by modifying the x-location of the margin guidelines.</text>
  <text style="stroke:none;fill:black;font-family:sans-serif;font-size:13;" transform="matrix(1 0 0 1 776 2007)">Modifications are automatically applied proportionally to all</text>
  <text style="stroke:none;fill:black;font-family:sans-serif;font-size:13;" transform="matrix(1 0 0 1 776 2025)">scales and weights.</text>
  <g transform="matrix(1 0 0 1 1289 1933)">
   <path d="M2.8418 1.86523L4.54102 3.57422Q5.18555 4.22852 5.90332 4.17969Q6.62109 4.13086 7.31445 3.35938L18.0078-8.42773L17.041-9.4043L6.42578 2.27539Q6.16211 2.57812 5.89355 2.61719Q5.625 2.65625 5.27344 2.30469L4.10156 1.14258Q3.75 0.791016 3.79395 0.522461Q3.83789 0.253906 4.14062-0.0195312L15.6152-10.8203L14.6387-11.7871L3.04688-0.898438Q2.30469-0.214844 2.25098 0.498047Q2.19727 1.21094 2.8418 1.86523ZM9.25781-16.3281Q8.94531-16.0254 8.90625-15.6348Q8.86719-15.2441 9.04297-14.9512Q9.21875-14.6777 9.55566-14.541Q9.89258-14.4043 10.3809-14.5215Q11.4746-14.7754 12.5977-14.7314Q13.7207-14.6875 14.7949-13.9844L14.209-12.5293Q13.9551-11.9043 14.0674-11.4404Q14.1797-10.9766 14.5801-10.5664L16.875-8.25195Q17.2363-7.88086 17.5781-7.82227Q17.9199-7.76367 18.3398-7.8418L19.4043-8.03711L20.0684-7.36328L20.0293-6.80664Q20-6.43555 20.1221-6.12305Q20.2441-5.81055 20.6055-5.44922L21.3672-4.70703Q21.7285-4.3457 22.1533-4.33105Q22.5781-4.31641 22.9297-4.66797L25.8398-7.58789Q26.1914-7.93945 26.1816-8.35449Q26.1719-8.76953 25.8105-9.13086L25.0391-9.89258Q24.6875-10.2539 24.3799-10.3857Q24.0723-10.5176 23.7109-10.4883L23.1348-10.4395L22.4902-11.0742L22.7344-12.1973Q22.832-12.6172 22.6953-12.9834Q22.5586-13.3496 22.1191-13.7891L19.9219-15.9766Q18.6719-17.2168 17.2607-17.8369Q15.8496-18.457 14.4189-18.4814Q12.9883-18.5059 11.665-17.959Q10.3418-17.4121 9.25781-16.3281ZM10.752-15.957Q11.6602-16.6211 12.7002-16.9043Q13.7402-17.1875 14.8047-17.085Q15.8691-16.9824 16.8701-16.5137Q17.8711-16.0449 18.7012-15.2051L21.1328-12.793Q21.3086-12.6172 21.3525-12.4512Q21.3965-12.2852 21.3379-12.0312L21.0156-10.5469L22.5195-9.0625L23.5059-9.12109Q23.6914-9.13086 23.7891-9.09668Q23.8867-9.0625 24.0332-8.91602L24.6094-8.33984L22.168-5.89844L21.5918-6.47461Q21.4453-6.62109 21.4062-6.71875Q21.3672-6.81641 21.377-7.01172L21.4453-7.98828L19.9512-9.47266L18.4277-9.21875Q18.1836-9.16992 18.042-9.2041Q17.9004-9.23828 17.7148-9.41406L15.7129-11.416Q15.5176-11.5918 15.4932-11.7529Q15.4688-11.9141 15.5859-12.1875L16.4648-14.2773Q15.293-15.3711 13.8281-15.791Q12.3633-16.2109 10.8398-15.7617Q10.7227-15.7324 10.6885-15.8057Q10.6543-15.8789 10.752-15.957Z"/>
  </g>
  <text style="stroke:none;fill:black;font-family:sans-serif;font-size:13;font-weight:bold;" transform="matrix(1 0 0 1 1289 1953)">Exporting</text>
  <text style="stroke:none;fill:black;font-family:sans-serif;font-size:13;" transform="matrix(1 0 0 1 1289 1971)">Symbols should be outlined when exporting to ensure the</text>
  <text style="stroke:none;fill:black;font-family:sans-serif;font-size:13;" transform="matrix(1 0 0 1 1289 1989)">design is preserved when submitting to Xcode.</text>
  <text id="template-version" style="stroke:none;fill:black;font-family:sans-serif;font-size:13;text-anchor:end;" transform="matrix(1 0 0 1 3036 1933)">Template v.3.0</text>
  <text style="stroke:none;fill:black;font-family:sans-serif;font-size:13;text-anchor:end;" transform="matrix(1 0 0 1 3036 1951)">Requires Xcode 13 or greater</text>
  <text id="descriptive-name" style="stroke:none;fill:black;font-family:sans-serif;font-size:13;text-anchor:end;" transform="matrix(1 0 0 1 3036 1969)">Generated from doc.on.clipboard</text>
  <text style="stroke:none;fill:black;font-family:sans-serif;font-size:13;text-anchor:end;" transform="matrix(1 0 0 1 3036 1987)">Typeset at 100 points</text>
  <text style="stroke:none;fill:black;font-family:sans-serif;font-size:13;" transform="matrix(1 0 0 1 263 726)">Small</text>
  <text style="stroke:none;fill:black;font-family:sans-serif;font-size:13;" transform="matrix(1 0 0 1 263 1156)">Medium</text>
  <text style="stroke:none;fill:black;font-family:sans-serif;font-size:13;" transform="matrix(1 0 0 1 263 1586)">Large</text>
 </g>
 <g id="Guides">
  <g id="H-reference" style="fill:#27AAE1;stroke:none;" transform="matrix(1 0 0 1 339 696)">
   <path d="M0.993347 0L3.6377 0L29.3282-67.1326L30.0301-67.1326L30.0301-70.459L28.1227-70.459ZM11.6882-24.4797L46.9818-24.4797L46.2311-26.7288L12.4382-26.7288ZM55.1193 0L57.7637 0L30.6381-70.459L29.4327-70.459L29.4327-67.1326Z"/>
  </g>
  <line id="Baseline-S" style="fill:none;stroke:#27AAE1;opacity:1;stroke-width:0.5;" x1="263" x2="3036" y1="696" y2="696"/>
  <line id="Capline-S" style="fill:none;stroke:#27AAE1;opacity:1;stroke-width:0.5;" x1="263" x2="3036" y1="625.541" y2="625.541"/>
  <g id="H-reference" style="fill:#27AAE1;stroke:none;" transform="matrix(1 0 0 1 339 1126)">
   <path d="M0.993347 0L3.6377 0L29.3282-67.1326L30.0301-67.1326L30.0301-70.459L28.1227-70.459ZM11.6882-24.4797L46.9818-24.4797L46.2311-26.7288L12.4382-26.7288ZM55.1193 0L57.7637 0L30.6381-70.459L29.4327-70.459L29.4327-67.1326Z"/>
  </g>
  <line id="Baseline-M" style="fill:none;stroke:#27AAE1;opacity:1;stroke-width:0.5;" x1="263" x2="3036" y1="1126" y2="1126"/>
  <line id="Capline-M" style="fill:none;stroke:#27AAE1;opacity:1;stroke-width:0.5;" x1="263" x2="3036" y1="1055.54" y2="1055.54"/>
  <g id="H-reference" style="fill:#27AAE1;stroke:none;" transform="matrix(1 0 0 1 339 1556)">
   <path d="M0.993347 0L3.6377 0L29.3282-67.1326L30.0301-67.1326L30.0301-70.459L28.1227-70.459ZM11.6882-24.4797L46.9818-24.4797L46.2311-26.7288L12.4382-26.7288ZM55.1193 0L57.7637 0L30.6381-70.459L29.4327-70.459L29.4327-67.1326Z"/>
  </g>
  <line id="Baseline-L" style="fill:none;stroke:#27AAE1;opacity:1;stroke-width:0.5;" x1="263" x2="3036" y1="1556" y2="1556"/>
  <line id="Capline-L" style="fill:none;stroke:#27AAE1;opacity:1;stroke-width:0.5;" x1="263" x2="3036" y1="1485.54" y2="1485.54"/>
  <line id="left-margin-Regular-M" style="fill:none;stroke:#00AEEF;stroke-width:0.5;opacity:1.0;" x1="1387.47" x2="1387.47" y1="1030.79" y2="1150.12"/>
  <line id="right-margin-Regular-M" style="fill:none;stroke:#00AEEF;stroke-width:0.5;opacity:1.0;" x1="1512.22" x2="1512.22" y1="1030.79" y2="1150.12"/>
 </g>
 <g id="Symbols">
  <g id="Black-L" transform="matrix(1 0 0 1 2847.97 1556)">
   <path d="M49.3291-68.7884L71.8007-68.7884L112.441-28.3971L112.441 12.5981L131.07 12.5981Q142.396 12.5981 148.587 6.39669Q154.779 0.195259 154.779-11.1735L154.779-94.6363Q154.779-105.984 148.587-112.196Q142.396-118.408 131.07-118.408L73.0175-118.408Q61.6927-118.408 55.5109-112.207Q49.3291-106.005 49.3291-94.6363ZM88.654-92.5394Q86.4351-92.5394 85.0148-94.061Q83.5944-95.5825 83.5944-97.511L83.5944-99.185Q83.5944-100.588 84.8395-102.372Q86.0846-104.157 88.654-104.157L115.512-104.157Q118.081-104.157 119.326-102.372Q120.571-100.588 120.571-99.185L120.571-97.511Q120.571-95.5825 119.121-94.061Q117.672-92.5394 115.512-92.5394ZM16.084 24.1721Q16.084 35.5409 22.2652 41.7423Q28.4464 47.9438 39.7724 47.9438L97.8247 47.9438Q109.151 47.9438 115.342 41.7319Q121.534 35.5201 121.534 24.1721L121.534-21.7804Q121.534-29.1023 120.024-33.8066Q118.514-38.511 113.9-43.1462L81.8039-75.428Q77.2519-80.0216 72.5378-81.542Q67.8237-83.0624 60.7295-83.0624L39.7724-83.0624Q28.4476-83.0624 22.2658-76.8505Q16.084-70.6387 16.084-59.2907ZM36.065 21.4414L36.065-56.56Q36.065-59.8228 37.6236-61.4521Q39.1823-63.0813 42.628-63.0813L57.4183-63.0813L57.4183-35.6541Q57.4183-26.0612 61.9805-21.5118Q66.5426-16.9624 76.1099-16.9624L101.532-16.9624L101.532 21.4414Q101.532 24.6494 100.012 26.3061Q98.4928 27.9628 94.9899 27.9628L42.6072 27.9628Q39.1823 27.9628 37.6236 26.3061Q36.065 24.6494 36.065 21.4414ZM77.4007-32.6468Q73.1027-32.6468 73.1027-36.9448L73.1027-60.3587L100.606-32.6468Z"/>
  </g>
  <g id="Heavy-L" transform="matrix(1 0 0 1 2552.46 1556)">
   <path d="M48.6905-70.8724L70.3181-70.8724L112.141-29.1779L112.141 12.5701L129.707 12.5701Q140.62 12.5701 146.492 6.68573Q152.364 0.801395 152.364-10.1774L152.364-94.6982Q152.364-105.647 146.492-111.546Q140.62-117.446 129.707-117.446L71.3174-117.446Q60.4101-117.446 54.5503-111.561Q48.6905-105.677 48.6905-94.6982ZM86.7061-92.6735Q84.5406-92.6735 83.2276-94.0972Q81.9145-95.5209 81.9145-97.3219L81.9145-98.9143Q81.9145-100.314 83.0937-101.938Q84.2729-103.563 86.7061-103.563L114.393-103.563Q116.821-103.563 118-101.938Q119.179-100.314 119.179-98.9143L119.179-97.3219Q119.179-95.5209 117.844-94.0972Q116.509-92.6735 114.393-92.6735ZM16.084 24.1876Q16.084 35.1664 21.941 41.0508Q27.7979 46.9351 38.7107 46.9351L97.1007 46.9351Q108.014 46.9351 113.886 41.0357Q119.758 35.1363 119.758 24.1876L119.758-22.6547Q119.758-29.6125 118.355-33.9787Q116.952-38.3449 112.576-42.7511L79.6942-75.8986Q75.4088-80.2445 71.0302-81.6625Q66.6517-83.0806 60.0204-83.0806L38.7107-83.0806Q27.8035-83.0806 21.9437-77.1811Q16.084-71.2817 16.084-60.3331ZM33.5844 22.0634L33.5844-58.2089Q33.5844-61.8441 35.3843-63.7121Q37.1843-65.5802 41.0161-65.5802L57.3452-65.5802L57.3452-35.9124Q57.3452-27.2062 61.5169-23.0608Q65.6887-18.9154 74.3422-18.9154L102.227-18.9154L102.227 22.0634Q102.227 25.6708 100.462 27.5528Q98.6963 29.4347 94.8255 29.4347L40.9858 29.4347Q37.1843 29.4347 35.3843 27.5528Q33.5844 25.6708 33.5844 22.0634ZM75.5806-32.9903Q71.4202-32.9903 71.4202-37.1507L71.4202-62.9546L101.083-32.9903Z"/>
  </g>
  <g id="Bold-L" transform="matrix(1 0 0 1 2257.19 1556)">
   <path d="M47.9736-73.3722L68.4295-73.3722L111.69-30.1237L111.69 12.5467L128.151 12.5467Q138.527 12.5467 144.011 7.05056Q149.494 1.55441 149.494-8.91054L149.494-94.8048Q149.494-105.232 144.011-110.747Q138.527-116.262 128.151-116.262L69.2791-116.262Q58.9166-116.262 53.4451-110.766Q47.9736-105.27 47.9736-94.8048ZM84.5242-92.8798Q82.4429-92.8798 81.2605-94.1806Q80.0781-95.4813 80.0781-97.1211L80.0781-98.6061Q80.0781-99.983 81.1729-101.415Q82.2676-102.847 84.5242-102.847L112.973-102.847Q115.216-102.847 116.311-101.415Q117.406-99.983 117.406-98.6061L117.406-97.1211Q117.406-95.4813 116.209-94.1806Q115.012-92.8798 112.973-92.8798ZM16.084 24.2478Q16.084 34.7127 21.5488 40.2089Q27.0136 45.705 37.3893 45.705L96.2613 45.705Q106.637 45.705 112.121 40.1899Q117.605 34.6749 117.605 24.2478L117.605-23.82Q117.605-30.25 116.336-34.1752Q115.068-38.1003 111.036-42.17L76.9997-76.5346Q73.0819-80.5286 69.1444-81.8161Q65.2069-83.1037 59.1816-83.1037L37.3893-83.1037Q27.0268-83.1037 21.5554-77.5885Q16.084-72.0733 16.084-61.6464ZM30.5258 22.802L30.5258-60.2007Q30.5258-64.3192 32.6291-66.4906Q34.7324-68.6619 39.063-68.6619L57.3946-68.6619L57.3946-36.3244Q57.3946-28.6798 61.0934-25.0264Q64.7923-21.373 72.346-21.373L103.125-21.373L103.125 22.802Q103.125 26.9312 101.048 29.0972Q98.9722 31.2633 94.6257 31.2633L39.0249 31.2633Q34.7324 31.2633 32.6291 29.0972Q30.5258 26.9312 30.5258 22.802ZM73.4856-33.3907Q69.4124-33.3907 69.4124-37.4639L69.4124-66.1367L101.779-33.3907Z"/>
  </g>
  <g id="Semibold-L" transform="matrix(1 0 0 1 1961.47 1556)">
   <path d="M47.4793-75.0956L67.1274-75.0956L111.379-30.7758L111.379 12.5306L127.078 12.5306Q137.084 12.5306 142.3 7.30207Q147.516 2.07354 147.516-8.03717L147.516-94.8783Q147.516-104.946 142.3-110.196Q137.084-115.446 127.078-115.446L67.8739-115.446Q57.8869-115.446 52.6831-110.217Q47.4793-104.989 47.4793-94.8783ZM83.0201-93.0219Q80.9966-93.0219 79.9044-94.238Q78.8121-95.4541 78.8121-96.9826L78.8121-98.3936Q78.8121-99.755 79.8486-101.055Q80.8852-102.354 83.0201-102.354L111.994-102.354Q114.11-102.354 115.147-101.055Q116.183-99.755 116.183-98.3936L116.183-96.9826Q116.183-95.4541 115.082-94.238Q113.98-93.0219 111.994-93.0219ZM16.084 24.2893Q16.084 34.4 21.2785 39.6285Q26.4729 44.857 36.4783 44.857L95.6826 44.857Q105.688 44.857 110.904 39.6069Q116.12 34.3567 116.12 24.2893L116.12-24.6234Q116.12-30.6896 114.945-34.3106Q113.769-37.9316 109.974-41.7693L75.1421-76.9731Q71.4778-80.7244 67.8444-81.922Q64.2109-83.1196 58.6033-83.1196L36.4783-83.1196Q26.4913-83.1196 21.2876-77.8693Q16.084-72.619 16.084-62.5518ZM28.4171 23.3112L28.4171-61.5738Q28.4171-66.0256 30.7296-68.406Q33.0421-70.7865 37.7166-70.7865L57.4286-70.7865L57.4286-36.6085Q57.4286-29.6956 60.8014-26.3815Q64.1743-23.0673 70.9698-23.0673L103.744-23.0673L103.744 23.3112Q103.744 27.8 101.453 30.1619Q99.1623 32.5239 94.4879 32.5239L37.673 32.5239Q33.0421 32.5239 30.7296 30.1619Q28.4171 27.8 28.4171 23.3112ZM72.0414-33.6666Q68.0282-33.6666 68.0282-37.6798L68.0282-68.3305L102.258-33.6666Z"/>
  </g>
  <g id="Medium-L" transform="matrix(1 0 0 1 1665.51 1556)">
   <path d="M47.1045-76.4023L66.1402-76.4023L111.143-31.2701L111.143 12.5184L126.265 12.5184Q135.989 12.5184 141.002 7.49278Q146.016 2.46716 146.016-7.37494L146.016-94.934Q146.016-104.729 141.002-109.778Q135.989-114.827 126.265-114.827L66.8084-114.827Q57.1062-114.827 52.1053-109.802Q47.1045-104.776 47.1045-94.934ZM81.8796-93.1297Q79.9001-93.1297 78.8761-94.2816Q77.8521-95.4334 77.8521-96.8776L77.8521-98.2325Q77.8521-99.5821 78.8446-100.781Q79.837-101.98 81.8796-101.98L111.251-101.98Q113.271-101.98 114.264-100.781Q115.256-99.5821 115.256-98.2325L115.256-96.8776Q115.256-95.4334 114.227-94.2816Q113.198-93.1297 111.251-93.1297ZM16.084 24.3207Q16.084 34.1628 21.0735 39.1884Q26.063 44.214 35.7875 44.214L95.2439 44.214Q104.969 44.214 109.982 39.1648Q114.995 34.1155 114.995 24.3207L114.995-25.2326Q114.995-31.0229 113.889-34.4133Q112.784-37.8038 109.169-41.4656L73.7335-77.3056Q70.2615-80.8729 66.8586-82.0023Q63.4557-83.1317 58.1649-83.1317L35.7875-83.1317Q26.0852-83.1317 21.0846-78.0822Q16.084-73.0328 16.084-63.2383ZM26.8183 23.6973L26.8183-62.6149Q26.8183-67.3194 29.2894-69.8584Q31.7604-72.3974 36.6956-72.3974L57.4544-72.3974L57.4544-36.8239Q57.4544-30.4659 60.5801-27.4089Q63.7057-24.352 69.9263-24.352L104.213-24.352L104.213 23.6973Q104.213 28.4588 101.76 30.9693Q99.3065 33.4797 94.3834 33.4797L36.648 33.4797Q31.7604 33.4797 29.2894 30.9693Q26.8183 28.4588 26.8183 23.6973ZM70.9463-33.8759Q66.9787-33.8759 66.9787-37.8435L66.9787-69.9939L102.622-33.8759Z"/>
  </g>
  <g id="Regular-L" transform="matrix(1 0 0 1 1369.77 1556)">
   <path d="M46.6157-78.1068L64.8524-78.1068L110.836-31.915L110.836 12.5025L125.204 12.5025Q134.562 12.5025 139.31 7.74153Q144.059 2.98058 144.059-6.51116L144.059-95.0067Q144.059-104.446 139.31-109.233Q134.562-114.02 125.204-114.02L65.4187-114.02Q56.0878-114.02 51.3517-109.259Q46.6157-104.498 46.6157-95.0067ZM80.392-93.2704Q78.4698-93.2704 77.5349-94.3384Q76.6-95.4065 76.6-96.7407L76.6-98.0224Q76.6-99.3566 77.5349-100.425Q78.4698-101.493 80.392-101.493L110.282-101.493Q112.177-101.493 113.112-100.425Q114.047-99.3566 114.047-98.0224L114.047-96.7407Q114.047-95.4065 113.112-94.3384Q112.177-93.2704 110.282-93.2704ZM16.084 24.3617Q16.084 33.8535 20.8061 38.6144Q25.5282 43.3754 34.8865 43.3754L94.6716 43.3754Q104.03 43.3754 108.779 38.5881Q113.527 33.8009 113.527 24.3617L113.527-26.0271Q113.527-31.4576 112.513-34.5473Q111.499-37.637 108.119-41.0694L71.8964-77.7393Q68.6751-81.0666 65.5728-82.107Q62.4706-83.1474 57.5929-83.1474L34.8865-83.1474Q25.5556-83.1474 20.8198-78.36Q16.084-73.5725 16.084-64.1338ZM24.7329 24.2009L24.7329-63.973Q24.7329-69.007 27.4108-71.7528Q30.0887-74.4985 35.364-74.4985L57.4881-74.4985L57.4881-37.1049Q57.4881-31.4706 60.2913-28.7491Q63.0945-26.0277 68.5653-26.0277L104.825-26.0277L104.825 24.2009Q104.825 29.3182 102.16 32.0223Q99.4946 34.7265 94.2471 34.7265L35.311 34.7265Q30.0887 34.7265 27.4108 32.0223Q24.7329 29.3182 24.7329 24.2009ZM69.5179-34.1489Q65.6097-34.1489 65.6097-38.0571L65.6097-72.1636L103.097-34.1489Z"/>
  </g>
  <g id="Light-L" transform="matrix(1 0 0 1 1073.66 1556)">
   <path d="M46.5964-79.3092L63.211-79.3092L110.015-32.4303L110.015 12.5599L124.975 12.5599Q133.799 12.5599 138.327 8.0375Q142.856 3.51511 142.856-5.42317L142.856-95.2738Q142.856-104.179 138.327-108.718Q133.799-113.257 124.975-113.257L64.4455-113.257Q55.6681-113.257 51.1322-108.734Q46.5964-104.212 46.5964-95.2738ZM80.3728-93.6712Q78.6224-93.6712 77.7638-94.6438Q76.9053-95.6165 76.9053-96.817L76.9053-97.9842Q76.9053-99.1847 77.7638-100.157Q78.6224-101.13 80.3728-101.13L109.08-101.13Q110.784-101.13 111.643-100.157Q112.501-99.1847 112.501-97.9842L112.501-96.817Q112.501-95.6165 111.643-94.6438Q110.784-93.6712 109.08-93.6712ZM16.084 24.667Q16.084 33.6053 20.5962 38.1277Q25.1085 42.65 33.9323 42.65L94.4615 42.65Q103.286 42.65 107.815 38.111Q112.344 33.572 112.344 24.667L112.344-27.363Q112.344-31.9347 111.435-34.576Q110.526-37.2173 107.7-40.0769L69.5107-78.5217Q66.7858-81.3148 64.151-82.2407Q61.5163-83.1667 57.2684-83.1667L33.9323-83.1667Q25.1548-83.1667 20.6194-78.6272Q16.084-74.0878 16.084-65.1836ZM22.7099 24.5061L22.7099-65.0228Q22.7099-70.534 25.6263-73.5374Q28.5428-76.5408 34.2953-76.5408L58.4231-76.5408L58.4231-37.9829Q58.4231-32.8446 60.9687-30.4095Q63.5143-27.9744 68.4316-27.9744L105.684-27.9744L105.684 24.5061Q105.684 30.158 102.761 33.0911Q99.838 36.0242 94.1326 36.0242L34.2612 36.0242Q28.5428 36.0242 25.6263 33.0911Q22.7099 30.158 22.7099 24.5061ZM69.0982-34.2633Q64.7128-34.2633 64.7128-38.6487L64.7128-74.1485L104.261-34.2633Z"/>
  </g>
  <g id="Thin-L" transform="matrix(1 0 0 1 777.747 1556)">
   <path d="M46.571-80.8996L61.0401-80.8996L108.93-33.1118L108.93 12.6358L124.672 12.6358Q132.789 12.6358 137.027 8.42894Q141.266 4.22207 141.266-3.98423L141.266-95.627Q141.266-103.825 137.027-108.036Q132.789-112.247 124.672-112.247L63.1584-112.247Q55.1129-112.247 50.842-108.04Q46.571-103.833 46.571-95.627ZM80.3474-94.2013Q78.8243-94.2013 78.0666-95.0478Q77.309-95.8943 77.309-96.9179L77.309-97.9337Q77.309-98.9574 78.0666-99.8039Q78.8243-100.65 80.3474-100.65L107.49-100.65Q108.941-100.65 109.699-99.8039Q110.457-98.9574 110.457-97.9337L110.457-96.9179Q110.457-95.8943 109.699-95.0478Q108.941-94.2013 107.49-94.2013ZM16.084 25.0707Q16.084 33.277 20.3187 37.4839Q24.5534 41.6907 32.6702 41.6907L94.1838 41.6907Q102.302 41.6907 106.54 37.48Q110.779 33.2692 110.779 25.0707L110.779-29.1298Q110.779-32.5658 110.009-34.614Q109.239-36.6621 107.145-38.7644L66.3554-79.5565Q64.287-81.643 62.2706-82.4176Q60.2542-83.1921 56.8393-83.1921L32.6702-83.1921Q24.6247-83.1921 20.3543-78.9807Q16.084-74.7693 16.084-66.5721ZM20.0343 24.9099L20.0343-66.4113Q20.0343-72.5535 23.2662-75.8977Q26.4982-79.2418 32.8818-79.2418L59.6598-79.2418L59.6598-39.144Q59.6598-34.6618 61.8646-32.6054Q64.0694-30.5491 68.2547-30.5491L106.82-30.5491L106.82 24.9099Q106.82 31.2687 103.556 34.5046Q100.292 37.7405 93.9812 37.7405L32.8727 37.7405Q26.4982 37.7405 23.2662 34.5046Q20.0343 31.2687 20.0343 24.9099ZM68.543-34.4147Q63.5266-34.4147 63.5266-39.4311L63.5266-76.7736L105.801-34.4147Z"/>
  </g>
  <g id="Ultralight-L" transform="matrix(1 0 0 1 481.443 1556)">
   <path d="M46.558-81.7142L59.9281-81.7142L108.374-33.4609L108.374 12.6747L124.517 12.6747Q132.272 12.6747 136.362 8.62943Q140.451 4.58418 140.451-3.2472L140.451-95.808Q140.451-103.645 136.362-107.687Q132.272-111.73 124.517-111.73L62.4991-111.73Q54.8286-111.73 50.6933-107.685Q46.558-103.639 46.558-95.808ZM80.3343-94.4728Q78.9277-94.4728 78.2217-95.2547Q77.5158-96.0366 77.5158-96.9696L77.5158-97.9079Q77.5158-98.841 78.2217-99.6228Q78.9277-100.405 80.3343-100.405L106.675-100.405Q107.998-100.405 108.703-99.6228Q109.409-98.841 109.409-97.9079L109.409-96.9696Q109.409-96.0366 108.703-95.2547Q107.998-94.4728 106.675-94.4728ZM16.084 25.2775Q16.084 33.1089 20.1765 37.1541Q24.269 41.1994 32.0237 41.1994L94.0415 41.1994Q101.798 41.1994 105.888 37.1567Q109.977 33.1141 109.977 25.2775L109.977-30.0347Q109.977-32.889 109.279-34.6334Q108.58-36.3778 106.86-38.0921L64.7393-80.0865Q63.0072-81.8112 61.3075-82.5082Q59.6078-83.2052 56.6194-83.2052L32.0237-83.2052Q24.3532-83.2052 20.2186-79.1618Q16.084-75.1184 16.084-67.2833ZM18.6638 25.1167L18.6638-67.1224Q18.6638-73.5879 22.0574-77.1066Q25.451-80.6253 32.1578-80.6253L60.2932-80.6253L60.2932-39.7388Q60.2932-35.5926 62.3235-33.7302Q64.3537-31.8678 68.1641-31.8678L107.401-31.8678L107.401 25.1167Q107.401 31.8375 103.963 35.2286Q100.525 38.6196 93.9037 38.6196L32.1615 38.6196Q25.451 38.6196 22.0574 35.2286Q18.6638 31.8375 18.6638 25.1167ZM68.2587-34.4923Q62.9191-34.4923 62.9191-39.8319L62.9191-78.1182L106.59-34.4923Z"/>
  </g>
  <g id="Black-M" transform="matrix(1 0 0 1 2866.26 1126)">
   <path d="M38.7634-59.6009L56.6788-59.6009L87.2594-29.3348L87.2594 1.85647L102.685 1.85647Q111.743 1.85647 116.784-3.18824Q121.826-8.23296 121.826-17.301L121.826-81.2375Q121.826-90.3001 116.784-95.3476Q111.743-100.395 102.685-100.395L57.8989-100.395Q48.8413-100.395 43.8024-95.3503Q38.7634-90.3056 38.7634-81.2375ZM70.3556-79.569Q68.6137-79.569 67.4315-80.819Q66.2492-82.069 66.2492-83.6544L66.2492-85.006Q66.2492-86.0776 67.2602-87.5845Q68.2711-89.0915 70.3556-89.0915L90.2911-89.0915Q92.3759-89.0915 93.3868-87.5845Q94.3977-86.0776 94.3977-85.006L94.3977-83.6544Q94.3977-82.069 93.187-80.819Q91.9762-79.569 90.2911-79.569ZM12.4609 10.8195Q12.4609 19.8875 17.5 24.9322Q22.5391 29.9769 31.5964 29.9769L76.3827 29.9769Q85.44 29.9769 90.4818 24.9295Q95.5237 19.882 95.5237 10.8195L95.5237-24.2395Q95.5237-30.1087 94.2761-33.9832Q93.0286-37.8576 89.3237-41.5679L64.8668-66.0746Q61.1784-69.774 57.3011-71.0243Q53.4237-72.2746 47.6152-72.2746L31.5964-72.2746Q22.5388-72.2746 17.4999-67.2271Q12.4609-62.1796 12.4609-53.1171ZM29.7989 8.18261L29.7989-50.4802Q29.7989-52.7528 30.8314-53.8447Q31.8639-54.9366 34.2662-54.9366L44.6738-54.9366L44.6738-35.4554Q44.6738-27.3285 48.509-23.4956Q52.3442-19.6626 60.4666-19.6626L78.1802-19.6626L78.1802 8.18261Q78.1802 10.3972 77.1792 11.5181Q76.1781 12.639 73.7184 12.639L34.2608 12.639Q31.8639 12.639 30.8314 11.5181Q29.7989 10.3972 29.7989 8.18261ZM61.473-32.9489Q57.9601-32.9489 57.9601-36.4617L57.9601-52.7362L77.6925-32.9489Z"/>
  </g>
  <g id="Heavy-M" transform="matrix(1 0 0 1 2570.67 1126)">
   <path d="M38.141-61.5272L55.3809-61.5272L87.0416-30.0507L87.0416 1.82374L101.374 1.82374Q110.077 1.82374 114.827-2.933Q119.576-7.68973 119.576-16.4276L119.576-81.2733Q119.576-89.9948 114.827-94.7597Q110.077-99.5247 101.374-99.5247L56.3268-99.5247Q47.6263-99.5247 42.8836-94.7679Q38.141-90.0112 38.141-81.2733ZM68.453-79.6631Q66.7477-79.6631 65.6633-80.8262Q64.5789-81.9893 64.5789-83.4625L64.5789-84.7449Q64.5789-85.8255 65.5324-87.1849Q66.4859-88.5443 68.453-88.5443L89.3081-88.5443Q91.2729-88.5443 92.2265-87.1849Q93.18-85.8255 93.18-84.7449L93.18-83.4625Q93.18-81.9893 92.0738-80.8262Q90.9676-79.6631 89.3081-79.6631ZM12.4609 10.8065Q12.4609 19.5443 17.2024 24.3011Q21.9439 29.0578 30.6466 29.0578L75.6943 29.0578Q84.3971 29.0578 89.1467 24.2929Q93.8964 19.5279 93.8964 10.8065L93.8964-24.971Q93.8964-30.5634 92.7438-34.1487Q91.5911-37.734 88.0683-41.2733L63.0245-66.4624Q59.5509-69.9689 55.9585-71.1298Q52.3661-72.2906 46.9519-72.2906L30.6466-72.2906Q21.9461-72.2906 17.2035-67.5257Q12.4609-62.7607 12.4609-54.0393ZM27.5605 8.7625L27.5605-51.9953Q27.5605-54.5878 28.8069-55.8894Q30.0533-57.191 32.7891-57.191L44.5161-57.191L44.5161-35.6269Q44.5161-28.3211 47.9934-24.8566Q51.4706-21.3921 58.7509-21.3921L78.7804-21.3921L78.7804 8.7625Q78.7804 11.3182 77.5629 12.6382Q76.3454 13.9582 73.5683 13.9582L32.7726 13.9582Q30.0533 13.9582 28.8069 12.6382Q27.5605 11.3182 27.5605 8.7625ZM59.7324-33.2741Q56.3982-33.2741 56.3982-36.6083L56.3982-55.0906L78.0506-33.2741Z"/>
  </g>
  <g id="Bold-M" transform="matrix(1 0 0 1 2275.22 1126)">
   <path d="M37.4448-63.682L53.929-63.682L86.7981-30.8514L86.7981 1.78712L99.9081 1.78712Q108.214 1.78712 112.637-2.64747Q117.06-7.08206 117.06-15.4506L117.06-81.3134Q117.06-89.6533 112.637-94.1022Q108.214-98.5511 99.9081-98.5511L54.5681-98.5511Q46.267-98.5511 41.8559-94.1165Q37.4448-89.6819 37.4448-81.3134ZM66.3248-79.7684Q64.6603-79.7684 63.6853-80.8343Q62.7103-81.9002 62.7103-83.2479L62.7103-84.4528Q62.7103-85.5435 63.5996-86.7379Q64.489-87.9323 66.3248-87.9323L88.2084-87.9323Q90.0391-87.9323 90.9285-86.7379Q91.8178-85.5435 91.8178-84.4528L91.8178-83.2479Q91.8178-81.9002 90.8286-80.8343Q89.8393-79.7684 88.2084-79.7684ZM12.4609 10.7919Q12.4609 19.1605 16.8695 23.595Q21.278 28.0296 29.5842 28.0296L74.9242 28.0296Q83.2304 28.0296 87.6532 23.5807Q92.0761 19.1319 92.0761 10.7919L92.0761-25.7892Q92.0761-31.072 91.0296-34.3339Q89.9832-37.5957 86.6638-40.9437L60.9637-66.8962Q57.7302-70.187 54.4566-71.2478Q51.183-72.3086 46.2099-72.3086L29.5842-72.3086Q21.2831-72.3086 16.872-67.8596Q12.4609-63.4107 12.4609-55.0709ZM25.0566 9.41119L25.0566-53.6901Q25.0566-56.6405 26.5423-58.1767Q28.0279-59.7128 31.1366-59.7128L44.3397-59.7128L44.3397-35.8188Q44.3397-29.4314 47.4166-26.3791Q50.4935-23.3269 56.8316-23.3269L79.4517-23.3269L79.4517 9.41119Q79.4517 12.3485 77.9921 13.8912Q76.5325 15.4339 73.4004 15.4339L31.108 15.4339Q28.0279 15.4339 26.5423 13.8912Q25.0566 12.3485 25.0566 9.41119ZM57.7853-33.638Q54.6509-33.638 54.6509-36.7724L54.6509-57.7245L78.4512-33.638Z"/>
  </g>
  <g id="Semibold-M" transform="matrix(1 0 0 1 1979.37 1126)">
   <path d="M36.9648-65.1675L52.9281-65.1675L86.6302-31.4034L86.6302 1.76188L98.8973 1.76188Q106.93 1.76188 111.127-2.45063Q115.325-6.66313 115.325-14.777L115.325-81.341Q115.325-89.4179 111.127-93.6489Q106.93-97.8799 98.8973-97.8799L53.3556-97.8799Q45.33-97.8799 41.1474-93.6674Q36.9648-89.4549 36.9648-81.341ZM64.8576-79.841Q63.2212-79.841 62.3217-80.8399Q61.4221-81.8388 61.4221-83.0999L61.4221-84.2514Q61.4221-85.3491 62.2672-86.4297Q63.1123-87.5103 64.8576-87.5103L87.4503-87.5103Q89.1886-87.5103 90.0337-86.4297Q90.8788-85.3491 90.8788-84.2514L90.8788-83.0999Q90.8788-81.8388 89.9701-80.8399Q89.0615-79.841 87.4503-79.841ZM12.4609 10.7819Q12.4609 18.8958 16.64 23.1083Q20.819 27.3208 28.8517 27.3208L74.3933 27.3208Q82.4261 27.3208 86.6236 23.0898Q90.8212 18.8588 90.8212 10.7819L90.8212-26.3532Q90.8212-31.4227 89.8479-34.4616Q88.8746-37.5004 85.6956-40.7164L59.543-67.1953Q56.4751-70.3373 53.4213-71.3291Q50.3674-72.3209 45.6984-72.3209L28.8517-72.3209Q20.8261-72.3209 16.6435-68.0899Q12.4609-63.8588 12.4609-55.782ZM23.3305 9.85839L23.3305-54.8585Q23.3305-58.0556 24.981-59.7535Q26.6316-61.4514 29.9974-61.4514L44.2181-61.4514L44.2181-35.951Q44.2181-30.1969 47.019-27.4288Q49.8198-24.6607 55.5085-24.6607L79.9145-24.6607L79.9145 9.85839Q79.9145 13.0587 78.288 14.755Q76.6615 16.4513 73.2846 16.4513L29.9603 16.4513Q26.6316 16.4513 24.981 14.755Q23.3305 13.0587 23.3305 9.85839ZM56.443-33.8888Q53.4463-33.8888 53.4463-36.8854L53.4463-59.5402L78.7274-33.8888Z"/>
  </g>
  <g id="Medium-M" transform="matrix(1 0 0 1 1683.32 1126)">
   <path d="M36.6008-66.2939L52.1692-66.2939L86.5029-31.822L86.5029 1.74273L98.1308 1.74273Q105.956 1.74273 109.983-2.30137Q114.009-6.34548 114.009-14.2663L114.009-81.3619Q114.009-89.2394 109.983-93.3052Q105.956-97.3709 98.1308-97.3709L52.4363-97.3709Q44.6195-97.3709 40.6102-93.3268Q36.6008-89.2827 36.6008-81.3619ZM63.7451-79.896Q62.1301-79.896 61.2877-80.8441Q60.4453-81.7922 60.4453-82.9877L60.4453-84.0987Q60.4453-85.2017 61.2569-86.196Q62.0684-87.1904 63.7451-87.1904L86.8755-87.1904Q88.5436-87.1904 89.3552-86.196Q90.1667-85.2017 90.1667-84.0987L90.1667-82.9877Q90.1667-81.7922 89.3192-80.8441Q88.4717-79.896 86.8755-79.896ZM12.4609 10.7743Q12.4609 18.6951 16.4659 22.7392Q20.471 26.7833 28.2963 26.7833L73.9908 26.7833Q81.8162 26.7833 85.8429 22.7176Q89.8696 18.6518 89.8696 10.7743L89.8696-26.7809Q89.8696-31.6886 88.9519-34.5584Q88.0341-37.4281 84.9615-40.5441L58.4657-67.422Q55.5234-70.4513 52.6362-71.3908Q49.749-72.3303 45.3105-72.3303L28.2963-72.3303Q20.4795-72.3303 16.4702-68.2645Q12.4609-64.1986 12.4609-56.3213ZM22.0216 10.1975L22.0216-55.7445Q22.0216-59.1287 23.7972-60.9492Q25.5728-62.7696 29.1337-62.7696L44.1259-62.7696L44.1259-36.0513Q44.1259-30.7773 46.7175-28.2246Q49.309-25.672 54.5052-25.672L80.2654-25.672L80.2654 10.1975Q80.2654 13.5973 78.5124 15.41Q76.7593 17.2227 73.1969 17.2227L29.0902 17.2227Q25.5728 17.2227 23.7972 15.41Q22.0216 13.5973 22.0216 10.1975ZM55.4252-34.079Q52.533-34.079 52.533-36.9712L52.533-60.917L78.9368-34.079Z"/>
  </g>
  <g id="Regular-M" transform="matrix(1 0 0 1 1387.47 1126)">
   <path d="M36.1261-67.7631L51.1793-67.7631L86.3368-32.368L86.3368 1.71777L97.131 1.71777Q104.686 1.71777 108.49-2.10669Q112.294-5.93115 112.294-13.6002L112.294-81.3892Q112.294-89.0065 108.49-92.8568Q104.686-96.7071 97.131-96.7071L51.2372-96.7071Q43.6928-96.7071 39.9094-92.8827Q36.1261-89.0582 36.1261-81.3892ZM62.2941-79.9678Q60.7068-79.9678 59.9391-80.8496Q59.1713-81.7314 59.1713-82.8413L59.1713-83.8995Q59.1713-85.0094 59.9391-85.8912Q60.7068-86.773 62.2941-86.773L86.1257-86.773Q87.7024-86.773 88.4702-85.8912Q89.238-85.0094 89.238-83.8995L89.238-82.8413Q89.238-81.7314 88.4702-80.8496Q87.7024-79.9678 86.1257-79.9678ZM12.4609 10.7644Q12.4609 18.4334 16.239 22.2579Q20.017 26.0823 27.5719 26.0823L73.4657 26.0823Q81.0208 26.0823 84.8246 22.232Q88.6285 18.3817 88.6285 10.7644L88.6285-27.3388Q88.6285-32.0354 87.7831-34.6846Q86.9378-37.3339 84.0039-40.3194L57.0606-67.7178Q54.2821-70.6 51.6122-71.4713Q48.9424-72.3426 44.8046-72.3426L27.5719-72.3426Q20.0274-72.3426 16.2442-68.4922Q12.4609-64.6418 12.4609-57.0246ZM20.3144 10.6398L20.3144-56.9Q20.3144-60.5282 22.2531-62.5087Q24.1919-64.4891 28.007-64.4891L44.0056-64.4891L44.0056-36.1821Q44.0056-31.5343 46.3242-29.2627Q48.6428-26.9911 53.1966-26.9911L80.7232-26.9911L80.7232 10.6398Q80.7232 14.2997 78.805 16.2643Q76.8869 18.2288 73.0824 18.2288L27.9552 18.2288Q24.1919 18.2288 22.2531 16.2643Q20.3144 14.2997 20.3144 10.6398ZM54.0976-34.3271Q51.3417-34.3271 51.3417-37.083L51.3417-62.7128L79.2099-34.3271Z"/>
  </g>
  <g id="Light-M" transform="matrix(1 0 0 1 1091.3 1126)">
   <path d="M36.1088-68.8412L49.7076-68.8412L85.6011-32.83L85.6011 1.76923L96.9258 1.76923Q104.001 1.76923 107.608-1.84134Q111.216-5.45191 111.216-12.6247L111.216-81.6286Q111.216-88.7671 107.608-92.3948Q104.001-96.0226 96.9258-96.0226L50.3647-96.0226Q43.3164-96.0226 39.7126-92.412Q36.1088-88.8015 36.1088-81.6286ZM62.2768-80.3271Q60.8437-80.3271 60.1443-81.1234Q59.445-81.9197 59.445-82.9097L59.445-83.8653Q59.445-84.8553 60.1443-85.6516Q60.8437-86.4479 62.2768-86.4479L85.0476-86.4479Q86.4533-86.4479 87.1526-85.6516Q87.852-84.8553 87.852-83.8653L87.852-82.9097Q87.852-81.9197 87.1526-81.1234Q86.4533-80.3271 85.0476-80.3271ZM12.4609 11.0381Q12.4609 18.2109 16.0508 21.8215Q19.6407 25.432 26.7163 25.432L73.2774 25.432Q80.3535 25.432 83.9606 21.8042Q87.5677 18.1765 87.5677 11.0381L87.5677-28.5365Q87.5677-32.4631 86.8165-34.7103Q86.0653-36.9576 83.6276-39.4297L54.9217-68.4193Q52.5882-70.8225 50.3375-71.5912Q48.0868-72.3598 44.5137-72.3598L26.7163-72.3598Q19.6681-72.3598 16.0645-68.7318Q12.4609-65.1038 12.4609-57.9658ZM18.5007 10.9134L18.5007-57.8412Q18.5007-61.8972 20.6533-64.1087Q22.8059-66.3201 27.0488-66.3201L44.8439-66.3201L44.8439-36.9693Q44.8439-32.7662 46.9315-30.7513Q49.0191-28.7365 53.0767-28.7365L81.4931-28.7365L81.4931 10.9134Q81.4931 15.0526 79.3439 17.2225Q77.1948 19.3923 72.9798 19.3923L27.0139 19.3923Q22.8059 19.3923 20.6533 17.2225Q18.5007 15.0526 18.5007 10.9134ZM53.7213-34.4297Q50.5376-34.4297 50.5376-37.6134L50.5376-64.4924L80.2537-34.4297Z"/>
  </g>
  <g id="Thin-M" transform="matrix(1 0 0 1 795.297 1126)">
   <path d="M36.086-70.267L47.7613-70.267L84.6281-33.441L84.6281 1.83729L96.6543 1.83729Q103.096 1.83729 106.443-1.4904Q109.79-4.81809 109.79-11.3347L109.79-81.9454Q109.79-88.4503 106.443-91.7838Q103.096-95.1173 96.6543-95.1173L49.2107-95.1173Q42.8187-95.1173 39.4524-91.7896Q36.086-88.4619 36.086-81.9454ZM62.254-80.8024Q61.0247-80.8024 60.4158-81.4856Q59.807-82.1688 59.807-83.0002L59.807-83.8201Q59.807-84.6515 60.4158-85.3347Q61.0247-86.0179 62.254-86.0179L83.6218-86.0179Q84.8012-86.0179 85.4101-85.3347Q86.0189-84.6515 86.0189-83.8201L86.0189-83.0002Q86.0189-82.1688 85.4101-81.4856Q84.8012-80.8024 83.6218-80.8024ZM12.4609 11.4Q12.4609 17.9166 15.8019 21.2443Q19.1429 24.572 25.5848 24.572L73.0284 24.572Q79.471 24.572 82.8178 21.2385Q86.1647 17.905 86.1647 11.4L86.1647-30.1205Q86.1647-33.0289 85.538-34.7444Q84.9113-36.4598 83.1299-38.2529L52.0929-69.347Q50.348-71.1168 48.6516-71.7497Q46.9553-72.3826 44.1289-72.3826L25.5848-72.3826Q19.1928-72.3826 15.8269-69.0487Q12.4609-65.7148 12.4609-59.2107ZM16.1019 11.2754L16.1019-59.0861Q16.1019-63.7079 18.5374-66.2248Q20.9729-68.7417 25.7815-68.7417L45.9526-68.7417L45.9526-38.0103Q45.9526-34.3954 47.7347-32.7201Q49.5168-31.0448 52.9182-31.0448L82.5113-31.0448L82.5113 11.2754Q82.5113 16.0484 80.0567 18.4897Q77.602 20.931 72.844 20.931L25.7691 20.931Q20.9729 20.931 18.5374 18.4897Q16.1019 16.0484 16.1019 11.2754ZM53.2236-34.5654Q49.4741-34.5654 49.4741-38.3149L49.4741-66.8459L81.6343-34.5654Z"/>
  </g>
  <g id="Ultralight-M" transform="matrix(1 0 0 1 498.951 1126)">
   <path d="M36.0743-70.9973L46.7644-70.9973L84.1298-33.7539L84.1298 1.87215L96.5153 1.87215Q102.632 1.87215 105.846-1.31065Q109.059-4.49344 109.059-10.6739L109.059-82.1076Q109.059-88.2881 105.846-91.4709Q102.632-94.6536 96.5153-94.6536L48.6196-94.6536Q42.5638-94.6536 39.3191-91.4708Q36.0743-88.288 36.0743-82.1076ZM62.2423-81.0458Q61.1174-81.0458 60.5549-81.6711Q59.9924-82.2964 59.9924-83.0466L59.9924-83.7969Q59.9924-84.5471 60.5549-85.1724Q61.1174-85.7976 62.2423-85.7976L82.8915-85.7976Q83.9551-85.7976 84.5176-85.1724Q85.0801-84.5471 85.0801-83.7969L85.0801-83.0466Q85.0801-82.2964 84.5176-81.6711Q83.9551-81.0458 82.8915-81.0458ZM12.4609 11.5854Q12.4609 17.7659 15.6745 20.9487Q18.888 24.1314 25.0052 24.1314L72.9008 24.1314Q79.019 24.1314 82.2325 20.9487Q85.446 17.7659 85.446 11.5854L85.446-30.9318Q85.446-33.3187 84.8831-34.7618Q84.3202-36.2049 82.8749-37.6501L50.6439-69.8222Q49.2005-71.2675 47.7881-71.8309Q46.3757-72.3943 43.9318-72.3943L25.0052-72.3943Q18.9494-72.3943 15.7052-69.211Q12.4609-66.0278 12.4609-59.8483ZM14.8732 11.4608L14.8732-59.7237Q14.8732-64.6352 17.4536-67.3087Q20.034-69.9821 25.1325-69.9821L46.5205-69.9821L46.5205-38.5435Q46.5205-35.2299 48.1461-33.7285Q49.7717-32.2271 52.8369-32.2271L83.0328-32.2271L83.0328 11.4608Q83.0328 16.5585 80.4217 19.1388Q77.8106 21.7192 72.7745 21.7192L25.1315 21.7192Q20.034 21.7192 17.4536 19.1388Q14.8732 16.5585 14.8732 11.4608ZM52.9687-34.635Q48.9294-34.635 48.9294-38.6742L48.9294-68.0514L82.3414-34.635Z"/>
  </g>
  <g id="Black-S" transform="matrix(1 0 0 1 2880.47 696)">
   <path d="M30.5664-53.8086L44.7266-53.8086L68.4082-30.4199L68.4082-6.15234L80.8594-6.15234Q88.0371-6.15234 92.0654-10.1807Q96.0938-14.209 96.0938-21.3867L96.0938-71.2891Q96.0938-78.4668 92.0654-82.4951Q88.0371-86.5234 80.8594-86.5234L45.8008-86.5234Q38.623-86.5234 34.5947-82.4951Q30.5664-78.4668 30.5664-71.2891ZM55.7129-69.9707Q54.3457-69.9707 53.3936-70.9717Q52.4414-71.9727 52.4414-73.2422L52.4414-74.3164Q52.4414-75.1465 53.2471-76.3672Q54.0527-77.5879 55.7129-77.5879L70.9961-77.5879Q72.6562-77.5879 73.4619-76.3672Q74.2676-75.1465 74.2676-74.3164L74.2676-73.2422Q74.2676-71.9727 73.291-70.9717Q72.3145-69.9707 70.9961-69.9707ZM9.76562 0.878906Q9.76562 8.05664 13.7939 12.085Q17.8223 16.1133 25 16.1133L60.0586 16.1133Q67.2363 16.1133 71.2646 12.085Q75.293 8.05664 75.293 0.878906L75.293-26.4648Q75.293-31.1035 74.292-34.2041Q73.291-37.3047 70.3613-40.2344L51.2695-59.3262Q48.3398-62.2559 45.2393-63.2568Q42.1387-64.2578 37.5-64.2578L25-64.2578Q17.8223-64.2578 13.7939-60.2295Q9.76562-56.2012 9.76562-49.0234ZM23.9258-1.36719L23.9258-46.7773Q23.9258-48.4863 24.6826-49.292Q25.4395-50.0977 27.2461-50.0977L35.1074-50.0977L35.1074-35.4004Q35.1074-28.8086 38.208-25.708Q41.3086-22.6074 47.9004-22.6074L61.1328-22.6074L61.1328-1.36719Q61.1328 0.292969 60.4004 1.12305Q59.668 1.95312 57.8125 1.95312L27.2461 1.95312Q25.4395 1.95312 24.6826 1.12305Q23.9258 0.292969 23.9258-1.36719ZM48.6816-33.3496Q45.8496-33.3496 45.8496-36.1816L45.8496-48.3398L60.8398-33.3496Z"/>
  </g>
  <g id="Heavy-S" transform="matrix(1 0 0 1 2584.65 696)">
   <path d="M30.0363-55.3183L43.8046-55.3183L68.316-30.9731L68.316-6.18692L79.7646-6.18692Q86.7003-6.18692 90.5039-9.99627Q94.3075-13.8056 94.3075-20.7644L94.3075-71.2891Q94.3075-78.2363 90.5039-82.0514Q86.7003-85.8665 79.7646-85.8665L44.5677-85.8665Q37.6319-85.8665 33.8341-82.0572Q30.0363-78.2478 30.0363-71.2891ZM54.0879-70.0053Q52.7323-70.0053 51.855-70.9429Q50.9778-71.8805 50.9778-73.0693L50.9778-74.0974Q50.9778-74.9506 51.7431-76.056Q52.5085-77.1615 54.0879-77.1615L70.2931-77.1615Q71.8726-77.1615 72.6379-76.056Q73.4032-74.9506 73.4032-74.0974L73.4032-73.0693Q73.4032-71.8805 72.5074-70.9429Q71.6115-70.0053 70.2931-70.0053ZM9.76562 0.832808Q9.76562 7.79158 13.5635 11.6009Q17.3613 15.4103 24.297 15.4103L59.4939 15.4103Q66.4296 15.4103 70.2332 11.5952Q74.0368 7.78005 74.0368 0.832808L74.0368-26.9373Q74.0368-31.4377 73.105-34.3424Q72.1731-37.2471 69.3357-40.0961L49.9673-59.5682Q47.1643-62.3942 44.2539-63.3317Q41.3435-64.2693 36.9699-64.2693L24.297-64.2693Q17.3613-64.2693 13.5635-60.4542Q9.76562-56.6391 9.76562-49.6919ZM22.2432-0.906209L22.2432-47.9528Q22.2432-49.8808 23.1556-50.8363Q24.068-51.7918 26.1052-51.7918L34.8654-51.7918L34.8654-35.4465Q34.8654-29.5001 37.6894-26.6818Q40.5134-23.8636 46.4483-23.8636L61.5477-23.8636L61.5477-0.906209Q61.5477 0.984437 60.6597 1.95857Q59.7717 2.9327 57.6973 2.9327L26.0936 2.9327Q24.068 2.9327 23.1556 1.95857Q22.2432 0.984437 22.2432-0.906209ZM47.2411-33.6147Q44.6165-33.6147 44.6165-36.2393L44.6165-50.1261L61.0127-33.6147Z"/>
  </g>
  <g id="Bold-S" transform="matrix(1 0 0 1 2288.94 696)">
   <path d="M29.4434-57.0068L42.7734-57.0068L68.2129-31.5918L68.2129-6.22559L78.54-6.22559Q85.2051-6.22559 88.7573-9.79004Q92.3096-13.3545 92.3096-20.0684L92.3096-71.2891Q92.3096-77.9785 88.7573-81.5552Q85.2051-85.1318 78.54-85.1318L43.1885-85.1318Q36.5234-85.1318 32.9834-81.5674Q29.4434-78.0029 29.4434-71.2891ZM52.2705-70.0439Q50.9277-70.0439 50.1343-70.9106Q49.3408-71.7773 49.3408-72.876L49.3408-73.8525Q49.3408-74.7314 50.061-75.708Q50.7812-76.6846 52.2705-76.6846L69.5068-76.6846Q70.9961-76.6846 71.7163-75.708Q72.4365-74.7314 72.4365-73.8525L72.4365-72.876Q72.4365-71.7773 71.6309-70.9106Q70.8252-70.0439 69.5068-70.0439ZM9.76562 0.78125Q9.76562 7.49512 13.3057 11.0596Q16.8457 14.624 23.5107 14.624L58.8623 14.624Q65.5273 14.624 69.0796 11.0474Q72.6318 7.4707 72.6318 0.78125L72.6318-27.4658Q72.6318-31.8115 71.7773-34.4971Q70.9229-37.1826 68.1885-39.9414L48.5107-59.8389Q45.8496-62.5488 43.1519-63.4155Q40.4541-64.2822 36.377-64.2822L23.5107-64.2822Q16.8457-64.2822 13.3057-60.7056Q9.76562-57.1289 9.76562-50.4395ZM20.3613-0.390625L20.3613-49.2676Q20.3613-51.4404 21.4478-52.5635Q22.5342-53.6865 24.8291-53.6865L34.5947-53.6865L34.5947-35.498Q34.5947-30.2734 37.1094-27.771Q39.624-25.2686 44.8242-25.2686L62.0117-25.2686L62.0117-0.390625Q62.0117 1.75781 60.9497 2.89307Q59.8877 4.02832 57.5684 4.02832L24.8047 4.02832Q22.5342 4.02832 21.4478 2.89307Q20.3613 1.75781 20.3613-0.390625ZM45.6299-33.9111Q43.2373-33.9111 43.2373-36.3037L43.2373-52.124L61.2061-33.9111Z"/>
  </g>
  <g id="Semibold-S" transform="matrix(1 0 0 1 1992.92 696)">
   <path d="M29.0346-58.171L42.0625-58.171L68.1418-32.0184L68.1418-6.25225L77.6958-6.25225Q84.1742-6.25225 87.5532-9.64785Q90.9321-13.0435 90.9321-19.5885L90.9321-71.2891Q90.9321-77.8008 87.5532-81.213Q84.1742-84.6253 77.6958-84.6253L42.2376-84.6253Q35.7592-84.6253 32.3969-81.2297Q29.0346-77.8341 29.0346-71.2891ZM51.0175-70.0706Q49.6836-70.0706 48.9479-70.8884Q48.2122-71.7062 48.2122-72.7427L48.2122-73.6837Q48.2122-74.5804 48.9013-75.4681Q49.5904-76.3558 51.0175-76.3558L68.9647-76.3558Q70.3918-76.3558 71.0809-75.4681Q71.77-74.5804 71.77-73.6837L71.77-72.7427Q71.77-71.7062 71.0266-70.8884Q70.2831-70.0706 68.9647-70.0706ZM9.76562 0.745703Q9.76562 7.29072 13.1279 10.6863Q16.4902 14.0819 22.9687 14.0819L58.4269 14.0819Q64.9053 14.0819 68.2842 10.6697Q71.6632 7.25742 71.6632 0.745703L71.6632-27.8302Q71.6632-32.0692 70.862-34.6037Q70.0608-37.1382 67.3976-39.8348L47.5065-60.0255Q44.9432-62.6555 42.392-63.4733Q39.8409-64.2911 35.9682-64.2911L22.9687-64.2911Q16.4902-64.2911 13.1279-60.8789Q9.76562-57.4666 9.76562-50.9549ZM19.0639-0.0351562L19.0639-50.174Q19.0639-52.5157 20.2703-53.7543Q21.4767-54.9929 23.9493-54.9929L34.4081-54.9929L34.4081-35.5336Q34.4081-30.8066 36.7095-28.5219Q39.0108-26.2372 43.7045-26.2372L62.3316-26.2372L62.3316-0.0351562Q62.3316 2.29102 61.1497 3.53735Q59.9677 4.78369 57.4795 4.78369L23.916 4.78369Q21.4767 4.78369 20.2703 3.53735Q19.0639 2.29102 19.0639-0.0351562ZM44.519-34.1155Q42.2864-34.1155 42.2864-36.3481L42.2864-53.5015L61.3394-34.1155Z"/>
  </g>
  <g id="Medium-S" transform="matrix(1 0 0 1 1696.73 696)">
   <path d="M28.7246-59.0537L41.5234-59.0537L68.0879-32.3418L68.0879-6.27246L77.0557-6.27246Q83.3926-6.27246 86.6401-9.54004Q89.8877-12.8076 89.8877-19.2246L89.8877-71.2891Q89.8877-77.666 86.6401-80.9536Q83.3926-84.2412 77.0557-84.2412L41.5166-84.2412Q35.1797-84.2412 31.9521-80.9736Q28.7246-77.7061 28.7246-71.2891ZM50.0674-70.0908Q48.7402-70.0908 48.0483-70.8716Q47.3564-71.6523 47.3564-72.6416L47.3564-73.5557Q47.3564-74.4658 48.022-75.2861Q48.6875-76.1064 50.0674-76.1064L68.5537-76.1064Q69.9336-76.1064 70.5991-75.2861Q71.2646-74.4658 71.2646-73.5557L71.2646-72.6416Q71.2646-71.6523 70.5684-70.8716Q69.8721-70.0908 68.5537-70.0908ZM9.76562 0.71875Q9.76562 7.13574 12.9932 10.4033Q16.2207 13.6709 22.5576 13.6709L58.0967 13.6709Q64.4336 13.6709 67.6812 10.3833Q70.9287 7.0957 70.9287 0.71875L70.9287-28.1064Q70.9287-32.2646 70.168-34.6846Q69.4072-37.1045 66.7979-39.7539L46.7451-60.167Q44.2559-62.7363 41.8159-63.5171Q39.376-64.2979 35.6582-64.2979L22.5576-64.2979Q16.2207-64.2979 12.9932-61.0103Q9.76562-57.7227 9.76562-51.3457ZM18.0801 0.234375L18.0801-50.8613Q18.0801-53.3311 19.3774-54.6572Q20.6748-55.9834 23.2822-55.9834L34.2666-55.9834L34.2666-35.5605Q34.2666-31.2109 36.4062-29.0913Q38.5459-26.9717 42.8555-26.9717L62.5742-26.9717L62.5742 0.234375Q62.5742 2.69531 61.3013 4.02588Q60.0283 5.35645 57.4121 5.35645L23.2422 5.35645Q20.6748 5.35645 19.3774 4.02588Q18.0801 2.69531 18.0801 0.234375ZM43.6768-34.2705Q41.5654-34.2705 41.5654-36.3818L41.5654-54.5459L61.4404-34.2705Z"/>
  </g>
  <g id="Regular-S" transform="matrix(1 0 0 1 1400.7 696)">
   <path d="M28.3203-60.2051L40.8203-60.2051L68.0176-32.7637L68.0176-6.29883L76.2207-6.29883Q82.373-6.29883 85.4492-9.39941Q88.5254-12.5 88.5254-18.75L88.5254-71.2891Q88.5254-77.4902 85.4492-80.6152Q82.373-83.7402 76.2207-83.7402L40.5762-83.7402Q34.4238-83.7402 31.3721-80.6396Q28.3203-77.5391 28.3203-71.2891ZM48.8281-70.1172Q47.5098-70.1172 46.875-70.8496Q46.2402-71.582 46.2402-72.5098L46.2402-73.3887Q46.2402-74.3164 46.875-75.0488Q47.5098-75.7812 48.8281-75.7812L68.0176-75.7812Q69.3359-75.7812 69.9707-75.0488Q70.6055-74.3164 70.6055-73.3887L70.6055-72.5098Q70.6055-71.582 69.9707-70.8496Q69.3359-70.1172 68.0176-70.1172ZM9.76562 0.683594Q9.76562 6.93359 12.8174 10.0342Q15.8691 13.1348 22.0215 13.1348L57.666 13.1348Q63.8184 13.1348 66.8945 10.0098Q69.9707 6.88477 69.9707 0.683594L69.9707-28.4668Q69.9707-32.5195 69.2627-34.79Q68.5547-37.0605 66.0156-39.6484L45.752-60.3516Q43.3594-62.8418 41.0645-63.5742Q38.7695-64.3066 35.2539-64.3066L22.0215-64.3066Q15.8691-64.3066 12.8174-61.1816Q9.76562-58.0566 9.76562-51.8555ZM16.7969 0.585938L16.7969-51.7578Q16.7969-54.3945 18.2129-55.835Q19.6289-57.2754 22.4121-57.2754L34.082-57.2754L34.082-35.5957Q34.082-31.7383 36.0107-29.834Q37.9395-27.9297 41.748-27.9297L62.8906-27.9297L62.8906 0.585938Q62.8906 3.22266 61.499 4.66309Q60.1074 6.10352 57.3242 6.10352L22.3633 6.10352Q19.6289 6.10352 18.2129 4.66309Q16.7969 3.22266 16.7969 0.585938ZM42.5781-34.4727Q40.625-34.4727 40.625-36.4258L40.625-55.9082L61.5723-34.4727Z"/>
  </g>
  <g id="Light-S" transform="matrix(1 0 0 1 1104.46 696)">
   <path d="M28.3051-61.1588L39.5185-61.1588L67.3668-33.1724L67.3668-6.25331L76.0391-6.25331Q81.7675-6.25331 84.6696-9.16468Q87.5717-12.0761 87.5717-17.8871L87.5717-71.5009Q87.5717-77.2784 84.6696-80.2066Q81.7675-83.1347 76.0391-83.1347L39.8043-83.1347Q34.0909-83.1347 31.198-80.2233Q28.3051-77.312 28.3051-71.5009ZM48.8129-70.4351Q47.6308-70.4351 47.0566-71.0918Q46.4823-71.7486 46.4823-72.5703L46.4823-73.3584Q46.4823-74.1801 47.0566-74.8369Q47.6308-75.4936 48.8129-75.4936L67.0639-75.4936Q68.2309-75.4936 68.8052-74.8369Q69.3794-74.1801 69.3794-73.3584L69.3794-72.5703Q69.3794-71.7486 68.8052-71.0918Q68.2309-70.4351 67.0639-70.4351ZM9.76562 0.9257Q9.76562 6.73676 12.6509 9.64813Q15.5362 12.5595 21.2646 12.5595L57.4994 12.5595Q63.2281 12.5595 66.1302 9.63135Q69.0323 6.70319 69.0323 0.9257L69.0323-29.5263Q69.0323-32.8979 68.4076-34.8128Q67.7828-36.7277 65.6827-38.8613L43.8599-60.9721Q41.861-63.0386 39.9368-63.6803Q38.0127-64.3219 34.9965-64.3219L21.2646-64.3219Q15.5512-64.3219 12.6584-61.3936Q9.76562-58.4653 9.76562-52.6881ZM15.1924 0.828044L15.1924-52.5904Q15.1924-55.6056 16.7976-57.2503Q18.4029-58.8951 21.5645-58.8951L34.8236-58.8951L34.8236-36.292Q34.8236-32.828 36.548-31.1508Q38.2723-29.4736 41.642-29.4736L63.5717-29.4736L63.5717 0.828044Q63.5717 3.8887 61.9757 5.51071Q60.3798 7.13272 57.2334 7.13272L21.5307 7.13272Q18.4029 7.13272 16.7976 5.51071Q15.1924 3.8887 15.1924 0.828044ZM42.2452-34.5634Q39.9137-34.5634 39.9137-36.895L39.9137-57.4824L62.4957-34.5634Z"/>
  </g>
  <g id="Thin-S" transform="matrix(1 0 0 1 808.384 696)">
   <path d="M28.2849-62.4201L37.7967-62.4201L66.5061-33.7129L66.5061-6.1931L75.799-6.1931Q80.9667-6.1931 83.6385-8.85423Q86.3104-11.5154 86.3104-16.7459L86.3104-71.7811Q86.3104-76.9982 83.6385-79.666Q80.9667-82.3339 75.799-82.3339L38.7835-82.3339Q33.6507-82.3339 30.9678-79.6727Q28.2849-77.0116 28.2849-71.7811ZM48.7927-70.8555Q47.7909-70.8555 47.2967-71.4122Q46.8025-71.9689 46.8025-72.6503L46.8025-73.3184Q46.8025-73.9998 47.2967-74.5565Q47.7909-75.1132 48.7927-75.1132L65.8026-75.1132Q66.7695-75.1132 67.2637-74.5565Q67.7579-73.9998 67.7579-73.3184L67.7579-72.6503Q67.7579-71.9689 67.2637-71.4122Q66.7695-70.8555 65.8026-70.8555ZM9.76562 1.2459Q9.76562 6.47642 12.4308 9.13755Q15.096 11.7987 20.2637 11.7987L57.2791 11.7987Q62.4474 11.7987 65.1193 9.13086Q67.7912 6.46303 67.7912 1.2459L67.7912-30.9275Q67.7912-33.3984 67.2766-34.8429Q66.762-36.2874 65.2424-37.8203L41.3574-61.7928Q39.8792-63.299 38.4455-63.8205Q37.0117-64.3421 34.6562-64.3421L20.2637-64.3421Q15.1308-64.3421 12.4482-61.674Q9.76562-59.0058 9.76562-53.7893ZM13.0704 1.14825L13.0704-53.6916Q13.0704-57.2073 14.9259-59.1223Q16.7813-61.0373 20.4434-61.0373L35.8044-61.0373L35.8044-37.2129Q35.8044-34.2693 37.2585-32.8924Q38.7126-31.5156 41.5017-31.5156L64.4724-31.5156L64.4724 1.14825Q64.4724 4.7696 62.6062 6.63177Q60.74 8.49393 57.1134 8.49393L20.4295 8.49393Q16.7813 8.49393 14.9259 6.63177Q13.0704 4.7696 13.0704 1.14825ZM41.8049-34.6835Q38.9729-34.6835 38.9729-37.5156L38.9729-59.5644L63.717-34.6835Z"/>
  </g>
  <g id="Ultralight-S" transform="matrix(1 0 0 1 511.996 696)">
   <path d="M28.2745-63.0661L36.9148-63.0661L66.0652-33.9897L66.0652-6.16226L75.676-6.16226Q80.5565-6.16226 83.1104-8.69522Q85.6644-11.2282 85.6644-16.1613L85.6644-71.9246Q85.6644-76.8547 83.1104-79.3892Q80.5565-81.9237 75.676-81.9237L38.2607-81.9237Q33.4251-81.9237 30.8498-79.3907Q28.2745-76.8578 28.2745-71.9246ZM48.7823-71.0709Q47.8729-71.0709 47.4197-71.5763Q46.9666-72.0818 46.9666-72.6913L46.9666-73.2979Q46.9666-73.9075 47.4197-74.4129Q47.8729-74.9184 48.7823-74.9184L65.1566-74.9184Q66.021-74.9184 66.4742-74.4129Q66.9273-73.9075 66.9273-73.2979L66.9273-72.6913Q66.9273-72.0818 66.4742-71.5763Q66.021-71.0709 65.1566-71.0709ZM9.76562 1.40991Q9.76562 6.34308 12.318 8.87604Q14.8705 11.409 19.751 11.409L57.1663 11.409Q62.0476 11.409 64.6015 8.87451Q67.1555 6.34003 67.1555 1.40991L67.1555-31.6452Q67.1555-33.6548 66.6973-34.8583Q66.2392-36.0619 65.0169-37.2871L40.0757-62.2131Q38.8641-63.4323 37.6816-63.8924Q36.499-64.3524 34.4818-64.3524L19.751-64.3524Q14.9155-64.3524 12.3405-61.8176Q9.76562-59.2827 9.76562-54.3533ZM11.9835 1.31226L11.9835-54.2557Q11.9835-58.0276 13.9671-60.0811Q15.9508-62.1346 19.8692-62.1346L36.3068-62.1346L36.3068-37.6846Q36.3068-35.0075 37.6225-33.7845Q38.9381-32.5615 41.4299-32.5615L64.9338-32.5615L64.9338 1.31226Q64.9338 5.22079 62.9292 7.20596Q60.9245 9.19113 57.0518 9.19113L19.8654 9.19113Q15.9508 9.19113 13.9671 7.20596Q11.9835 5.22079 11.9835 1.31226ZM41.5794-34.745Q38.4911-34.745 38.4911-37.8334L38.4911-60.6308L64.3425-34.745Z"/>
  </g>
 </g>
</svg>
