<?xml version="1.0" encoding="UTF-8"?>
<!--Generator: Apple Native CoreSVG 175-->
<!DOCTYPE svg
PUBLIC "-//W3C//DTD SVG 1.1//EN"
       "http://www.w3.org/Graphics/SVG/1.1/DTD/svg11.dtd">
<svg version="1.1" xmlns="http://www.w3.org/2000/svg" xmlns:xlink="http://www.w3.org/1999/xlink" width="3300" height="2200">
 <!--glyph: "uni1002F7.medium", point size: 100.0, font version: "17.1d1e1", template writer version: "65.1"-->
 <g id="Notes">
  <rect height="2200" id="artboard" style="fill:white;opacity:1" width="3300" x="0" y="0"/>
  <line style="fill:none;stroke:black;opacity:1;stroke-width:0.5;" x1="263" x2="3036" y1="292" y2="292"/>
  <text style="stroke:none;fill:black;font-family:sans-serif;font-size:13;font-weight:bold;" transform="matrix(1 0 0 1 263 322)">Weight/Scale Variations</text>
  <text style="stroke:none;fill:black;font-family:sans-serif;font-size:13;text-anchor:middle;" transform="matrix(1 0 0 1 559.711 322)">Ultralight</text>
  <text style="stroke:none;fill:black;font-family:sans-serif;font-size:13;text-anchor:middle;" transform="matrix(1 0 0 1 856.422 322)">Thin</text>
  <text style="stroke:none;fill:black;font-family:sans-serif;font-size:13;text-anchor:middle;" transform="matrix(1 0 0 1 1153.13 322)">Light</text>
  <text style="stroke:none;fill:black;font-family:sans-serif;font-size:13;text-anchor:middle;" transform="matrix(1 0 0 1 1449.84 322)">Regular</text>
  <text style="stroke:none;fill:black;font-family:sans-serif;font-size:13;text-anchor:middle;" transform="matrix(1 0 0 1 1746.56 322)">Medium</text>
  <text style="stroke:none;fill:black;font-family:sans-serif;font-size:13;text-anchor:middle;" transform="matrix(1 0 0 1 2043.27 322)">Semibold</text>
  <text style="stroke:none;fill:black;font-family:sans-serif;font-size:13;text-anchor:middle;" transform="matrix(1 0 0 1 2339.98 322)">Bold</text>
  <text style="stroke:none;fill:black;font-family:sans-serif;font-size:13;text-anchor:middle;" transform="matrix(1 0 0 1 2636.69 322)">Heavy</text>
  <text style="stroke:none;fill:black;font-family:sans-serif;font-size:13;text-anchor:middle;" transform="matrix(1 0 0 1 2933.4 322)">Black</text>
  <line style="fill:none;stroke:black;opacity:1;stroke-width:0.5;" x1="263" x2="3036" y1="1903" y2="1903"/>
  <g transform="matrix(1 0 0 1 263 1933)">
   <path d="M9.24805 0.830078Q10.8691 0.830078 12.2949 0.214844Q13.7207-0.400391 14.8096-1.49414Q15.8984-2.58789 16.5186-4.01367Q17.1387-5.43945 17.1387-7.05078Q17.1387-8.66211 16.5186-10.0879Q15.8984-11.5137 14.8047-12.6074Q13.7109-13.7012 12.2852-14.3164Q10.8594-14.9316 9.23828-14.9316Q7.62695-14.9316 6.20117-14.3164Q4.77539-13.7012 3.69141-12.6074Q2.60742-11.5137 1.9873-10.0879Q1.36719-8.66211 1.36719-7.05078Q1.36719-5.43945 1.9873-4.01367Q2.60742-2.58789 3.69629-1.49414Q4.78516-0.400391 6.21094 0.214844Q7.63672 0.830078 9.24805 0.830078ZM9.24805-0.654297Q7.91992-0.654297 6.7627-1.14746Q5.60547-1.64062 4.73145-2.51953Q3.85742-3.39844 3.36426-4.56055Q2.87109-5.72266 2.87109-7.05078Q2.87109-8.37891 3.35938-9.54102Q3.84766-10.7031 4.72168-11.582Q5.5957-12.4609 6.75293-12.9541Q7.91016-13.4473 9.23828-13.4473Q10.5762-13.4473 11.7334-12.9541Q12.8906-12.4609 13.7695-11.582Q14.6484-10.7031 15.1465-9.54102Q15.6445-8.37891 15.6445-7.05078Q15.6445-5.72266 15.1514-4.56055Q14.6582-3.39844 13.7842-2.51953Q12.9102-1.64062 11.748-1.14746Q10.5859-0.654297 9.24805-0.654297ZM5.6543-7.05078Q5.6543-6.72852 5.85938-6.52832Q6.06445-6.32812 6.40625-6.32812L8.51562-6.32812L8.51562-4.20898Q8.51562-3.88672 8.71094-3.67676Q8.90625-3.4668 9.23828-3.4668Q9.56055-3.4668 9.77051-3.67676Q9.98047-3.88672 9.98047-4.20898L9.98047-6.32812L12.0898-6.32812Q12.4219-6.32812 12.627-6.52832Q12.832-6.72852 12.832-7.05078Q12.832-7.38281 12.627-7.58789Q12.4219-7.79297 12.0898-7.79297L9.98047-7.79297L9.98047-9.90234Q9.98047-10.2344 9.77051-10.4443Q9.56055-10.6543 9.23828-10.6543Q8.90625-10.6543 8.71094-10.4443Q8.51562-10.2344 8.51562-9.90234L8.51562-7.79297L6.40625-7.79297Q6.06445-7.79297 5.85938-7.58789Q5.6543-7.38281 5.6543-7.05078Z"/>
  </g>
  <g transform="matrix(1 0 0 1 281.867 1933)">
   <path d="M11.709 2.91016Q13.75 2.91016 15.5518 2.12891Q17.3535 1.34766 18.7305-0.0292969Q20.1074-1.40625 20.8887-3.20801Q21.6699-5.00977 21.6699-7.05078Q21.6699-9.0918 20.8887-10.8936Q20.1074-12.6953 18.7305-14.0723Q17.3535-15.4492 15.5469-16.2305Q13.7402-17.0117 11.6992-17.0117Q9.6582-17.0117 7.85645-16.2305Q6.05469-15.4492 4.68262-14.0723Q3.31055-12.6953 2.5293-10.8936Q1.74805-9.0918 1.74805-7.05078Q1.74805-5.00977 2.5293-3.20801Q3.31055-1.40625 4.6875-0.0292969Q6.06445 1.34766 7.86621 2.12891Q9.66797 2.91016 11.709 2.91016ZM11.709 1.25Q9.98047 1.25 8.47656 0.605469Q6.97266-0.0390625 5.83496-1.17676Q4.69727-2.31445 4.05762-3.81836Q3.41797-5.32227 3.41797-7.05078Q3.41797-8.7793 4.05762-10.2832Q4.69727-11.7871 5.83008-12.9297Q6.96289-14.0723 8.4668-14.7119Q9.9707-15.3516 11.6992-15.3516Q13.4277-15.3516 14.9316-14.7119Q16.4355-14.0723 17.5781-12.9297Q18.7207-11.7871 19.3652-10.2832Q20.0098-8.7793 20.0098-7.05078Q20.0098-5.32227 19.3701-3.81836Q18.7305-2.31445 17.5928-1.17676Q16.4551-0.0390625 14.9463 0.605469Q13.4375 1.25 11.709 1.25ZM7.17773-7.05078Q7.17773-6.69922 7.41211-6.47461Q7.64648-6.25 8.01758-6.25L10.8887-6.25L10.8887-3.36914Q10.8887-2.99805 11.1133-2.76855Q11.3379-2.53906 11.6895-2.53906Q12.0605-2.53906 12.29-2.76855Q12.5195-2.99805 12.5195-3.36914L12.5195-6.25L15.4004-6.25Q15.7715-6.25 16.001-6.47461Q16.2305-6.69922 16.2305-7.05078Q16.2305-7.42188 16.001-7.65137Q15.7715-7.88086 15.4004-7.88086L12.5195-7.88086L12.5195-10.752Q12.5195-11.1328 12.29-11.3623Q12.0605-11.5918 11.6895-11.5918Q11.3379-11.5918 11.1133-11.3574Q10.8887-11.123 10.8887-10.752L10.8887-7.88086L8.01758-7.88086Q7.63672-7.88086 7.40723-7.65137Q7.17773-7.42188 7.17773-7.05078Z"/>
  </g>
  <g transform="matrix(1 0 0 1 305.646 1933)">
   <path d="M14.9707 5.66406Q17.0605 5.66406 18.96 5.01465Q20.8594 4.36523 22.4512 3.19336Q24.043 2.02148 25.2197 0.429688Q26.3965-1.16211 27.0459-3.06641Q27.6953-4.9707 27.6953-7.05078Q27.6953-9.14062 27.0459-11.04Q26.3965-12.9395 25.2197-14.5312Q24.043-16.123 22.4512-17.2998Q20.8594-18.4766 18.9551-19.126Q17.0508-19.7754 14.9609-19.7754Q12.8711-19.7754 10.9717-19.126Q9.07227-18.4766 7.48535-17.2998Q5.89844-16.123 4.72168-14.5312Q3.54492-12.9395 2.90039-11.04Q2.25586-9.14062 2.25586-7.05078Q2.25586-4.9707 2.90527-3.06641Q3.55469-1.16211 4.72656 0.429688Q5.89844 2.02148 7.49023 3.19336Q9.08203 4.36523 10.9814 5.01465Q12.8809 5.66406 14.9707 5.66406ZM14.9707 3.84766Q13.1641 3.84766 11.5283 3.2959Q9.89258 2.74414 8.53516 1.74805Q7.17773 0.751953 6.17676-0.610352Q5.17578-1.97266 4.62891-3.6084Q4.08203-5.24414 4.08203-7.05078Q4.08203-8.86719 4.62891-10.5029Q5.17578-12.1387 6.17188-13.501Q7.16797-14.8633 8.52539-15.8594Q9.88281-16.8555 11.5186-17.4023Q13.1543-17.9492 14.9609-17.9492Q16.7773-17.9492 18.4131-17.4023Q20.0488-16.8555 21.4111-15.8594Q22.7734-14.8633 23.7695-13.501Q24.7656-12.1387 25.3174-10.5029Q25.8691-8.86719 25.8691-7.05078Q25.8789-5.24414 25.332-3.6084Q24.7852-1.97266 23.7842-0.610352Q22.7832 0.751953 21.4209 1.74805Q20.0586 2.74414 18.4229 3.2959Q16.7871 3.84766 14.9707 3.84766ZM9.19922-7.05078Q9.19922-6.66992 9.45801-6.4209Q9.7168-6.17188 10.1172-6.17188L14.0625-6.17188L14.0625-2.2168Q14.0625-1.81641 14.3115-1.55762Q14.5605-1.29883 14.9512-1.29883Q15.3516-1.29883 15.6104-1.55273Q15.8691-1.80664 15.8691-2.2168L15.8691-6.17188L19.8242-6.17188Q20.2246-6.17188 20.4785-6.4209Q20.7324-6.66992 20.7324-7.05078Q20.7324-7.46094 20.4785-7.71484Q20.2246-7.96875 19.8242-7.96875L15.8691-7.96875L15.8691-11.9141Q15.8691-12.3242 15.6104-12.583Q15.3516-12.8418 14.9512-12.8418Q14.5605-12.8418 14.3115-12.583Q14.0625-12.3242 14.0625-11.9141L14.0625-7.96875L10.1172-7.96875Q9.70703-7.96875 9.45312-7.71484Q9.19922-7.46094 9.19922-7.05078Z"/>
  </g>
  <text style="stroke:none;fill:black;font-family:sans-serif;font-size:13;font-weight:bold;" transform="matrix(1 0 0 1 263 1953)">Design Variations</text>
  <text style="stroke:none;fill:black;font-family:sans-serif;font-size:13;" transform="matrix(1 0 0 1 263 1971)">Symbols are supported in up to nine weights and three scales.</text>
  <text style="stroke:none;fill:black;font-family:sans-serif;font-size:13;" transform="matrix(1 0 0 1 263 1989)">For optimal layout with text and other symbols, vertically align</text>
  <text style="stroke:none;fill:black;font-family:sans-serif;font-size:13;" transform="matrix(1 0 0 1 263 2007)">symbols with the adjacent text.</text>
  <line style="fill:none;stroke:#00AEEF;stroke-width:0.5;opacity:1.0;" x1="776" x2="776" y1="1919" y2="1933"/>
  <g transform="matrix(1 0 0 1 776 1933)">
   <path d="M3.31055 0.15625Q3.70117 0.15625 3.91602-0.00976562Q4.13086-0.175781 4.26758-0.585938L5.52734-4.0332L11.2891-4.0332L12.5488-0.585938Q12.6855-0.175781 12.9004-0.00976562Q13.1152 0.15625 13.4961 0.15625Q13.8867 0.15625 14.1162-0.0585938Q14.3457-0.273438 14.3457-0.644531Q14.3457-0.869141 14.2383-1.17188L9.6582-13.3691Q9.48242-13.8184 9.17969-14.043Q8.87695-14.2676 8.4082-14.2676Q7.5-14.2676 7.17773-13.3789L2.59766-1.16211Q2.49023-0.859375 2.49023-0.634766Q2.49023-0.263672 2.70996-0.0537109Q2.92969 0.15625 3.31055 0.15625ZM6.00586-5.51758L8.37891-12.0898L8.42773-12.0898L10.8008-5.51758Z"/>
  </g>
  <line style="fill:none;stroke:#00AEEF;stroke-width:0.5;opacity:1.0;" x1="793.197" x2="793.197" y1="1919" y2="1933"/>
  <text style="stroke:none;fill:black;font-family:sans-serif;font-size:13;font-weight:bold;" transform="matrix(1 0 0 1 776 1953)">Margins</text>
  <text style="stroke:none;fill:black;font-family:sans-serif;font-size:13;" transform="matrix(1 0 0 1 776 1971)">Leading and trailing margins on the left and right side of each symbol</text>
  <text style="stroke:none;fill:black;font-family:sans-serif;font-size:13;" transform="matrix(1 0 0 1 776 1989)">can be adjusted by modifying the x-location of the margin guidelines.</text>
  <text style="stroke:none;fill:black;font-family:sans-serif;font-size:13;" transform="matrix(1 0 0 1 776 2007)">Modifications are automatically applied proportionally to all</text>
  <text style="stroke:none;fill:black;font-family:sans-serif;font-size:13;" transform="matrix(1 0 0 1 776 2025)">scales and weights.</text>
  <g transform="matrix(1 0 0 1 1289 1933)">
   <path d="M2.8418 1.86523L4.54102 3.57422Q5.18555 4.22852 5.90332 4.17969Q6.62109 4.13086 7.31445 3.35938L18.0078-8.42773L17.041-9.4043L6.42578 2.27539Q6.16211 2.57812 5.89355 2.61719Q5.625 2.65625 5.27344 2.30469L4.10156 1.14258Q3.75 0.791016 3.79395 0.522461Q3.83789 0.253906 4.14062-0.0195312L15.6152-10.8203L14.6387-11.7871L3.04688-0.898438Q2.30469-0.214844 2.25098 0.498047Q2.19727 1.21094 2.8418 1.86523ZM9.25781-16.3281Q8.94531-16.0254 8.90625-15.6348Q8.86719-15.2441 9.04297-14.9512Q9.21875-14.6777 9.55566-14.541Q9.89258-14.4043 10.3809-14.5215Q11.4746-14.7754 12.5977-14.7314Q13.7207-14.6875 14.7949-13.9844L14.209-12.5293Q13.9551-11.9043 14.0674-11.4404Q14.1797-10.9766 14.5801-10.5664L16.875-8.25195Q17.2363-7.88086 17.5781-7.82227Q17.9199-7.76367 18.3398-7.8418L19.4043-8.03711L20.0684-7.36328L20.0293-6.80664Q20-6.43555 20.1221-6.12305Q20.2441-5.81055 20.6055-5.44922L21.3672-4.70703Q21.7285-4.3457 22.1533-4.33105Q22.5781-4.31641 22.9297-4.66797L25.8398-7.58789Q26.1914-7.93945 26.1816-8.35449Q26.1719-8.76953 25.8105-9.13086L25.0391-9.89258Q24.6875-10.2539 24.3799-10.3857Q24.0723-10.5176 23.7109-10.4883L23.1348-10.4395L22.4902-11.0742L22.7344-12.1973Q22.832-12.6172 22.6953-12.9834Q22.5586-13.3496 22.1191-13.7891L19.9219-15.9766Q18.6719-17.2168 17.2607-17.8369Q15.8496-18.457 14.4189-18.4814Q12.9883-18.5059 11.665-17.959Q10.3418-17.4121 9.25781-16.3281ZM10.752-15.957Q11.6602-16.6211 12.7002-16.9043Q13.7402-17.1875 14.8047-17.085Q15.8691-16.9824 16.8701-16.5137Q17.8711-16.0449 18.7012-15.2051L21.1328-12.793Q21.3086-12.6172 21.3525-12.4512Q21.3965-12.2852 21.3379-12.0312L21.0156-10.5469L22.5195-9.0625L23.5059-9.12109Q23.6914-9.13086 23.7891-9.09668Q23.8867-9.0625 24.0332-8.91602L24.6094-8.33984L22.168-5.89844L21.5918-6.47461Q21.4453-6.62109 21.4062-6.71875Q21.3672-6.81641 21.377-7.01172L21.4453-7.98828L19.9512-9.47266L18.4277-9.21875Q18.1836-9.16992 18.042-9.2041Q17.9004-9.23828 17.7148-9.41406L15.7129-11.416Q15.5176-11.5918 15.4932-11.7529Q15.4688-11.9141 15.5859-12.1875L16.4648-14.2773Q15.293-15.3711 13.8281-15.791Q12.3633-16.2109 10.8398-15.7617Q10.7227-15.7324 10.6885-15.8057Q10.6543-15.8789 10.752-15.957Z"/>
  </g>
  <text style="stroke:none;fill:black;font-family:sans-serif;font-size:13;font-weight:bold;" transform="matrix(1 0 0 1 1289 1953)">Exporting</text>
  <text style="stroke:none;fill:black;font-family:sans-serif;font-size:13;" transform="matrix(1 0 0 1 1289 1971)">Symbols should be outlined when exporting to ensure the</text>
  <text style="stroke:none;fill:black;font-family:sans-serif;font-size:13;" transform="matrix(1 0 0 1 1289 1989)">design is preserved when submitting to Xcode.</text>
  <text id="template-version" style="stroke:none;fill:black;font-family:sans-serif;font-size:13;text-anchor:end;" transform="matrix(1 0 0 1 3036 1933)">Template v.3.0</text>
  <text style="stroke:none;fill:black;font-family:sans-serif;font-size:13;text-anchor:end;" transform="matrix(1 0 0 1 3036 1951)">Requires Xcode 13 or greater</text>
  <text id="descriptive-name" style="stroke:none;fill:black;font-family:sans-serif;font-size:13;text-anchor:end;" transform="matrix(1 0 0 1 3036 1969)">Generated from list.bullet.below.rectangle</text>
  <text style="stroke:none;fill:black;font-family:sans-serif;font-size:13;text-anchor:end;" transform="matrix(1 0 0 1 3036 1987)">Typeset at 100 points</text>
  <text style="stroke:none;fill:black;font-family:sans-serif;font-size:13;" transform="matrix(1 0 0 1 263 726)">Small</text>
  <text style="stroke:none;fill:black;font-family:sans-serif;font-size:13;" transform="matrix(1 0 0 1 263 1156)">Medium</text>
  <text style="stroke:none;fill:black;font-family:sans-serif;font-size:13;" transform="matrix(1 0 0 1 263 1586)">Large</text>
 </g>
 <g id="Guides">
  <g id="H-reference" style="fill:#27AAE1;stroke:none;" transform="matrix(1 0 0 1 339 696)">
   <path d="M0.993347 0L3.6377 0L29.3282-67.1326L30.0301-67.1326L30.0301-70.459L28.1227-70.459ZM11.6882-24.4797L46.9818-24.4797L46.2311-26.7288L12.4382-26.7288ZM55.1193 0L57.7637 0L30.6381-70.459L29.4327-70.459L29.4327-67.1326Z"/>
  </g>
  <line id="Baseline-S" style="fill:none;stroke:#27AAE1;opacity:1;stroke-width:0.5;" x1="263" x2="3036" y1="696" y2="696"/>
  <line id="Capline-S" style="fill:none;stroke:#27AAE1;opacity:1;stroke-width:0.5;" x1="263" x2="3036" y1="625.541" y2="625.541"/>
  <g id="H-reference" style="fill:#27AAE1;stroke:none;" transform="matrix(1 0 0 1 339 1126)">
   <path d="M0.993347 0L3.6377 0L29.3282-67.1326L30.0301-67.1326L30.0301-70.459L28.1227-70.459ZM11.6882-24.4797L46.9818-24.4797L46.2311-26.7288L12.4382-26.7288ZM55.1193 0L57.7637 0L30.6381-70.459L29.4327-70.459L29.4327-67.1326Z"/>
  </g>
  <line id="Baseline-M" style="fill:none;stroke:#27AAE1;opacity:1;stroke-width:0.5;" x1="263" x2="3036" y1="1126" y2="1126"/>
  <line id="Capline-M" style="fill:none;stroke:#27AAE1;opacity:1;stroke-width:0.5;" x1="263" x2="3036" y1="1055.54" y2="1055.54"/>
  <g id="H-reference" style="fill:#27AAE1;stroke:none;" transform="matrix(1 0 0 1 339 1556)">
   <path d="M0.993347 0L3.6377 0L29.3282-67.1326L30.0301-67.1326L30.0301-70.459L28.1227-70.459ZM11.6882-24.4797L46.9818-24.4797L46.2311-26.7288L12.4382-26.7288ZM55.1193 0L57.7637 0L30.6381-70.459L29.4327-70.459L29.4327-67.1326Z"/>
  </g>
  <line id="Baseline-L" style="fill:none;stroke:#27AAE1;opacity:1;stroke-width:0.5;" x1="263" x2="3036" y1="1556" y2="1556"/>
  <line id="Capline-L" style="fill:none;stroke:#27AAE1;opacity:1;stroke-width:0.5;" x1="263" x2="3036" y1="1485.54" y2="1485.54"/>
  <line id="left-margin-Regular-M" style="fill:none;stroke:#00AEEF;stroke-width:0.5;opacity:1.0;" x1="1390.66" x2="1390.66" y1="1030.79" y2="1150.12"/>
  <line id="right-margin-Regular-M" style="fill:none;stroke:#00AEEF;stroke-width:0.5;opacity:1.0;" x1="1509.02" x2="1509.02" y1="1030.79" y2="1150.12"/>
 </g>
 <g id="Symbols">
  <g id="Black-L" transform="matrix(1 0 0 1 2853.6 1556)">
   <path d="M36.47-8.16582Q36.47-12.4155 33.7244-15.1909Q30.9788-17.9663 26.7071-17.9663Q22.7106-17.9663 19.8476-15.1033Q16.9846-12.2403 16.9846-8.16582Q16.9846-4.34456 19.8476-1.37515Q22.7106 1.59426 26.7071 1.59426Q30.6284 1.59426 33.5492-1.37515Q36.47-4.34456 36.47-8.16582ZM36.47 17.3429Q36.47 13.092 33.7244 10.3062Q30.9788 7.52038 26.7071 7.52038Q22.7106 7.52038 19.8476 10.3938Q16.9846 13.2672 16.9846 17.3429Q16.9846 21.1642 19.8476 24.1434Q22.7106 27.1226 26.7071 27.1226Q30.6284 27.1226 33.5492 24.1434Q36.47 21.1642 36.47 17.3429ZM139.928-8.16582Q139.928-11.5438 137.565-13.7383Q135.202-15.9328 131.759-15.9328L50.5876-15.9328Q47.2032-15.9328 44.88-13.7383Q42.5569-11.5438 42.5569-8.16582Q42.5569-4.86586 44.88-2.63234Q47.2032-0.398813 50.5876-0.398813L131.759-0.398813Q135.202-0.398813 137.565-2.63234Q139.928-4.86586 139.928-8.16582ZM139.928 17.3429Q139.928 13.9637 137.565 11.7594Q135.202 9.55509 131.759 9.55509L50.5876 9.55509Q47.2032 9.55509 44.88 11.7594Q42.5569 13.9637 42.5569 17.3429Q42.5569 20.6429 44.88 22.8764Q47.2032 25.1099 50.5876 25.1099L131.759 25.1099Q135.202 25.1099 137.565 22.8764Q139.928 20.6429 139.928 17.3429ZM37.4093-95.56Q26.1501-95.56 21.1171-90.1008Q16.084-84.6416 16.084-73.5478L16.084-48.5039Q16.084-37.3892 21.1171-31.9398Q26.1501-26.4904 37.4093-26.4904L122.217-26.4904Q133.456-26.4904 138.489-31.9398Q143.522-37.3892 143.522-48.5039L143.522-73.5478Q143.522-84.6416 138.489-90.1008Q133.456-95.56 122.217-95.56ZM36.065-48.0494L36.065-73.9439Q36.065-76.2201 37.1176-77.3962Q38.1702-78.5723 40.4672-78.5723L119.159-78.5723Q121.435-78.5723 122.488-77.3962Q123.541-76.2201 123.541-73.9439L123.541-48.0494Q123.541-45.7523 122.488-44.6048Q121.435-43.4573 119.159-43.4573L40.4672-43.4573Q38.1702-43.4573 37.1176-44.6048Q36.065-45.7523 36.065-48.0494Z"/>
  </g>
  <g id="Heavy-L" transform="matrix(1 0 0 1 2557.77 1556)">
   <path d="M35.1334-8.06266Q35.1334-11.9693 32.5753-14.5526Q30.0172-17.1358 26.0746-17.1358Q22.371-17.1358 19.7208-14.4856Q17.0707-11.8355 17.0707-8.06266Q17.0707-4.49281 19.7208-1.76853Q22.371 0.955747 26.0746 0.955747Q29.7495 0.955747 32.4414-1.76853Q35.1334-4.49281 35.1334-8.06266ZM35.1334 17.2204Q35.1334 13.3081 32.5753 10.7098Q30.0172 8.11152 26.0746 8.11152Q22.371 8.11152 19.7208 10.7767Q17.0707 13.442 17.0707 17.2204Q17.0707 20.7903 19.7208 23.5269Q22.371 26.2634 26.0746 26.2634Q29.7495 26.2634 32.4414 23.5269Q35.1334 20.7903 35.1334 17.2204ZM138.513-8.06266Q138.513-11.1047 136.368-13.088Q134.223-15.0713 131.079-15.0713L48.9955-15.0713Q45.8962-15.0713 43.7885-13.088Q41.6808-11.1047 41.6808-8.06266Q41.6808-5.08978 43.7885-3.07192Q45.8962-1.05405 48.9955-1.05405L131.079-1.05405Q134.223-1.05405 136.368-3.07192Q138.513-5.08978 138.513-8.06266ZM138.513 17.2204Q138.513 14.1728 136.368 12.1772Q134.223 10.1817 131.079 10.1817L48.9955 10.1817Q45.8962 10.1817 43.7885 12.1772Q41.6808 14.1728 41.6808 17.2204Q41.6808 20.1933 43.7885 22.2112Q45.8962 24.229 48.9955 24.229L131.079 24.229Q134.223 24.229 136.368 22.2112Q138.513 20.1933 138.513 17.2204ZM36.463-94.8083Q25.6341-94.8083 20.859-89.6196Q16.084-84.4308 16.084-73.8377L16.084-47.754Q16.084-37.1307 20.859-31.9542Q25.6341-26.7777 36.463-26.7777L121.395-26.7777Q132.2-26.7777 136.975-31.9542Q141.75-37.1307 141.75-47.754L141.75-73.8377Q141.75-84.4308 136.975-89.6196Q132.2-94.8083 121.395-94.8083ZM33.5844-47.3352L33.5844-74.2118Q33.5844-76.9696 34.805-78.3511Q36.0257-79.7327 38.8135-79.7327L119.045-79.7327Q121.803-79.7327 123.026-78.3511Q124.249-76.9696 124.249-74.2118L124.249-47.3352Q124.249-44.5474 123.026-43.1853Q121.803-41.8232 119.045-41.8232L38.8135-41.8232Q36.0257-41.8232 34.805-43.1853Q33.5844-44.5474 33.5844-47.3352Z"/>
  </g>
  <g id="Bold-L" transform="matrix(1 0 0 1 2262.2 1556)">
   <path d="M33.5631-7.9098Q33.5631-11.4087 31.2282-13.7648Q28.8933-16.121 25.343-16.121Q21.9857-16.121 19.5857-13.721Q17.1857-11.3211 17.1857-7.9098Q17.1857-4.6399 19.5857-2.20056Q21.9857 0.238779 25.343 0.238779Q28.7181 0.238779 31.1406-2.20056Q33.5631-4.6399 33.5631-7.9098ZM33.5631 17.0593Q33.5631 13.5471 31.2282 11.172Q28.8933 8.79689 25.343 8.79689Q21.9857 8.79689 19.5857 11.2158Q17.1857 13.6347 17.1857 17.0593Q17.1857 20.3292 19.5857 22.7809Q21.9857 25.2327 25.343 25.2327Q28.7181 25.2327 31.1406 22.7809Q33.5631 20.3292 33.5631 17.0593ZM136.709-7.9098Q136.709-10.5145 134.852-12.2254Q132.994-13.9362 130.249-13.9362L47.0432-13.9362Q44.3271-13.9362 42.5032-12.2254Q40.6793-10.5145 40.6793-7.9098Q40.6793-5.35902 42.5032-3.62121Q44.3271-1.88341 47.0432-1.88341L130.249-1.88341Q132.994-1.88341 134.852-3.62121Q136.709-5.35902 136.709-7.9098ZM136.709 17.0593Q136.709 14.4415 134.852 12.7183Q132.994 10.9951 130.249 10.9951L47.0432 10.9951Q44.3271 10.9951 42.5032 12.7183Q40.6793 14.4415 40.6793 17.0593Q40.6793 19.6101 42.5032 21.3479Q44.3271 23.0857 47.0432 23.0857L130.249 23.0857Q132.994 23.0857 134.852 21.3479Q136.709 19.6101 136.709 17.0593ZM35.3322-93.871Q25.0782-93.871 20.5811-88.9942Q16.084-84.1174 16.084-74.154L16.084-46.8615Q16.084-36.8603 20.5811-31.9958Q25.0782-27.1312 35.3322-27.1312L120.254-27.1312Q130.483-27.1312 134.981-31.9958Q139.478-36.8603 139.478-46.8615L139.478-74.154Q139.478-84.1174 134.981-88.9942Q130.483-93.871 120.254-93.871ZM30.5258-46.4962L30.5258-74.4901Q30.5258-77.8695 31.9986-79.5345Q33.4714-81.1995 36.8886-81.1995L118.698-81.1995Q122.077-81.1995 123.557-79.5345Q125.036-77.8695 125.036-74.4901L125.036-46.4962Q125.036-43.079 123.557-41.4219Q122.077-39.7649 118.698-39.7649L36.8886-39.7649Q33.4714-39.7649 31.9986-41.4219Q30.5258-43.079 30.5258-46.4962Z"/>
  </g>
  <g id="Semibold-L" transform="matrix(1 0 0 1 1966.27 1556)">
   <path d="M32.4806-7.80441Q32.4806-11.0221 30.2995-13.2218Q28.1185-15.4214 24.8386-15.4214Q21.7201-15.4214 19.4926-13.1939Q17.2651-10.9664 17.2651-7.80441Q17.2651-4.7413 19.4926-2.4984Q21.7201-0.255495 24.8386-0.255495Q28.007-0.255495 30.2438-2.4984Q32.4806-4.7413 32.4806-7.80441ZM32.4806 16.9483Q32.4806 13.7119 30.2995 11.4906Q28.1185 9.26938 24.8386 9.26938Q21.7201 9.26938 19.4926 11.5185Q17.2651 13.7676 17.2651 16.9483Q17.2651 20.0114 19.4926 22.2667Q21.7201 24.5221 24.8386 24.5221Q28.007 24.5221 30.2438 22.2667Q32.4806 20.0114 32.4806 16.9483ZM135.466-7.80441Q135.466-10.1077 133.806-11.6307Q132.147-13.1537 129.676-13.1537L45.6973-13.1537Q43.2454-13.1537 41.6171-11.6307Q39.9888-10.1077 39.9888-7.80441Q39.9888-5.54463 41.6171-3.99989Q43.2454-2.45516 45.6973-2.45516L129.676-2.45516Q132.147-2.45516 133.806-3.99989Q135.466-5.54463 135.466-7.80441ZM135.466 16.9483Q135.466 14.6267 133.806 13.0912Q132.147 11.5558 129.676 11.5558L45.6973 11.5558Q43.2454 11.5558 41.6171 13.0912Q39.9888 14.6267 39.9888 16.9483Q39.9888 19.208 41.6171 20.7528Q43.2454 22.2975 45.6973 22.2975L129.676 22.2975Q132.147 22.2975 133.806 20.7528Q135.466 19.208 135.466 16.9483ZM34.5526-93.2249Q24.695-93.2249 20.3895-88.5631Q16.084-83.9014 16.084-74.3721L16.084-46.2463Q16.084-36.6738 20.3895-32.0244Q24.695-27.3749 34.5526-27.3749L119.468-27.3749Q129.3-27.3749 133.606-32.0244Q137.911-36.6738 137.911-46.2463L137.911-74.3721Q137.911-83.9014 133.606-88.5631Q129.3-93.2249 119.468-93.2249ZM28.4171-45.9179L28.4171-74.682Q28.4171-78.4899 30.0638-80.3503Q31.7106-82.2107 35.5616-82.2107L118.458-82.2107Q122.266-82.2107 123.922-80.3503Q125.578-78.4899 125.578-74.682L125.578-45.9179Q125.578-42.0668 123.922-40.2063Q122.266-38.3459 118.458-38.3459L35.5616-38.3459Q31.7106-38.3459 30.0638-40.2063Q28.4171-42.0668 28.4171-45.9179Z"/>
  </g>
  <g id="Medium-L" transform="matrix(1 0 0 1 1670.15 1556)">
   <path d="M31.6598-7.72451Q31.6598-10.729 29.5954-12.81Q27.531-14.891 24.4562-14.891Q21.5187-14.891 19.4219-12.7943Q17.3252-10.6975 17.3252-7.72451Q17.3252-4.81818 19.4219-2.72423Q21.5187-0.630273 24.4562-0.630273Q27.4679-0.630273 29.5639-2.72423Q31.6598-4.81818 31.6598-7.72451ZM31.6598 16.864Q31.6598 13.8369 29.5954 11.7322Q27.531 9.62764 24.4562 9.62764Q21.5187 9.62764 19.4219 11.748Q17.3252 13.8684 17.3252 16.864Q17.3252 19.7704 19.4219 21.8768Q21.5187 23.9833 24.4562 23.9833Q27.4679 23.9833 29.5639 21.8768Q31.6598 19.7704 31.6598 16.864ZM134.523-7.72451Q134.523-9.79916 133.014-11.1797Q131.505-12.5603 129.242-12.5603L44.6768-12.5603Q42.4252-12.5603 40.9453-11.1797Q39.4653-9.79916 39.4653-7.72451Q39.4653-5.68537 40.9453-4.28702Q42.4252-2.88868 44.6768-2.88868L129.242-2.88868Q131.505-2.88868 133.014-4.28702Q134.523-5.68537 134.523-7.72451ZM134.523 16.864Q134.523 14.7671 133.014 13.374Q131.505 11.9809 129.242 11.9809L44.6768 11.9809Q42.4252 11.9809 40.9453 13.374Q39.4653 14.7671 39.4653 16.864Q39.4653 18.9032 40.9453 20.3015Q42.4252 21.6999 44.6768 21.6999L129.242 21.6999Q131.505 21.6999 133.014 20.3015Q134.523 18.9032 134.523 16.864ZM33.9615-92.7349Q24.4045-92.7349 20.2442-88.2362Q16.084-83.7375 16.084-74.5375L16.084-45.7798Q16.084-36.5325 20.2442-32.0461Q24.4045-27.5597 33.9615-27.5597L118.871-27.5597Q128.403-27.5597 132.563-32.0461Q136.724-36.5325 136.724-45.7798L136.724-74.5375Q136.724-83.7375 132.563-88.2362Q128.403-92.7349 118.871-92.7349ZM26.8183-45.4793L26.8183-74.8275Q26.8183-78.9603 28.5968-80.9688Q30.3754-82.9774 34.5555-82.9774L118.277-82.9774Q122.41-82.9774 124.2-80.9688Q125.989-78.9603 125.989-74.8275L125.989-45.4793Q125.989-41.2992 124.2-39.2846Q122.41-37.27 118.277-37.27L34.5555-37.27Q30.3754-37.27 28.5968-39.2846Q26.8183-41.2992 26.8183-45.4793Z"/>
  </g>
  <g id="Regular-L" transform="matrix(1 0 0 1 1374.22 1556)">
   <path d="M30.5892-7.62028Q30.5892-10.3468 28.6769-12.2729Q26.7647-14.1991 23.9573-14.1991Q21.256-14.1991 19.3298-12.2729Q17.4036-10.3468 17.4036-7.62028Q17.4036-4.91847 19.3298-3.01879Q21.256-1.11912 23.9573-1.11912Q26.7647-1.11912 28.6769-3.01879Q30.5892-4.91847 30.5892-7.62028ZM30.5892 16.7542Q30.5892 13.9998 28.6769 12.0474Q26.7647 10.0949 23.9573 10.0949Q21.256 10.0949 19.3298 12.0474Q17.4036 13.9998 17.4036 16.7542Q17.4036 19.456 19.3298 21.3682Q21.256 23.2805 23.9573 23.2805Q26.7647 23.2805 28.6769 21.3682Q30.5892 19.456 30.5892 16.7542ZM133.293-7.62028Q133.293-9.39675 131.98-10.5916Q130.667-11.7864 128.676-11.7864L43.3457-11.7864Q41.3554-11.7864 40.0689-10.5916Q38.7825-9.39675 38.7825-7.62028Q38.7825-5.86894 40.0689-4.66154Q41.3554-3.45415 43.3457-3.45415L128.676-3.45415Q130.667-3.45415 131.98-4.66154Q133.293-5.86894 133.293-7.62028ZM133.293 16.7542Q133.293 14.9503 131.98 13.7429Q130.667 12.5355 128.676 12.5355L43.3457 12.5355Q41.3554 12.5355 40.0689 13.7429Q38.7825 14.9503 38.7825 16.7542Q38.7825 18.5055 40.0689 19.7129Q41.3554 20.9203 43.3457 20.9203L128.676 20.9203Q130.667 20.9203 131.98 19.7129Q133.293 18.5055 133.293 16.7542ZM33.1905-92.0958Q24.0255-92.0958 20.0547-87.8098Q16.084-83.5238 16.084-74.7531L16.084-45.1713Q16.084-36.3481 20.0547-32.0744Q24.0255-27.8007 33.1905-27.8007L118.093-27.8007Q127.233-27.8007 131.204-32.0744Q135.175-36.3481 135.175-45.1713L135.175-74.7531Q135.175-83.5238 131.204-87.8098Q127.233-92.0958 118.093-92.0958ZM24.7329-44.9072L24.7329-75.0172Q24.7329-79.5738 26.6834-81.7756Q28.6339-83.9774 33.243-83.9774L118.04-83.9774Q122.597-83.9774 124.561-81.7756Q126.526-79.5738 126.526-75.0172L126.526-44.9072Q126.526-40.2981 124.561-38.0823Q122.597-35.8666 118.04-35.8666L33.243-35.8666Q28.6339-35.8666 26.6834-38.0823Q24.7329-40.2981 24.7329-44.9072Z"/>
  </g>
  <g id="Light-L" transform="matrix(1 0 0 1 1078.53 1556)">
   <path d="M30.0546-7.35318Q30.0546-9.90778 28.238-11.748Q26.4213-13.5883 23.7855-13.5883Q21.2178-13.5883 19.3776-11.748Q17.5373-9.90778 17.5373-7.35318Q17.5373-4.78475 19.3776-2.96155Q21.2178-1.13835 23.7855-1.13835Q26.4213-1.13835 28.238-2.96155Q30.0546-4.78475 30.0546-7.35318ZM30.0546 16.5823Q30.0546 13.9806 28.238 12.1237Q26.4213 10.2668 23.7855 10.2668Q21.2178 10.2668 19.3776 12.1237Q17.5373 13.9806 17.5373 16.5823Q17.5373 19.1507 19.3776 20.9674Q21.2178 22.7841 23.7855 22.7841Q26.4213 22.7841 28.238 20.9674Q30.0546 19.1507 30.0546 16.5823ZM131.709-7.35318Q131.709-8.69067 130.71-9.62785Q129.712-10.565 128.18-10.565L42.1243-10.565Q40.5919-10.565 39.6109-9.62785Q38.6298-8.69067 38.6298-7.35318Q38.6298-6.00265 39.6109-5.07198Q40.5919-4.14132 42.1243-4.14132L128.18-4.14132Q129.712-4.14132 130.71-5.07198Q131.709-6.00265 131.709-7.35318ZM131.709 16.5823Q131.709 15.1985 130.71 14.2678Q129.712 13.3372 128.18 13.3372L42.1243 13.3372Q40.5919 13.3372 39.6109 14.2678Q38.6298 15.1985 38.6298 16.5823Q38.6298 17.9328 39.6109 18.8635Q40.5919 19.7942 42.1243 19.7942L128.18 19.7942Q129.712 19.7942 130.71 18.8635Q131.709 17.9328 131.709 16.5823ZM32.6752-91.4087Q24.1781-91.4087 20.131-87.1895Q16.084-82.9704 16.084-74.6957L16.084-44.7898Q16.084-36.4818 20.131-32.2557Q24.1781-28.0297 32.6752-28.0297L116.509-28.0297Q125.019-28.0297 129.066-32.2557Q133.113-36.4818 133.113-44.7898L133.113-74.6957Q133.113-82.9704 129.066-87.1895Q125.019-91.4087 116.509-91.4087ZM22.7099-44.6209L22.7099-74.8646Q22.7099-80.0128 25.1184-82.5964Q27.527-85.1799 32.7085-85.1799L116.475-85.1799Q121.624-85.1799 124.056-82.5964Q126.488-80.0128 126.488-74.8646L126.488-44.6209Q126.488-39.4394 124.056-36.8323Q121.624-34.2252 116.475-34.2252L32.7085-34.2252Q27.527-34.2252 25.1184-36.8323Q22.7099-39.4394 22.7099-44.6209Z"/>
  </g>
  <g id="Thin-L" transform="matrix(1 0 0 1 783.187 1556)">
   <path d="M29.3477-6.99991Q29.3477-9.3272 27.6574-11.0538Q25.9671-12.7804 23.5582-12.7804Q21.1674-12.7804 19.4408-11.0538Q17.7142-9.3272 17.7142-6.99991Q17.7142-4.60791 19.4408-2.88585Q21.1674-1.1638 23.5582-1.1638Q25.9671-1.1638 27.6574-2.88585Q29.3477-4.60791 29.3477-6.99991ZM29.3477 16.355Q29.3477 13.9551 27.6574 12.2246Q25.9671 10.4941 23.5582 10.4941Q21.1674 10.4941 19.4408 12.2246Q17.7142 13.9551 17.7142 16.355Q17.7142 18.747 19.4408 20.4373Q21.1674 22.1276 23.5582 22.1276Q25.9671 22.1276 27.6574 20.4373Q29.3477 18.747 29.3477 16.355ZM129.613-6.99991Q129.613-7.75682 129.032-8.35324Q128.45-8.94966 127.523-8.94966L40.5089-8.94966Q39.5821-8.94966 39.005-8.35324Q38.428-7.75682 38.428-6.99991Q38.428-6.1795 39.005-5.61482Q39.5821-5.05015 40.5089-5.05015L127.523-5.05015Q128.45-5.05015 129.032-5.61482Q129.613-6.1795 129.613-6.99991ZM129.613 16.355Q129.613 15.5267 129.032 14.9621Q128.45 14.3974 127.523 14.3974L40.5089 14.3974Q39.5821 14.3974 39.005 14.9621Q38.428 15.5267 38.428 16.355Q38.428 17.1754 39.005 17.7401Q39.5821 18.3048 40.5089 18.3048L127.523 18.3048Q128.45 18.3048 129.032 17.7401Q129.613 17.1754 129.613 16.355ZM31.9937-90.4999Q24.38-90.4999 20.232-86.3691Q16.084-82.2384 16.084-74.6198L16.084-44.2851Q16.084-36.6586 20.232-32.4956Q24.38-28.3325 31.9937-28.3325L114.414-28.3325Q122.091-28.3325 126.239-32.4956Q130.387-36.6586 130.387-44.2851L130.387-74.6198Q130.387-82.2384 126.239-86.3691Q122.091-90.4999 114.414-90.4999ZM20.0343-44.2422L20.0343-74.6627Q20.0343-80.5934 23.0486-83.6818Q26.063-86.7702 32.0015-86.7702L114.405-86.7702Q120.337-86.7702 123.387-83.6818Q126.437-80.5934 126.437-74.6627L126.437-44.2422Q126.437-38.3036 123.387-35.1789Q120.337-32.0542 114.405-32.0542L32.0015-32.0542Q26.063-32.0542 23.0486-35.1789Q20.0343-38.3036 20.0343-44.2422Z"/>
  </g>
  <g id="Ultralight-L" transform="matrix(1 0 0 1 487.174 1556)">
   <path d="M28.9856-6.81896Q28.9856-9.02983 27.36-10.6982Q25.7344-12.3666 23.4417-12.3666Q21.1415-12.3666 19.4731-10.6982Q17.8048-9.02983 17.8048-6.81896Q17.8048-4.51733 19.4731-2.84708Q21.1415-1.17683 23.4417-1.17683Q25.7344-1.17683 27.36-2.84708Q28.9856-4.51733 28.9856-6.81896ZM28.9856 16.2386Q28.9856 13.9421 27.36 12.2763Q25.7344 10.6105 23.4417 10.6105Q21.1415 10.6105 19.4731 12.2763Q17.8048 13.9421 17.8048 16.2386Q17.8048 18.5402 19.4731 20.1658Q21.1415 21.7914 23.4417 21.7914Q25.7344 21.7914 27.36 20.1658Q28.9856 18.5402 28.9856 16.2386ZM128.54-6.81896Q128.54-7.2785 128.172-7.70039Q127.804-8.12228 127.187-8.12228L39.6815-8.12228Q39.0649-8.12228 38.6947-7.70039Q38.3246-7.2785 38.3246-6.81896Q38.3246-6.27008 38.6947-5.89286Q39.0649-5.51565 39.6815-5.51565L127.187-5.51565Q127.804-5.51565 128.172-5.89286Q128.54-6.27008 128.54-6.81896ZM128.54 16.2386Q128.54 15.6949 128.172 15.3176Q127.804 14.9404 127.187 14.9404L39.6815 14.9404Q39.0649 14.9404 38.6947 15.3176Q38.3246 15.6949 38.3246 16.2386Q38.3246 16.7875 38.6947 17.1647Q39.0649 17.5419 39.6815 17.5419L127.187 17.5419Q127.804 17.5419 128.172 17.1647Q128.54 16.7875 128.54 16.2386ZM31.6446-90.0344Q24.4834-90.0344 20.2837-85.9489Q16.084-81.8635 16.084-74.5809L16.084-44.0266Q16.084-36.7492 20.2837-32.6184Q24.4834-28.4876 31.6446-28.4876L113.341-28.4876Q120.592-28.4876 124.791-32.6184Q128.991-36.7492 128.991-44.0266L128.991-74.5809Q128.991-81.8635 124.791-85.9489Q120.592-90.0344 113.341-90.0344ZM18.6638-44.0482L18.6638-74.5593Q18.6638-80.8908 21.9885-84.2378Q25.3132-87.5848 31.6394-87.5848L113.345-87.5848Q119.678-87.5848 123.044-84.2378Q126.411-80.8908 126.411-74.5593L126.411-44.0482Q126.411-37.7219 123.044-34.3321Q119.678-30.9423 113.345-30.9423L31.6394-30.9423Q25.3132-30.9423 21.9885-34.3321Q18.6638-37.7219 18.6638-44.0482Z"/>
  </g>
  <g id="Black-M" transform="matrix(1 0 0 1 2870.95 1126)">
   <path d="M29.3312-14.3146Q29.3312-17.8785 27.0559-20.1823Q24.7805-22.486 21.2114-22.486Q17.8816-22.486 15.4922-20.0967Q13.1028-17.7073 13.1028-14.3146Q13.1028-11.1561 15.4922-8.65528Q17.8816-6.15443 21.2114-6.15443Q24.438-6.15443 26.8846-8.65528Q29.3312-11.1561 29.3312-14.3146ZM29.3312 5.58253Q29.3312 2.01887 27.0559-0.287623Q24.7805-2.59412 21.2114-2.59412Q17.8816-2.59412 15.4922-0.201978Q13.1028 2.19016 13.1028 5.58253Q13.1028 8.74102 15.4922 11.2447Q17.8816 13.7485 21.2114 13.7485Q24.438 13.7485 26.8846 11.2447Q29.3312 8.74102 29.3312 5.58253ZM109.409-14.3146Q109.409-17.1609 107.434-19.0077Q105.459-20.8545 102.597-20.8545L40.3952-20.8545Q37.5901-20.8545 35.6465-19.0077Q33.7029-17.1609 33.7029-14.3146Q33.7029-11.5312 35.6465-9.65293Q37.5901-7.77467 40.3952-7.77467L102.597-7.77467Q105.459-7.77467 107.434-9.65293Q109.409-11.5312 109.409-14.3146ZM109.409 5.58253Q109.409 2.73652 107.434 0.886811Q105.459-0.962898 102.597-0.962898L40.3952-0.962898Q37.5901-0.962898 35.6465 0.886811Q33.7029 2.73652 33.7029 5.58253Q33.7029 8.36595 35.6465 10.2442Q37.5901 12.1225 40.3952 12.1225L102.597 12.1225Q105.459 12.1225 107.434 10.2442Q109.409 8.36595 109.409 5.58253ZM29.726-82.523Q20.7238-82.523 16.5924-78.0702Q12.4609-73.6173 12.4609-64.6593L12.4609-46.1065Q12.4609-37.143 16.5924-32.693Q20.7238-28.2431 29.726-28.2431L95.1778-28.2431Q104.174-28.2431 108.306-32.693Q112.437-37.143 112.437-46.1065L112.437-64.6593Q112.437-73.6173 108.306-78.0702Q104.174-82.523 95.1778-82.523ZM29.7989-45.7365L29.7989-64.9722Q29.7989-66.4021 30.532-67.1883Q31.2652-67.9746 32.7005-67.9746L92.2033-67.9746Q93.6331-67.9746 94.3661-67.1883Q95.0991-66.4021 95.0991-64.9722L95.0991-45.7365Q95.0991-44.3012 94.3661-43.5436Q93.6331-42.786 92.2033-42.786L32.7005-42.786Q31.2652-42.786 30.532-43.5436Q29.7989-44.3012 29.7989-45.7365Z"/>
  </g>
  <g id="Heavy-M" transform="matrix(1 0 0 1 2575.01 1126)">
   <path d="M28.0738-14.2384Q28.0738-17.4829 25.973-19.6067Q23.8722-21.7305 20.609-21.7305Q17.5531-21.7305 15.3639-19.5412Q13.1746-17.352 13.1746-14.2384Q13.1746-11.3134 15.3639-9.04511Q17.5531-6.77685 20.609-6.77685Q23.6104-6.77685 25.8421-9.04511Q28.0738-11.3134 28.0738-14.2384ZM28.0738 5.47866Q28.0738 2.23189 25.973 0.099894Q23.8722-2.0321 20.609-2.0321Q17.5531-2.0321 15.3639 0.165326Q13.1746 2.36276 13.1746 5.47866Q13.1746 8.40368 15.3639 10.679Q17.5531 12.9543 20.609 12.9543Q23.6104 12.9543 25.8421 10.679Q28.0738 8.40368 28.0738 5.47866ZM108.172-14.2384Q108.172-16.7968 106.381-18.4609Q104.59-20.125 101.978-20.125L38.9515-20.125Q36.3829-20.125 34.6217-18.4609Q32.8605-16.7968 32.8605-14.2384Q32.8605-11.7377 34.6217-10.0448Q36.3829-8.35182 38.9515-8.35182L101.978-8.35182Q104.59-8.35182 106.381-10.0448Q108.172-11.7377 108.172-14.2384ZM108.172 5.47866Q108.172 2.91799 106.381 1.24684Q104.59-0.424312 101.978-0.424312L38.9515-0.424312Q36.3829-0.424312 34.6217 1.24684Q32.8605 2.91799 32.8605 5.47866Q32.8605 7.97931 34.6217 9.67227Q36.3829 11.3652 38.9515 11.3652L101.978 11.3652Q104.59 11.3652 106.381 9.67227Q108.172 7.97931 108.172 5.47866ZM28.8485-81.8516Q20.2052-81.8516 16.3331-77.6569Q12.4609-73.4623 12.4609-64.948L12.4609-45.4086Q12.4609-36.878 16.3331-32.6904Q20.2052-28.5028 28.8485-28.5028L94.5209-28.5028Q103.15-28.5028 107.022-32.6904Q110.894-36.878 110.894-45.4086L110.894-64.948Q110.894-73.4623 107.022-77.6569Q103.15-81.8516 94.5209-81.8516ZM27.5605-45.0648L27.5605-65.2482Q27.5605-67.0942 28.4157-68.0461Q29.2708-68.9981 31.1332-68.9981L92.2362-68.9981Q94.0822-68.9981 94.9384-68.0461Q95.7947-67.0942 95.7947-65.2482L95.7947-45.0648Q95.7947-43.2025 94.9384-42.2712Q94.0822-41.3399 92.2362-41.3399L31.1332-41.3399Q29.2708-41.3399 28.4157-42.2712Q27.5605-43.2025 27.5605-45.0648Z"/>
  </g>
  <g id="Bold-M" transform="matrix(1 0 0 1 2279.16 1126)">
   <path d="M26.6673-14.1531Q26.6673-17.0402 24.7616-18.9628Q22.856-20.8853 19.935-20.8853Q17.1856-20.8853 15.2203-18.9199Q13.255-16.9546 13.255-14.1531Q13.255-11.4893 15.2203-9.4812Q17.1856-7.47311 19.935-7.47311Q22.6847-7.47311 24.676-9.4812Q26.6673-11.4893 26.6673-14.1531ZM26.6673 5.36246Q26.6673 2.47018 24.7616 0.533387Q22.856-1.40341 19.935-1.40341Q17.1856-1.40341 15.2203 0.57621Q13.255 2.55583 13.255 5.36246Q13.255 8.02631 15.2203 10.0461Q17.1856 12.066 19.935 12.066Q22.6847 12.066 24.676 10.0461Q26.6673 8.02631 26.6673 5.36246ZM106.789-14.1531Q106.789-16.3895 105.203-17.8492Q103.618-19.3088 101.285-19.3088L37.3365-19.3088Q35.0324-19.3088 33.4753-17.8492Q31.9182-16.3895 31.9182-14.1531Q31.9182-11.9688 33.4753-10.4831Q35.0324-8.99745 37.3365-8.99745L101.285-8.99745Q103.618-8.99745 105.203-10.4831Q106.789-11.9688 106.789-14.1531ZM106.789 5.36246Q106.789 3.12099 105.203 1.64959Q103.618 0.178176 101.285 0.178176L37.3365 0.178176Q35.0324 0.178176 33.4753 1.64959Q31.9182 3.12099 31.9182 5.36246Q31.9182 7.54679 33.4753 9.03247Q35.0324 10.5182 37.3365 10.5182L101.285 10.5182Q103.618 10.5182 105.203 9.03247Q106.789 7.54679 106.789 5.36246ZM27.8669-81.1004Q19.6252-81.1004 16.0431-77.1947Q12.4609-73.2889 12.4609-65.2711L12.4609-44.6279Q12.4609-36.5815 16.0431-32.6874Q19.6252-28.7934 27.8669-28.7934L93.7861-28.7934Q102.004-28.7934 105.586-32.6874Q109.169-36.5815 109.169-44.6279L109.169-65.2711Q109.169-73.2889 105.586-77.1947Q102.004-81.1004 93.7861-81.1004ZM25.0566-44.3135L25.0566-65.557Q25.0566-67.8684 26.0483-69.0057Q27.0399-70.143 29.3799-70.143L92.2729-70.143Q94.5845-70.143 95.5786-69.0057Q96.5728-67.8684 96.5728-65.557L96.5728-44.3135Q96.5728-41.9734 95.5786-40.8478Q94.5845-39.7223 92.2729-39.7223L29.3799-39.7223Q27.0399-39.7223 26.0483-40.8478Q25.0566-41.9734 25.0566-44.3135Z"/>
  </g>
  <g id="Semibold-M" transform="matrix(1 0 0 1 1983.05 1126)">
   <path d="M25.6976-14.0944Q25.6976-16.7351 23.9265-18.5188Q22.1555-20.3026 19.4705-20.3026Q16.9323-20.3026 15.1213-18.4916Q13.3104-16.6806 13.3104-14.0944Q13.3104-11.6106 15.1213-9.78184Q16.9323-7.95311 19.4705-7.95311Q22.0465-7.95311 23.8721-9.78184Q25.6976-11.6106 25.6976-14.0944ZM25.6976 5.28235Q25.6976 2.63446 23.9265 0.832235Q22.1555-0.96999 19.4705-0.96999Q16.9323-0.96999 15.1213 0.85947Q13.3104 2.68893 13.3104 5.28235Q13.3104 7.76616 15.1213 9.60986Q16.9323 11.4536 19.4705 11.4536Q22.0465 11.4536 23.8721 9.60986Q25.6976 7.76616 25.6976 5.28235ZM105.836-14.0944Q105.836-16.1087 104.392-17.4275Q102.948-18.7462 100.808-18.7462L36.2231-18.7462Q34.1015-18.7462 32.685-17.4275Q31.2685-16.1087 31.2685-14.0944Q31.2685-12.1281 32.685-10.7853Q34.1015-9.44254 36.2231-9.44254L100.808-9.44254Q102.948-9.44254 104.392-10.7853Q105.836-12.1281 105.836-14.0944ZM105.836 5.28235Q105.836 3.26094 104.392 1.92723Q102.948 0.593527 100.808 0.593527L36.2231 0.593527Q34.1015 0.593527 32.685 1.92723Q31.2685 3.26094 31.2685 5.28235Q31.2685 7.24862 32.685 8.5914Q34.1015 9.93419 36.2231 9.93419L100.808 9.93419Q102.948 9.93419 104.392 8.5914Q105.836 7.24862 105.836 5.28235ZM27.1901-80.5826Q19.2253-80.5826 15.8431-76.876Q12.4609-73.1694 12.4609-65.4937L12.4609-44.0897Q12.4609-36.3771 15.8431-32.6854Q19.2253-28.9937 27.1901-28.9937L93.2795-28.9937Q101.214-28.9937 104.597-32.6854Q107.979-36.3771 107.979-44.0897L107.979-65.4937Q107.979-73.1694 104.597-76.876Q101.214-80.5826 93.2795-80.5826ZM23.3305-43.7955L23.3305-65.7698Q23.3305-68.4022 24.4162-69.6672Q25.5019-70.9323 28.1713-70.9323L92.2983-70.9323Q94.9308-70.9323 96.02-69.6672Q97.1092-68.4022 97.1092-65.7698L97.1092-43.7955Q97.1092-41.1261 96.02-39.8666Q94.9308-38.607 92.2983-38.607L28.1713-38.607Q25.5019-38.607 24.4162-39.8666Q23.3305-41.1261 23.3305-43.7955Z"/>
  </g>
  <g id="Medium-M" transform="matrix(1 0 0 1 1686.79 1126)">
   <path d="M24.9623-14.0498Q24.9623-16.5037 23.2933-18.1822Q21.6243-19.8608 19.1182-19.8608Q16.7402-19.8608 15.0463-18.1668Q13.3524-16.4729 13.3524-14.0498Q13.3524-11.7025 15.0463-10.0098Q16.7402-8.31706 19.1182-8.31706Q21.5626-8.31706 23.2625-10.0098Q24.9623-11.7025 24.9623-14.0498ZM24.9623 5.22161Q24.9623 2.75902 23.2933 1.05883Q21.6243-0.641354 19.1182-0.641354Q16.7402-0.641354 15.0463 1.07425Q13.3524 2.78985 13.3524 5.22161Q13.3524 7.5689 15.0463 9.27905Q16.7402 10.9892 19.1182 10.9892Q21.5626 10.9892 23.2625 9.27905Q24.9623 7.5689 24.9623 5.22161ZM105.113-14.0498Q105.113-15.8958 103.776-17.1077Q102.44-18.3196 100.446-18.3196L35.3789-18.3196Q33.3955-18.3196 32.0857-17.1077Q30.7759-15.8958 30.7759-14.0498Q30.7759-12.2489 32.0857-11.0145Q33.3955-9.78002 35.3789-9.78002L100.446-9.78002Q102.44-9.78002 103.776-11.0145Q105.113-12.2489 105.113-14.0498ZM105.113 5.22161Q105.113 3.36706 103.776 2.13776Q102.44 0.908463 100.446 0.908463L35.3789 0.908463Q33.3955 0.908463 32.0857 2.13776Q30.7759 3.36706 30.7759 5.22161Q30.7759 7.02253 32.0857 8.25697Q33.3955 9.4914 35.3789 9.4914L100.446 9.4914Q102.44 9.4914 103.776 8.25697Q105.113 7.02253 105.113 5.22161ZM26.677-80.19Q18.9221-80.19 15.6915-76.6344Q12.4609-73.0788 12.4609-65.6626L12.4609-43.6816Q12.4609-36.2221 15.6915-32.6838Q18.9221-29.1456 26.677-29.1456L92.8954-29.1456Q100.616-29.1456 103.846-32.6838Q107.077-36.2221 107.077-43.6816L107.077-65.6626Q107.077-73.0788 103.846-76.6344Q100.616-80.19 92.8954-80.19ZM22.0216-43.4027L22.0216-65.9312Q22.0216-68.8069 23.1787-70.1688Q24.3357-71.5307 27.2548-71.5307L92.3175-71.5307Q95.1933-71.5307 96.3546-70.1688Q97.516-68.8069 97.516-65.9312L97.516-43.4027Q97.516-40.4837 96.3546-39.1226Q95.1933-37.7614 92.3175-37.7614L27.2548-37.7614Q24.3357-37.7614 23.1787-39.1226Q22.0216-40.4837 22.0216-43.4027Z"/>
  </g>
  <g id="Regular-M" transform="matrix(1 0 0 1 1390.66 1126)">
   <path d="M24.0033-13.9917Q24.0033-16.2019 22.4674-17.7432Q20.9314-19.2845 18.6587-19.2845Q16.4896-19.2845 14.9484-17.7432Q13.4071-16.2019 13.4071-13.9917Q13.4071-11.8225 14.9484-10.3071Q16.4896-8.79179 18.6587-8.79179Q20.9314-8.79179 22.4674-10.3071Q24.0033-11.8225 24.0033-13.9917ZM24.0033 5.14239Q24.0033 2.92149 22.4674 1.3544Q20.9314-0.212698 18.6587-0.212698Q16.4896-0.212698 14.9484 1.3544Q13.4071 2.92149 13.4071 5.14239Q13.4071 7.31161 14.9484 8.84755Q16.4896 10.3835 18.6587 10.3835Q20.9314 10.3835 22.4674 8.84755Q24.0033 7.31161 24.0033 5.14239ZM104.17-13.9917Q104.17-15.6181 102.973-16.6907Q101.777-17.7632 99.9738-17.7632L34.2777-17.7632Q32.4748-17.7632 31.3041-16.6907Q30.1334-15.6181 30.1334-13.9917Q30.1334-12.4064 31.3041-11.3133Q32.4748-10.2202 34.2777-10.2202L99.9738-10.2202Q101.777-10.2202 102.973-11.3133Q104.17-12.4064 104.17-13.9917ZM104.17 5.14239Q104.17 3.50547 102.973 2.41236Q101.777 1.31925 99.9738 1.31925L34.2777 1.31925Q32.4748 1.31925 31.3041 2.41236Q30.1334 3.50547 30.1334 5.14239Q30.1334 6.72763 31.3041 7.82074Q32.4748 8.91385 34.2777 8.91385L99.9738 8.91385Q101.777 8.91385 102.973 7.82074Q104.17 6.72763 104.17 5.14239ZM26.0077-79.6778Q18.5266-79.6778 15.4938-76.3192Q12.4609-72.9605 12.4609-65.8828L12.4609-43.1493Q12.4609-36.0199 15.4938-32.6818Q18.5266-29.3437 26.0077-29.3437L92.3944-29.3437Q99.8343-29.3437 102.867-32.6818Q105.9-36.0199 105.9-43.1493L105.9-65.8828Q105.9-72.9605 102.867-76.3192Q99.8343-79.6778 92.3944-79.6778ZM20.3144-42.8904L20.3144-66.1417Q20.3144-69.3348 21.5645-70.8231Q22.8146-72.3113 26.0594-72.3113L92.3426-72.3113Q95.5358-72.3113 96.7911-70.8231Q98.0465-69.3348 98.0465-66.1417L98.0465-42.8904Q98.0465-39.6457 96.7911-38.1521Q95.5358-36.6585 92.3426-36.6585L26.0594-36.6585Q22.8146-36.6585 21.5645-38.1521Q20.3144-39.6457 20.3144-42.8904Z"/>
  </g>
  <g id="Light-M" transform="matrix(1 0 0 1 1094.88 1126)">
   <path d="M23.5241-13.7522Q23.5241-15.8084 22.0738-17.2726Q20.6235-18.7368 18.5046-18.7368Q16.4554-18.7368 14.9912-17.2726Q13.527-15.8084 13.527-13.7522Q13.527-11.7026 14.9912-10.2558Q16.4554-8.80904 18.5046-8.80904Q20.6235-8.80904 22.0738-10.2558Q23.5241-11.7026 23.5241-13.7522ZM23.5241 4.98829Q23.5241 2.90424 22.0738 1.42282Q20.6235-0.0586064 18.5046-0.0586064Q16.4554-0.0586064 14.9912 1.42282Q13.527 2.90424 13.527 4.98829Q13.527 7.03792 14.9912 8.4882Q16.4554 9.93847 18.5046 9.93847Q20.6235 9.93847 22.0738 8.4882Q23.5241 7.03792 23.5241 4.98829ZM102.75-13.7522Q102.75-14.9851 101.836-15.8266Q100.921-16.6681 99.5288-16.6681L33.1827-16.6681Q31.7903-16.6681 30.8934-15.8266Q29.9966-14.9851 29.9966-13.7522Q29.9966-12.5263 30.8934-11.6813Q31.7903-10.8363 33.1827-10.8363L99.5288-10.8363Q100.921-10.8363 101.836-11.6813Q102.75-12.5263 102.75-13.7522ZM102.75 4.98829Q102.75 3.72798 101.836 2.88297Q100.921 2.03796 99.5288 2.03796L33.1827 2.03796Q31.7903 2.03796 30.8934 2.88297Q29.9966 3.72798 29.9966 4.98829Q29.9966 6.21419 30.8934 7.0592Q31.7903 7.90421 33.1827 7.90421L99.5288 7.90421Q100.921 7.90421 101.836 7.0592Q102.75 6.21419 102.75 4.98829ZM25.5457-79.0617Q18.6634-79.0617 15.5622-75.763Q12.4609-72.4643 12.4609-65.8314L12.4609-42.8072Q12.4609-36.1398 15.5622-32.8444Q18.6634-29.5489 25.5457-29.5489L90.9742-29.5489Q97.8495-29.5489 100.951-32.8444Q104.052-36.1398 104.052-42.8072L104.052-65.8314Q104.052-72.4643 100.951-75.763Q97.8495-79.0617 90.9742-79.0617ZM18.5007-42.6337L18.5007-66.0049Q18.5007-69.7283 20.1615-71.5589Q21.8222-73.3894 25.5801-73.3894L90.9393-73.3894Q94.6633-73.3894 96.3378-71.5589Q98.0123-69.7283 98.0123-66.0049L98.0123-42.6337Q98.0123-38.8758 96.3378-37.0313Q94.6633-35.1868 90.9393-35.1868L25.5801-35.1868Q21.8222-35.1868 20.1615-37.0313Q18.5007-38.8758 18.5007-42.6337Z"/>
  </g>
  <g id="Thin-M" transform="matrix(1 0 0 1 799.388 1126)">
   <path d="M22.8903-13.4355Q22.8903-15.2879 21.5533-16.6502Q20.2163-18.0125 18.3008-18.0125Q16.4102-18.0125 15.0479-16.6502Q13.6856-15.2879 13.6856-13.4355Q13.6856-11.544 15.0479-10.1879Q16.4102-8.83185 18.3008-8.83185Q20.2163-8.83185 21.5533-10.1879Q22.8903-11.544 22.8903-13.4355ZM22.8903 4.7845Q22.8903 2.88143 21.5533 1.51331Q20.2163 0.145192 18.3008 0.145192Q16.4102 0.145192 15.0479 1.51331Q13.6856 2.88143 13.6856 4.7845Q13.6856 6.67595 15.0479 8.01292Q16.4102 9.34989 18.3008 9.34989Q20.2163 9.34989 21.5533 8.01292Q22.8903 6.67595 22.8903 4.7845ZM100.872-13.4355Q100.872-14.1479 100.331-14.6839Q99.7896-15.2199 98.9402-15.2199L31.7344-15.2199Q30.885-15.2199 30.3503-14.6839Q29.8156-14.1479 29.8156-13.4355Q29.8156-12.6849 30.3503-12.168Q30.885-11.6511 31.7344-11.6511L98.9402-11.6511Q99.7896-11.6511 100.331-12.168Q100.872-12.6849 100.872-13.4355ZM100.872 4.7845Q100.872 4.02227 100.331 3.50539Q99.7896 2.98851 98.9402 2.98851L31.7344 2.98851Q30.885 2.98851 30.3503 3.50539Q29.8156 4.02227 29.8156 4.7845Q29.8156 5.53511 30.3503 6.05199Q30.885 6.56887 31.7344 6.56887L98.9402 6.56887Q99.7896 6.56887 100.331 6.05199Q100.872 5.53511 100.872 4.7845ZM24.9347-78.2469Q18.8444-78.2469 15.6527-75.0275Q12.4609-71.8081 12.4609-65.7633L12.4609-42.3547Q12.4609-36.2984 15.6527-33.0594Q18.8444-29.8204 24.9347-29.8204L89.0959-29.8204Q95.2245-29.8204 98.4162-33.0594Q101.608-36.2984 101.608-42.3547L101.608-65.7633Q101.608-71.8081 98.4162-75.0275Q95.2245-78.2469 89.0959-78.2469ZM16.1019-42.2942L16.1019-65.8239Q16.1019-70.2489 18.3058-72.5321Q20.5097-74.8152 24.9463-74.8152L89.0835-74.8152Q93.5093-74.8152 95.7382-72.5321Q97.967-70.2489 97.967-65.8239L97.967-42.2942Q97.967-37.8576 95.7382-35.549Q93.5093-33.2405 89.0835-33.2405L24.9463-33.2405Q20.5097-33.2405 18.3058-35.549Q16.1019-37.8576 16.1019-42.2942Z"/>
  </g>
  <g id="Ultralight-M" transform="matrix(1 0 0 1 503.303 1126)">
   <path d="M22.5656-13.2733Q22.5656-15.0212 21.2867-16.3314Q20.0077-17.6415 18.1964-17.6415Q16.387-17.6415 15.0769-16.3314Q13.7668-15.0212 13.7668-13.2733Q13.7668-11.4628 15.0769-10.1532Q16.387-8.84354 18.1964-8.84354Q20.0077-8.84354 21.2867-10.1532Q22.5656-11.4628 22.5656-13.2733ZM22.5656 4.68011Q22.5656 2.86975 21.2867 1.55966Q20.0077 0.249577 18.1964 0.249577Q16.387 0.249577 15.0769 1.55966Q13.7668 2.86975 13.7668 4.68011Q13.7668 6.49055 15.0769 7.76949Q16.387 9.04842 18.1964 9.04842Q20.0077 9.04842 21.2867 7.76949Q22.5656 6.49055 22.5656 4.68011ZM99.9095-13.2733Q99.9095-13.719 99.5598-14.0985Q99.2101-14.4781 98.6388-14.4781L30.9926-14.4781Q30.4213-14.4781 30.0721-14.0985Q29.7229-13.719 29.7229-13.2733Q29.7229-12.7661 30.0721-12.4173Q30.4213-12.0685 30.9926-12.0685L98.6388-12.0685Q99.2101-12.0685 99.5598-12.4173Q99.9095-12.7661 99.9095-13.2733ZM99.9095 4.68011Q99.9095 4.17301 99.5598 3.8242Q99.2101 3.47538 98.6388 3.47538L30.9926 3.47538Q30.4213 3.47538 30.0721 3.8242Q29.7229 4.17301 29.7229 4.68011Q29.7229 5.18729 30.0721 5.5361Q30.4213 5.88492 30.9926 5.88492L98.6388 5.88492Q99.2101 5.88492 99.5598 5.5361Q99.9095 5.18729 99.9095 4.68011ZM24.6217-77.8296Q18.9371-77.8296 15.699-74.6508Q12.4609-71.4719 12.4609-65.7284L12.4609-42.123Q12.4609-36.3796 15.699-33.1695Q18.9371-29.9595 24.6217-29.9595L88.1339-29.9595Q93.88-29.9595 97.118-33.1695Q100.356-36.3796 100.356-42.123L100.356-65.7284Q100.356-71.4719 97.118-74.6508Q93.88-77.8296 88.1339-77.8296ZM14.8732-42.1203L14.8732-65.7312Q14.8732-70.5155 17.3553-73.0305Q19.8374-75.5455 24.6217-75.5455L88.1329-75.5455Q92.9183-75.5455 95.4311-73.0305Q97.9439-70.5155 97.9439-65.7312L97.9439-42.1203Q97.9439-37.336 95.4311-34.7898Q92.9183-32.2436 88.1329-32.2436L24.6217-32.2436Q19.8374-32.2436 17.3553-34.7898Q14.8732-37.336 14.8732-42.1203Z"/>
  </g>
  <g id="Black-S" transform="matrix(1 0 0 1 2884.28 696)">
   <path d="M23.3398-18.8477Q23.3398-21.7285 21.5088-23.584Q19.6777-25.4395 16.7969-25.4395Q14.1113-25.4395 12.1826-23.5107Q10.2539-21.582 10.2539-18.8477Q10.2539-16.3086 12.1826-14.2822Q14.1113-12.2559 16.7969-12.2559Q19.3848-12.2559 21.3623-14.2822Q23.3398-16.3086 23.3398-18.8477ZM23.3398-3.22266Q23.3398-6.10352 21.5088-7.95898Q19.6777-9.81445 16.7969-9.81445Q14.1113-9.81445 12.1826-7.88574Q10.2539-5.95703 10.2539-3.22266Q10.2539-0.683594 12.1826 1.34277Q14.1113 3.36914 16.7969 3.36914Q19.3848 3.36914 21.3623 1.34277Q23.3398-0.683594 23.3398-3.22266ZM86.0352-18.8477Q86.0352-21.1426 84.4482-22.6318Q82.8613-24.1211 80.5664-24.1211L32.0312-24.1211Q29.7852-24.1211 28.2227-22.6318Q26.6602-21.1426 26.6602-18.8477Q26.6602-16.6016 28.2227-15.0879Q29.7852-13.5742 32.0312-13.5742L80.5664-13.5742Q82.8613-13.5742 84.4482-15.0879Q86.0352-16.6016 86.0352-18.8477ZM86.0352-3.22266Q86.0352-5.51758 84.4482-7.00684Q82.8613-8.49609 80.5664-8.49609L32.0312-8.49609Q29.7852-8.49609 28.2227-7.00684Q26.6602-5.51758 26.6602-3.22266Q26.6602-0.976562 28.2227 0.537109Q29.7852 2.05078 32.0312 2.05078L80.5664 2.05078Q82.8613 2.05078 84.4482 0.537109Q86.0352-0.976562 86.0352-3.22266ZM23.5352-72.4609Q16.4062-72.4609 13.0859-68.8965Q9.76562-65.332 9.76562-58.2031L9.76562-43.9453Q9.76562-36.8164 13.0859-33.252Q16.4062-29.6875 23.5352-29.6875L74.707-29.6875Q81.8359-29.6875 85.1562-33.252Q88.4766-36.8164 88.4766-43.9453L88.4766-58.2031Q88.4766-65.332 85.1562-68.8965Q81.8359-72.4609 74.707-72.4609ZM23.9258-43.6523L23.9258-58.4473Q23.9258-59.4727 24.4873-60.0586Q25.0488-60.6445 26.0742-60.6445L72.168-60.6445Q73.1934-60.6445 73.7549-60.0586Q74.3164-59.4727 74.3164-58.4473L74.3164-43.6523Q74.3164-42.627 73.7549-42.0654Q73.1934-41.5039 72.168-41.5039L26.0742-41.5039Q25.0488-41.5039 24.4873-42.0654Q23.9258-42.627 23.9258-43.6523Z"/>
  </g>
  <g id="Heavy-S" transform="matrix(1 0 0 1 2588.11 696)">
   <path d="M22.3257-18.8131Q22.3257-21.4404 20.6329-23.1518Q18.9402-24.8632 16.3013-24.8632Q13.8347-24.8632 12.0674-23.0959Q10.3-21.3285 10.3-18.8131Q10.3-16.4584 12.0674-14.6222Q13.8347-12.786 16.3013-12.786Q18.7163-12.786 20.521-14.6222Q22.3257-16.4584 22.3257-18.8131ZM22.3257-3.2918Q22.3257-5.91912 20.6329-7.6363Q18.9402-9.35347 16.3013-9.35347Q13.8347-9.35347 12.0674-7.58034Q10.3-5.80721 10.3-3.2918Q10.3-0.937132 12.0674 0.904844Q13.8347 2.74682 16.3013 2.74682Q18.7163 2.74682 20.521 0.904844Q22.3257-0.937132 22.3257-3.2918ZM85.1593-18.8131Q85.1593-20.9121 83.6934-22.2746Q82.2275-23.6371 80.0939-23.6371L30.9364-23.6371Q28.8402-23.6371 27.3987-22.2746Q25.9572-20.9121 25.9572-18.8131Q25.9572-16.7629 27.3987-15.376Q28.8402-13.9891 30.9364-13.9891L80.0939-13.9891Q82.2275-13.9891 83.6934-15.376Q85.1593-16.7629 85.1593-18.8131ZM85.1593-3.2918Q85.1593-5.39081 83.6934-6.75906Q82.2275-8.12731 80.0939-8.12731L30.9364-8.12731Q28.8402-8.12731 27.3987-6.75906Q25.9572-5.39081 25.9572-3.2918Q25.9572-1.24163 27.3987 0.145278Q28.8402 1.53218 30.9364 1.53218L80.0939 1.53218Q82.2275 1.53218 83.6934 0.145278Q85.1593-1.24163 85.1593-3.2918ZM22.8437-71.9654Q15.9453-71.9654 12.8554-68.6141Q9.76562-65.2629 9.76562-58.4567L9.76562-43.3921Q9.76562-36.5744 12.8554-33.2289Q15.9453-29.8834 22.8437-29.8834L74.3267-29.8834Q81.2136-29.8834 84.3034-33.2289Q87.3933-36.5744 87.3933-43.3921L87.3933-58.4567Q87.3933-65.2629 84.3034-68.6141Q81.2136-71.9654 74.3267-71.9654ZM22.2432-43.1107L22.2432-58.7008Q22.2432-60.0143 22.8566-60.6982Q23.47-61.3821 24.795-61.3821L72.3754-61.3821Q73.6889-61.3821 74.3023-60.6982Q74.9157-60.0143 74.9157-58.7008L74.9157-43.1107Q74.9157-41.7857 74.3023-41.1204Q73.6889-40.4552 72.3754-40.4552L24.795-40.4552Q23.47-40.4552 22.8566-41.1204Q22.2432-41.7857 22.2432-43.1107Z"/>
  </g>
  <g id="Bold-S" transform="matrix(1 0 0 1 2292 696)">
   <path d="M21.1914-18.7744Q21.1914-21.1182 19.6533-22.6685Q18.1152-24.2188 15.7471-24.2188Q13.5254-24.2188 11.9385-22.6318Q10.3516-21.0449 10.3516-18.7744Q10.3516-16.626 11.9385-15.0024Q13.5254-13.3789 15.7471-13.3789Q17.9688-13.3789 19.5801-15.0024Q21.1914-16.626 21.1914-18.7744ZM21.1914-3.36914Q21.1914-5.71289 19.6533-7.27539Q18.1152-8.83789 15.7471-8.83789Q13.5254-8.83789 11.9385-7.23877Q10.3516-5.63965 10.3516-3.36914Q10.3516-1.2207 11.9385 0.415039Q13.5254 2.05078 15.7471 2.05078Q17.9688 2.05078 19.5801 0.415039Q21.1914-1.2207 21.1914-3.36914ZM84.1797-18.7744Q84.1797-20.6543 82.8491-21.875Q81.5186-23.0957 79.5654-23.0957L29.7119-23.0957Q27.7832-23.0957 26.4771-21.875Q25.1709-20.6543 25.1709-18.7744Q25.1709-16.9434 26.4771-15.6982Q27.7832-14.4531 29.7119-14.4531L79.5654-14.4531Q81.5186-14.4531 82.8491-15.6982Q84.1797-16.9434 84.1797-18.7744ZM84.1797-3.36914Q84.1797-5.24902 82.8491-6.48193Q81.5186-7.71484 79.5654-7.71484L29.7119-7.71484Q27.7832-7.71484 26.4771-6.48193Q25.1709-5.24902 25.1709-3.36914Q25.1709-1.53809 26.4771-0.292969Q27.7832 0.952148 29.7119 0.952148L79.5654 0.952148Q81.5186 0.952148 82.8491-0.292969Q84.1797-1.53809 84.1797-3.36914ZM22.0703-71.4111Q15.4297-71.4111 12.5977-68.2983Q9.76562-65.1855 9.76562-58.7402L9.76562-42.7734Q9.76562-36.3037 12.5977-33.2031Q15.4297-30.1025 22.0703-30.1025L73.9014-30.1025Q80.5176-30.1025 83.3496-33.2031Q86.1816-36.3037 86.1816-42.7734L86.1816-58.7402Q86.1816-65.1855 83.3496-68.2983Q80.5176-71.4111 73.9014-71.4111ZM20.3613-42.5049L20.3613-58.9844Q20.3613-60.6201 21.0327-61.4136Q21.7041-62.207 23.3643-62.207L72.6074-62.207Q74.2432-62.207 74.9146-61.4136Q75.5859-60.6201 75.5859-58.9844L75.5859-42.5049Q75.5859-40.8447 74.9146-40.0635Q74.2432-39.2822 72.6074-39.2822L23.3643-39.2822Q21.7041-39.2822 21.0327-40.0635Q20.3613-40.8447 20.3613-42.5049Z"/>
  </g>
  <g id="Semibold-S" transform="matrix(1 0 0 1 1995.71 696)">
   <path d="M20.4094-18.7478Q20.4094-20.896 18.9779-22.3352Q17.5465-23.7744 15.3649-23.7744Q13.3121-23.7744 11.8496-22.3119Q10.3871-20.8494 10.3871-18.7478Q10.3871-16.7415 11.8496-15.2646Q13.3121-13.7877 15.3649-13.7877Q17.4533-13.7877 18.9313-15.2646Q20.4094-16.7415 20.4094-18.7478ZM20.4094-3.42246Q20.4094-5.5707 18.9779-7.02656Q17.5465-8.48242 15.3649-8.48242Q13.3121-8.48242 11.8496-7.00327Q10.3871-5.52412 10.3871-3.42246Q10.3871-1.41621 11.8496 0.0773438Q13.3121 1.5709 15.3649 1.5709Q17.4533 1.5709 18.9313 0.0773438Q20.4094-1.41621 20.4094-3.42246ZM83.5043-18.7478Q83.5043-20.4766 82.267-21.5995Q81.0298-22.7225 79.2011-22.7225L28.8677-22.7225Q27.0545-22.7225 25.8417-21.5995Q24.6288-20.4766 24.6288-18.7478Q24.6288-17.0678 25.8417-15.9204Q27.0545-14.773 28.8677-14.773L79.2011-14.773Q81.0298-14.773 82.267-15.9204Q83.5043-17.0678 83.5043-18.7478ZM83.5043-3.42246Q83.5043-5.15127 82.267-6.29087Q81.0298-7.43047 79.2011-7.43047L28.8677-7.43047Q27.0545-7.43047 25.8417-6.29087Q24.6288-5.15127 24.6288-3.42246Q24.6288-1.74248 25.8417-0.595117Q27.0545 0.552246 28.8677 0.552246L79.2011 0.552246Q81.0298 0.552246 82.267-0.595117Q83.5043-1.74248 83.5043-3.42246ZM21.5371-71.029Q15.0742-71.029 12.4199-68.0806Q9.76562-65.1322 9.76562-58.9357L9.76562-42.3469Q9.76562-36.1171 12.4199-33.1854Q15.0742-30.2536 21.5371-30.2536L73.6081-30.2536Q80.0377-30.2536 82.692-33.1854Q85.3463-36.1171 85.3463-42.3469L85.3463-58.9357Q85.3463-65.1322 82.692-68.0806Q80.0377-71.029 73.6081-71.029ZM19.0639-42.0872L19.0639-59.1799Q19.0639-61.0378 19.7752-61.9068Q20.4866-62.7758 22.3778-62.7758L72.7674-62.7758Q74.6253-62.7758 75.3367-61.9068Q76.048-61.0378 76.048-59.1799L76.048-42.0872Q76.048-40.196 75.3367-39.3348Q74.6253-38.4735 72.7674-38.4735L22.3778-38.4735Q20.4866-38.4735 19.7752-39.3348Q19.0639-40.196 19.0639-42.0872Z"/>
  </g>
  <g id="Medium-S" transform="matrix(1 0 0 1 1699.32 696)">
   <path d="M19.8164-18.7275Q19.8164-20.7275 18.4658-22.0825Q17.1152-23.4375 15.0752-23.4375Q13.1504-23.4375 11.7822-22.0693Q10.4141-20.7012 10.4141-18.7275Q10.4141-16.8291 11.7822-15.4634Q13.1504-14.0977 15.0752-14.0977Q17.0625-14.0977 18.4395-15.4634Q19.8164-16.8291 19.8164-18.7275ZM19.8164-3.46289Q19.8164-5.46289 18.4658-6.83789Q17.1152-8.21289 15.0752-8.21289Q13.1504-8.21289 11.7822-6.82471Q10.4141-5.43652 10.4141-3.46289Q10.4141-1.56445 11.7822-0.178711Q13.1504 1.20703 15.0752 1.20703Q17.0625 1.20703 18.4395-0.178711Q19.8164-1.56445 19.8164-3.46289ZM82.9922-18.7275Q82.9922-20.3418 81.8257-21.3906Q80.6592-22.4395 78.9248-22.4395L28.2275-22.4395Q26.502-22.4395 25.3599-21.3906Q24.2178-20.3418 24.2178-18.7275Q24.2178-17.1621 25.3599-16.0889Q26.502-15.0156 28.2275-15.0156L78.9248-15.0156Q80.6592-15.0156 81.8257-16.0889Q82.9922-17.1621 82.9922-18.7275ZM82.9922-3.46289Q82.9922-5.07715 81.8257-6.146Q80.6592-7.21484 78.9248-7.21484L28.2275-7.21484Q26.502-7.21484 25.3599-6.146Q24.2178-5.07715 24.2178-3.46289Q24.2178-1.89746 25.3599-0.824219Q26.502 0.249023 28.2275 0.249023L78.9248 0.249023Q80.6592 0.249023 81.8257-0.824219Q82.9922-1.89746 82.9922-3.46289ZM21.1328-70.7393Q14.8047-70.7393 12.2852-67.9155Q9.76562-65.0918 9.76562-59.084L9.76562-42.0234Q9.76562-35.9756 12.2852-33.1719Q14.8047-30.3682 21.1328-30.3682L73.3857-30.3682Q79.6738-30.3682 82.1934-33.1719Q84.7129-35.9756 84.7129-42.0234L84.7129-59.084Q84.7129-65.0918 82.1934-67.9155Q79.6738-70.7393 73.3857-70.7393ZM18.0801-41.7705L18.0801-59.3281Q18.0801-61.3545 18.8218-62.2808Q19.5635-63.207 21.6299-63.207L72.8887-63.207Q74.915-63.207 75.6567-62.2808Q76.3984-61.3545 76.3984-59.3281L76.3984-41.7705Q76.3984-39.7041 75.6567-38.7822Q74.915-37.8604 72.8887-37.8604L21.6299-37.8604Q19.5635-37.8604 18.8218-38.7822Q18.0801-39.7041 18.0801-41.7705Z"/>
  </g>
  <g id="Regular-S" transform="matrix(1 0 0 1 1403.02 696)">
   <path d="M19.043-18.7012Q19.043-20.5078 17.7979-21.7529Q16.5527-22.998 14.6973-22.998Q12.9395-22.998 11.6943-21.7529Q10.4492-20.5078 10.4492-18.7012Q10.4492-16.9434 11.6943-15.7227Q12.9395-14.502 14.6973-14.502Q16.5527-14.502 17.7979-15.7227Q19.043-16.9434 19.043-18.7012ZM19.043-3.51562Q19.043-5.32227 17.7979-6.5918Q16.5527-7.86133 14.6973-7.86133Q12.9395-7.86133 11.6943-6.5918Q10.4492-5.32227 10.4492-3.51562Q10.4492-1.75781 11.6943-0.512695Q12.9395 0.732422 14.6973 0.732422Q16.5527 0.732422 17.7979-0.512695Q19.043-1.75781 19.043-3.51562ZM82.3242-18.7012Q82.3242-20.166 81.25-21.1182Q80.1758-22.0703 78.5645-22.0703L27.3926-22.0703Q25.7812-22.0703 24.7314-21.1182Q23.6816-20.166 23.6816-18.7012Q23.6816-17.2852 24.7314-16.3086Q25.7812-15.332 27.3926-15.332L78.5645-15.332Q80.1758-15.332 81.25-16.3086Q82.3242-17.2852 82.3242-18.7012ZM82.3242-3.51562Q82.3242-4.98047 81.25-5.95703Q80.1758-6.93359 78.5645-6.93359L27.3926-6.93359Q25.7812-6.93359 24.7314-5.95703Q23.6816-4.98047 23.6816-3.51562Q23.6816-2.09961 24.7314-1.12305Q25.7812-0.146484 27.3926-0.146484L78.5645-0.146484Q80.1758-0.146484 81.25-1.12305Q82.3242-2.09961 82.3242-3.51562ZM20.6055-70.3613Q14.4531-70.3613 12.1094-67.7002Q9.76562-65.0391 9.76562-59.2773L9.76562-41.6016Q9.76562-35.791 12.1094-33.1543Q14.4531-30.5176 20.6055-30.5176L73.0957-30.5176Q79.1992-30.5176 81.543-33.1543Q83.8867-35.791 83.8867-41.6016L83.8867-59.2773Q83.8867-65.0391 81.543-67.7002Q79.1992-70.3613 73.0957-70.3613ZM16.7969-41.3574L16.7969-59.5215Q16.7969-61.7676 17.5781-62.7686Q18.3594-63.7695 20.6543-63.7695L73.0469-63.7695Q75.293-63.7695 76.0742-62.7686Q76.8555-61.7676 76.8555-59.5215L76.8555-41.3574Q76.8555-39.0625 76.0742-38.0615Q75.293-37.0605 73.0469-37.0605L20.6543-37.0605Q18.3594-37.0605 17.5781-38.0615Q16.7969-39.0625 16.7969-41.3574Z"/>
  </g>
  <g id="Light-S" transform="matrix(1 0 0 1 1107.12 696)">
   <path d="M18.619-18.4893Q18.619-20.1597 17.4497-21.3366Q16.2804-22.5136 14.561-22.5136Q12.9092-22.5136 11.7322-21.3366Q10.5553-20.1597 10.5553-18.4893Q10.5553-16.8373 11.7322-15.6773Q12.9092-14.5172 14.561-14.5172Q16.2804-14.5172 17.4497-15.6773Q18.619-16.8373 18.619-18.4893ZM18.619-3.65194Q18.619-5.33752 17.4497-6.53127Q16.2804-7.72502 14.561-7.72502Q12.9092-7.72502 11.7322-6.53127Q10.5553-5.33752 10.5553-3.65194Q10.5553-1.99992 11.7322-0.830587Q12.9092 0.338745 14.561 0.338745Q16.2804 0.338745 17.4497-0.830587Q18.619-1.99992 18.619-3.65194ZM81.0679-18.4893Q81.0679-19.606 80.2434-20.3538Q79.4189-21.1016 78.1708-21.1016L26.4239-21.1016Q25.1757-21.1016 24.3682-20.3538Q23.5606-19.606 23.5606-18.4893Q23.5606-17.3912 24.3682-16.6341Q25.1757-15.877 26.4239-15.877L78.1708-15.877Q79.4189-15.877 80.2434-16.6341Q81.0679-17.3912 81.0679-18.4893ZM81.0679-3.65194Q81.0679-4.78363 80.2434-5.54072Q79.4189-6.29781 78.1708-6.29781L26.4239-6.29781Q25.1757-6.29781 24.3682-5.54072Q23.5606-4.78363 23.5606-3.65194Q23.5606-2.55381 24.3682-1.79672Q25.1757-1.03963 26.4239-1.03963L78.1708-1.03963Q79.4189-1.03963 80.2434-1.79672Q81.0679-2.55381 81.0679-3.65194ZM20.1968-69.8163Q14.5742-69.8163 12.1699-67.2082Q9.76562-64.6001 9.76562-59.2318L9.76562-41.2989Q9.76562-35.8971 12.1699-33.2981Q14.5742-30.6992 20.1968-30.6992L71.8394-30.6992Q77.4434-30.6992 79.8477-33.2981Q82.252-35.8971 82.252-41.2989L82.252-59.2318Q82.252-64.6001 79.8477-67.2082Q77.4434-69.8163 71.8394-69.8163ZM15.1924-41.1303L15.1924-59.4004Q15.1924-62.1157 16.3369-63.4195Q17.4815-64.7232 20.2304-64.7232L71.8056-64.7232Q74.5211-64.7232 75.6732-63.4195Q76.8252-62.1157 76.8252-59.4004L76.8252-41.1303Q76.8252-38.3814 75.6732-37.0701Q74.5211-35.7587 71.8056-35.7587L20.2304-35.7587Q17.4815-35.7587 16.3369-37.0701Q15.1924-38.3814 15.1924-41.1303Z"/>
  </g>
  <g id="Thin-S" transform="matrix(1 0 0 1 811.494 696)">
   <path d="M18.0583-18.2091Q18.0583-19.6992 16.9892-20.786Q15.9201-21.8728 14.3807-21.8728Q12.8692-21.8728 11.7823-20.786Q10.6955-19.6992 10.6955-18.2091Q10.6955-16.6971 11.7823-15.6172Q12.8692-14.5374 14.3807-14.5374Q15.9201-14.5374 16.9892-15.6172Q18.0583-16.6971 18.0583-18.2091ZM18.0583-3.83222Q18.0583-5.35771 16.9892-6.45122Q15.9201-7.54473 14.3807-7.54473Q12.8692-7.54473 11.7823-6.45122Q10.6955-5.35771 10.6955-3.83222Q10.6955-2.32012 11.7823-1.25102Q12.8692-0.181924 14.3807-0.181924Q15.9201-0.181924 16.9892-1.25102Q18.0583-2.32012 18.0583-3.83222ZM79.4063-18.2091Q79.4063-18.8654 78.9122-19.3429Q78.418-19.8205 77.6501-19.8205L25.1427-19.8205Q24.3749-19.8205 23.8877-19.3429Q23.4005-18.8654 23.4005-18.2091Q23.4005-17.5315 23.8877-17.0646Q24.3749-16.5978 25.1427-16.5978L77.6501-16.5978Q78.418-16.5978 78.9122-17.0646Q79.4063-17.5315 79.4063-18.2091ZM79.4063-3.83222Q79.4063-4.5233 78.9122-4.99012Q78.418-5.45694 77.6501-5.45694L25.1427-5.45694Q24.3749-5.45694 23.8877-4.99012Q23.4005-4.5233 23.4005-3.83222Q23.4005-3.15453 23.8877-2.68771Q24.3749-2.22089 25.1427-2.22089L77.6501-2.22089Q78.418-2.22089 78.9122-2.68771Q79.4063-3.15453 79.4063-3.83222ZM19.6563-69.0955Q14.7343-69.0955 12.25-66.5576Q9.76562-64.0196 9.76562-59.1716L9.76562-40.8987Q9.76562-36.0373 12.25-33.4883Q14.7343-30.9393 19.6563-30.9393L70.1778-30.9393Q75.1213-30.9393 77.6056-33.4883Q80.0899-36.0373 80.0899-40.8987L80.0899-59.1716Q80.0899-64.0196 77.6056-66.5576Q75.1213-69.0955 70.1778-69.0955ZM13.0704-40.83L13.0704-59.2403Q13.0704-62.5762 14.6954-64.2804Q16.3204-65.9845 19.6697-65.9845L70.1638-65.9845Q73.5003-65.9845 75.1427-64.2804Q76.7852-62.5762 76.7852-59.2403L76.7852-40.83Q76.7852-37.4807 75.1427-35.7588Q73.5003-34.0369 70.1638-34.0369L19.6697-34.0369Q16.3204-34.0369 14.6954-35.7588Q13.0704-37.4807 13.0704-40.83Z"/>
  </g>
  <g id="Ultralight-S" transform="matrix(1 0 0 1 515.337 696)">
   <path d="M17.7711-18.0656Q17.7711-19.4633 16.7534-20.504Q15.7356-21.5446 14.2883-21.5446Q12.8487-21.5446 11.808-20.504Q10.7674-19.4633 10.7674-18.0656Q10.7674-16.6252 11.808-15.5865Q12.8487-14.5477 14.2883-14.5477Q15.7356-14.5477 16.7534-15.5865Q17.7711-16.6252 17.7711-18.0656ZM17.7711-3.92456Q17.7711-5.36804 16.7534-6.41022Q15.7356-7.45239 14.2883-7.45239Q12.8487-7.45239 11.808-6.41022Q10.7674-5.36804 10.7674-3.92456Q10.7674-2.48413 11.808-1.46637Q12.8487-0.448608 14.2883-0.448608Q15.7356-0.448608 16.7534-1.46637Q17.7711-2.48413 17.7711-3.92456ZM78.5553-18.0656Q78.5553-18.486 78.2303-18.8251Q77.9053-19.1643 77.3834-19.1643L24.4865-19.1643Q23.9647-19.1643 23.6416-18.8251Q23.3185-18.486 23.3185-18.0656Q23.3185-17.6033 23.6416-17.2852Q23.9647-16.967 24.4865-16.967L77.3834-16.967Q77.9053-16.967 78.2303-17.2852Q78.5553-17.6033 78.5553-18.0656ZM78.5553-3.92456Q78.5553-4.38995 78.2303-4.7081Q77.9053-5.02625 77.3834-5.02625L24.4865-5.02625Q23.9647-5.02625 23.6416-4.7081Q23.3185-4.38995 23.3185-3.92456Q23.3185-3.46222 23.6416-3.14407Q23.9647-2.82593 24.4865-2.82593L77.3834-2.82593Q77.9053-2.82593 78.2303-3.14407Q78.5553-3.46222 78.5553-3.92456ZM19.3794-68.7263Q14.8163-68.7263 12.291-66.2243Q9.76562-63.7222 9.76562-59.1408L9.76562-40.6937Q9.76562-36.1092 12.291-33.5857Q14.8163-31.0623 19.3794-31.0623L69.3268-31.0623Q73.9319-31.0623 76.4572-33.5857Q78.9825-36.1092 78.9825-40.6937L78.9825-59.1408Q78.9825-63.7222 76.4572-66.2243Q73.9319-68.7263 69.3268-68.7263ZM11.9835-40.6761L11.9835-59.1583Q11.9835-62.812 13.8546-64.7213Q15.7257-66.6306 19.3825-66.6306L69.323-66.6306Q72.9774-66.6306 74.8711-64.7213Q76.7647-62.812 76.7647-59.1583L76.7647-40.6761Q76.7647-37.0193 74.8711-35.0872Q72.9774-33.1551 69.323-33.1551L19.3825-33.1551Q15.7257-33.1551 13.8546-35.0872Q11.9835-37.0193 11.9835-40.6761Z"/>
  </g>
 </g>
</svg>
