<?xml version="1.0" encoding="UTF-8"?>
<!--Generator: Apple Native CoreSVG 175-->
<!DOCTYPE svg
PUBLIC "-//W3C//DTD SVG 1.1//EN"
       "http://www.w3.org/Graphics/SVG/1.1/DTD/svg11.dtd">
<svg version="1.1" xmlns="http://www.w3.org/2000/svg" xmlns:xlink="http://www.w3.org/1999/xlink" width="3300" height="2200">
 <!--glyph: "uni1012C2.medium", point size: 100.0, font version: "17.1d1e1", template writer version: "65.1"-->
 <g id="Notes">
  <rect height="2200" id="artboard" style="fill:white;opacity:1" width="3300" x="0" y="0"/>
  <line style="fill:none;stroke:black;opacity:1;stroke-width:0.5;" x1="263" x2="3036" y1="292" y2="292"/>
  <text style="stroke:none;fill:black;font-family:sans-serif;font-size:13;font-weight:bold;" transform="matrix(1 0 0 1 263 322)">Weight/Scale Variations</text>
  <text style="stroke:none;fill:black;font-family:sans-serif;font-size:13;text-anchor:middle;" transform="matrix(1 0 0 1 559.711 322)">Ultralight</text>
  <text style="stroke:none;fill:black;font-family:sans-serif;font-size:13;text-anchor:middle;" transform="matrix(1 0 0 1 856.422 322)">Thin</text>
  <text style="stroke:none;fill:black;font-family:sans-serif;font-size:13;text-anchor:middle;" transform="matrix(1 0 0 1 1153.13 322)">Light</text>
  <text style="stroke:none;fill:black;font-family:sans-serif;font-size:13;text-anchor:middle;" transform="matrix(1 0 0 1 1449.84 322)">Regular</text>
  <text style="stroke:none;fill:black;font-family:sans-serif;font-size:13;text-anchor:middle;" transform="matrix(1 0 0 1 1746.56 322)">Medium</text>
  <text style="stroke:none;fill:black;font-family:sans-serif;font-size:13;text-anchor:middle;" transform="matrix(1 0 0 1 2043.27 322)">Semibold</text>
  <text style="stroke:none;fill:black;font-family:sans-serif;font-size:13;text-anchor:middle;" transform="matrix(1 0 0 1 2339.98 322)">Bold</text>
  <text style="stroke:none;fill:black;font-family:sans-serif;font-size:13;text-anchor:middle;" transform="matrix(1 0 0 1 2636.69 322)">Heavy</text>
  <text style="stroke:none;fill:black;font-family:sans-serif;font-size:13;text-anchor:middle;" transform="matrix(1 0 0 1 2933.4 322)">Black</text>
  <line style="fill:none;stroke:black;opacity:1;stroke-width:0.5;" x1="263" x2="3036" y1="1903" y2="1903"/>
  <g transform="matrix(1 0 0 1 263 1933)">
   <path d="M9.24805 0.830078Q10.8691 0.830078 12.2949 0.214844Q13.7207-0.400391 14.8096-1.49414Q15.8984-2.58789 16.5186-4.01367Q17.1387-5.43945 17.1387-7.05078Q17.1387-8.66211 16.5186-10.0879Q15.8984-11.5137 14.8047-12.6074Q13.7109-13.7012 12.2852-14.3164Q10.8594-14.9316 9.23828-14.9316Q7.62695-14.9316 6.20117-14.3164Q4.77539-13.7012 3.69141-12.6074Q2.60742-11.5137 1.9873-10.0879Q1.36719-8.66211 1.36719-7.05078Q1.36719-5.43945 1.9873-4.01367Q2.60742-2.58789 3.69629-1.49414Q4.78516-0.400391 6.21094 0.214844Q7.63672 0.830078 9.24805 0.830078ZM9.24805-0.654297Q7.91992-0.654297 6.7627-1.14746Q5.60547-1.64062 4.73145-2.51953Q3.85742-3.39844 3.36426-4.56055Q2.87109-5.72266 2.87109-7.05078Q2.87109-8.37891 3.35938-9.54102Q3.84766-10.7031 4.72168-11.582Q5.5957-12.4609 6.75293-12.9541Q7.91016-13.4473 9.23828-13.4473Q10.5762-13.4473 11.7334-12.9541Q12.8906-12.4609 13.7695-11.582Q14.6484-10.7031 15.1465-9.54102Q15.6445-8.37891 15.6445-7.05078Q15.6445-5.72266 15.1514-4.56055Q14.6582-3.39844 13.7842-2.51953Q12.9102-1.64062 11.748-1.14746Q10.5859-0.654297 9.24805-0.654297ZM5.6543-7.05078Q5.6543-6.72852 5.85938-6.52832Q6.06445-6.32812 6.40625-6.32812L8.51562-6.32812L8.51562-4.20898Q8.51562-3.88672 8.71094-3.67676Q8.90625-3.4668 9.23828-3.4668Q9.56055-3.4668 9.77051-3.67676Q9.98047-3.88672 9.98047-4.20898L9.98047-6.32812L12.0898-6.32812Q12.4219-6.32812 12.627-6.52832Q12.832-6.72852 12.832-7.05078Q12.832-7.38281 12.627-7.58789Q12.4219-7.79297 12.0898-7.79297L9.98047-7.79297L9.98047-9.90234Q9.98047-10.2344 9.77051-10.4443Q9.56055-10.6543 9.23828-10.6543Q8.90625-10.6543 8.71094-10.4443Q8.51562-10.2344 8.51562-9.90234L8.51562-7.79297L6.40625-7.79297Q6.06445-7.79297 5.85938-7.58789Q5.6543-7.38281 5.6543-7.05078Z"/>
  </g>
  <g transform="matrix(1 0 0 1 281.867 1933)">
   <path d="M11.709 2.91016Q13.75 2.91016 15.5518 2.12891Q17.3535 1.34766 18.7305-0.0292969Q20.1074-1.40625 20.8887-3.20801Q21.6699-5.00977 21.6699-7.05078Q21.6699-9.0918 20.8887-10.8936Q20.1074-12.6953 18.7305-14.0723Q17.3535-15.4492 15.5469-16.2305Q13.7402-17.0117 11.6992-17.0117Q9.6582-17.0117 7.85645-16.2305Q6.05469-15.4492 4.68262-14.0723Q3.31055-12.6953 2.5293-10.8936Q1.74805-9.0918 1.74805-7.05078Q1.74805-5.00977 2.5293-3.20801Q3.31055-1.40625 4.6875-0.0292969Q6.06445 1.34766 7.86621 2.12891Q9.66797 2.91016 11.709 2.91016ZM11.709 1.25Q9.98047 1.25 8.47656 0.605469Q6.97266-0.0390625 5.83496-1.17676Q4.69727-2.31445 4.05762-3.81836Q3.41797-5.32227 3.41797-7.05078Q3.41797-8.7793 4.05762-10.2832Q4.69727-11.7871 5.83008-12.9297Q6.96289-14.0723 8.4668-14.7119Q9.9707-15.3516 11.6992-15.3516Q13.4277-15.3516 14.9316-14.7119Q16.4355-14.0723 17.5781-12.9297Q18.7207-11.7871 19.3652-10.2832Q20.0098-8.7793 20.0098-7.05078Q20.0098-5.32227 19.3701-3.81836Q18.7305-2.31445 17.5928-1.17676Q16.4551-0.0390625 14.9463 0.605469Q13.4375 1.25 11.709 1.25ZM7.17773-7.05078Q7.17773-6.69922 7.41211-6.47461Q7.64648-6.25 8.01758-6.25L10.8887-6.25L10.8887-3.36914Q10.8887-2.99805 11.1133-2.76855Q11.3379-2.53906 11.6895-2.53906Q12.0605-2.53906 12.29-2.76855Q12.5195-2.99805 12.5195-3.36914L12.5195-6.25L15.4004-6.25Q15.7715-6.25 16.001-6.47461Q16.2305-6.69922 16.2305-7.05078Q16.2305-7.42188 16.001-7.65137Q15.7715-7.88086 15.4004-7.88086L12.5195-7.88086L12.5195-10.752Q12.5195-11.1328 12.29-11.3623Q12.0605-11.5918 11.6895-11.5918Q11.3379-11.5918 11.1133-11.3574Q10.8887-11.123 10.8887-10.752L10.8887-7.88086L8.01758-7.88086Q7.63672-7.88086 7.40723-7.65137Q7.17773-7.42188 7.17773-7.05078Z"/>
  </g>
  <g transform="matrix(1 0 0 1 305.646 1933)">
   <path d="M14.9707 5.66406Q17.0605 5.66406 18.96 5.01465Q20.8594 4.36523 22.4512 3.19336Q24.043 2.02148 25.2197 0.429688Q26.3965-1.16211 27.0459-3.06641Q27.6953-4.9707 27.6953-7.05078Q27.6953-9.14062 27.0459-11.04Q26.3965-12.9395 25.2197-14.5312Q24.043-16.123 22.4512-17.2998Q20.8594-18.4766 18.9551-19.126Q17.0508-19.7754 14.9609-19.7754Q12.8711-19.7754 10.9717-19.126Q9.07227-18.4766 7.48535-17.2998Q5.89844-16.123 4.72168-14.5312Q3.54492-12.9395 2.90039-11.04Q2.25586-9.14062 2.25586-7.05078Q2.25586-4.9707 2.90527-3.06641Q3.55469-1.16211 4.72656 0.429688Q5.89844 2.02148 7.49023 3.19336Q9.08203 4.36523 10.9814 5.01465Q12.8809 5.66406 14.9707 5.66406ZM14.9707 3.84766Q13.1641 3.84766 11.5283 3.2959Q9.89258 2.74414 8.53516 1.74805Q7.17773 0.751953 6.17676-0.610352Q5.17578-1.97266 4.62891-3.6084Q4.08203-5.24414 4.08203-7.05078Q4.08203-8.86719 4.62891-10.5029Q5.17578-12.1387 6.17188-13.501Q7.16797-14.8633 8.52539-15.8594Q9.88281-16.8555 11.5186-17.4023Q13.1543-17.9492 14.9609-17.9492Q16.7773-17.9492 18.4131-17.4023Q20.0488-16.8555 21.4111-15.8594Q22.7734-14.8633 23.7695-13.501Q24.7656-12.1387 25.3174-10.5029Q25.8691-8.86719 25.8691-7.05078Q25.8789-5.24414 25.332-3.6084Q24.7852-1.97266 23.7842-0.610352Q22.7832 0.751953 21.4209 1.74805Q20.0586 2.74414 18.4229 3.2959Q16.7871 3.84766 14.9707 3.84766ZM9.19922-7.05078Q9.19922-6.66992 9.45801-6.4209Q9.7168-6.17188 10.1172-6.17188L14.0625-6.17188L14.0625-2.2168Q14.0625-1.81641 14.3115-1.55762Q14.5605-1.29883 14.9512-1.29883Q15.3516-1.29883 15.6104-1.55273Q15.8691-1.80664 15.8691-2.2168L15.8691-6.17188L19.8242-6.17188Q20.2246-6.17188 20.4785-6.4209Q20.7324-6.66992 20.7324-7.05078Q20.7324-7.46094 20.4785-7.71484Q20.2246-7.96875 19.8242-7.96875L15.8691-7.96875L15.8691-11.9141Q15.8691-12.3242 15.6104-12.583Q15.3516-12.8418 14.9512-12.8418Q14.5605-12.8418 14.3115-12.583Q14.0625-12.3242 14.0625-11.9141L14.0625-7.96875L10.1172-7.96875Q9.70703-7.96875 9.45312-7.71484Q9.19922-7.46094 9.19922-7.05078Z"/>
  </g>
  <text style="stroke:none;fill:black;font-family:sans-serif;font-size:13;font-weight:bold;" transform="matrix(1 0 0 1 263 1953)">Design Variations</text>
  <text style="stroke:none;fill:black;font-family:sans-serif;font-size:13;" transform="matrix(1 0 0 1 263 1971)">Symbols are supported in up to nine weights and three scales.</text>
  <text style="stroke:none;fill:black;font-family:sans-serif;font-size:13;" transform="matrix(1 0 0 1 263 1989)">For optimal layout with text and other symbols, vertically align</text>
  <text style="stroke:none;fill:black;font-family:sans-serif;font-size:13;" transform="matrix(1 0 0 1 263 2007)">symbols with the adjacent text.</text>
  <line style="fill:none;stroke:#00AEEF;stroke-width:0.5;opacity:1.0;" x1="776" x2="776" y1="1919" y2="1933"/>
  <g transform="matrix(1 0 0 1 776 1933)">
   <path d="M3.31055 0.15625Q3.70117 0.15625 3.91602-0.00976562Q4.13086-0.175781 4.26758-0.585938L5.52734-4.0332L11.2891-4.0332L12.5488-0.585938Q12.6855-0.175781 12.9004-0.00976562Q13.1152 0.15625 13.4961 0.15625Q13.8867 0.15625 14.1162-0.0585938Q14.3457-0.273438 14.3457-0.644531Q14.3457-0.869141 14.2383-1.17188L9.6582-13.3691Q9.48242-13.8184 9.17969-14.043Q8.87695-14.2676 8.4082-14.2676Q7.5-14.2676 7.17773-13.3789L2.59766-1.16211Q2.49023-0.859375 2.49023-0.634766Q2.49023-0.263672 2.70996-0.0537109Q2.92969 0.15625 3.31055 0.15625ZM6.00586-5.51758L8.37891-12.0898L8.42773-12.0898L10.8008-5.51758Z"/>
  </g>
  <line style="fill:none;stroke:#00AEEF;stroke-width:0.5;opacity:1.0;" x1="793.197" x2="793.197" y1="1919" y2="1933"/>
  <text style="stroke:none;fill:black;font-family:sans-serif;font-size:13;font-weight:bold;" transform="matrix(1 0 0 1 776 1953)">Margins</text>
  <text style="stroke:none;fill:black;font-family:sans-serif;font-size:13;" transform="matrix(1 0 0 1 776 1971)">Leading and trailing margins on the left and right side of each symbol</text>
  <text style="stroke:none;fill:black;font-family:sans-serif;font-size:13;" transform="matrix(1 0 0 1 776 1989)">can be adjusted by modifying the x-location of the margin guidelines.</text>
  <text style="stroke:none;fill:black;font-family:sans-serif;font-size:13;" transform="matrix(1 0 0 1 776 2007)">Modifications are automatically applied proportionally to all</text>
  <text style="stroke:none;fill:black;font-family:sans-serif;font-size:13;" transform="matrix(1 0 0 1 776 2025)">scales and weights.</text>
  <g transform="matrix(1 0 0 1 1289 1933)">
   <path d="M2.8418 1.86523L4.54102 3.57422Q5.18555 4.22852 5.90332 4.17969Q6.62109 4.13086 7.31445 3.35938L18.0078-8.42773L17.041-9.4043L6.42578 2.27539Q6.16211 2.57812 5.89355 2.61719Q5.625 2.65625 5.27344 2.30469L4.10156 1.14258Q3.75 0.791016 3.79395 0.522461Q3.83789 0.253906 4.14062-0.0195312L15.6152-10.8203L14.6387-11.7871L3.04688-0.898438Q2.30469-0.214844 2.25098 0.498047Q2.19727 1.21094 2.8418 1.86523ZM9.25781-16.3281Q8.94531-16.0254 8.90625-15.6348Q8.86719-15.2441 9.04297-14.9512Q9.21875-14.6777 9.55566-14.541Q9.89258-14.4043 10.3809-14.5215Q11.4746-14.7754 12.5977-14.7314Q13.7207-14.6875 14.7949-13.9844L14.209-12.5293Q13.9551-11.9043 14.0674-11.4404Q14.1797-10.9766 14.5801-10.5664L16.875-8.25195Q17.2363-7.88086 17.5781-7.82227Q17.9199-7.76367 18.3398-7.8418L19.4043-8.03711L20.0684-7.36328L20.0293-6.80664Q20-6.43555 20.1221-6.12305Q20.2441-5.81055 20.6055-5.44922L21.3672-4.70703Q21.7285-4.3457 22.1533-4.33105Q22.5781-4.31641 22.9297-4.66797L25.8398-7.58789Q26.1914-7.93945 26.1816-8.35449Q26.1719-8.76953 25.8105-9.13086L25.0391-9.89258Q24.6875-10.2539 24.3799-10.3857Q24.0723-10.5176 23.7109-10.4883L23.1348-10.4395L22.4902-11.0742L22.7344-12.1973Q22.832-12.6172 22.6953-12.9834Q22.5586-13.3496 22.1191-13.7891L19.9219-15.9766Q18.6719-17.2168 17.2607-17.8369Q15.8496-18.457 14.4189-18.4814Q12.9883-18.5059 11.665-17.959Q10.3418-17.4121 9.25781-16.3281ZM10.752-15.957Q11.6602-16.6211 12.7002-16.9043Q13.7402-17.1875 14.8047-17.085Q15.8691-16.9824 16.8701-16.5137Q17.8711-16.0449 18.7012-15.2051L21.1328-12.793Q21.3086-12.6172 21.3525-12.4512Q21.3965-12.2852 21.3379-12.0312L21.0156-10.5469L22.5195-9.0625L23.5059-9.12109Q23.6914-9.13086 23.7891-9.09668Q23.8867-9.0625 24.0332-8.91602L24.6094-8.33984L22.168-5.89844L21.5918-6.47461Q21.4453-6.62109 21.4062-6.71875Q21.3672-6.81641 21.377-7.01172L21.4453-7.98828L19.9512-9.47266L18.4277-9.21875Q18.1836-9.16992 18.042-9.2041Q17.9004-9.23828 17.7148-9.41406L15.7129-11.416Q15.5176-11.5918 15.4932-11.7529Q15.4688-11.9141 15.5859-12.1875L16.4648-14.2773Q15.293-15.3711 13.8281-15.791Q12.3633-16.2109 10.8398-15.7617Q10.7227-15.7324 10.6885-15.8057Q10.6543-15.8789 10.752-15.957Z"/>
  </g>
  <text style="stroke:none;fill:black;font-family:sans-serif;font-size:13;font-weight:bold;" transform="matrix(1 0 0 1 1289 1953)">Exporting</text>
  <text style="stroke:none;fill:black;font-family:sans-serif;font-size:13;" transform="matrix(1 0 0 1 1289 1971)">Symbols should be outlined when exporting to ensure the</text>
  <text style="stroke:none;fill:black;font-family:sans-serif;font-size:13;" transform="matrix(1 0 0 1 1289 1989)">design is preserved when submitting to Xcode.</text>
  <text id="template-version" style="stroke:none;fill:black;font-family:sans-serif;font-size:13;text-anchor:end;" transform="matrix(1 0 0 1 3036 1933)">Template v.3.0</text>
  <text style="stroke:none;fill:black;font-family:sans-serif;font-size:13;text-anchor:end;" transform="matrix(1 0 0 1 3036 1951)">Requires Xcode 13 or greater</text>
  <text id="descriptive-name" style="stroke:none;fill:black;font-family:sans-serif;font-size:13;text-anchor:end;" transform="matrix(1 0 0 1 3036 1969)">Generated from platter.filled.bottom.and.arrow.down.iphone</text>
  <text style="stroke:none;fill:black;font-family:sans-serif;font-size:13;text-anchor:end;" transform="matrix(1 0 0 1 3036 1987)">Typeset at 100 points</text>
  <text style="stroke:none;fill:black;font-family:sans-serif;font-size:13;" transform="matrix(1 0 0 1 263 726)">Small</text>
  <text style="stroke:none;fill:black;font-family:sans-serif;font-size:13;" transform="matrix(1 0 0 1 263 1156)">Medium</text>
  <text style="stroke:none;fill:black;font-family:sans-serif;font-size:13;" transform="matrix(1 0 0 1 263 1586)">Large</text>
 </g>
 <g id="Guides">
  <g id="H-reference" style="fill:#27AAE1;stroke:none;" transform="matrix(1 0 0 1 339 696)">
   <path d="M0.993347 0L3.6377 0L29.3282-67.1326L30.0301-67.1326L30.0301-70.459L28.1227-70.459ZM11.6882-24.4797L46.9818-24.4797L46.2311-26.7288L12.4382-26.7288ZM55.1193 0L57.7637 0L30.6381-70.459L29.4327-70.459L29.4327-67.1326Z"/>
  </g>
  <line id="Baseline-S" style="fill:none;stroke:#27AAE1;opacity:1;stroke-width:0.5;" x1="263" x2="3036" y1="696" y2="696"/>
  <line id="Capline-S" style="fill:none;stroke:#27AAE1;opacity:1;stroke-width:0.5;" x1="263" x2="3036" y1="625.541" y2="625.541"/>
  <g id="H-reference" style="fill:#27AAE1;stroke:none;" transform="matrix(1 0 0 1 339 1126)">
   <path d="M0.993347 0L3.6377 0L29.3282-67.1326L30.0301-67.1326L30.0301-70.459L28.1227-70.459ZM11.6882-24.4797L46.9818-24.4797L46.2311-26.7288L12.4382-26.7288ZM55.1193 0L57.7637 0L30.6381-70.459L29.4327-70.459L29.4327-67.1326Z"/>
  </g>
  <line id="Baseline-M" style="fill:none;stroke:#27AAE1;opacity:1;stroke-width:0.5;" x1="263" x2="3036" y1="1126" y2="1126"/>
  <line id="Capline-M" style="fill:none;stroke:#27AAE1;opacity:1;stroke-width:0.5;" x1="263" x2="3036" y1="1055.54" y2="1055.54"/>
  <g id="H-reference" style="fill:#27AAE1;stroke:none;" transform="matrix(1 0 0 1 339 1556)">
   <path d="M0.993347 0L3.6377 0L29.3282-67.1326L30.0301-67.1326L30.0301-70.459L28.1227-70.459ZM11.6882-24.4797L46.9818-24.4797L46.2311-26.7288L12.4382-26.7288ZM55.1193 0L57.7637 0L30.6381-70.459L29.4327-70.459L29.4327-67.1326Z"/>
  </g>
  <line id="Baseline-L" style="fill:none;stroke:#27AAE1;opacity:1;stroke-width:0.5;" x1="263" x2="3036" y1="1556" y2="1556"/>
  <line id="Capline-L" style="fill:none;stroke:#27AAE1;opacity:1;stroke-width:0.5;" x1="263" x2="3036" y1="1485.54" y2="1485.54"/>
  <line id="left-margin-Regular-M" style="fill:none;stroke:#00AEEF;stroke-width:0.5;opacity:1.0;" x1="1399.77" x2="1399.77" y1="1030.79" y2="1150.12"/>
  <line id="right-margin-Regular-M" style="fill:none;stroke:#00AEEF;stroke-width:0.5;opacity:1.0;" x1="1499.92" x2="1499.92" y1="1030.79" y2="1150.12"/>
 </g>
 <g id="Symbols">
  <g id="Black-L" transform="matrix(1 0 0 1 2861.61 1556)">
   <path d="M52.7128-36.2086Q52.7128-34.0097 54.1183-32.5262L67.2632-18.0188Q69.0844-16.0432 71.787-16.0432Q74.4895-16.0432 76.2888-18.0188L89.4347-32.5262Q90.8611-34.0097 90.8611-36.2086Q90.8611-38.2907 89.4741-39.579Q88.0872-40.8673 85.9479-40.8673Q83.5778-40.909 82.0306-39.0102L78.6136-35.031L77.0829-32.7441L77.4022-38.0658L77.4022-53.2251Q77.4022-55.5224 75.8109-57.0073Q74.2195-58.4923 71.787-58.4923Q69.3544-58.4923 67.7526-57.0073Q66.1509-55.5224 66.1509-53.2251L66.1509-38.0658L66.469-32.7441L64.9383-35.031L61.5225-39.0102Q59.9741-40.909 57.6052-40.8673Q55.4855-40.8673 54.0992-39.579Q52.7128-38.2907 52.7128-36.2086ZM55.3653 11.0031L88.1878 11.0031Q90.6844 11.0031 92.2124 9.44534Q93.7404 7.88757 93.7404 5.29091L93.7404-4.29409Q93.7404-6.86992 92.2124-8.43752Q90.6844-10.0051 88.1878-10.0051L55.3653-10.0051Q52.8687-10.0051 51.3407-8.43752Q49.8127-6.86992 49.8127-4.29409L49.8127 5.29091Q49.8127 7.88757 51.3407 9.44534Q52.8687 11.0031 55.3653 11.0031ZM21.2056 20.4185Q21.2056 29.6653 27.155 35.3965Q33.1044 41.1276 42.7474 41.1276L102.032 41.1276Q111.17 41.1276 116.769 35.3965Q122.368 29.6653 122.368 20.3601L122.368-91.1527Q122.368-100.458 116.769-106.189Q111.17-111.92 102.032-111.92L42.7474-111.92Q33.1044-111.92 27.155-106.218Q21.2056-100.516 21.2056-91.2112ZM41.1867 13.4149L41.1867-84.2076Q41.1867-87.1975 42.9177-88.809Q44.6487-90.4206 47.5842-90.4206L96.0273-90.4206Q98.9044-90.4206 100.635-88.7506Q102.366-87.0806 102.366-84.1492L102.366 13.3565Q102.366 16.2892 100.635 17.9592Q98.9044 19.6292 96.0273 19.6292L47.5842 19.6292Q44.6487 19.6292 42.9177 17.9884Q41.1867 16.3476 41.1867 13.4149Z"/>
  </g>
  <g id="Heavy-L" transform="matrix(1 0 0 1 2566.73 1556)">
   <path d="M51.436-34.143Q51.436-32.1256 52.6997-30.7926L65.9114-16.5591Q67.5738-14.7932 69.957-14.7932Q72.3402-14.7932 73.9669-16.5591L87.184-30.7926Q88.478-32.1256 88.478-34.143Q88.478-36.0712 87.2069-37.2575Q85.9359-38.4437 83.9686-38.4437Q81.8632-38.5041 80.4341-36.8016L76.6826-32.6397L74.6971-29.8859L75.0075-35.7579L75.0075-51.7407Q75.0075-53.8284 73.5802-55.1815Q72.1529-56.5346 69.957-56.5346Q67.7611-56.5346 66.3187-55.1815Q64.8763-53.8284 64.8763-51.7407L64.8763-35.7579L65.1812-29.8859L63.1957-32.6397L59.4498-36.8016Q58.015-38.5041 55.9152-38.4437Q53.9726-38.4437 52.7043-37.2575Q51.436-36.0712 51.436-34.143ZM53.4492 11.564L86.4345 11.564Q88.9444 11.564 90.4724 10.0109Q92.0004 8.45781 92.0004 5.84291L92.0004-3.21758Q92.0004-5.80224 90.4724-7.36765Q88.9444-8.93305 86.4345-8.93305L53.4492-8.93305Q50.9394-8.93305 49.4114-7.36765Q47.8835-5.80224 47.8835-3.21758L47.8835 5.84291Q47.8835 8.45781 49.4114 10.0109Q50.9394 11.564 53.4492 11.564ZM21.8948 19.0601Q21.8948 27.8566 27.5346 33.2819Q33.1743 38.7072 42.3447 38.7072L98.4762 38.7072Q107.275 38.7072 112.647 33.2819Q118.019 27.8566 118.019 19.0155L118.019-89.758Q118.019-98.599 112.647-104.024Q107.275-109.45 98.4762-109.45L42.3447-109.45Q33.1743-109.45 27.5346-104.047Q21.8948-98.6436 21.8948-89.8026ZM39.3953 13.3524L39.3953-84.0949Q39.3953-87.3265 41.2416-89.0578Q43.0879-90.7891 46.3207-90.7891L93.6077-90.7891Q96.7959-90.7891 98.6423-89.0131Q100.489-87.2372 100.489-84.0503L100.489 13.3078Q100.489 16.5004 98.6423 18.2763Q96.7959 20.0522 93.6077 20.0522L46.3207 20.0522Q43.0879 20.0522 41.2416 18.2986Q39.3953 16.545 39.3953 13.3524Z"/>
  </g>
  <g id="Bold-L" transform="matrix(1 0 0 1 2272.32 1556)">
   <path d="M49.7934-31.7333Q49.7934-29.9537 50.888-28.8052L64.2066-14.8353Q65.6617-13.3306 67.6529-13.3306Q69.6442-13.3306 71.0483-14.8353L84.3798-28.8052Q85.5125-29.9537 85.5125-31.7333Q85.5125-33.4545 84.391-34.5065Q83.2696-35.5586 81.5323-35.5586Q79.7498-35.6345 78.4741-34.1705L74.196-29.6514L71.7016-26.4182L71.9969-32.7132L71.9969-50.016Q71.9969-51.8424 70.7731-53.0267Q69.5494-54.2109 67.6529-54.2109Q65.7565-54.2109 64.5138-53.0267Q63.2712-51.8424 63.2712-50.016L63.2712-32.7132L63.5533-26.4182L61.0589-29.6514L56.794-34.1705Q55.5049-35.6345 53.7357-35.5586Q52.0232-35.5586 50.9083-34.5065Q49.7934-33.4545 49.7934-31.7333ZM51.0301 12.2555L84.2376 12.2555Q86.7705 12.2555 88.2984 10.7064Q89.8264 9.15727 89.8264 6.51928L89.8264-1.89557Q89.8264-4.49546 88.2984-6.05709Q86.7705-7.61872 84.2376-7.61872L51.0301-7.61872Q48.4976-7.61872 46.9696-6.05709Q45.4416-4.49546 45.4416-1.89557L45.4416 6.51928Q45.4416 9.15727 46.9696 10.7064Q48.4976 12.2555 51.0301 12.2555ZM22.6658 17.3773Q22.6658 25.6726 27.9176 30.725Q33.1695 35.7775 41.8006 35.7775L94.0807 35.7775Q102.487 35.7775 107.563 30.725Q112.64 25.6726 112.64 17.3481L112.64-88.0291Q112.64-96.3536 107.563-101.406Q102.487-106.458 94.0807-106.458L41.8006-106.458Q33.1695-106.458 27.9176-101.421Q22.6658-96.3828 22.6658-88.0583ZM37.1076 13.1861L37.1076-83.8671Q37.1076-87.4654 39.111-89.3614Q41.1144-91.2574 44.7682-91.2574L90.529-91.2574Q94.1536-91.2574 96.157-89.3322Q98.1604-87.407 98.1604-83.8379L98.1604 13.1569Q98.1604 16.7394 96.157 18.6645Q94.1536 20.5896 90.529 20.5896L44.7682 20.5896Q41.1144 20.5896 39.111 18.6791Q37.1076 16.7686 37.1076 13.1861Z"/>
  </g>
  <g id="Semibold-L" transform="matrix(1 0 0 1 1977.2 1556)">
   <path d="M48.6611-30.0721Q48.6611-28.4565 49.639-27.4351L63.0313-13.6469Q64.3436-12.3223 66.0646-12.3223Q67.7855-12.3223 69.0363-13.6469L82.4466-27.4351Q83.468-28.4565 83.468-30.0721Q83.468-31.6506 82.4498-32.6101Q81.4315-33.5696 79.8528-33.5696Q78.2928-33.6563 77.1229-32.3566L72.4817-27.5913L69.6366-24.0276L69.9213-30.6141L69.9213-48.827Q69.9213-50.4732 68.8379-51.5411Q67.7545-52.609 66.0646-52.609Q64.3746-52.609 63.2696-51.5411Q62.1646-50.4732 62.1646-48.827L62.1646-30.6141L62.431-24.0276L59.5858-27.5913L54.963-32.3566Q53.7745-33.6563 52.2331-33.5696Q50.6793-33.5696 49.6702-32.6101Q48.6611-31.6506 48.6611-30.0721ZM49.3624 12.7323L82.7231 12.7323Q85.2717 12.7323 86.7997 11.1859Q88.3277 9.63947 88.3277 6.98556L88.3277-0.984181Q88.3277-3.59457 86.7997-5.1536Q85.2717-6.71263 82.7231-6.71263L49.3624-6.71263Q46.8142-6.71263 45.2862-5.1536Q43.7582-3.59457 43.7582-0.984181L43.7582 6.98556Q43.7582 9.63947 45.2862 11.1859Q46.8142 12.7323 49.3624 12.7323ZM23.1973 16.2172Q23.1973 24.167 28.1817 28.9624Q33.1661 33.7578 41.4255 33.7578L91.0505 33.7578Q99.1859 33.7578 104.059 28.9624Q108.932 24.167 108.932 16.1986L108.932-86.8372Q108.932-94.8056 104.059-99.601Q99.1859-104.396 91.0505-104.396L41.4255-104.396Q33.1661-104.396 28.1817-99.6103Q23.1973-94.8241 23.1973-86.8558ZM35.5305 13.0714L35.5305-83.71Q35.5305-87.5612 37.6422-89.5708Q39.7539-91.5803 43.6979-91.5803L88.4066-91.5803Q92.332-91.5803 94.4437-89.5522Q96.5554-87.5241 96.5554-83.6915L96.5554 13.0529Q96.5554 16.9041 94.4437 18.9321Q92.332 20.96 88.4066 20.96L43.6979 20.96Q39.7539 20.96 37.6422 18.9414Q35.5305 16.9227 35.5305 13.0714Z"/>
  </g>
  <g id="Medium-L" transform="matrix(1 0 0 1 1681.7 1556)">
   <path d="M47.8025-28.8125Q47.8025-27.3212 48.6919-26.3963L62.1401-12.7457Q63.3441-11.5578 64.8602-11.5578Q66.3762-11.5578 67.5107-12.7457L80.9808-26.3963Q81.9179-27.3212 81.9179-28.8125Q81.9179-30.2828 80.9778-31.1721Q80.0378-32.0614 78.5793-32.0614Q77.1881-32.1563 76.0983-30.9812L71.1819-26.0292L68.0708-22.215L68.3476-29.0225L68.3476-47.9255Q68.3476-49.4351 67.3706-50.4147Q66.3936-51.3943 64.8602-51.3943Q63.3268-51.3943 62.3262-50.4147Q61.3255-49.4351 61.3255-47.9255L61.3255-29.0225L61.58-22.215L58.4689-26.0292L53.5748-30.9812Q52.4624-32.1563 51.0938-32.0614Q49.6603-32.0614 48.7314-31.1721Q47.8025-30.2828 47.8025-28.8125ZM48.0979 13.0938L81.5748 13.0938Q84.1354 13.0938 85.6633 11.5495Q87.1913 10.0051 87.1913 7.33911L87.1913-0.293129Q87.1913-2.91148 85.6633-4.46853Q84.1354-6.02559 81.5748-6.02559L48.0979-6.02559Q45.5377-6.02559 44.0097-4.46853Q42.4818-2.91148 42.4818-0.293129L42.4818 7.33911Q42.4818 10.0051 44.0097 11.5495Q45.5377 13.0938 48.0979 13.0938ZM23.6003 15.3375Q23.6003 23.0253 28.382 27.6258Q33.1636 32.2264 41.141 32.2264L88.7528 32.2264Q96.6829 32.2264 101.401 27.6258Q106.12 23.0253 106.12 15.327L106.12-85.9335Q106.12-93.6318 101.401-98.2323Q96.6829-102.833 88.7528-102.833L41.141-102.833Q33.1636-102.833 28.382-98.2376Q23.6003-93.6423 23.6003-85.944ZM34.3346 12.9845L34.3346-83.5909Q34.3346-87.6339 36.5285-89.7295Q38.7223-91.8251 42.8863-91.8251L86.7973-91.8251Q90.9508-91.8251 93.1446-89.719Q95.3384-87.6128 95.3384-83.5804L95.3384 12.974Q95.3384 17.029 93.1446 19.135Q90.9508 21.241 86.7973 21.241L42.8863 21.241Q38.7223 21.241 36.5285 19.1403Q34.3346 17.0395 34.3346 12.9845Z"/>
  </g>
  <g id="Regular-L" transform="matrix(1 0 0 1 1386.56 1556)">
   <path d="M46.6826-27.1696Q46.6826-25.8404 47.4566-25.0412L60.9777-11.5704Q62.0405-10.5606 63.2892-10.5606Q64.538-10.5606 65.5208-11.5704L79.0689-25.0412Q79.8959-25.8404 79.8959-27.1696Q79.8959-28.4987 79.0579-29.2965Q78.2199-30.0943 76.9182-30.0943Q75.7471-30.1998 74.762-29.1873L69.4865-23.9918L66.0285-19.8507L66.2948-26.9466L66.2948-46.7496Q66.2948-48.081 65.4566-48.9455Q64.6184-49.81 63.2892-49.81Q61.9601-49.81 61.0956-48.9455Q60.2311-48.081 60.2311-46.7496L60.2311-26.9466L60.4701-19.8507L57.012-23.9918L51.764-29.1873Q50.751-30.1998 49.6078-30.0943Q48.3311-30.0943 47.5069-29.2965Q46.6826-28.4987 46.6826-27.1696ZM46.4485 13.5654L80.0769 13.5654Q82.6531 13.5654 84.1811 12.0237Q85.7091 10.482 85.7091 7.80026L85.7091 0.608243Q85.7091-2.02049 84.1811-3.57497Q82.6531-5.12945 80.0769-5.12945L46.4485-5.12945Q43.8728-5.12945 42.3448-3.57497Q40.8169-2.02049 40.8169 0.608243L40.8169 7.80026Q40.8169 10.482 42.3448 12.0237Q43.8728 13.5654 46.4485 13.5654ZM24.126 14.1902Q24.126 21.5363 28.6431 25.8826Q33.1603 30.2288 40.77 30.2288L85.7559 30.2288Q93.4182 30.2288 97.9353 25.8826Q102.452 21.5363 102.452 14.1902L102.452-84.7547Q102.452-92.1008 97.9353-96.4471Q93.4182-100.793 85.7559-100.793L40.77-100.793Q33.1603-100.793 28.6431-96.4471Q24.126-92.1008 24.126-84.7547ZM32.7749 12.8711L32.7749-83.4356Q32.7749-87.7286 35.0758-89.9365Q37.3767-92.1445 41.8278-92.1445L84.6982-92.1445Q89.1492-92.1445 91.4502-89.9365Q93.7511-87.7286 93.7511-83.4356L93.7511 12.8711Q93.7511 17.192 91.4502 19.3997Q89.1492 21.6074 84.6982 21.6074L41.8278 21.6074Q37.3767 21.6074 35.0758 19.3997Q32.7749 17.192 32.7749 12.8711Z"/>
  </g>
  <g id="Light-L" transform="matrix(1 0 0 1 1091.68 1556)">
   <path d="M45.1556-26.4635Q45.1556-25.3825 45.8533-24.6978L59.6037-10.9214Q60.4565-10.1027 61.457-10.1027Q62.4576-10.1027 63.2307-10.9214L77.0266-24.6978Q77.7584-25.3825 77.7584-26.4635Q77.7584-27.5445 77.0636-28.1991Q76.3688-28.8537 75.3341-28.8537Q74.3538-28.921 73.5214-28.0422L67.1582-21.7587L63.7002-17.9232L63.9284-23.6448L63.9284-46.2917Q63.9284-47.432 63.2332-48.1439Q62.538-48.8557 61.457-48.8557Q60.376-48.8557 59.6642-48.1439Q58.9523-47.432 58.9523-46.2917L58.9523-23.6448L59.1342-17.9232L55.6762-21.7587L49.3594-28.0422Q48.4798-28.921 47.5466-28.8537Q46.4989-28.8537 45.8273-28.1991Q45.1556-27.5445 45.1556-26.4635ZM44.4826 14.0233L78.3973 14.0233Q81.0309 14.0233 82.5589 12.4721Q84.0869 10.921 84.0869 8.22L84.0869 1.44804Q84.0869-1.21885 82.5589-2.76387Q81.0309-4.30889 78.3973-4.30889L44.4826-4.30889Q41.8498-4.30889 40.3218-2.76387Q38.7938-1.21885 38.7938 1.44804L38.7938 8.22Q38.7938 10.921 40.3218 12.4721Q41.8498 14.0233 44.4826 14.0233ZM24.126 13.0259Q24.126 20.3912 28.3473 24.518Q32.5687 28.6448 40.1021 28.6448L82.7786 28.6448Q90.3453 28.6448 94.5667 24.518Q98.788 20.3912 98.788 13.0259L98.788-83.5522Q98.788-90.9176 94.5667-95.0444Q90.3453-99.1712 82.7786-99.1712L40.1021-99.1712Q32.5687-99.1712 28.3473-95.0444Q24.126-90.9176 24.126-83.5522ZM30.7519 12.1839L30.7519-82.7103Q30.7519-87.6905 33.2532-90.1179Q35.7545-92.5453 40.8353-92.5453L82.0454-92.5453Q87.1262-92.5453 89.6275-90.1179Q92.1289-87.6905 92.1289-82.7103L92.1289 12.1839Q92.1289 17.2112 89.6275 19.6382Q87.1262 22.0653 82.0454 22.0653L40.8353 22.0653Q35.7545 22.0653 33.2532 19.6382Q30.7519 17.2112 30.7519 12.1839Z"/>
  </g>
  <g id="Thin-L" transform="matrix(1 0 0 1 797.388 1556)">
   <path d="M43.1361-25.5296Q43.1361-24.7769 43.7329-24.2436L57.7865-10.063Q58.3614-9.4971 59.0337-9.4971Q59.7061-9.4971 60.2018-10.063L74.3256-24.2436Q74.9314-24.7769 74.9314-25.5296Q74.9314-26.2824 74.4259-26.7476Q73.9205-27.2128 73.2391-27.2128Q72.5112-27.2298 71.8805-26.5278L64.0789-18.8053L60.6208-15.374L60.7986-19.2779L60.7986-45.6861Q60.7986-46.5737 60.2925-47.0836Q59.7865-47.5936 59.0337-47.5936Q58.281-47.5936 57.771-47.0836Q57.261-46.5737 57.261-45.6861L57.261-19.2779L57.3674-15.374L53.9094-18.8053L46.1791-26.5278Q45.4759-27.2298 44.8205-27.2128Q44.0756-27.2128 43.6059-26.7476Q43.1361-26.2824 43.1361-25.5296ZM41.8825 14.6289L76.1759 14.6289Q78.8854 14.6289 80.4134 13.0652Q81.9414 11.5016 81.9414 8.77514L81.9414 2.55874Q81.9414-0.158618 80.4134-1.69113Q78.8854-3.22364 76.1759-3.22364L41.8825-3.22364Q39.1742-3.22364 37.6462-1.69113Q36.1182-0.158618 36.1182 2.55874L36.1182 8.77514Q36.1182 11.5016 37.6462 13.0652Q39.1742 14.6289 41.8825 14.6289ZM24.126 11.486Q24.126 18.8768 27.9561 22.7133Q31.7863 26.5498 39.2187 26.5498L78.8409 26.5498Q86.2812 26.5498 90.1114 22.7133Q93.9415 18.8768 93.9415 11.486L93.9415-81.9619Q93.9415-89.3527 90.1114-93.1892Q86.2812-97.0257 78.8409-97.0257L39.2187-97.0257Q31.7863-97.0257 27.9561-93.1892Q24.126-89.3527 24.126-81.9619ZM28.0763 11.2751L28.0763-81.751Q28.0763-87.64 30.8426-90.3577Q33.609-93.0754 39.5228-93.0754L78.5369-93.0754Q84.4506-93.0754 87.217-90.3577Q89.9834-87.64 89.9834-81.751L89.9834 11.2751Q89.9834 17.2367 87.217 19.9538Q84.4506 22.6709 78.5369 22.6709L39.5228 22.6709Q33.609 22.6709 30.8426 19.9538Q28.0763 17.2367 28.0763 11.2751Z"/>
  </g>
  <g id="Ultralight-L" transform="matrix(1 0 0 1 501.918 1556)">
   <path d="M42.1017-25.0513Q42.1017-24.4667 42.6468-24.011L56.8557-9.62336Q57.2884-9.18691 57.7926-9.18691Q58.2967-9.18691 58.6504-9.62336L72.9421-24.011Q73.4834-24.4667 73.4834-25.0513Q73.4834-25.6359 73.075-26.0042Q72.6665-26.3724 72.1661-26.3724Q71.5673-26.3635 71.0401-25.7521L62.5017-17.2926L59.0436-14.0683L59.1955-17.0412L59.1955-45.3759Q59.1955-46.134 58.7863-46.5406Q58.3772-46.9472 57.7926-46.9472Q57.208-46.9472 56.8014-46.5406Q56.3948-46.134 56.3948-45.3759L56.3948-17.0412L56.4625-14.0683L53.0045-17.2926L44.5502-25.7521Q43.9373-26.3635 43.4242-26.3724Q42.8345-26.3724 42.4681-26.0042Q42.1017-25.6359 42.1017-25.0513ZM40.5507 14.9391L75.0381 14.9391Q77.7865 14.9391 79.3145 13.369Q80.8425 11.7989 80.8425 9.05948L80.8425 3.12763Q80.8425 0.384428 79.3145-1.14167Q77.7865-2.66778 75.0381-2.66778L40.5507-2.66778Q37.8038-2.66778 36.2758-1.14167Q34.7478 0.384428 34.7478 3.12763L34.7478 9.05948Q34.7478 11.7989 36.2758 13.369Q37.8038 14.9391 40.5507 14.9391ZM24.126 10.6973Q24.126 18.1011 27.7557 21.7889Q31.3855 25.4767 38.7663 25.4767L76.824 25.4767Q84.1996 25.4767 87.8294 21.7889Q91.4591 18.1011 91.4591 10.6973L91.4591-81.1473Q91.4591-88.5511 87.8294-92.239Q84.1996-95.9268 76.824-95.9268L38.7663-95.9268Q31.3855-95.9268 27.7557-92.239Q24.126-88.5511 24.126-81.1473ZM26.7058 10.8096L26.7058-81.2597Q26.7058-87.6141 29.608-90.4805Q32.5101-93.3469 38.8505-93.3469L76.7398-93.3469Q83.0802-93.3469 85.9823-90.4805Q88.8845-87.6141 88.8845-81.2597L88.8845 10.8096Q88.8845 17.2497 85.9823 20.1154Q83.0802 22.9811 76.7398 22.9811L38.8505 22.9811Q32.5101 22.9811 29.608 20.1154Q26.7058 17.2497 26.7058 10.8096Z"/>
  </g>
  <g id="Black-M" transform="matrix(1 0 0 1 2876.46 1126)">
   <path d="M41.7294-37.6676Q41.7294-35.8417 42.9297-34.5784L53.0872-23.0622Q54.6062-21.3773 56.9408-21.3773Q59.2755-21.3773 60.7893-23.0622L70.9465-34.5784Q72.1523-35.8417 72.1523-37.6676Q72.1523-39.3794 70.9977-40.4458Q69.843-41.5122 68.0739-41.5122Q66.036-41.5232 64.7566-39.9015L62.2493-36.8284L61.4544-35.4993L61.7042-38.963L61.7042-50.3851Q61.7042-52.3192 60.3497-53.5622Q58.9952-54.8053 56.9408-54.8053Q54.8865-54.8053 53.5293-53.5622Q52.172-52.3192 52.172-50.3851L52.172-38.963L52.4221-35.4993L51.6272-36.8284L49.1196-39.9015Q47.8405-41.5232 45.8023-41.5122Q44.039-41.5122 42.8842-40.4458Q41.7294-39.3794 41.7294-37.6676ZM44.2741 0.168892L69.6021 0.168892Q71.5327 0.168892 72.7164-1.0433Q73.9002-2.2555 73.9002-4.25417L73.9002-12.0739Q73.9002-14.0671 72.7164-15.2822Q71.5327-16.4973 69.6021-16.4973L44.2741-16.4973Q42.3435-16.4973 41.1598-15.2822Q39.976-14.0671 39.976-12.0739L39.976-4.25417Q39.976-2.2555 41.1598-1.0433Q42.3435 0.168892 44.2741 0.168892ZM15.8366 8.89302Q15.8366 16.4466 20.6719 21.1198Q25.5072 25.7931 33.3738 25.7931L81.7014 25.7931Q89.0596 25.7931 93.5524 21.1198Q98.0451 16.4466 98.0451 8.83592L98.0451-79.5914Q98.0451-87.2021 93.5524-91.8753Q89.0596-96.5485 81.7014-96.5485L33.3738-96.5485Q25.5072-96.5485 20.6719-91.9038Q15.8366-87.2592 15.8366-79.6485ZM33.1745 2.41804L33.1745-73.1735Q33.1745-75.3752 34.4437-76.5506Q35.7129-77.7261 37.8169-77.7261L76.1164-77.7261Q78.1633-77.7261 79.4325-76.4935Q80.7017-75.261 80.7017-73.1164L80.7017 2.36094Q80.7017 4.50528 79.4325 5.7378Q78.1633 6.97032 76.1164 6.97032L37.8169 6.97032Q35.7129 6.97032 34.4437 5.76635Q33.1745 4.56238 33.1745 2.41804Z"/>
  </g>
  <g id="Heavy-M" transform="matrix(1 0 0 1 2581.37 1126)">
   <path d="M40.622-35.7135Q40.622-34.0421 41.6908-32.9155L51.8925-21.6951Q53.2756-20.1976 55.321-20.1976Q57.3663-20.1976 58.7308-21.6951L68.9347-32.9155Q70.0199-34.0421 70.0199-35.7135Q70.0199-37.2977 68.9653-38.2775Q67.9107-39.2574 66.2851-39.2574Q64.4884-39.2902 63.3103-37.8481L60.5764-34.6967L59.3369-32.883L59.5815-37.0115L59.5815-48.9763Q59.5815-50.723 58.3742-51.8513Q57.1669-52.9796 55.321-52.9796Q53.475-52.9796 52.2595-51.8513Q51.044-50.723 51.044-48.9763L51.044-37.0115L51.2864-32.883L50.0468-34.6967L47.3152-37.8481Q46.1348-39.2902 44.3404-39.2574Q42.729-39.2574 41.6755-38.2775Q40.622-37.2977 40.622-35.7135ZM42.5824 0.674903L68.043 0.674903Q69.9813 0.674903 71.1651-0.531824Q72.3489-1.73855 72.3489-3.75328L72.3489-11.0991Q72.3489-13.0974 71.1651-14.3112Q69.9813-15.525 68.043-15.525L42.5824-15.525Q40.6442-15.525 39.4604-14.3112Q38.2766-13.0974 38.2766-11.0991L38.2766-3.75328Q38.2766-1.73855 39.4604-0.531824Q40.6442 0.674903 42.5824 0.674903ZM16.5103 7.67253Q16.5103 14.7841 21.0702 19.1786Q25.6301 23.5731 33.0417 23.5731L78.4998 23.5731Q85.5353 23.5731 89.8334 19.1786Q94.1316 14.7841 94.1316 7.62891L94.1316-78.3388Q94.1316-85.494 89.8334-89.8885Q85.5353-94.283 78.4998-94.283L33.0417-94.283Q25.6301-94.283 21.0702-89.9103Q16.5103-85.5376 16.5103-78.3824ZM31.6099 2.4203L31.6099-73.1302Q31.6099-75.5048 32.9733-76.777Q34.3367-78.0492 36.6733-78.0492L73.9958-78.0492Q76.2888-78.0492 77.6522-76.7334Q79.0156-75.4176 79.0156-73.0866L79.0156 2.37668Q79.0156 4.70998 77.6522 6.02578Q76.2888 7.34159 73.9958 7.34159L36.6733 7.34159Q34.3367 7.34159 32.9733 6.04759Q31.6099 4.7536 31.6099 2.4203Z"/>
  </g>
  <g id="Bold-M" transform="matrix(1 0 0 1 2286.47 1126)">
   <path d="M39.3832-33.5275Q39.3832-32.029 40.305-31.0552L50.5561-20.1659Q51.7871-18.8779 53.5089-18.8779Q55.2306-18.8779 56.428-20.1659L66.6841-31.0552Q67.6345-32.029 67.6345-33.5275Q67.6345-34.969 66.6918-35.8521Q65.7491-36.7351 64.2841-36.7351Q62.7572-36.7923 61.6924-35.5512L58.7051-32.312L56.9681-29.9562L57.207-34.8284L57.207-47.4003Q57.207-48.9376 56.1643-49.9374Q55.1216-50.9373 53.5089-50.9373Q51.8961-50.9373 50.8391-49.9374Q49.7821-48.9376 49.7821-47.4003L49.7821-34.8284L50.016-29.9562L48.279-32.312L45.2968-35.5512Q44.2268-36.7923 42.705-36.7351Q41.2636-36.7351 40.3234-35.8521Q39.3832-34.969 39.3832-33.5275ZM40.69 1.24095L66.2991 1.24095Q68.2459 1.24095 69.4297 0.040341Q70.6135-1.16027 70.6135-3.19295L70.6135-10.0085Q70.6135-12.0125 69.4297-13.2249Q68.2459-14.4373 66.2991-14.4373L40.69-14.4373Q38.7432-14.4373 37.5594-13.2249Q36.3757-12.0125 36.3757-10.0085L36.3757-3.19295Q36.3757-1.16027 37.5594 0.040341Q38.7432 1.24095 40.69 1.24095ZM17.264 6.30724Q17.264 12.9242 21.5158 17.007Q25.7675 21.0898 32.6703 21.0898L74.9184 21.0898Q81.5928 21.0898 85.6733 17.007Q89.7538 12.9242 89.7538 6.27869L89.7538-76.9377Q89.7538-83.5832 85.6733-87.666Q81.5928-91.7487 74.9184-91.7487L32.6703-91.7487Q25.7675-91.7487 21.5158-87.6803Q17.264-83.6118 17.264-76.9662ZM29.8597 2.42283L29.8597-73.0818Q29.8597-75.6499 31.3285-77.0303Q32.7973-78.4108 35.3941-78.4108L71.6237-78.4108Q74.1919-78.4108 75.6607-77.0018Q77.1295-75.5928 77.1295-73.0533L77.1295 2.39428Q77.1295 4.93896 75.6607 6.34793Q74.1919 7.7569 71.6237 7.7569L35.3941 7.7569Q32.7973 7.7569 31.3285 6.36221Q29.8597 4.96751 29.8597 2.42283Z"/>
  </g>
  <g id="Semibold-M" transform="matrix(1 0 0 1 1991.01 1126)">
   <path d="M38.5292-32.0206Q38.5292-30.6412 39.3496-29.7727L49.6347-19.1117Q50.761-17.9681 52.2596-17.9681Q53.7583-17.9681 54.8405-19.1117L65.1326-29.7727Q65.9901-30.6412 65.9901-32.0206Q65.9901-33.3637 65.1245-34.1799Q64.2589-34.9962 62.9047-34.9962Q61.5637-35.0703 60.577-33.9676L57.415-30.6681L55.3351-27.9386L55.5701-33.3235L55.5701-46.3138Q55.5701-47.7067 54.6409-48.618Q53.7117-49.5294 52.2596-49.5294Q50.8076-49.5294 49.8599-48.618Q48.9122-47.7067 48.9122-46.3138L48.9122-33.3235L49.1402-27.9386L47.0603-30.6681L43.9053-33.9676Q42.9114-35.0703 41.5776-34.9962Q40.2534-34.9962 39.3913-34.1799Q38.5292-33.3637 38.5292-32.0206ZM39.3854 1.63118L65.0968 1.63118Q67.0496 1.63118 68.2334 0.434788Q69.4172-0.761601 69.4172-2.80666L69.4172-9.25668Q69.4172-11.2646 68.2334-12.4761Q67.0496-13.6875 65.0968-13.6875L39.3854-13.6875Q37.4327-13.6875 36.2489-12.4761Q35.0651-11.2646 35.0651-9.25668L35.0651-2.80666Q35.0651-0.761601 36.2489 0.434788Q37.4327 1.63118 39.3854 1.63118ZM17.7836 5.36602Q17.7836 11.6421 21.8229 15.5099Q25.8623 19.3778 32.4143 19.3778L72.4493 19.3778Q78.8749 19.3778 82.8053 15.5099Q86.7357 11.6421 86.7357 5.34786L86.7357-75.9717Q86.7357-82.2659 82.8053-86.1338Q78.8749-90.0016 72.4493-90.0016L32.4143-90.0016Q25.8623-90.0016 21.8229-86.1429Q17.7836-82.2841 17.7836-75.9899ZM28.6531 2.42458L28.6531-73.0484Q28.6531-75.7498 30.1946-77.2049Q31.736-78.66 34.5122-78.66L69.9883-78.66Q72.7463-78.66 74.2878-77.1868Q75.8292-75.7135 75.8292-73.0303L75.8292 2.40642Q75.8292 5.09683 74.2878 6.57002Q72.7463 8.04321 69.9883 8.04321L34.5122 8.04321Q31.736 8.04321 30.1946 6.5791Q28.6531 5.11498 28.6531 2.42458Z"/>
  </g>
  <g id="Medium-M" transform="matrix(1 0 0 1 1695.24 1126)">
   <path d="M37.8817-30.8779Q37.8817-29.5889 38.6252-28.8003L48.9362-18.3123Q49.9829-17.2782 51.3124-17.2782Q52.6419-17.2782 53.6368-18.3123L63.9562-28.8003Q64.7432-29.5889 64.7432-30.8779Q64.7432-32.1464 63.9361-32.9121Q63.129-33.6777 61.8587-33.6777Q60.6588-33.7646 59.7313-32.767L56.4368-29.4216L54.0969-26.4087L54.3289-32.1823L54.3289-45.49Q54.3289-46.7733 53.4857-47.6176Q52.6426-48.4619 51.3124-48.4619Q49.9823-48.4619 49.1174-47.6176Q48.2526-46.7733 48.2526-45.49L48.2526-32.1823L48.4761-26.4087L46.1362-29.4216L42.8502-32.767Q41.9141-33.7646 40.7228-33.6777Q39.4874-33.6777 38.6845-32.9121Q37.8817-32.1464 37.8817-30.8779ZM38.3962 1.92706L64.1851 1.92706Q66.1425 1.92706 67.3262 0.733874Q68.51-0.459316 68.51-2.51376L68.51-8.68661Q68.51-10.6976 67.3262-11.9082Q66.1425-13.1189 64.1851-13.1189L38.3962-13.1189Q36.439-13.1189 35.2553-11.9082Q34.0715-10.6976 34.0715-8.68661L34.0715-2.51376Q34.0715-0.459316 35.2553 0.733874Q36.439 1.92706 38.3962 1.92706ZM18.1775 4.65235Q18.1775 10.6699 22.0558 14.3748Q25.9341 18.0797 32.2201 18.0797L70.5772 18.0797Q76.8141 18.0797 80.6307 14.3748Q84.4473 10.6699 84.4473 4.64207L84.4473-75.2393Q84.4473-81.2671 80.6307-84.972Q76.8141-88.6769 70.5772-88.6769L32.2201-88.6769Q25.9341-88.6769 22.0558-84.9772Q18.1775-81.2774 18.1775-75.2496ZM27.7382 2.4259L27.7382-73.0231Q27.7382-75.8256 29.3348-77.3373Q30.9313-78.849 33.8435-78.849L68.7483-78.849Q71.6502-78.849 73.2467-77.327Q74.8433-75.8051 74.8433-73.0129L74.8433 2.41563Q74.8433 5.21652 73.2467 6.73841Q71.6502 8.26031 68.7483 8.26031L33.8435 8.26031Q30.9313 8.26031 29.3348 6.74355Q27.7382 5.2268 27.7382 2.4259Z"/>
  </g>
  <g id="Regular-M" transform="matrix(1 0 0 1 1399.77 1126)">
   <path d="M37.0371-29.3875Q37.0371-28.2163 37.6803-27.5319L48.025-17.2696Q48.968-16.3784 50.0769-16.3784Q51.1858-16.3784 52.0667-17.2696L62.4217-27.5319Q63.1168-28.2163 63.1168-29.3875Q63.1168-30.5587 62.3859-31.2583Q61.6551-31.958 60.4944-31.958Q59.4784-32.0615 58.6282-31.2009L55.1609-27.7957L52.4818-24.4132L52.7099-30.6939L52.7099-44.4155Q52.7099-45.556 51.979-46.3127Q51.2481-47.0694 50.0769-47.0694Q48.9057-47.0694 48.149-46.3127Q47.3923-45.556 47.3923-44.4155L47.3923-30.6939L47.6099-24.4132L44.9308-27.7957L41.474-31.2009Q40.6131-32.0615 39.6078-31.958Q38.4883-31.958 37.7627-31.2583Q37.0371-30.5587 37.0371-29.3875ZM37.1059 2.31301L62.9961 2.31301Q64.9592 2.31301 66.143 1.12399Q67.3268-0.065032 67.3268-2.13172L67.3268-7.94305Q67.3268-9.9579 66.143-11.1676Q64.9592-12.3773 62.9961-12.3773L37.1059-12.3773Q35.1429-12.3773 33.9591-11.1676Q32.7754-9.9579 32.7754-7.94305L32.7754-2.13172Q32.7754-0.065032 33.9591 1.12399Q35.1429 2.31301 37.1059 2.31301ZM18.6914 3.72147Q18.6914 9.40183 22.3596 12.8942Q26.0278 16.3865 31.9669 16.3865L68.1353 16.3865Q74.126 16.3865 77.7942 12.8942Q81.4624 9.40183 81.4624 3.72147L81.4624-74.284Q81.4624-79.9643 77.7942-83.4567Q74.126-86.949 68.1353-86.949L31.9669-86.949Q26.0278-86.949 22.3596-83.4567Q18.6914-79.9643 18.6914-74.284ZM26.5449 2.42763L26.5449-72.9901Q26.5449-75.9245 28.2133-77.51Q29.8817-79.0955 32.9713-79.0955L67.1309-79.0955Q70.2205-79.0955 71.8889-77.51Q73.5573-75.9245 73.5573-72.9901L73.5573 2.42763Q73.5573 5.37265 71.8889 6.95806Q70.2205 8.54347 67.1309 8.54347L32.9713 8.54347Q29.8817 8.54347 28.2133 6.95806Q26.5449 5.37265 26.5449 2.42763Z"/>
  </g>
  <g id="Light-M" transform="matrix(1 0 0 1 1104.7 1126)">
   <path d="M35.6681-28.7544Q35.6681-27.8058 36.2428-27.224L46.7931-16.6878Q47.5479-15.9679 48.4342-15.9679Q49.3206-15.9679 50.0135-16.6878L60.5908-27.224Q61.2004-27.8058 61.2004-28.7544Q61.2004-29.7031 60.5979-30.2744Q59.9955-30.8457 59.0742-30.8457Q58.2293-30.915 57.5159-30.1742L53.0735-25.7936L50.3944-22.6852L50.5883-27.7337L50.5883-44.005Q50.5883-44.9741 49.9856-45.594Q49.3829-46.2139 48.4342-46.2139Q47.4856-46.2139 46.8657-45.594Q46.2458-44.9741 46.2458-44.005L46.2458-27.7337L46.4123-22.6852L43.7332-25.7936L39.3181-30.1742Q38.5769-30.915 37.7598-30.8457Q36.8456-30.8457 36.2568-30.2744Q35.6681-29.7031 35.6681-28.7544ZM35.3434 2.72353L61.4902 2.72353Q63.5049 2.72353 64.6887 1.52603Q65.8724 0.328534 65.8724-1.75541L65.8724-7.19013Q65.8724-9.23919 64.6887-10.4404Q63.5049-11.6416 61.4902-11.6416L35.3434-11.6416Q33.3292-11.6416 32.1454-10.4404Q30.9616-9.23919 30.9616-7.19013L30.9616-1.75541Q30.9616 0.328534 32.1454 1.52603Q33.3292 2.72353 35.3434 2.72353ZM18.6914 2.67761Q18.6914 8.37522 22.0944 11.6708Q25.4974 14.9663 31.368 14.9663L65.466 14.9663Q71.3711 14.9663 74.7741 11.6708Q78.1771 8.37522 78.1771 2.67761L78.1771-73.2059Q78.1771-78.9035 74.7741-82.1991Q71.3711-85.4946 65.466-85.4946L31.368-85.4946Q25.4974-85.4946 22.0944-82.1991Q18.6914-78.9035 18.6914-73.2059ZM24.7311 1.81155L24.7311-72.3398Q24.7311-75.8903 26.5792-77.6726Q28.4273-79.4549 32.0815-79.4549L64.7525-79.4549Q68.4067-79.4549 70.2548-77.6726Q72.1029-75.8903 72.1029-72.3398L72.1029 1.81155Q72.1029 5.3899 70.2548 7.17195Q68.4067 8.954 64.7525 8.954L32.0815 8.954Q28.4273 8.954 26.5792 7.17195Q24.7311 5.3899 24.7311 1.81155Z"/>
  </g>
  <g id="Thin-M" transform="matrix(1 0 0 1 810.16 1126)">
   <path d="M33.8575-27.9172Q33.8575-27.2628 34.3417-26.8168L45.1638-15.9182Q45.6696-15.4249 46.2617-15.4249Q46.8537-15.4249 47.298-15.9182L58.1691-26.8168Q58.6658-27.2628 58.6658-27.9172Q58.6658-28.5716 58.2331-28.9731Q57.8005-29.3746 57.1959-29.3746Q56.5772-29.3987 56.0449-28.8165L50.3127-23.1458L47.6336-20.3997L47.7822-23.8185L47.7822-43.462Q47.7822-44.2045 47.3491-44.6434Q46.916-45.0823 46.2617-45.0823Q45.6073-45.0823 45.1684-44.6434Q44.7295-44.2045 44.7295-43.462L44.7295-23.8185L44.8283-20.3997L42.1492-23.1458L36.4668-28.8165Q35.8838-29.3987 35.3158-29.3746Q34.673-29.3746 34.2652-28.9731Q33.8575-28.5716 33.8575-27.9172ZM33.0122 3.26649L59.4986 3.26649Q61.5813 3.26649 62.7651 2.05777Q63.9489 0.849057 63.9489-1.2577L63.9489-6.19433Q63.9489-8.28863 62.7651-9.47865Q61.5813-10.6687 59.4986-10.6687L33.0122-10.6687Q30.9304-10.6687 29.7466-9.47865Q28.5628-8.28863 28.5628-6.19433L28.5628-1.2577Q28.5628 0.849057 29.7466 2.05777Q30.9304 3.26649 33.0122 3.26649ZM18.6914 1.29703Q18.6914 7.01745 21.7437 10.0527Q24.7959 13.088 30.576 13.088L61.9356 13.088Q67.7274 13.088 70.7796 10.0527Q73.8319 7.01745 73.8319 1.29703L73.8319-71.7801Q73.8319-77.5005 70.7796-80.5358Q67.7274-83.5711 61.9356-83.5711L30.576-83.5711Q24.7959-83.5711 21.7437-80.5358Q18.6914-77.5005 18.6914-71.7801ZM22.3323 0.996736L22.3323-71.4798Q22.3323-75.8451 24.4181-77.8876Q26.5038-79.9301 30.9047-79.9301L61.607-79.9301Q66.0079-79.9301 68.0936-77.8876Q70.1794-75.8451 70.1794-71.4798L70.1794 0.996736Q70.1794 5.41271 68.0936 7.45483Q66.0079 9.49696 61.607 9.49696L30.9047 9.49696Q26.5038 9.49696 24.4181 7.45483Q22.3323 5.41271 22.3323 0.996736Z"/>
  </g>
  <g id="Ultralight-M" transform="matrix(1 0 0 1 514.562 1126)">
   <path d="M32.9301-27.4884Q32.9301-26.9847 33.368-26.6082L44.3294-15.524Q44.7075-15.1468 45.1489-15.1468Q45.5902-15.1468 45.9071-15.524L56.9288-26.6082Q57.3676-26.9847 57.3676-27.4884Q57.3676-27.992 57.0219-28.3066Q56.6762-28.6212 56.2339-28.6212Q55.731-28.622 55.2914-28.121L48.8986-21.7895L46.2195-19.229L46.345-21.8132L46.345-43.1839Q46.345-43.8103 45.9988-44.1566Q45.6525-44.5028 45.1489-44.5028Q44.6452-44.5028 44.299-44.1566Q43.9528-43.8103 43.9528-43.1839L43.9528-21.8132L44.0169-19.229L41.3378-21.7895L35.0064-28.121Q34.5044-28.622 34.0639-28.6212Q33.5602-28.6212 33.2451-28.3066Q32.9301-27.992 32.9301-27.4884ZM31.8182 3.54459L58.4785 3.54459Q60.5961 3.54459 61.7799 2.33013Q62.9637 1.11567 62.9637-1.00277L62.9637-5.68429Q62.9637-7.80177 61.7799-8.98604Q60.5961-10.1703 58.4785-10.1703L31.8182-10.1703Q29.7017-10.1703 28.5179-8.98604Q27.3341-7.80177 27.3341-5.68429L27.3341-1.00277Q27.3341 1.11567 28.5179 2.33013Q29.7017 3.54459 31.8182 3.54459ZM18.6914 0.589901Q18.6914 6.32201 21.564 9.22399Q24.4366 12.126 30.1704 12.126L60.1274 12.126Q65.8611 12.126 68.7337 9.22399Q71.6063 6.32201 71.6063 0.589901L71.6063-71.0498Q71.6063-76.7819 68.7337-79.6839Q65.8611-82.5858 60.1274-82.5858L30.1704-82.5858Q24.4366-82.5858 21.564-79.6839Q18.6914-76.7819 18.6914-71.0498ZM21.1037 0.579392L21.1037-71.0393Q21.1037-75.8219 23.3111-77.9977Q25.5186-80.1736 30.302-80.1736L59.9958-80.1736Q64.7793-80.1736 66.9867-77.9977Q69.1941-75.8219 69.1941-71.0393L69.1941 0.579392Q69.1941 5.4244 66.9867 7.59973Q64.7793 9.77506 59.9958 9.77506L30.302 9.77506Q25.5186 9.77506 23.3111 7.59973Q21.1037 5.4244 21.1037 0.579392Z"/>
  </g>
  <g id="Black-S" transform="matrix(1 0 0 1 2888.38 696)">
   <path d="M32.959-37.6953Q32.959-36.2305 33.9355-35.2051L41.8945-26.0742Q43.1152-24.707 45.0195-24.707Q46.9238-24.707 48.1445-26.0742L56.1035-35.2051Q57.0801-36.2305 57.0801-37.6953Q57.0801-39.0625 56.1523-39.917Q55.2246-40.7715 53.8086-40.7715Q52.1484-40.7715 51.123-39.4531L49.1699-37.0117L48.6816-36.1328L48.877-38.5742L48.877-47.5098Q48.877-49.0723 47.7783-50.0732Q46.6797-51.0742 45.0195-51.0742Q43.3594-51.0742 42.2607-50.0732Q41.1621-49.0723 41.1621-47.5098L41.1621-38.5742L41.3574-36.1328L40.8691-37.0117L38.916-39.4531Q37.8906-40.7715 36.2305-40.7715Q34.8145-40.7715 33.8867-39.917Q32.959-39.0625 32.959-37.6953ZM35.1074-7.61719L54.9316-7.61719Q56.4453-7.61719 57.373-8.56934Q58.3008-9.52148 58.3008-11.084L58.3008-17.334Q58.3008-18.8965 57.373-19.8486Q56.4453-20.8008 54.9316-20.8008L35.1074-20.8008Q33.5938-20.8008 32.666-19.8486Q31.7383-18.8965 31.7383-17.334L31.7383-11.084Q31.7383-9.52148 32.666-8.56934Q33.5938-7.61719 35.1074-7.61719ZM12.207-0.341797Q12.207 5.71289 16.0645 9.44824Q19.9219 13.1836 26.2207 13.1836L64.8438 13.1836Q70.7031 13.1836 74.2676 9.44824Q77.832 5.71289 77.832-0.390625L77.832-70.3125Q77.832-76.416 74.2676-80.1514Q70.7031-83.8867 64.8438-83.8867L26.2207-83.8867Q19.9219-83.8867 16.0645-80.1758Q12.207-76.4648 12.207-70.3613ZM26.3672-5.76172L26.3672-64.9414Q26.3672-66.6504 27.3438-67.5537Q28.3203-68.457 29.9316-68.457L60.1562-68.457Q61.7188-68.457 62.6953-67.5049Q63.6719-66.5527 63.6719-64.8926L63.6719-5.81055Q63.6719-4.15039 62.6953-3.19824Q61.7188-2.24609 60.1562-2.24609L29.9316-2.24609Q28.3203-2.24609 27.3438-3.17383Q26.3672-4.10156 26.3672-5.76172Z"/>
  </g>
  <g id="Heavy-S" transform="matrix(1 0 0 1 2592.84 696)">
   <path d="M32.1868-36.1049Q32.1868-34.7438 33.0597-33.8221L41.0302-24.9794Q42.1587-23.7505 43.844-23.7505Q45.5294-23.7505 46.6464-24.9794L54.6169-33.8221Q55.5012-34.7438 55.5012-36.1049Q55.5012-37.3915 54.6426-38.1883Q53.7841-38.9852 52.4602-38.9852Q50.9845-39.0082 50.0282-37.8282L48.006-35.4444L47.1374-34.116L47.3327-37.2835L47.3327-46.3573Q47.3327-47.7815 46.3435-48.7018Q45.3544-49.6221 43.844-49.6221Q42.3337-49.6221 41.3388-48.7018Q40.3439-47.7815 40.3439-46.3573L40.3439-37.2835L40.5392-34.116L39.6706-35.4444L37.6483-37.8282Q36.6921-39.0082 35.2163-38.9852Q33.904-38.9852 33.0454-38.1883Q32.1868-37.3915 32.1868-36.1049ZM33.8858-7.23688L53.7907-7.23688Q55.3044-7.23688 56.2321-8.18327Q57.1599-9.12965 57.1599-10.7037L57.1599-16.5964Q57.1599-18.1589 56.2321-19.1111Q55.3044-20.0632 53.7907-20.0632L33.8858-20.0632Q32.3722-20.0632 31.4444-19.1111Q30.5167-18.1589 30.5167-16.5964L30.5167-10.7037Q30.5167-9.12965 31.4444-8.18327Q32.3722-7.23688 33.8858-7.23688ZM12.7833-1.25223Q12.7833 4.42215 16.439 7.9443Q20.0947 11.4664 26.0133 11.4664L62.4467 11.4664Q68.041 11.4664 71.4729 7.9443Q74.9048 4.42215 74.9048-1.28953L74.9048-69.379Q74.9048-75.0907 71.4729-78.6129Q68.041-82.135 62.4467-82.135L26.0133-82.135Q20.0947-82.135 16.439-78.6315Q12.7833-75.128 12.7833-69.4163ZM25.2608-5.68105L25.2608-64.9875Q25.2608-66.7656 26.295-67.7266Q27.3292-68.6875 29.0673-68.6875L58.6465-68.6875Q60.3473-68.6875 61.3815-67.6893Q62.4157-66.691 62.4157-64.9502L62.4157-5.71835Q62.4157-3.97752 61.3815-2.97928Q60.3473-1.98103 58.6465-1.98103L29.0673-1.98103Q27.3292-1.98103 26.295-2.96063Q25.2608-3.94022 25.2608-5.68105Z"/>
  </g>
  <g id="Bold-S" transform="matrix(1 0 0 1 2297.45 696)">
   <path d="M31.3232-34.3262Q31.3232-33.0811 32.0801-32.2754L40.0635-23.7549Q41.0889-22.6807 42.5293-22.6807Q43.9697-22.6807 44.9707-23.7549L52.9541-32.2754Q53.7354-33.0811 53.7354-34.3262Q53.7354-35.5225 52.9541-36.2549Q52.1729-36.9873 50.9521-36.9873Q49.6826-37.0361 48.8037-36.0107L46.7041-33.6914L45.4102-31.8604L45.6055-35.8398L45.6055-45.0684Q45.6055-46.3379 44.7388-47.168Q43.8721-47.998 42.5293-47.998Q41.1865-47.998 40.3076-47.168Q39.4287-46.3379 39.4287-45.0684L39.4287-35.8398L39.624-31.8604L38.3301-33.6914L36.2305-36.0107Q35.3516-37.0361 34.082-36.9873Q32.8857-36.9873 32.1045-36.2549Q31.3232-35.5225 31.3232-34.3262ZM32.5195-6.81152L52.5146-6.81152Q54.0283-6.81152 54.9561-7.75146Q55.8838-8.69141 55.8838-10.2783L55.8838-15.7715Q55.8838-17.334 54.9561-18.2861Q54.0283-19.2383 52.5146-19.2383L32.5195-19.2383Q31.0059-19.2383 30.0781-18.2861Q29.1504-17.334 29.1504-15.7715L29.1504-10.2783Q29.1504-8.69141 30.0781-7.75146Q31.0059-6.81152 32.5195-6.81152ZM13.4277-2.27051Q13.4277 2.97852 16.8579 6.26221Q20.2881 9.5459 25.7812 9.5459L59.7656 9.5459Q65.0635 9.5459 68.3472 6.26221Q71.6309 2.97852 71.6309-2.29492L71.6309-68.335Q71.6309-73.6084 68.3472-76.8921Q65.0635-80.1758 59.7656-80.1758L25.7812-80.1758Q20.2881-80.1758 16.8579-76.9043Q13.4277-73.6328 13.4277-68.3594ZM24.0234-5.59082L24.0234-65.0391Q24.0234-66.8945 25.1221-67.9199Q26.2207-68.9453 28.1006-68.9453L56.958-68.9453Q58.8135-68.9453 59.9121-67.8955Q61.0107-66.8457 61.0107-65.0146L61.0107-5.61523Q61.0107-3.78418 59.9121-2.73438Q58.8135-1.68457 56.958-1.68457L28.1006-1.68457Q26.2207-1.68457 25.1221-2.72217Q24.0234-3.75977 24.0234-5.59082Z"/>
  </g>
  <g id="Semibold-S" transform="matrix(1 0 0 1 2001.64 696)">
   <path d="M30.7278-33.0998Q30.7278-31.9347 31.4047-31.209L39.397-22.9106Q40.3513-21.9431 41.6229-21.9431Q42.8944-21.9431 43.8154-22.9106L51.8077-31.209Q52.5179-31.9347 52.5179-33.0998Q52.5179-34.2339 51.7899-34.9219Q51.062-35.6099 49.9124-35.6099Q48.7851-35.6765 47.9595-34.7577L45.8065-32.4828L44.2193-30.3052L44.4146-34.8445L44.4146-44.1797Q44.4146-45.3426 43.6324-46.1104Q42.8501-46.8783 41.6229-46.8783Q40.3956-46.8783 39.5967-46.1104Q38.7978-45.3426 38.7978-44.1797L38.7978-34.8445L38.9931-30.3052L37.4059-32.4828L35.2529-34.7577Q34.4273-35.6765 33.3-35.6099Q32.1837-35.6099 31.4558-34.9219Q30.7278-34.2339 30.7278-33.0998ZM31.5775-6.51826L51.6349-6.51826Q53.1485-6.51826 54.0763-7.45376Q55.004-8.38926 55.004-9.98506L55.004-15.2027Q55.004-16.7652 54.0763-17.7174Q53.1485-18.6695 51.6349-18.6695L31.5775-18.6695Q30.0639-18.6695 29.1361-17.7174Q28.2084-16.7652 28.2084-15.2027L28.2084-9.98506Q28.2084-8.38926 29.1361-7.45376Q30.0639-6.51826 31.5775-6.51826ZM13.8721-2.97256Q13.8721 1.9832 17.1467 5.10249Q20.4214 8.22178 25.6213 8.22178L57.9172 8.22178Q63.0106 8.22178 66.1921 5.10249Q69.3736 1.9832 69.3736-2.98809L69.3736-67.6151Q69.3736-72.5864 66.1921-75.7057Q63.0106-78.825 57.9172-78.825L25.6213-78.825Q20.4214-78.825 17.1467-75.7135Q13.8721-72.602 13.8721-67.6307ZM23.1703-5.52861L23.1703-65.0746Q23.1703-66.9834 24.3134-68.0532Q25.4564-69.123 27.4341-69.123L55.7938-69.123Q57.756-69.123 58.899-68.0377Q60.0421-66.9523 60.0421-65.0591L60.0421-5.54414Q60.0421-3.65088 58.899-2.56553Q57.756-1.48018 55.7938-1.48018L27.4341-1.48018Q25.4564-1.48018 24.3134-2.55776Q23.1703-3.63535 23.1703-5.52861Z"/>
  </g>
  <g id="Medium-S" transform="matrix(1 0 0 1 1705.62 696)">
   <path d="M30.2764-32.1699Q30.2764-31.0654 30.8926-30.4004L38.8916-22.2705Q39.792-21.3838 40.9355-21.3838Q42.0791-21.3838 42.9395-22.2705L50.9385-30.4004Q51.5947-31.0654 51.5947-32.1699Q51.5947-33.2568 50.9072-33.9111Q50.2197-34.5654 49.124-34.5654Q48.1045-34.6455 47.3193-33.8076L45.126-31.5664L43.3164-29.126L43.5117-34.0898L43.5117-43.5059Q43.5117-44.5879 42.7935-45.3086Q42.0752-46.0293 40.9355-46.0293Q39.7959-46.0293 39.0576-45.3086Q38.3193-44.5879 38.3193-43.5059L38.3193-34.0898L38.5146-29.126L36.7051-31.5664L34.5117-33.8076Q33.7266-34.6455 32.707-34.5654Q31.6514-34.5654 30.9639-33.9111Q30.2764-33.2568 30.2764-32.1699ZM30.8633-6.2959L50.9678-6.2959Q52.4814-6.2959 53.4092-7.22803Q54.3369-8.16016 54.3369-9.7627L54.3369-14.7715Q54.3369-16.334 53.4092-17.2861Q52.4814-18.2383 50.9678-18.2383L30.8633-18.2383Q29.3496-18.2383 28.4219-17.2861Q27.4941-16.334 27.4941-14.7715L27.4941-9.7627Q27.4941-8.16016 28.4219-7.22803Q29.3496-6.2959 30.8633-6.2959ZM14.209-3.50488Q14.209 1.22852 17.3657 4.22314Q20.5225 7.21777 25.5 7.21777L56.5156 7.21777Q61.4541 7.21777 64.5581 4.22314Q67.6621 1.22852 67.6621-3.51367L67.6621-67.0693Q67.6621-71.8115 64.5581-74.8062Q61.4541-77.8008 56.5156-77.8008L25.5-77.8008Q20.5225-77.8008 17.3657-74.8105Q14.209-71.8203 14.209-67.0781ZM22.5234-5.48145L22.5234-65.1016Q22.5234-67.0508 23.7002-68.1543Q24.877-69.2578 26.9287-69.2578L54.9111-69.2578Q56.9541-69.2578 58.1309-68.1455Q59.3076-67.0332 59.3076-65.0928L59.3076-5.49023Q59.3076-3.5498 58.1309-2.4375Q56.9541-1.3252 54.9111-1.3252L26.9287-1.3252Q24.877-1.3252 23.7002-2.43311Q22.5234-3.54102 22.5234-5.48145Z"/>
  </g>
  <g id="Regular-S" transform="matrix(1 0 0 1 1409.81 696)">
   <path d="M29.6875-30.957Q29.6875-29.9316 30.2246-29.3457L38.2324-21.4355Q39.0625-20.6543 40.0391-20.6543Q41.0156-20.6543 41.7969-21.4355L49.8047-29.3457Q50.3906-29.9316 50.3906-30.957Q50.3906-31.9824 49.7559-32.5928Q49.1211-33.2031 48.0957-33.2031Q47.2168-33.3008 46.4844-32.5684L44.2383-30.3711L42.1387-27.5879L42.334-33.1055L42.334-42.627Q42.334-43.6035 41.6992-44.2627Q41.0645-44.9219 40.0391-44.9219Q39.0137-44.9219 38.3545-44.2627Q37.6953-43.6035 37.6953-42.627L37.6953-33.1055L37.8906-27.5879L35.791-30.3711L33.5449-32.5684Q32.8125-33.3008 31.9336-33.2031Q30.957-33.2031 30.3223-32.5928Q29.6875-31.9824 29.6875-30.957ZM29.9316-6.00586L50.0977-6.00586Q51.6113-6.00586 52.5391-6.93359Q53.4668-7.86133 53.4668-9.47266L53.4668-14.209Q53.4668-15.7715 52.5391-16.7236Q51.6113-17.6758 50.0977-17.6758L29.9316-17.6758Q28.418-17.6758 27.4902-16.7236Q26.5625-15.7715 26.5625-14.209L26.5625-9.47266Q26.5625-7.86133 27.4902-6.93359Q28.418-6.00586 29.9316-6.00586ZM14.6484-4.19922Q14.6484 0.244141 17.6514 3.07617Q20.6543 5.9082 25.3418 5.9082L54.6875 5.9082Q59.4238 5.9082 62.4268 3.07617Q65.4297 0.244141 65.4297-4.19922L65.4297-66.3574Q65.4297-70.8008 62.4268-73.6328Q59.4238-76.4648 54.6875-76.4648L25.3418-76.4648Q20.6543-76.4648 17.6514-73.6328Q14.6484-70.8008 14.6484-66.3574ZM21.6797-5.41992L21.6797-65.1367Q21.6797-67.1387 22.9004-68.2861Q24.1211-69.4336 26.2695-69.4336L53.7598-69.4336Q55.9082-69.4336 57.1289-68.2861Q58.3496-67.1387 58.3496-65.1367L58.3496-5.41992Q58.3496-3.41797 57.1289-2.27051Q55.9082-1.12305 53.7598-1.12305L26.2695-1.12305Q24.1211-1.12305 22.9004-2.27051Q21.6797-3.41797 21.6797-5.41992Z"/>
  </g>
  <g id="Light-S" transform="matrix(1 0 0 1 1114.55 696)">
   <path d="M28.4765-30.397Q28.4765-29.5685 28.953-29.0733L37.1427-20.9208Q37.8062-20.2911 38.5859-20.2911Q39.3656-20.2911 39.9806-20.9208L48.185-29.0733Q48.6954-29.5685 48.6954-30.397Q48.6954-31.2256 48.1742-31.7224Q47.6529-32.2192 46.8394-32.2192Q46.1118-32.2866 45.5004-31.6602L42.3917-28.6001L40.2921-26.0592L40.4572-30.4868L40.4572-42.2638Q40.4572-43.0888 39.9358-43.6269Q39.4145-44.165 38.5859-44.165Q37.7574-44.165 37.2192-43.6269Q36.6811-43.0888 36.6811-42.2638L36.6811-30.4868L36.8312-26.0592L34.7315-28.6001L31.6378-31.6602Q31.0112-32.2866 30.2989-32.2192Q29.5039-32.2192 28.9902-31.7224Q28.4765-31.2256 28.4765-30.397ZM28.3724-5.6427L48.7656-5.6427Q50.3248-5.6427 51.2525-6.57794Q52.1802-7.51317 52.1802-9.13976L52.1802-13.5429Q52.1802-15.1357 51.2525-16.0803Q50.3248-17.025 48.7656-17.025L28.3724-17.025Q26.8135-17.025 25.8858-16.0803Q24.958-15.1357 24.958-13.5429L24.958-9.13976Q24.958-7.51317 25.8858-6.57794Q26.8135-5.6427 28.3724-5.6427ZM14.6484-5.12263Q14.6484-0.664012 17.4168 1.99394Q20.1851 4.6519 24.8121 4.6519L52.3262 4.6519Q56.9867 4.6519 59.7551 1.99394Q62.5234-0.664012 62.5234-5.12263L62.5234-65.4037Q62.5234-69.8624 59.7551-72.5203Q56.9867-75.1783 52.3262-75.1783L24.8121-75.1783Q20.1851-75.1783 17.4168-72.5203Q14.6484-69.8624 14.6484-65.4037ZM20.0752-5.96491L20.0752-64.5615Q20.0752-67.1084 21.4549-68.4299Q22.8345-69.7515 25.4824-69.7515L51.6558-69.7515Q54.3037-69.7515 55.6834-68.4299Q57.063-67.1084 57.063-64.5615L57.063-5.96491Q57.063-3.40271 55.6834-2.0813Q54.3037-0.759888 51.6558-0.759888L25.4824-0.759888Q22.8345-0.759888 21.4549-2.0813Q20.0752-3.40271 20.0752-5.96491Z"/>
  </g>
  <g id="Thin-S" transform="matrix(1 0 0 1 819.758 696)">
   <path d="M26.8748-29.6564Q26.8748-29.0882 27.2713-28.7131L35.7014-20.24Q36.1446-19.8108 36.664-19.8108Q37.1834-19.8108 37.5784-20.24L46.0428-28.7131Q46.4533-29.0882 46.4533-29.6564Q46.4533-30.2246 46.0822-30.5712Q45.7112-30.9179 45.1778-30.9179Q44.6504-30.9452 44.1991-30.4591L39.9495-26.2577L37.8499-24.0374L37.9749-27.0234L37.9749-41.7835Q37.9749-42.408 37.6036-42.786Q37.2322-43.1641 36.664-43.1641Q36.0958-43.1641 35.7178-42.786Q35.3397-42.408 35.3397-41.7835L35.3397-27.0234L35.4299-24.0374L33.3303-26.2577L29.1155-30.4591Q28.6288-30.9452 28.1368-30.9179Q27.582-30.9179 27.2284-30.5712Q26.8748-30.2246 26.8748-29.6564ZM26.3103-5.16239L47.0038-5.16239Q48.6232-5.16239 49.5509-6.10755Q50.4786-7.05271 50.4786-8.69948L50.4786-12.662Q50.4786-14.2948 49.5509-15.2296Q48.6232-16.1643 47.0038-16.1643L26.3103-16.1643Q24.6915-16.1643 23.7637-15.2296Q22.836-14.2948 22.836-12.662L22.836-8.69948Q22.836-7.05271 23.7637-6.10755Q24.6915-5.16239 26.3103-5.16239ZM14.6484-6.34392Q14.6484-1.86512 17.1065 0.562606Q19.5645 2.99033 24.1114 2.99033L49.2032 2.99033Q53.7635 2.99033 56.2215 0.562606Q58.6796-1.86512 58.6796-6.34392L58.6796-64.1424Q58.6796-68.6212 56.2215-71.049Q53.7635-73.4767 49.2032-73.4767L24.1114-73.4767Q19.5645-73.4767 17.1065-71.049Q14.6484-68.6212 14.6484-64.1424ZM17.9532-6.68571L17.9532-63.8006Q17.9532-67.0684 19.5431-68.6202Q21.1329-70.1719 24.4414-70.1719L48.8732-70.1719Q52.1817-70.1719 53.7716-68.6202Q55.3614-67.0684 55.3614-63.8006L55.3614-6.68571Q55.3614-3.38253 53.7716-1.83105Q52.1817-0.27958 48.8732-0.27958L24.4414-0.27958Q21.1329-0.27958 19.5431-1.83105Q17.9532-3.38253 17.9532-6.68571Z"/>
  </g>
  <g id="Ultralight-S" transform="matrix(1 0 0 1 524.031 696)">
   <path d="M26.0544-29.277Q26.0544-28.8422 26.4099-28.5286L34.9632-19.8914Q35.2936-19.5648 35.6796-19.5648Q36.0657-19.5648 36.348-19.8914L44.9455-28.5286Q45.3049-28.8422 45.3049-29.277Q45.3049-29.7119 45.0108-29.9816Q44.7166-30.2513 44.3268-30.2513Q43.9018-30.2582 43.5326-29.8439L38.6986-25.058L36.599-23.0019L36.7035-25.2495L36.7035-41.5375Q36.7035-42.0593 36.409-42.3553Q36.1145-42.6514 35.6796-42.6514Q35.2448-42.6514 34.9487-42.3553Q34.6527-42.0593 34.6527-41.5375L34.6527-25.2495L34.7122-23.0019L32.6126-25.058L27.8236-29.8439Q27.4086-30.2582 27.0294-30.2513Q26.5976-30.2513 26.326-29.9816Q26.0544-29.7119 26.0544-29.277ZM25.2541-4.91638L46.1014-4.91638Q47.7516-4.91638 48.6794-5.86662Q49.6071-6.81686 49.6071-8.47397L49.6071-12.2108Q49.6071-13.8641 48.6794-14.7938Q47.7516-15.7234 46.1014-15.7234L25.2541-15.7234Q23.6046-15.7234 22.6768-14.7938Q21.7491-13.8641 21.7491-12.2108L21.7491-8.47397Q21.7491-6.81686 22.6768-5.86662Q23.6046-4.91638 25.2541-4.91638ZM14.6484-6.96945Q14.6484-2.48032 16.9476-0.170517Q19.2467 2.13928 23.7526 2.13928L47.6036 2.13928Q52.1126 2.13928 54.4117-0.170517Q56.7108-2.48032 56.7108-6.96945L56.7108-63.4964Q56.7108-67.9855 54.4117-70.2953Q52.1126-72.6051 47.6036-72.6051L23.7526-72.6051Q19.2467-72.6051 16.9476-70.2953Q14.6484-67.9855 14.6484-63.4964ZM16.8663-7.0549L16.8663-63.4109Q16.8663-67.0479 18.5638-68.7176Q20.2614-70.3873 23.9082-70.3873L47.448-70.3873Q51.0948-70.3873 52.7924-68.7176Q54.4899-67.0479 54.4899-63.4109L54.4899-7.0549Q54.4899-3.37219 52.7924-1.70288Q51.0948-0.0335693 47.448-0.0335693L23.9082-0.0335693Q20.2614-0.0335693 18.5638-1.70288Q16.8663-3.37219 16.8663-7.0549Z"/>
  </g>
 </g>
</svg>
