<?xml version="1.0" encoding="UTF-8"?>
<!--Generator: Apple Native CoreSVG 175-->
<!DOCTYPE svg
PUBLIC "-//W3C//DTD SVG 1.1//EN"
       "http://www.w3.org/Graphics/SVG/1.1/DTD/svg11.dtd">
<svg version="1.1" xmlns="http://www.w3.org/2000/svg" xmlns:xlink="http://www.w3.org/1999/xlink" width="3300" height="2200">
 <!--glyph: "uni100C1A.medium", point size: 100.0, font version: "17.1d1e1", template writer version: "65.1"-->
 <g id="Notes">
  <rect height="2200" id="artboard" style="fill:white;opacity:1" width="3300" x="0" y="0"/>
  <line style="fill:none;stroke:black;opacity:1;stroke-width:0.5;" x1="263" x2="3036" y1="292" y2="292"/>
  <text style="stroke:none;fill:black;font-family:sans-serif;font-size:13;font-weight:bold;" transform="matrix(1 0 0 1 263 322)">Weight/Scale Variations</text>
  <text style="stroke:none;fill:black;font-family:sans-serif;font-size:13;text-anchor:middle;" transform="matrix(1 0 0 1 559.711 322)">Ultralight</text>
  <text style="stroke:none;fill:black;font-family:sans-serif;font-size:13;text-anchor:middle;" transform="matrix(1 0 0 1 856.422 322)">Thin</text>
  <text style="stroke:none;fill:black;font-family:sans-serif;font-size:13;text-anchor:middle;" transform="matrix(1 0 0 1 1153.13 322)">Light</text>
  <text style="stroke:none;fill:black;font-family:sans-serif;font-size:13;text-anchor:middle;" transform="matrix(1 0 0 1 1449.84 322)">Regular</text>
  <text style="stroke:none;fill:black;font-family:sans-serif;font-size:13;text-anchor:middle;" transform="matrix(1 0 0 1 1746.56 322)">Medium</text>
  <text style="stroke:none;fill:black;font-family:sans-serif;font-size:13;text-anchor:middle;" transform="matrix(1 0 0 1 2043.27 322)">Semibold</text>
  <text style="stroke:none;fill:black;font-family:sans-serif;font-size:13;text-anchor:middle;" transform="matrix(1 0 0 1 2339.98 322)">Bold</text>
  <text style="stroke:none;fill:black;font-family:sans-serif;font-size:13;text-anchor:middle;" transform="matrix(1 0 0 1 2636.69 322)">Heavy</text>
  <text style="stroke:none;fill:black;font-family:sans-serif;font-size:13;text-anchor:middle;" transform="matrix(1 0 0 1 2933.4 322)">Black</text>
  <line style="fill:none;stroke:black;opacity:1;stroke-width:0.5;" x1="263" x2="3036" y1="1903" y2="1903"/>
  <g transform="matrix(1 0 0 1 263 1933)">
   <path d="M9.24805 0.830078Q10.8691 0.830078 12.2949 0.214844Q13.7207-0.400391 14.8096-1.49414Q15.8984-2.58789 16.5186-4.01367Q17.1387-5.43945 17.1387-7.05078Q17.1387-8.66211 16.5186-10.0879Q15.8984-11.5137 14.8047-12.6074Q13.7109-13.7012 12.2852-14.3164Q10.8594-14.9316 9.23828-14.9316Q7.62695-14.9316 6.20117-14.3164Q4.77539-13.7012 3.69141-12.6074Q2.60742-11.5137 1.9873-10.0879Q1.36719-8.66211 1.36719-7.05078Q1.36719-5.43945 1.9873-4.01367Q2.60742-2.58789 3.69629-1.49414Q4.78516-0.400391 6.21094 0.214844Q7.63672 0.830078 9.24805 0.830078ZM9.24805-0.654297Q7.91992-0.654297 6.7627-1.14746Q5.60547-1.64062 4.73145-2.51953Q3.85742-3.39844 3.36426-4.56055Q2.87109-5.72266 2.87109-7.05078Q2.87109-8.37891 3.35938-9.54102Q3.84766-10.7031 4.72168-11.582Q5.5957-12.4609 6.75293-12.9541Q7.91016-13.4473 9.23828-13.4473Q10.5762-13.4473 11.7334-12.9541Q12.8906-12.4609 13.7695-11.582Q14.6484-10.7031 15.1465-9.54102Q15.6445-8.37891 15.6445-7.05078Q15.6445-5.72266 15.1514-4.56055Q14.6582-3.39844 13.7842-2.51953Q12.9102-1.64062 11.748-1.14746Q10.5859-0.654297 9.24805-0.654297ZM5.6543-7.05078Q5.6543-6.72852 5.85938-6.52832Q6.06445-6.32812 6.40625-6.32812L8.51562-6.32812L8.51562-4.20898Q8.51562-3.88672 8.71094-3.67676Q8.90625-3.4668 9.23828-3.4668Q9.56055-3.4668 9.77051-3.67676Q9.98047-3.88672 9.98047-4.20898L9.98047-6.32812L12.0898-6.32812Q12.4219-6.32812 12.627-6.52832Q12.832-6.72852 12.832-7.05078Q12.832-7.38281 12.627-7.58789Q12.4219-7.79297 12.0898-7.79297L9.98047-7.79297L9.98047-9.90234Q9.98047-10.2344 9.77051-10.4443Q9.56055-10.6543 9.23828-10.6543Q8.90625-10.6543 8.71094-10.4443Q8.51562-10.2344 8.51562-9.90234L8.51562-7.79297L6.40625-7.79297Q6.06445-7.79297 5.85938-7.58789Q5.6543-7.38281 5.6543-7.05078Z"/>
  </g>
  <g transform="matrix(1 0 0 1 281.867 1933)">
   <path d="M11.709 2.91016Q13.75 2.91016 15.5518 2.12891Q17.3535 1.34766 18.7305-0.0292969Q20.1074-1.40625 20.8887-3.20801Q21.6699-5.00977 21.6699-7.05078Q21.6699-9.0918 20.8887-10.8936Q20.1074-12.6953 18.7305-14.0723Q17.3535-15.4492 15.5469-16.2305Q13.7402-17.0117 11.6992-17.0117Q9.6582-17.0117 7.85645-16.2305Q6.05469-15.4492 4.68262-14.0723Q3.31055-12.6953 2.5293-10.8936Q1.74805-9.0918 1.74805-7.05078Q1.74805-5.00977 2.5293-3.20801Q3.31055-1.40625 4.6875-0.0292969Q6.06445 1.34766 7.86621 2.12891Q9.66797 2.91016 11.709 2.91016ZM11.709 1.25Q9.98047 1.25 8.47656 0.605469Q6.97266-0.0390625 5.83496-1.17676Q4.69727-2.31445 4.05762-3.81836Q3.41797-5.32227 3.41797-7.05078Q3.41797-8.7793 4.05762-10.2832Q4.69727-11.7871 5.83008-12.9297Q6.96289-14.0723 8.4668-14.7119Q9.9707-15.3516 11.6992-15.3516Q13.4277-15.3516 14.9316-14.7119Q16.4355-14.0723 17.5781-12.9297Q18.7207-11.7871 19.3652-10.2832Q20.0098-8.7793 20.0098-7.05078Q20.0098-5.32227 19.3701-3.81836Q18.7305-2.31445 17.5928-1.17676Q16.4551-0.0390625 14.9463 0.605469Q13.4375 1.25 11.709 1.25ZM7.17773-7.05078Q7.17773-6.69922 7.41211-6.47461Q7.64648-6.25 8.01758-6.25L10.8887-6.25L10.8887-3.36914Q10.8887-2.99805 11.1133-2.76855Q11.3379-2.53906 11.6895-2.53906Q12.0605-2.53906 12.29-2.76855Q12.5195-2.99805 12.5195-3.36914L12.5195-6.25L15.4004-6.25Q15.7715-6.25 16.001-6.47461Q16.2305-6.69922 16.2305-7.05078Q16.2305-7.42188 16.001-7.65137Q15.7715-7.88086 15.4004-7.88086L12.5195-7.88086L12.5195-10.752Q12.5195-11.1328 12.29-11.3623Q12.0605-11.5918 11.6895-11.5918Q11.3379-11.5918 11.1133-11.3574Q10.8887-11.123 10.8887-10.752L10.8887-7.88086L8.01758-7.88086Q7.63672-7.88086 7.40723-7.65137Q7.17773-7.42188 7.17773-7.05078Z"/>
  </g>
  <g transform="matrix(1 0 0 1 305.646 1933)">
   <path d="M14.9707 5.66406Q17.0605 5.66406 18.96 5.01465Q20.8594 4.36523 22.4512 3.19336Q24.043 2.02148 25.2197 0.429688Q26.3965-1.16211 27.0459-3.06641Q27.6953-4.9707 27.6953-7.05078Q27.6953-9.14062 27.0459-11.04Q26.3965-12.9395 25.2197-14.5312Q24.043-16.123 22.4512-17.2998Q20.8594-18.4766 18.9551-19.126Q17.0508-19.7754 14.9609-19.7754Q12.8711-19.7754 10.9717-19.126Q9.07227-18.4766 7.48535-17.2998Q5.89844-16.123 4.72168-14.5312Q3.54492-12.9395 2.90039-11.04Q2.25586-9.14062 2.25586-7.05078Q2.25586-4.9707 2.90527-3.06641Q3.55469-1.16211 4.72656 0.429688Q5.89844 2.02148 7.49023 3.19336Q9.08203 4.36523 10.9814 5.01465Q12.8809 5.66406 14.9707 5.66406ZM14.9707 3.84766Q13.1641 3.84766 11.5283 3.2959Q9.89258 2.74414 8.53516 1.74805Q7.17773 0.751953 6.17676-0.610352Q5.17578-1.97266 4.62891-3.6084Q4.08203-5.24414 4.08203-7.05078Q4.08203-8.86719 4.62891-10.5029Q5.17578-12.1387 6.17188-13.501Q7.16797-14.8633 8.52539-15.8594Q9.88281-16.8555 11.5186-17.4023Q13.1543-17.9492 14.9609-17.9492Q16.7773-17.9492 18.4131-17.4023Q20.0488-16.8555 21.4111-15.8594Q22.7734-14.8633 23.7695-13.501Q24.7656-12.1387 25.3174-10.5029Q25.8691-8.86719 25.8691-7.05078Q25.8789-5.24414 25.332-3.6084Q24.7852-1.97266 23.7842-0.610352Q22.7832 0.751953 21.4209 1.74805Q20.0586 2.74414 18.4229 3.2959Q16.7871 3.84766 14.9707 3.84766ZM9.19922-7.05078Q9.19922-6.66992 9.45801-6.4209Q9.7168-6.17188 10.1172-6.17188L14.0625-6.17188L14.0625-2.2168Q14.0625-1.81641 14.3115-1.55762Q14.5605-1.29883 14.9512-1.29883Q15.3516-1.29883 15.6104-1.55273Q15.8691-1.80664 15.8691-2.2168L15.8691-6.17188L19.8242-6.17188Q20.2246-6.17188 20.4785-6.4209Q20.7324-6.66992 20.7324-7.05078Q20.7324-7.46094 20.4785-7.71484Q20.2246-7.96875 19.8242-7.96875L15.8691-7.96875L15.8691-11.9141Q15.8691-12.3242 15.6104-12.583Q15.3516-12.8418 14.9512-12.8418Q14.5605-12.8418 14.3115-12.583Q14.0625-12.3242 14.0625-11.9141L14.0625-7.96875L10.1172-7.96875Q9.70703-7.96875 9.45312-7.71484Q9.19922-7.46094 9.19922-7.05078Z"/>
  </g>
  <text style="stroke:none;fill:black;font-family:sans-serif;font-size:13;font-weight:bold;" transform="matrix(1 0 0 1 263 1953)">Design Variations</text>
  <text style="stroke:none;fill:black;font-family:sans-serif;font-size:13;" transform="matrix(1 0 0 1 263 1971)">Symbols are supported in up to nine weights and three scales.</text>
  <text style="stroke:none;fill:black;font-family:sans-serif;font-size:13;" transform="matrix(1 0 0 1 263 1989)">For optimal layout with text and other symbols, vertically align</text>
  <text style="stroke:none;fill:black;font-family:sans-serif;font-size:13;" transform="matrix(1 0 0 1 263 2007)">symbols with the adjacent text.</text>
  <line style="fill:none;stroke:#00AEEF;stroke-width:0.5;opacity:1.0;" x1="776" x2="776" y1="1919" y2="1933"/>
  <g transform="matrix(1 0 0 1 776 1933)">
   <path d="M3.31055 0.15625Q3.70117 0.15625 3.91602-0.00976562Q4.13086-0.175781 4.26758-0.585938L5.52734-4.0332L11.2891-4.0332L12.5488-0.585938Q12.6855-0.175781 12.9004-0.00976562Q13.1152 0.15625 13.4961 0.15625Q13.8867 0.15625 14.1162-0.0585938Q14.3457-0.273438 14.3457-0.644531Q14.3457-0.869141 14.2383-1.17188L9.6582-13.3691Q9.48242-13.8184 9.17969-14.043Q8.87695-14.2676 8.4082-14.2676Q7.5-14.2676 7.17773-13.3789L2.59766-1.16211Q2.49023-0.859375 2.49023-0.634766Q2.49023-0.263672 2.70996-0.0537109Q2.92969 0.15625 3.31055 0.15625ZM6.00586-5.51758L8.37891-12.0898L8.42773-12.0898L10.8008-5.51758Z"/>
  </g>
  <line style="fill:none;stroke:#00AEEF;stroke-width:0.5;opacity:1.0;" x1="793.197" x2="793.197" y1="1919" y2="1933"/>
  <text style="stroke:none;fill:black;font-family:sans-serif;font-size:13;font-weight:bold;" transform="matrix(1 0 0 1 776 1953)">Margins</text>
  <text style="stroke:none;fill:black;font-family:sans-serif;font-size:13;" transform="matrix(1 0 0 1 776 1971)">Leading and trailing margins on the left and right side of each symbol</text>
  <text style="stroke:none;fill:black;font-family:sans-serif;font-size:13;" transform="matrix(1 0 0 1 776 1989)">can be adjusted by modifying the x-location of the margin guidelines.</text>
  <text style="stroke:none;fill:black;font-family:sans-serif;font-size:13;" transform="matrix(1 0 0 1 776 2007)">Modifications are automatically applied proportionally to all</text>
  <text style="stroke:none;fill:black;font-family:sans-serif;font-size:13;" transform="matrix(1 0 0 1 776 2025)">scales and weights.</text>
  <g transform="matrix(1 0 0 1 1289 1933)">
   <path d="M2.8418 1.86523L4.54102 3.57422Q5.18555 4.22852 5.90332 4.17969Q6.62109 4.13086 7.31445 3.35938L18.0078-8.42773L17.041-9.4043L6.42578 2.27539Q6.16211 2.57812 5.89355 2.61719Q5.625 2.65625 5.27344 2.30469L4.10156 1.14258Q3.75 0.791016 3.79395 0.522461Q3.83789 0.253906 4.14062-0.0195312L15.6152-10.8203L14.6387-11.7871L3.04688-0.898438Q2.30469-0.214844 2.25098 0.498047Q2.19727 1.21094 2.8418 1.86523ZM9.25781-16.3281Q8.94531-16.0254 8.90625-15.6348Q8.86719-15.2441 9.04297-14.9512Q9.21875-14.6777 9.55566-14.541Q9.89258-14.4043 10.3809-14.5215Q11.4746-14.7754 12.5977-14.7314Q13.7207-14.6875 14.7949-13.9844L14.209-12.5293Q13.9551-11.9043 14.0674-11.4404Q14.1797-10.9766 14.5801-10.5664L16.875-8.25195Q17.2363-7.88086 17.5781-7.82227Q17.9199-7.76367 18.3398-7.8418L19.4043-8.03711L20.0684-7.36328L20.0293-6.80664Q20-6.43555 20.1221-6.12305Q20.2441-5.81055 20.6055-5.44922L21.3672-4.70703Q21.7285-4.3457 22.1533-4.33105Q22.5781-4.31641 22.9297-4.66797L25.8398-7.58789Q26.1914-7.93945 26.1816-8.35449Q26.1719-8.76953 25.8105-9.13086L25.0391-9.89258Q24.6875-10.2539 24.3799-10.3857Q24.0723-10.5176 23.7109-10.4883L23.1348-10.4395L22.4902-11.0742L22.7344-12.1973Q22.832-12.6172 22.6953-12.9834Q22.5586-13.3496 22.1191-13.7891L19.9219-15.9766Q18.6719-17.2168 17.2607-17.8369Q15.8496-18.457 14.4189-18.4814Q12.9883-18.5059 11.665-17.959Q10.3418-17.4121 9.25781-16.3281ZM10.752-15.957Q11.6602-16.6211 12.7002-16.9043Q13.7402-17.1875 14.8047-17.085Q15.8691-16.9824 16.8701-16.5137Q17.8711-16.0449 18.7012-15.2051L21.1328-12.793Q21.3086-12.6172 21.3525-12.4512Q21.3965-12.2852 21.3379-12.0312L21.0156-10.5469L22.5195-9.0625L23.5059-9.12109Q23.6914-9.13086 23.7891-9.09668Q23.8867-9.0625 24.0332-8.91602L24.6094-8.33984L22.168-5.89844L21.5918-6.47461Q21.4453-6.62109 21.4062-6.71875Q21.3672-6.81641 21.377-7.01172L21.4453-7.98828L19.9512-9.47266L18.4277-9.21875Q18.1836-9.16992 18.042-9.2041Q17.9004-9.23828 17.7148-9.41406L15.7129-11.416Q15.5176-11.5918 15.4932-11.7529Q15.4688-11.9141 15.5859-12.1875L16.4648-14.2773Q15.293-15.3711 13.8281-15.791Q12.3633-16.2109 10.8398-15.7617Q10.7227-15.7324 10.6885-15.8057Q10.6543-15.8789 10.752-15.957Z"/>
  </g>
  <text style="stroke:none;fill:black;font-family:sans-serif;font-size:13;font-weight:bold;" transform="matrix(1 0 0 1 1289 1953)">Exporting</text>
  <text style="stroke:none;fill:black;font-family:sans-serif;font-size:13;" transform="matrix(1 0 0 1 1289 1971)">Symbols should be outlined when exporting to ensure the</text>
  <text style="stroke:none;fill:black;font-family:sans-serif;font-size:13;" transform="matrix(1 0 0 1 1289 1989)">design is preserved when submitting to Xcode.</text>
  <text id="template-version" style="stroke:none;fill:black;font-family:sans-serif;font-size:13;text-anchor:end;" transform="matrix(1 0 0 1 3036 1933)">Template v.3.0</text>
  <text style="stroke:none;fill:black;font-family:sans-serif;font-size:13;text-anchor:end;" transform="matrix(1 0 0 1 3036 1951)">Requires Xcode 13 or greater</text>
  <text id="descriptive-name" style="stroke:none;fill:black;font-family:sans-serif;font-size:13;text-anchor:end;" transform="matrix(1 0 0 1 3036 1969)">Generated from arrowshape.turn.up.backward</text>
  <text style="stroke:none;fill:black;font-family:sans-serif;font-size:13;text-anchor:end;" transform="matrix(1 0 0 1 3036 1987)">Typeset at 100 points</text>
  <text style="stroke:none;fill:black;font-family:sans-serif;font-size:13;" transform="matrix(1 0 0 1 263 726)">Small</text>
  <text style="stroke:none;fill:black;font-family:sans-serif;font-size:13;" transform="matrix(1 0 0 1 263 1156)">Medium</text>
  <text style="stroke:none;fill:black;font-family:sans-serif;font-size:13;" transform="matrix(1 0 0 1 263 1586)">Large</text>
 </g>
 <g id="Guides">
  <g id="H-reference" style="fill:#27AAE1;stroke:none;" transform="matrix(1 0 0 1 339 696)">
   <path d="M0.993347 0L3.6377 0L29.3282-67.1326L30.0301-67.1326L30.0301-70.459L28.1227-70.459ZM11.6882-24.4797L46.9818-24.4797L46.2311-26.7288L12.4382-26.7288ZM55.1193 0L57.7637 0L30.6381-70.459L29.4327-70.459L29.4327-67.1326Z"/>
  </g>
  <line id="Baseline-S" style="fill:none;stroke:#27AAE1;opacity:1;stroke-width:0.5;" x1="263" x2="3036" y1="696" y2="696"/>
  <line id="Capline-S" style="fill:none;stroke:#27AAE1;opacity:1;stroke-width:0.5;" x1="263" x2="3036" y1="625.541" y2="625.541"/>
  <g id="H-reference" style="fill:#27AAE1;stroke:none;" transform="matrix(1 0 0 1 339 1126)">
   <path d="M0.993347 0L3.6377 0L29.3282-67.1326L30.0301-67.1326L30.0301-70.459L28.1227-70.459ZM11.6882-24.4797L46.9818-24.4797L46.2311-26.7288L12.4382-26.7288ZM55.1193 0L57.7637 0L30.6381-70.459L29.4327-70.459L29.4327-67.1326Z"/>
  </g>
  <line id="Baseline-M" style="fill:none;stroke:#27AAE1;opacity:1;stroke-width:0.5;" x1="263" x2="3036" y1="1126" y2="1126"/>
  <line id="Capline-M" style="fill:none;stroke:#27AAE1;opacity:1;stroke-width:0.5;" x1="263" x2="3036" y1="1055.54" y2="1055.54"/>
  <g id="H-reference" style="fill:#27AAE1;stroke:none;" transform="matrix(1 0 0 1 339 1556)">
   <path d="M0.993347 0L3.6377 0L29.3282-67.1326L30.0301-67.1326L30.0301-70.459L28.1227-70.459ZM11.6882-24.4797L46.9818-24.4797L46.2311-26.7288L12.4382-26.7288ZM55.1193 0L57.7637 0L30.6381-70.459L29.4327-70.459L29.4327-67.1326Z"/>
  </g>
  <line id="Baseline-L" style="fill:none;stroke:#27AAE1;opacity:1;stroke-width:0.5;" x1="263" x2="3036" y1="1556" y2="1556"/>
  <line id="Capline-L" style="fill:none;stroke:#27AAE1;opacity:1;stroke-width:0.5;" x1="263" x2="3036" y1="1485.54" y2="1485.54"/>
  <line id="left-margin-Regular-M" style="fill:none;stroke:#00AEEF;stroke-width:0.5;opacity:1.0;" x1="1387.89" x2="1387.89" y1="1030.79" y2="1150.12"/>
  <line id="right-margin-Regular-M" style="fill:none;stroke:#00AEEF;stroke-width:0.5;opacity:1.0;" x1="1511.8" x2="1511.8" y1="1030.79" y2="1150.12"/>
 </g>
 <g id="Symbols">
  <g id="Black-L" transform="matrix(1 0 0 1 2851.9 1556)">
   <path d="M75.4473 26.2475Q80.576 26.2475 84.0557 22.784Q87.5355 19.3205 87.5355 14.1944L87.5355-3.85459L88.2287-3.85459Q97.6424-3.85459 104.295-1.23302Q110.948 1.38854 115.588 5.98723Q120.227 10.5859 123.54 16.516Q126.17 21.1724 129.084 23.1259Q131.997 25.0794 135.911 25.0794Q141.664 25.0794 144.724 19.2979Q147.784 13.5164 147.784 1.92454Q147.784-19.5905 140.875-34.8232Q133.966-50.0558 120.691-58.0731Q107.416-66.0905 88.2287-66.0905L87.5355-66.0905L87.5355-84.4914Q87.5355-89.6188 84.0454-93.1444Q80.5553-96.6701 75.4059-96.6701Q72.2093-96.6701 69.5217-95.3664Q66.8342-94.0626 63.3275-90.9101L12.8337-44.3963Q10.9204-42.5439 9.90589-40.0985Q8.89136-37.653 8.89136-35.2113Q8.89136-32.9656 9.93509-30.4033Q10.9788-27.841 12.8921-25.9887L63.3275 20.6119Q66.5177 23.5647 69.2966 24.9061Q72.0755 26.2475 75.4473 26.2475ZM70.2293 1.57849Q69.7429 1.57849 69.2721 1.11027L31.8195-34.1699Q31.5031-34.5214 31.3585-34.7516Q31.2139-34.9818 31.2139-35.2113Q31.2139-35.6704 31.8195-36.2527L69.2721-71.6987Q69.494-71.8621 69.7378-71.9567Q69.9816-72.0514 70.228-72.0514Q71.3294-72.0514 71.3294-70.8903L71.3294-50.8171Q71.3294-48.83 73.3385-48.83L80.3122-48.83Q90.2993-48.83 98.3397-46.7574Q106.38-44.6847 112.516-40.6422Q118.653-36.5996 122.805-30.7749Q126.958-24.9501 129.103-17.4135Q131.248-9.87687 131.373-0.808948Q131.373-0.296697 130.962-0.296697Q130.656-0.296697 130.429-0.794653Q124.656-12.332 112.19-16.9682Q99.7252-21.6043 80.3122-21.6043L73.3385-21.6043Q71.3294-21.6043 71.3294-19.5952L71.3294 0.357727Q71.3294 1.57849 70.2293 1.57849Z"/>
  </g>
  <g id="Heavy-L" transform="matrix(1 0 0 1 2555.64 1556)">
   <path d="M74.283 25.2886Q78.9265 25.2886 82.0545 22.1691Q85.1826 19.0497 85.1826 14.4183L85.1826-5.13534L86.1676-5.13534Q96.2998-5.13534 103.634-2.55871Q110.968 0.0179092 116.21 4.92054Q121.452 9.82317 125.253 16.7819Q127.619 21.0177 130.306 22.7069Q132.992 24.3961 136.454 24.3961Q141.424 24.3961 144.208 19.4829Q146.993 14.5697 146.993 4.79728Q146.993-17.173 140.07-32.7914Q133.147-48.4099 119.614-56.6597Q106.082-64.9096 86.1676-64.9096L85.1826-64.9096L85.1826-84.6839Q85.1826-89.3213 82.0396-92.53Q78.8967-95.7387 74.2235-95.7387Q71.2497-95.7387 68.782-94.5003Q66.3143-93.2619 63.0732-90.3332L12.7642-43.8392Q10.8723-42.0041 9.93148-39.7339Q8.99063-37.4638 8.99063-35.2251Q8.99063-33.15 9.9538-30.7906Q10.917-28.4312 12.8088-26.5961L63.0732 20.0616Q66.0167 22.782 68.596 24.0353Q71.1754 25.2886 74.283 25.2886ZM69.504 3.45797Q69.0034 3.45797 68.5083 2.97503L29.1985-34.0907Q28.8341-34.4578 28.6819-34.7146Q28.5297-34.9713 28.5297-35.2251Q28.5297-35.7326 29.1985-36.3595L68.5083-73.6633Q68.7259-73.8362 68.9792-73.9496Q69.2325-74.063 69.4979-74.063Q70.5494-74.063 70.5494-72.9609L70.5494-51.6293Q70.5494-49.6341 72.5804-49.6341L79.8067-49.6341Q90.456-49.6341 98.8479-47.2851Q107.24-44.936 113.493-40.4834Q119.746-36.0309 123.899-29.7753Q128.052-23.5197 130.174-15.656Q132.295-7.79225 132.479 1.36567Q132.479 1.9202 132.035 1.9202Q131.719 1.9202 131.477 1.36525Q125.725-10.3235 112.841-15.5635Q99.9573-20.8035 79.8067-20.8035L72.5804-20.8035Q70.5494-20.8035 70.5494-18.7725L70.5494 2.3052Q70.5494 3.45797 69.504 3.45797Z"/>
  </g>
  <g id="Bold-L" transform="matrix(1 0 0 1 2259.6 1556)">
   <path d="M72.8596 24.069Q76.9085 24.069 79.5971 21.3676Q82.2858 18.6662 82.2858 14.6458L82.2858-6.7177L83.6403-6.7177Q94.6943-6.7177 102.857-4.17264Q111.019-1.62759 116.945 3.628Q122.871 8.88358 127.164 16.9814Q129.201 20.7007 131.587 22.0928Q133.972 23.485 136.906 23.485Q140.959 23.485 143.398 19.5849Q145.838 15.6848 145.838 8.031Q145.838-14.5406 138.848-30.5445Q131.859-46.5485 118.037-54.9822Q104.215-63.4159 83.6403-63.4159L82.2858-63.4159L82.2858-84.8906Q82.2858-88.9252 79.5786-91.7376Q76.8715-94.55 72.7856-94.55Q70.1044-94.55 67.9113-93.4034Q65.7182-92.2568 62.8433-89.6388L12.7613-43.196Q10.8646-41.3569 10.009-39.2974Q9.15348-37.2378 9.15348-35.2405Q9.15348-33.3678 10.0236-31.2498Q10.8938-29.1318 12.7905-27.2928L62.8433 19.3798Q65.4534 21.7914 67.7721 22.9302Q70.0907 24.069 72.8596 24.069ZM68.7041 5.82234Q68.1789 5.82234 67.6338 5.30568L26.0564-33.8956Q25.601-34.3147 25.4273-34.6257Q25.2537-34.9366 25.2537-35.2405Q25.2537-35.8482 26.0564-36.5854L67.6338-76.0826Q67.8523-76.2719 68.122-76.4135Q68.3917-76.5551 68.6899-76.5551Q69.697-76.5551 69.697-75.5045L69.697-52.6041Q69.697-50.62 71.7324-50.62L79.0686-50.62Q90.3838-50.62 99.1689-47.9905Q107.954-45.3609 114.375-40.4728Q120.797-35.5846 125-28.824Q129.204-22.0635 131.331-13.7317Q133.457-5.39986 133.694 4.08035Q133.694 4.69944 133.192 4.69944Q132.85 4.69944 132.575 4.04621Q126.818-7.97885 113.454-13.8886Q100.09-19.7984 79.0686-19.7984L71.7324-19.7984Q69.697-19.7984 69.697-17.7631L69.697 4.72837Q69.697 5.82234 68.7041 5.82234Z"/>
  </g>
  <g id="Semibold-L" transform="matrix(1 0 0 1 1963.34 1556)">
   <path d="M71.8784 23.2283Q75.5173 23.2283 77.903 20.815Q80.2887 18.4018 80.2887 14.8026L80.2887-7.80857L81.898-7.80857Q93.5875-7.80857 102.321-5.28528Q111.055-2.76198 117.452 2.73693Q123.849 8.23583 128.482 17.1189Q130.291 20.4821 132.469 21.6695Q134.648 22.8568 137.217 22.8568Q140.639 22.8568 142.84 19.6551Q145.041 16.4535 145.041 10.2603Q145.041-12.7258 138.006-28.9955Q130.971-45.2652 116.95-53.8257Q102.928-62.3861 81.898-62.3861L80.2887-62.3861L80.2887-85.0331Q80.2887-88.6522 77.882-91.1914Q75.4754-93.7306 71.7944-93.7306Q69.3148-93.7306 67.311-92.6472Q65.3073-91.5639 62.6848-89.1602L12.7593-42.7525Q10.8593-40.9108 10.0625-38.9964Q9.26575-37.082 9.26575-35.2511Q9.26575-33.5179 10.0718-31.5664Q10.8779-29.6148 12.7779-27.7732L62.6848 18.9098Q65.0651 21.1084 67.2041 22.1684Q69.343 23.2283 71.8784 23.2283ZM68.1527 7.45233Q67.6105 7.45233 67.0309 6.91242L23.8902-33.761Q23.372-34.2161 23.1836-34.5644Q22.9952-34.9127 22.9952-35.2511Q22.9952-35.9279 23.8902-36.7412L67.0309-77.7505Q67.25-77.9511 67.531-78.1121Q67.812-78.2731 68.1328-78.2731Q69.1093-78.2731 69.1093-77.2581L69.1093-53.2761Q69.1093-51.2996 71.1477-51.2996L78.5597-51.2996Q90.334-51.2996 99.3902-48.4767Q108.446-45.6539 114.984-40.4654Q121.521-35.277 125.76-28.1683Q129.999-21.0596 132.129-12.4051Q134.259-3.75056 134.531 5.95183Q134.531 6.61543 133.99 6.61543Q133.63 6.61543 133.332 5.89444Q127.572-6.36244 113.877-12.734Q100.182-19.1055 78.5597-19.1055L71.1477-19.1055Q69.1093-19.1055 69.1093-17.0672L69.1093 6.39888Q69.1093 7.45233 68.1527 7.45233Z"/>
  </g>
  <g id="Medium-L" transform="matrix(1 0 0 1 1666.98 1556)">
   <path d="M71.1343 22.5908Q74.4625 22.5908 76.6185 20.3961Q78.7745 18.2013 78.7745 14.9214L78.7745-8.63571L80.577-8.63571Q92.7482-8.63571 101.915-6.12892Q111.081-3.62213 117.836 2.06128Q124.591 7.74469 129.481 17.2232Q131.118 20.3164 133.139 21.3485Q135.16 22.3806 137.454 22.3806Q140.396 22.3806 142.417 19.7084Q144.437 17.0363 144.437 11.9507Q144.437-11.3498 137.367-27.821Q130.298-44.2922 116.125-52.9488Q101.953-61.6053 80.577-61.6053L78.7745-61.6053L78.7745-85.1412Q78.7745-88.4452 76.5956-90.7772Q74.4168-93.1092 71.0428-93.1092Q68.7161-93.1092 66.8559-92.0738Q64.9957-91.0385 62.5647-88.7972L12.7578-42.4162Q10.8553-40.5726 10.1031-38.7682Q9.35087-36.9639 9.35087-35.2592Q9.35087-33.6318 10.1083-31.8064Q10.8658-29.9811 12.7683-28.1374L62.5647 18.5534Q64.7707 20.5906 66.7734 21.5907Q68.776 22.5908 71.1343 22.5908ZM67.7345 8.68825Q67.1796 8.68825 66.5737 8.13072L22.2477-33.659Q21.682-34.1413 21.4823-34.5179Q21.2827-34.8946 21.2827-35.2592Q21.2827-35.9884 22.2477-36.8593L66.5737-79.0151Q66.7934-79.2243 67.0829-79.4Q67.3725-79.5758 67.7104-79.5758Q68.6638-79.5758 68.6638-78.5877L68.6638-53.7857Q68.6638-51.8149 70.7044-51.8149L78.1738-51.8149Q90.2963-51.8149 99.558-48.8455Q108.82-45.876 115.445-40.4599Q122.07-35.0437 126.335-27.671Q130.601-20.2984 132.734-11.3992Q134.867-2.5 135.166 7.37086Q135.166 8.06821 134.594 8.06821Q134.222 8.06821 133.906 7.29585Q128.143-5.13682 114.197-11.8585Q100.252-18.5801 78.1738-18.5801L70.7044-18.5801Q68.6638-18.5801 68.6638-16.5395L68.6638 7.66554Q68.6638 8.68825 67.7345 8.68825Z"/>
  </g>
  <g id="Regular-L" transform="matrix(1 0 0 1 1370.72 1556)">
   <path d="M70.1639 21.7593Q73.0866 21.7593 74.943 19.8496Q76.7994 17.9398 76.7994 15.0765L76.7994-9.7146L78.8538-9.7146Q91.6536-9.7146 101.385-7.22933Q111.116-4.74406 118.337 1.18Q125.559 7.10406 130.784 17.3593Q132.196 20.1003 134.012 20.9298Q135.828 21.7593 137.762 21.7593Q140.08 21.7593 141.865 19.7779Q143.649 17.7966 143.649 14.1555Q143.649-9.55501 136.534-26.2891Q129.42-43.0231 115.05-51.805Q100.68-60.5869 78.8538-60.5869L76.7994-60.5869L76.7994-85.2821Q76.7994-88.1751 74.9177-90.2369Q73.036-92.2987 70.0625-92.2987Q67.9351-92.2987 66.2622-91.3259Q64.5893-90.3532 62.408-88.3238L12.7558-41.9776Q10.85-40.1313 10.1559-38.4706Q9.46191-36.8098 9.46191-35.2697Q9.46191-33.7803 10.1559-32.1195Q10.85-30.4587 12.7558-28.6124L62.408 18.0885Q64.3866 19.9151 66.2116 20.8372Q68.0365 21.7593 70.1639 21.7593ZM67.1892 10.3003Q66.6174 10.3003 65.9774 9.7198L20.1054-33.526Q19.4775-34.0437 19.2633-34.4573Q19.0491-34.871 19.0491-35.2697Q19.0491-36.0672 20.1054-37.0134L65.9774-80.6647Q66.1977-80.885 66.4985-81.0799Q66.7992-81.2749 67.1594-81.2749Q68.0826-81.2749 68.0826-80.322L68.0826-54.4503Q68.0826-52.4871 70.1262-52.4871L77.6706-52.4871Q90.2471-52.4871 99.7768-49.3264Q109.307-46.1658 116.046-40.4526Q122.786-34.7394 127.086-27.0225Q131.386-19.3055 133.523-10.0872Q135.66-0.868825 135.993 9.22178Q135.993 9.96315 135.383 9.96315Q134.993 9.96315 134.654 9.12377Q128.888-3.53818 114.615-10.7165Q100.342-17.8948 77.6706-17.8948L70.1262-17.8948Q68.0826-17.8948 68.0826-15.8512L68.0826 9.3177Q68.0826 10.3003 67.1892 10.3003Z"/>
  </g>
  <g id="Light-L" transform="matrix(1 0 0 1 1075.16 1556)">
   <path d="M69.3019 20.7127Q71.8553 20.7127 73.3833 19.039Q74.9113 17.3652 74.9113 14.9123L74.9113-10.7817L77.2736-10.7817Q90.9148-10.7817 101.118-8.16308Q111.321-5.54441 118.614 0.471992Q125.907 6.4884 130.743 16.6615Q131.909 19.0742 133.397 19.8934Q134.884 20.7127 136.654 20.7127Q138.684 20.7127 140.202 19.0289Q141.72 17.3451 141.72 14.2991Q141.72-10.0681 134.246-26.4738Q126.772-42.8795 112.392-51.1175Q98.012-59.3556 77.2736-59.3556L74.9113-59.3556L74.9113-85.2205Q74.9113-87.7236 73.3682-89.4879Q71.8252-91.2521 69.2416-91.2521Q67.4221-91.2521 65.9544-90.4127Q64.4867-89.5733 62.7979-87.9749L13.2893-41.834Q11.1783-39.8235 10.5048-38.2654Q9.8313-36.7072 9.8313-35.2697Q9.8313-33.8623 10.5048-32.3042Q11.1783-30.7461 13.2893-28.7356L62.7979 17.6165Q64.3661 19.0942 65.9243 19.9035Q67.4824 20.7127 69.3019 20.7127ZM67.2713 12.1678Q66.638 12.1678 65.8338 11.4642L18.6073-32.7667Q17.7127-33.5307 17.4061-34.1187Q17.0995-34.7068 17.0995-35.2697Q17.0995-36.3956 18.6073-37.7727L65.8338-82.2448Q66.0951-82.5062 66.4369-82.7525Q66.7787-82.9988 67.221-82.9988Q68.2262-82.9988 68.2262-81.9433L68.2262-54.9223Q68.2262-53.1028 70.1262-53.1028L76.4392-53.1028Q88.4822-53.1028 98.0119-50.1473Q107.542-47.1919 114.548-41.6429Q121.555-36.0939 126.214-28.2127Q130.873-20.3316 133.236-10.3847Q135.598-0.437863 135.829 11.2329Q135.829 12.0974 135.075 12.0974Q134.583 12.0974 134.12 11.0118Q128.149-2.84043 113.794-9.97771Q99.4393-17.115 76.4392-17.115L70.1262-17.115Q68.2262-17.115 68.2262-15.215L68.2262 11.0621Q68.2262 12.1678 67.2713 12.1678Z"/>
  </g>
  <g id="Thin-L" transform="matrix(1 0 0 1 779.959 1556)">
   <path d="M68.162 19.3285Q70.2268 19.3285 71.3205 17.9668Q72.4143 16.6052 72.4143 14.6952L72.4143-12.1931L75.1837-12.1931Q89.9377-12.1931 100.765-9.39803Q111.593-6.60295 118.981-0.464405Q126.369 5.67414 130.688 15.7387Q131.529 17.7171 132.582 18.5228Q133.636 19.3285 135.188 19.3285Q136.839 19.3285 138.004 18.0382Q139.169 16.748 139.169 14.4891Q139.169-10.7466 131.22-26.718Q123.271-42.6895 108.877-50.2083Q94.4836-57.7271 75.1837-57.7271L72.4143-57.7271L72.4143-85.1391Q72.4143-87.1265 71.319-88.4972Q70.2238-89.8679 68.156-89.8679Q66.7436-89.8679 65.5473-89.2049Q64.351-88.5419 63.3136-87.5135L13.995-41.644Q11.6126-39.4164 10.9662-37.9939Q10.3199-36.5715 10.3199-35.2697Q10.3199-33.9709 10.9662-32.5485Q11.6126-31.126 13.995-28.8984L63.3136 16.9922Q64.339 18.0086 65.5443 18.6685Q66.7496 19.3285 68.162 19.3285ZM67.3798 14.6377Q66.6651 14.6377 65.6438 13.7712L16.6259-31.7624Q15.3784-32.8521 14.9497-33.6709Q14.521-34.4896 14.521-35.2697Q14.521-36.8298 16.6259-38.777L65.6438-84.3348Q65.9594-84.6504 66.3555-84.9646Q66.7516-85.2787 67.3024-85.2787Q68.4162-85.2787 68.4162-84.0875L68.4162-55.5465Q68.4162-53.917 70.1262-53.917L74.8107-53.917Q86.148-53.917 95.6777-51.233Q105.207-48.549 112.567-43.2171Q119.926-37.8853 125.061-29.787Q130.195-21.6887 132.856-10.7783Q135.517 0.132118 135.612 13.8928Q135.612 14.9202 134.668 14.9202Q134.04 14.9202 133.415 13.5088Q127.172-1.91761 112.709-9.00059Q98.2451-16.0836 74.8107-16.0836L70.1262-16.0836Q68.4162-16.0836 68.4162-14.3736L68.4162 13.3691Q68.4162 14.6377 67.3798 14.6377Z"/>
  </g>
  <g id="Ultralight-L" transform="matrix(1 0 0 1 484.024 1556)">
   <path d="M67.5781 18.6195Q69.3927 18.6195 70.264 17.4177Q71.1353 16.216 71.1353 14.584L71.1353-12.916L74.1133-12.916Q89.4372-12.916 100.584-10.0306Q111.732-7.14513 119.168-0.944023Q126.605 5.25708 130.661 15.266Q131.334 17.022 132.165 17.8207Q132.996 18.6195 134.437 18.6195Q135.893 18.6195 136.878 17.5308Q137.862 16.4421 137.862 14.5864Q137.862-11.0942 129.67-26.8432Q121.478-42.5921 107.077-49.7425Q92.6763-56.8929 74.1133-56.8929L71.1353-56.8929L71.1353-85.0974Q71.1353-86.8207 70.2694-87.9898Q69.4036-89.1589 67.5999-89.1589Q66.396-89.1589 65.3388-88.5863Q64.2815-88.0137 63.5777-87.2772L14.3565-41.5467Q11.835-39.2078 11.2026-37.8549Q10.5701-36.502 10.5701-35.2697Q10.5701-34.0265 11.2026-32.6736Q11.835-31.3207 14.3565-28.9818L63.5777 16.6725Q64.3251 17.4525 65.3496 18.036Q66.3742 18.6195 67.5781 18.6195ZM67.4354 15.9028Q66.679 15.9028 65.5465 14.9529L15.6111-31.2481Q14.1829-32.5046 13.6916-33.4415Q13.2003-34.3784 13.2003-35.2697Q13.2003-37.0523 15.6111-39.2913L65.5465-85.4052Q65.8899-85.7487 66.3138-86.0976Q66.7377-86.4465 67.3441-86.4465Q68.5135-86.4465 68.5135-85.1857L68.5135-55.8663Q68.5135-54.3341 70.1262-54.3341L73.9766-54.3341Q84.9524-54.3341 94.4822-51.7891Q104.012-49.2441 111.552-44.0234Q119.092-38.8028 124.47-30.5933Q129.847-22.3838 132.661-10.9799Q135.475 0.424059 135.501 15.2552Q135.501 16.366 134.46 16.366Q133.762 16.366 133.053 14.7878Q126.672-1.44494 112.153-8.50012Q97.6334-15.5553 73.9766-15.5553L70.1262-15.5553Q68.5135-15.5553 68.5135-13.9427L68.5135 14.5508Q68.5135 15.9028 67.4354 15.9028Z"/>
  </g>
  <g id="Black-M" transform="matrix(1 0 0 1 2870.03 1126)">
   <path d="M59.3361 13.0817Q63.6765 13.0817 66.6301 10.1346Q69.5837 7.18759 69.5837 2.84661L69.5837-9.96591L69.9117-9.96591Q76.7015-9.96591 81.3342-7.87818Q85.967-5.79044 89.0533-2.47635Q92.1396 0.837744 94.2333 4.53694Q96.4641 8.46141 98.8727 10.2006Q101.281 11.9398 104.679 11.9398Q109.771 11.9398 112.342 6.75463Q114.913 1.56949 114.913-8.89416Q114.913-25.2605 109.524-36.6859Q104.135-48.1112 94.0696-54.049Q84.0047-59.9868 69.9117-59.9868L69.5837-59.9868L69.5837-73.2209Q69.5837-77.5616 66.6273-80.5252Q63.671-83.4888 59.3251-83.4888Q56.6987-83.4888 54.4555-82.4407Q52.2123-81.3925 49.3339-78.8162L10.0748-42.7906Q8.5463-41.3186 7.69977-39.2872Q6.85325-37.2557 6.85325-35.2035Q6.85325-33.3282 7.72832-31.1825Q8.6034-29.0369 10.1319-27.5649L49.3339 8.44219Q51.9618 10.8823 54.2501 11.982Q56.5384 13.0817 59.3361 13.0817ZM55.0441-8.07506Q54.6712-8.07506 54.305-8.44185L26.7015-34.3738Q26.4615-34.666 26.3434-34.8452Q26.2254-35.0243 26.2254-35.2035Q26.2254-35.5621 26.7015-36.0333L54.305-62.0093Q54.4861-62.1333 54.6724-62.1975Q54.8587-62.2616 55.0444-62.2616Q55.9517-62.2616 55.9517-61.2975L55.9517-46.6718Q55.9517-45.1587 57.47-45.1587L62.4888-45.1587Q69.5848-45.1587 75.512-43.8184Q81.4391-42.478 86.1289-39.7206Q90.8186-36.9633 94.0842-32.7986Q97.3497-28.634 99.0623-22.9775Q100.775-17.3209 100.808-10.1589Q100.808-9.78169 100.498-9.78169Q100.256-9.78169 100.076-10.1519Q95.5567-19.1215 86.248-22.1888Q76.9394-25.256 62.4888-25.256L57.47-25.256Q55.9517-25.256 55.9517-23.7377L55.9517-9.09596Q55.9517-8.07506 55.0441-8.07506Z"/>
  </g>
  <g id="Heavy-M" transform="matrix(1 0 0 1 2573.65 1126)">
   <path d="M58.2774 12.2408Q62.1775 12.2408 64.8177 9.60833Q67.4578 6.97586 67.4578 3.08063L67.4578-11.1195L68.0426-11.1195Q75.4571-11.1195 80.7123-9.08799Q85.9676-7.05649 89.6362-3.4538Q93.3048 0.148901 95.9121 4.86118Q97.9078 8.40479 100.124 9.88658Q102.341 11.3684 105.312 11.3684Q109.664 11.3684 111.991 7.00462Q114.318 2.64088 114.318-6.09911Q114.318-22.8499 108.948-34.6827Q103.578-46.5154 93.2622-52.7307Q82.9466-58.946 68.0426-58.946L67.4578-58.946L67.4578-73.4148Q67.4578-77.3125 64.8095-79.9937Q62.1613-82.6748 58.2449-82.6748Q55.808-82.6748 53.7607-81.6783Q51.7134-80.6817 49.0493-78.2844L9.95767-42.2594Q8.46902-40.8192 7.69261-38.9497Q6.91621-37.0803 6.91621-35.217Q6.91621-33.5009 7.71442-31.5442Q8.51264-29.5874 10.0013-28.1473L49.0493 7.94776Q51.474 10.1929 53.5918 11.2168Q55.7096 12.2408 58.2774 12.2408ZM54.3275-6.41002Q53.9463-6.41002 53.5716-6.77984L24.2775-34.3664Q24.0152-34.6512 23.8982-34.8402Q23.7813-35.0292 23.7813-35.217Q23.7813-35.5926 24.2775-36.0677L53.5716-63.7841Q53.7447-63.9136 53.9365-63.9914Q54.1283-64.0691 54.325-64.0691Q55.1759-64.0691 55.1759-63.1721L55.1759-47.4223Q55.1759-45.888 56.7289-45.888L62.1083-45.888Q69.9009-45.888 76.1716-44.2585Q82.4424-42.6289 87.2217-39.4556Q92.0011-36.2823 95.2339-31.7117Q98.4668-27.141 100.135-21.2319Q101.804-15.3228 101.904-8.2186Q101.904-7.81142 101.575-7.81142Q101.333-7.81142 101.15-8.21458Q96.6704-17.2224 86.96-20.8838Q77.2497-24.5452 62.1083-24.5452L56.7289-24.5452Q55.1759-24.5452 55.1759-22.9922L55.1759-7.35309Q55.1759-6.41002 54.3275-6.41002Z"/>
  </g>
  <g id="Bold-M" transform="matrix(1 0 0 1 2277.32 1126)">
   <path d="M57.0931 11.3001Q60.5007 11.3001 62.7902 9.01957Q65.0797 6.73901 65.0797 3.34242L65.0797-12.4099L65.9518-12.4099Q74.0652-12.4099 80.0167-10.4413Q85.9682-8.47275 90.2881-4.54721Q94.6081-0.621669 97.7902 5.22389Q99.5228 8.34146 101.524 9.53531Q103.526 10.7292 106.02 10.7292Q109.546 10.7292 111.599 7.28428Q113.652 3.83939 113.652-2.97246Q113.652-20.1533 108.303-32.4418Q102.955-44.7303 92.3589-51.256Q81.7629-57.7817 65.9518-57.7817L65.0797-57.7817L65.0797-73.6317Q65.0797-77.0338 62.7761-79.3991Q60.4725-81.7643 57.0366-81.7643Q54.8116-81.7643 52.9835-80.8254Q51.1554-79.8865 48.7309-77.6895L9.8266-41.665Q8.38257-40.2606 7.6846-38.5723Q6.98664-36.884 6.98664-35.2321Q6.98664-33.6941 7.69888-31.9487Q8.41111-30.2033 9.85515-28.7988L48.7309 7.39468Q50.9283 9.42169 52.8554 10.3609Q54.7825 11.3001 57.0931 11.3001ZM53.5258-4.54744Q53.1354-4.54744 52.7512-4.92064L21.5659-34.3581Q21.2786-34.6346 21.1629-34.8347Q21.0472-35.0348 21.0472-35.2321Q21.0472-35.6267 21.5659-36.1061L52.7512-65.7694Q52.9154-65.9051 53.1133-65.9981Q53.3113-66.0911 53.5203-66.0911Q54.3081-66.0911 54.3081-65.2691L54.3081-48.2617Q54.3081-46.7038 55.8998-46.7038L61.6826-46.7038Q70.2544-46.7038 76.9095-44.7508Q83.5646-42.7978 88.4443-39.1592Q93.3239-35.5206 96.5201-30.4958Q99.7164-25.4709 101.336-19.2793Q102.956-13.0877 103.13-6.04809Q103.13-5.60738 102.78-5.60738Q102.537-5.60738 102.351-6.04746Q97.9163-15.098 87.7565-19.424Q77.5967-23.75 61.6826-23.75L55.8998-23.75Q54.3081-23.75 54.3081-22.1583L54.3081-5.40345Q54.3081-4.54744 53.5258-4.54744Z"/>
  </g>
  <g id="Semibold-M" transform="matrix(1 0 0 1 1980.86 1126)">
   <path d="M56.2766 10.6516Q59.3447 10.6516 61.3924 8.61368Q63.4402 6.57573 63.4402 3.5229L63.4402-13.2995L64.5104-13.2995Q73.1056-13.2995 79.5371-11.3743Q85.9686-9.44911 90.7376-5.301Q95.5067-1.15289 99.0849 5.47394Q100.636 8.29779 102.489 9.29315Q104.343 10.2885 106.508 10.2885Q109.464 10.2885 111.328 7.47707Q113.193 4.66563 113.193-0.816959Q113.193-18.2942 107.859-30.8969Q102.526-43.4997 91.7363-50.2394Q80.9469-56.9791 64.5104-56.9791L63.4402-56.9791L63.4402-73.7812Q63.4402-76.8417 61.3742-78.9891Q59.3082-81.1366 56.2036-81.1366Q54.1247-81.1366 52.4477-80.2375Q50.7707-79.3383 48.5114-77.2793L9.73625-41.2553Q8.32297-39.8755 7.67908-38.3121Q7.0352-36.7487 7.0352-35.2425Q7.0352-33.8272 7.68816-32.2275Q8.34112-30.6279 9.75441-29.248L48.5114 7.01338Q50.5521 8.89005 52.3477 9.77084Q54.1433 10.6516 56.2766 10.6516ZM52.9731-3.26339Q52.5764-3.26339 52.1856-3.63891L19.6965-34.3524Q19.3921-34.6232 19.2772-34.8309Q19.1624-35.0386 19.1624-35.2425Q19.1624-35.6503 19.6965-36.1326L52.1856-67.1381Q52.3436-67.278 52.5458-67.3815Q52.748-67.485 52.9655-67.485Q53.7099-67.485 53.7099-66.7148L53.7099-48.8405Q53.7099-47.2662 55.3283-47.2662L61.3891-47.2662Q70.4981-47.2662 77.4182-45.0902Q84.3383-42.9142 89.2871-38.9548Q94.2359-34.9955 97.4068-29.6575Q100.578-24.3195 102.164-17.9331Q103.749-11.5468 103.976-4.55176Q103.976-4.08794 103.611-4.08794Q103.368-4.08794 103.179-4.55345Q98.7752-13.6335 88.3056-18.4176Q77.8359-23.2018 61.3891-23.2018L55.3283-23.2018Q53.7099-23.2018 53.7099-21.5834L53.7099-4.05938Q53.7099-3.26339 52.9731-3.26339Z"/>
  </g>
  <g id="Medium-M" transform="matrix(1 0 0 1 1684.35 1126)">
   <path d="M55.6575 10.1599Q58.4682 10.1599 60.3326 8.30592Q62.197 6.45193 62.197 3.65975L62.197-13.9741L63.4174-13.9741Q72.3779-13.9741 79.1734-12.0818Q85.9689-10.1894 91.0784-5.87256Q96.188-1.55569 100.067 5.66354Q101.48 8.26469 103.221 9.10953Q104.962 9.95438 106.879 9.95438Q109.402 9.95438 111.123 7.62325Q112.844 5.29213 112.844 0.81743Q112.844-16.8846 107.522-29.7256Q102.2-42.5665 91.2641-49.4685Q80.3282-56.3705 63.4174-56.3705L62.197-56.3705L62.197-73.8946Q62.197-76.696 60.3112-78.6783Q58.4254-80.6607 55.572-80.6607Q53.6039-80.6607 52.0415-79.7917Q50.479-78.9227 48.345-76.9683L9.66774-40.9446Q8.27777-39.5835 7.67489-38.1148Q7.07201-36.6461 7.07201-35.2504Q7.07201-33.9282 7.68003-32.439Q8.28805-30.9498 9.67802-29.5886L48.345 6.72427Q50.2668 8.48693 51.9627 9.32343Q53.6586 10.1599 55.6575 10.1599ZM52.5541-2.28977Q52.1525-2.28977 51.7567-2.66706L18.279-34.3481Q17.9616-34.6145 17.8474-34.828Q17.7332-35.0415 17.7332-35.2504Q17.7332-35.6681 18.279-36.1527L51.7567-68.1759Q51.9101-68.319 52.1155-68.4305Q52.3209-68.5419 52.5448-68.5419Q53.2563-68.5419 53.2563-67.8109L53.2563-49.2793Q53.2563-47.6926 54.8949-47.6926L61.1666-47.6926Q70.6829-47.6926 77.8039-45.3475Q84.9249-43.0024 89.9261-38.7999Q94.9273-34.5973 98.0792-29.0219Q101.231-23.4465 102.791-16.9125Q104.351-10.3784 104.617-3.41717Q104.617-2.93583 104.241-2.93583Q103.997-2.93583 103.807-3.42064Q99.4265-12.523 88.7219-17.6546Q78.0173-22.7861 61.1666-22.7861L54.8949-22.7861Q53.2563-22.7861 53.2563-21.1475L53.2563-3.04025Q53.2563-2.28977 52.5541-2.28977Z"/>
  </g>
  <g id="Regular-M" transform="matrix(1 0 0 1 1387.89 1126)">
   <path d="M54.8501 9.51856Q57.3249 9.51856 58.9503 7.9045Q60.5756 6.29044 60.5756 3.83824L60.5756-14.8539L61.9918-14.8539Q71.4289-14.8539 78.6991-13.0045Q85.9693-11.1551 91.523-6.61807Q97.0767-2.08108 101.347 5.91084Q102.582 8.2215 104.176 8.87003Q105.77 9.51856 107.361 9.51856Q109.321 9.51856 110.856 7.81392Q112.39 6.10929 112.39 2.94924Q112.39-15.046 107.083-28.1977Q101.775-41.3494 90.6483-48.463Q79.5212-55.5766 61.9918-55.5766L60.5756-55.5766L60.5756-74.0424Q60.5756-76.506 58.9248-78.2729Q57.274-80.0398 54.7481-80.0398Q52.9246-80.0398 51.5116-79.2102Q50.0985-78.3805 48.1279-76.5627L9.57838-40.5394Q8.21883-39.2026 7.66943-37.8574Q7.12004-36.5123 7.12004-35.2606Q7.12004-34.0599 7.66943-32.7148Q8.21883-31.3697 9.57838-30.0328L48.1279 6.34716Q49.8947 7.96113 51.4606 8.73984Q53.0265 9.51856 54.8501 9.51856ZM52.0075-1.01982Q51.5996-1.01982 51.1973-1.39942L16.4302-34.3424Q16.0958-34.6032 15.9824-34.8242Q15.8691-35.0453 15.8691-35.2606Q15.8691-35.6914 16.4302-36.1789L51.1973-69.5295Q51.3446-69.6768 51.5542-69.7987Q51.7639-69.9205 51.9961-69.9205Q52.6646-69.9205 52.6646-69.2407L52.6646-49.8517Q52.6646-48.2489 54.3297-48.2489L60.8763-48.2489Q70.9239-48.2489 78.307-45.6832Q85.6901-43.1176 90.7597-38.5978Q95.8292-34.078 98.9561-28.1929Q102.083-22.3078 103.61-15.5811Q105.136-8.85442 105.453-1.93728Q105.453-1.43308 105.062-1.43308Q104.819-1.43308 104.626-1.94305Q100.276-11.0745 89.2649-16.6592Q78.2539-22.244 60.8763-22.244L54.3297-22.244Q52.6646-22.244 52.6646-20.5789L52.6646-1.71094Q52.6646-1.01982 52.0075-1.01982Z"/>
  </g>
  <g id="Light-M" transform="matrix(1 0 0 1 1092.21 1126)">
   <path d="M54.0773 8.58021Q56.221 8.58021 57.5519 7.17774Q58.8829 5.77527 58.8829 3.69105L58.8829-15.8107L60.5751-15.8107Q70.7665-15.8107 78.4599-13.8416Q86.1533-11.8726 91.7714-7.25284Q97.3894-2.63305 101.31 5.28528Q102.324 7.30155 103.624 7.94088Q104.924 8.58021 106.368 8.58021Q108.07 8.58021 109.365 7.14236Q110.661 5.70451 110.661 3.07803Q110.661-15.506 105.031-28.3633Q99.4019-41.2206 88.2656-47.8466Q77.1293-54.4727 60.5751-54.4727L58.8829-54.4727L58.8829-73.9872Q58.8829-76.1012 57.5357-77.6013Q56.1884-79.1015 54.0122-79.1015Q52.4646-79.1015 51.2356-78.3914Q50.0066-77.6813 48.4774-76.2499L10.0568-40.4106Q8.51321-38.9266 7.98222-37.6735Q7.45122-36.4203 7.45122-35.2606Q7.45122-34.1335 7.98222-32.8804Q8.51321-31.6273 10.0568-30.1432L48.4774 5.92399Q49.8763 7.22517 51.203 7.90269Q52.5297 8.58021 54.0773 8.58021ZM52.0811 0.654485Q51.618 0.654485 51.0685 0.164496L15.0871-33.6617Q14.5135-34.1432 14.3173-34.5206Q14.1212-34.8981 14.1212-35.2606Q14.1212-35.9858 15.0871-36.8596L51.0685-70.9463Q51.2526-71.1304 51.499-71.2982Q51.7455-71.466 52.0513-71.466Q52.7934-71.466 52.7934-70.6942L52.7934-50.2748Q52.7934-48.8008 54.3297-48.8008L59.7724-48.8008Q69.3416-48.8008 76.7247-46.4192Q84.1078-44.0375 89.4166-39.6649Q94.7253-35.2923 98.1741-29.26Q101.623-23.2277 103.352-15.8479Q105.081-8.46805 105.306-0.13418Q105.306 0.480418 104.786 0.480418Q104.451 0.480418 104.148-0.250341Q99.6136-10.4489 88.529-15.9969Q77.4444-21.5448 59.7724-21.5448L54.3297-21.5448Q52.7934-21.5448 52.7934-20.0085L52.7934-0.147028Q52.7934 0.654485 52.0811 0.654485Z"/>
  </g>
  <g id="Thin-M" transform="matrix(1 0 0 1 796.855 1126)">
   <path d="M53.0553 7.33917Q54.761 7.33917 55.7025 6.21654Q56.6441 5.09391 56.6441 3.49638L56.6441-17.076L58.7014-17.076Q69.8905-17.076 78.1436-14.9489Q86.3966-12.8217 92.0999-8.09237Q97.8031-3.36308 101.262 4.45791Q101.983 6.08485 102.894 6.71201Q103.804 7.33917 105.054 7.33917Q106.415 7.33917 107.394 6.25416Q108.373 5.16916 108.373 3.24837Q108.373-16.1144 102.318-28.5823Q96.2627-41.0503 85.1143-47.0314Q73.9659-53.0126 58.7014-53.0126L56.6441-53.0126L56.6441-73.9142Q56.6441-75.5658 55.6984-76.7131Q54.7527-77.8605 53.0388-77.8605Q51.8562-77.8605 50.8706-77.3085Q49.8849-76.7566 48.9398-75.8362L10.6894-40.2403Q8.90256-38.5616 8.3959-37.4301Q7.88923-36.2987 7.88923-35.2606Q7.88923-34.2309 8.3959-33.0994Q8.90256-31.9679 10.6894-30.2892L48.9398 5.3643Q49.852 6.2518 50.8623 6.79548Q51.8727 7.33917 53.0553 7.33917ZM52.1784 2.86889Q51.6424 2.86889 50.8982 2.2329L13.3107-32.7613Q12.4207-33.5349 12.1151-34.1191Q11.8094-34.7034 11.8094-35.2606Q11.8094-36.3751 13.3107-37.76L50.8982-72.82Q51.131-73.0528 51.426-73.2814Q51.7211-73.5101 52.1243-73.5101Q52.9637-73.5101 52.9637-72.6166L52.9637-50.8345Q52.9637-49.5308 54.3297-49.5308L58.3123-49.5308Q67.2489-49.5308 74.632-47.3925Q82.0151-45.2542 87.6402-41.0763Q93.2653-36.8984 97.1399-30.6714Q101.015-24.4445 103.011-16.2007Q105.008-7.95703 105.112 2.25057Q105.112 3.01117 104.421 3.01117Q103.964 3.01117 103.515 1.9884Q98.7376-9.62159 87.5556-15.1209Q76.3737-20.6201 58.3123-20.6201L54.3297-20.6201Q52.9637-20.6201 52.9637-19.2541L52.9637 1.92138Q52.9637 2.86889 52.1784 2.86889Z"/>
  </g>
  <g id="Ultralight-M" transform="matrix(1 0 0 1 500.839 1126)">
   <path d="M52.5318 6.70351Q54.0131 6.70351 54.7553 5.72422Q55.4974 4.74492 55.4974 3.39667L55.4974-17.7242L57.7417-17.7242Q69.4418-17.7242 77.9815-15.516Q86.5213-13.3077 92.2681-8.52237Q98.015-3.73699 101.237 4.03414Q101.809 5.46165 102.52 6.08258Q103.231 6.70351 104.381 6.70351Q105.568 6.70351 106.385 5.79923Q107.202 4.89496 107.202 3.33562Q107.202-16.426 100.928-28.6945Q94.6549-40.963 83.5003-46.6139Q72.3456-52.2648 57.7417-52.2648L55.4974-52.2648L55.4974-73.8768Q55.4974-75.2916 54.7574-76.2582Q54.0174-77.2248 52.5403-77.2248Q51.5446-77.2248 50.6836-76.7539Q49.8226-76.283 49.1766-75.6243L11.0135-40.1531Q9.10198-38.3746 8.60778-37.3055Q8.11358-36.2363 8.11358-35.2606Q8.11358-34.2807 8.60778-33.2116Q9.10198-32.1424 11.0135-30.364L49.1766 5.07763Q49.8395 5.75325 50.6878 6.22838Q51.5362 6.70351 52.5318 6.70351ZM52.2283 4.0031Q51.6548 4.0031 50.811 3.29233L12.4008-32.3001Q11.3488-33.2233 10.9871-33.9135Q10.6254-34.6037 10.6254-35.2606Q10.6254-36.5745 12.4008-38.2211L50.811-73.7797Q51.0687-74.0374 51.3887-74.2972Q51.7087-74.557 52.1617-74.557Q53.051-74.557 53.051-73.6013L53.051-51.1212Q53.051-49.9048 54.3297-49.9048L57.5645-49.9048Q66.177-49.9048 73.5601-47.8911Q80.9432-45.8774 86.7303-41.7992Q92.5174-37.721 96.6102-31.3943Q100.703-25.0676 102.837-16.3815Q104.971-7.69529 105.012 3.47202Q105.012 4.30741 104.234 4.30741Q103.715 4.30741 103.191 3.13508Q98.2889-9.19782 87.0571-14.6722Q75.8253-20.1465 57.5645-20.1465L54.3297-20.1465Q53.051-20.1465 53.051-18.8678L53.051 2.9808Q53.051 4.0031 52.2283 4.0031Z"/>
  </g>
  <g id="Black-S" transform="matrix(1 0 0 1 2883.69 696)">
   <path d="M46.7773 2.83203Q50.293 2.83203 52.6855 0.439453Q55.0781-1.95312 55.0781-5.46875L55.0781-15.1367L55.2734-15.1367Q60.4492-15.1367 63.916-13.4766Q67.3828-11.8164 69.6289-9.30176Q71.875-6.78711 73.3398-4.19922Q75.1465-1.02539 77.0752 0.415039Q79.0039 1.85547 81.7871 1.85547Q85.9863 1.85547 88.0615-2.44141Q90.1367-6.73828 90.1367-15.4297Q90.1367-28.1738 85.8887-36.9873Q81.6406-45.8008 73.8281-50.3418Q66.0156-54.8828 55.2734-54.8828L55.0781-54.8828L55.0781-64.9414Q55.0781-68.457 52.6855-70.8496Q50.293-73.2422 46.7773-73.2422Q44.6777-73.2422 42.8711-72.4121Q41.0645-71.582 38.7695-69.5312L7.95898-41.3086Q6.73828-40.1367 6.05469-38.501Q5.37109-36.8652 5.37109-35.2051Q5.37109-33.6914 6.0791-31.958Q6.78711-30.2246 8.00781-29.0527L38.7695-0.878906Q40.8691 1.07422 42.7002 1.95312Q44.5312 2.83203 46.7773 2.83203ZM43.3594-14.3555Q43.0664-14.3555 42.7734-14.6484L21.582-34.5215Q21.3867-34.7656 21.2891-34.9121Q21.1914-35.0586 21.1914-35.2051Q21.1914-35.498 21.582-35.8887L42.7734-55.7617Q42.9199-55.8594 43.0664-55.9082Q43.2129-55.957 43.3594-55.957Q44.0918-55.957 44.0918-55.1758L44.0918-43.9941Q44.0918-42.8223 45.2637-42.8223L49.0234-42.8223Q54.3457-42.8223 58.8867-41.8701Q63.4277-40.918 67.0898-38.8916Q70.752-36.8652 73.3398-33.7158Q75.9277-30.5664 77.2949-26.1719Q78.6621-21.7773 78.6621-16.0645Q78.6621-15.7715 78.418-15.7715Q78.2227-15.7715 78.0762-16.0645Q74.5117-23.1445 67.334-25.3662Q60.1562-27.5879 49.0234-27.5879L45.2637-27.5879Q44.0918-27.5879 44.0918-26.416L44.0918-15.1855Q44.0918-14.3555 43.3594-14.3555Z"/>
  </g>
  <g id="Heavy-S" transform="matrix(1 0 0 1 2587.14 696)">
   <path d="M45.9706 2.23276Q49.152 2.23276 51.3141 0.0821947Q53.4762-2.06837 53.4762-5.24979L53.4762-16.0011L53.8559-16.0011Q59.4696-16.0011 63.4147-14.4043Q67.3598-12.8075 70.0956-10.0566Q72.8315-7.30571 74.7804-3.84196Q76.4142-0.956244 78.2161 0.265221Q80.0181 1.48669 82.4555 1.48669Q86.0555 1.48669 87.952-2.14177Q89.8486-5.77023 89.8486-13.0556Q89.8486-26.0533 85.6582-35.2529Q81.4678-44.4524 73.4421-49.2931Q65.4164-54.1337 53.8559-54.1337L53.4762-54.1337L53.4762-65.1143Q53.4762-68.2957 51.3084-70.4808Q49.1405-72.666 45.9476-72.666Q43.9747-72.666 42.3122-71.8647Q40.6496-71.0634 38.4814-69.1164L7.79764-40.8707Q6.63456-39.7449 6.00859-38.2359Q5.38262-36.7269 5.38262-35.2166Q5.38262-33.8297 6.02724-32.2461Q6.67186-30.6625 7.83495-29.5368L38.4814-1.24769Q40.4543 0.578667 42.1701 1.40571Q43.8859 2.23276 45.9706 2.23276ZM42.7371-13.1454Q42.4441-13.1454 42.1626-13.4268L19.6805-34.6022Q19.4967-34.8117 19.4106-34.9467Q19.3244-35.0816 19.3244-35.2166Q19.3244-35.4865 19.6805-35.831L42.1626-57.0986Q42.2976-57.1962 42.4441-57.2508Q42.5906-57.3054 42.7371-57.3054Q43.4119-57.3054 43.4119-56.5933L43.4119-44.5819Q43.4119-43.3754 44.6298-43.3754L48.839-43.3754Q54.8182-43.3754 59.6531-42.1525Q64.488-40.9295 68.1962-38.5286Q71.9044-36.1277 74.4231-32.6498Q76.9419-29.1719 78.2457-24.6449Q79.5495-20.1178 79.6186-14.6354Q79.6186-14.3309 79.3745-14.3309Q79.1907-14.3309 79.0558-14.6239Q75.5489-21.6003 68.037-24.3348Q60.525-27.0693 48.839-27.0693L44.6298-27.0693Q43.4119-27.0693 43.4119-25.8513L43.4119-13.8948Q43.4119-13.1454 42.7371-13.1454Z"/>
  </g>
  <g id="Bold-S" transform="matrix(1 0 0 1 2290.6 696)">
   <path d="M45.0684 1.5625Q47.876 1.5625 49.7803-0.317383Q51.6846-2.19727 51.6846-5.00488L51.6846-16.9678L52.2705-16.9678Q58.374-16.9678 62.854-15.4419Q67.334-13.916 70.6177-10.9009Q73.9014-7.88574 76.3916-3.44238Q77.832-0.878906 79.4922 0.0976562Q81.1523 1.07422 83.2031 1.07422Q86.1328 1.07422 87.8296-1.80664Q89.5264-4.6875 89.5264-10.4004Q89.5264-23.6816 85.4004-33.313Q81.2744-42.9443 73.0103-48.1201Q64.7461-53.2959 52.2705-53.2959L51.6846-53.2959L51.6846-65.3076Q51.6846-68.1152 49.7681-70.0684Q47.8516-72.0215 45.0195-72.0215Q43.1885-72.0215 41.687-71.2524Q40.1855-70.4834 38.1592-68.6523L7.61719-40.3809Q6.51855-39.3066 5.95703-37.9395Q5.39551-36.5723 5.39551-35.2295Q5.39551-33.9844 5.96924-32.5684Q6.54297-31.1523 7.6416-30.0781L38.1592-1.66016Q39.9902 0.0244141 41.5771 0.793457Q43.1641 1.5625 45.0684 1.5625ZM42.041-11.792Q41.748-11.792 41.4795-12.0605L17.5537-34.6924Q17.3828-34.8633 17.3096-34.9854Q17.2363-35.1074 17.2363-35.2295Q17.2363-35.4736 17.5537-35.7666L41.4795-58.5938Q41.6016-58.6914 41.748-58.7524Q41.8945-58.8135 42.041-58.8135Q42.6514-58.8135 42.6514-58.1787L42.6514-45.2393Q42.6514-43.9941 43.9209-43.9941L48.6328-43.9941Q55.3467-43.9941 60.5103-42.4683Q65.6738-40.9424 69.4336-38.1226Q73.1934-35.3027 75.6348-31.4575Q78.0762-27.6123 79.3091-22.937Q80.542-18.2617 80.6885-13.0371Q80.6885-12.7197 80.4443-12.7197Q80.2734-12.7197 80.1514-13.0127Q76.709-19.873 68.8232-23.1812Q60.9375-26.4893 48.6328-26.4893L43.9209-26.4893Q42.6514-26.4893 42.6514-25.2197L42.6514-12.4512Q42.6514-11.792 42.041-11.792Z"/>
  </g>
  <g id="Semibold-S" transform="matrix(1 0 0 1 1994.01 696)">
   <path d="M44.4463 1.10039Q46.9962 1.10039 48.7228-0.592871Q50.4493-2.28613 50.4493-4.83604L50.4493-17.6343L51.1774-17.6343Q57.6187-17.6343 62.4674-16.1573Q67.3162-14.6803 70.9776-11.483Q74.639-8.28564 77.5024-3.16689Q78.8096-0.825586 80.372-0.0178711Q81.9344 0.789844 83.7186 0.789844Q86.1861 0.789844 87.7452-1.57559Q89.3042-3.94102 89.3042-8.56973Q89.3042-22.0465 85.2227-31.9755Q81.1411-41.9046 72.7125-47.3114Q64.284-52.7183 51.1774-52.7183L50.4493-52.7183L50.4493-65.4409Q50.4493-67.9908 48.7061-69.784Q46.9629-71.5771 44.3797-71.5771Q42.6464-71.5771 41.256-70.8303Q39.8656-70.0835 37.937-68.3324L7.49277-40.0432Q6.43857-39.0045 5.92148-37.7351Q5.40439-36.4656 5.40439-35.2384Q5.40439-34.091 5.92925-32.7905Q6.4541-31.49 7.5083-30.4514L37.937-1.94453Q39.6703-0.357715 41.1684 0.371338Q42.6664 1.10039 44.4463 1.10039ZM41.5611-10.8589Q41.2682-10.8589 41.0085-11.1186L16.0874-34.7546Q15.9254-34.8988 15.861-35.012Q15.7967-35.1252 15.7967-35.2384Q15.7967-35.4647 16.0874-35.7222L41.0085-59.6246Q41.1217-59.7223 41.2682-59.7877Q41.4146-59.8532 41.5611-59.8532Q42.1271-59.8532 42.1271-59.2718L42.1271-45.6925Q42.1271-44.4207 43.4321-44.4207L48.4906-44.4207Q55.711-44.4207 61.1012-42.686Q66.4914-40.9513 70.2867-37.8426Q74.082-34.734 76.4701-30.6355Q78.8582-26.537 80.0422-21.7595Q81.2263-16.982 81.4261-11.9352Q81.4261-11.6089 81.1819-11.6089Q81.0199-11.6089 80.9067-11.9019Q77.5088-18.6822 69.3653-22.3858Q61.2219-26.0894 48.4906-26.0894L43.4321-26.0894Q42.1271-26.0894 42.1271-24.7843L42.1271-11.4559Q42.1271-10.8589 41.5611-10.8589Z"/>
  </g>
  <g id="Medium-S" transform="matrix(1 0 0 1 1697.39 696)">
   <path d="M43.9746 0.75Q46.3291 0.75 47.9209-0.801758Q49.5127-2.35352 49.5127-4.70801L49.5127-18.1396L50.3486-18.1396Q57.0459-18.1396 62.1743-16.6997Q67.3027-15.2598 71.2505-11.9243Q75.1982-8.58887 78.3447-2.95801Q79.5508-0.785156 81.0391-0.105469Q82.5273 0.574219 84.1094 0.574219Q86.2266 0.574219 87.6812-1.40039Q89.1357-3.375 89.1357-7.18164Q89.1357-20.8066 85.0879-30.9614Q81.04-41.1162 72.4868-46.6982Q63.9336-52.2803 50.3486-52.2803L49.5127-52.2803L49.5127-65.542Q49.5127-67.8965 47.9009-69.5684Q46.2891-71.2402 43.8945-71.2402Q42.2354-71.2402 40.9292-70.5103Q39.623-69.7803 37.7686-68.0898L7.39844-39.7871Q6.37793-38.7754 5.89453-37.5801Q5.41113-36.3848 5.41113-35.2451Q5.41113-34.1719 5.89893-32.959Q6.38672-31.7461 7.40723-30.7344L37.7686-2.16016Q39.4277-0.647461 40.8584 0.0512695Q42.2891 0.75 43.9746 0.75ZM41.1973-10.1514Q40.9043-10.1514 40.6514-10.4043L14.9756-34.8018Q14.8203-34.9258 14.7627-35.0322Q14.7051-35.1387 14.7051-35.2451Q14.7051-35.458 14.9756-35.6885L40.6514-60.4062Q40.7578-60.5039 40.9043-60.5728Q41.0508-60.6416 41.1973-60.6416Q41.7295-60.6416 41.7295-60.1006L41.7295-46.0361Q41.7295-44.7441 43.0615-44.7441L48.3828-44.7441Q55.9873-44.7441 61.5493-42.8511Q67.1113-40.958 70.9336-37.6304Q74.7559-34.3027 77.1035-30.0122Q79.4512-25.7217 80.5981-20.8667Q81.7451-16.0117 81.9854-11.0996Q81.9854-10.7666 81.7412-10.7666Q81.5859-10.7666 81.4795-11.0596Q78.1152-17.7793 69.7764-21.7827Q61.4375-25.7861 48.3828-25.7861L43.0615-25.7861Q41.7295-25.7861 41.7295-24.4541L41.7295-10.7012Q41.7295-10.1514 41.1973-10.1514Z"/>
  </g>
  <g id="Regular-S" transform="matrix(1 0 0 1 1400.8 696)">
   <path d="M43.3594 0.292969Q45.459 0.292969 46.875-1.07422Q48.291-2.44141 48.291-4.54102L48.291-18.7988L49.2676-18.7988Q56.2988-18.7988 61.792-17.4072Q67.2852-16.0156 71.6064-12.5Q75.9277-8.98438 79.4434-2.68555Q80.5176-0.732422 81.9092-0.219727Q83.3008 0.292969 84.6191 0.292969Q86.2793 0.292969 87.5977-1.17188Q88.916-2.63672 88.916-5.37109Q88.916-19.1895 84.9121-29.6387Q80.9082-40.0879 72.1924-45.8984Q63.4766-51.709 49.2676-51.709L48.291-51.709L48.291-65.6738Q48.291-67.7734 46.8506-69.2871Q45.4102-70.8008 43.2617-70.8008Q41.6992-70.8008 40.5029-70.0928Q39.3066-69.3848 37.5488-67.7734L7.27539-39.4531Q6.29883-38.4766 5.85938-37.3779Q5.41992-36.2793 5.41992-35.2539Q5.41992-34.2773 5.85938-33.1787Q6.29883-32.0801 7.27539-31.1035L37.5488-2.44141Q39.1113-1.02539 40.4541-0.366211Q41.7969 0.292969 43.3594 0.292969ZM40.7227-9.22852Q40.4297-9.22852 40.1855-9.47266L13.5254-34.8633Q13.3789-34.9609 13.3301-35.0586Q13.2812-35.1562 13.2812-35.2539Q13.2812-35.4492 13.5254-35.6445L40.1855-61.4258Q40.2832-61.5234 40.4297-61.5967Q40.5762-61.6699 40.7227-61.6699Q41.2109-61.6699 41.2109-61.1816L41.2109-46.4844Q41.2109-45.166 42.5781-45.166L48.2422-45.166Q56.3477-45.166 62.1338-43.0664Q67.9199-40.9668 71.7773-37.3535Q75.6348-33.7402 77.9297-29.1992Q80.2246-24.6582 81.3232-19.7021Q82.4219-14.7461 82.7148-10.0098Q82.7148-9.66797 82.4707-9.66797Q82.3242-9.66797 82.2266-9.96094Q78.9062-16.6016 70.3125-20.9961Q61.7188-25.3906 48.2422-25.3906L42.5781-25.3906Q41.2109-25.3906 41.2109-24.0234L41.2109-9.7168Q41.2109-9.22852 40.7227-9.22852Z"/>
  </g>
  <g id="Light-S" transform="matrix(1 0 0 1 1104.99 696)">
   <path d="M42.6758-0.537109Q44.4824-0.537109 45.638-1.71712Q46.7936-2.89714 46.7936-4.67122L46.7936-19.6452L48.0143-19.6452Q55.7129-19.6452 61.5804-18.1478Q67.4479-16.6504 71.8262-13.0615Q76.2044-9.47266 79.4108-3.23893Q80.2897-1.54622 81.4209-1.04167Q82.5521-0.537109 83.7402-0.537109Q85.1725-0.537109 86.2793-1.76595Q87.3861-2.99479 87.3861-5.25716Q87.3861-19.5964 83.0973-29.7852Q78.8086-39.974 70.0846-45.3532Q61.3607-50.7324 48.0143-50.7324L46.7936-50.7324L46.7936-65.625Q46.7936-67.4154 45.6217-68.693Q44.4499-69.9707 42.6107-69.9707Q41.2923-69.9707 40.2588-69.3685Q39.2253-68.7663 37.8581-67.4967L7.69857-39.3392Q6.55924-38.2324 6.13607-37.2152Q5.71289-36.1979 5.71289-35.2539Q5.71289-34.3424 6.13607-33.3252Q6.55924-32.3079 7.69857-31.2012L37.8581-2.81576Q39.0951-1.67643 40.2262-1.10677Q41.3574-0.537109 42.6758-0.537109ZM40.7878-7.7474Q40.446-7.7474 40.0716-8.08919L12.3372-34.2611Q11.9792-34.554 11.8571-34.79Q11.735-35.026 11.735-35.2539Q11.735-35.7096 12.3372-36.2467L40.0716-62.679Q40.2018-62.8092 40.3809-62.9232Q40.5599-63.0371 40.7715-63.0371Q41.3249-63.0371 41.3249-62.4674L41.3249-46.8587Q41.3249-45.6543 42.5781-45.6543L47.2656-45.6543Q54.9479-45.6543 60.734-43.7174Q66.5202-41.7806 70.5892-38.2975Q74.6582-34.8145 77.238-30.1432Q79.8177-25.472 81.0954-19.9382Q82.373-14.4043 82.5846-8.41471Q82.5846-7.97526 82.2266-7.97526Q81.9987-7.97526 81.8034-8.46354Q78.3203-16.0482 69.6615-20.4102Q61.0026-24.7721 47.2656-24.7721L42.5781-24.7721Q41.3249-24.7721 41.3249-23.5189L41.3249-8.33333Q41.3249-7.7474 40.7878-7.7474Z"/>
  </g>
  <g id="Thin-S" transform="matrix(1 0 0 1 809.484 696)">
   <path d="M41.7717-1.63495Q43.1908-1.63495 44.002-2.56741Q44.8132-3.49987 44.8132-4.84343L44.8132-20.7646L46.3568-20.7646Q54.9379-20.7646 61.3006-19.1272Q67.6632-17.4899 72.1168-13.8042Q76.5704-10.1184 79.3678-3.97083Q79.9883-2.62254 80.7751-2.12875Q81.5619-1.63495 82.5778-1.63495Q83.7087-1.63495 84.5357-2.55166Q85.3626-3.46837 85.3626-5.10648Q85.3626-20.1345 80.6971-29.9789Q76.0317-39.8233 67.297-44.6321Q58.5622-49.4408 46.3568-49.4408L44.8132-49.4408L44.8132-65.5604Q44.8132-66.9418 43.9965-67.9073Q43.1798-68.8729 41.7496-68.8729Q40.7542-68.8729 39.9359-68.4106Q39.1176-67.9483 38.2671-67.1308L8.25825-39.1885Q6.90367-37.9095 6.50202-36.9999Q6.10037-36.0903 6.10037-35.2539Q6.10037-34.4286 6.50202-33.5189Q6.90367-32.6093 8.25825-31.3303L38.2671-3.31086Q39.0735-2.53749 39.9249-2.08622Q40.7762-1.63495 41.7717-1.63495ZM40.8739-5.7885Q40.4675-5.7885 39.9209-6.25945L10.7658-33.4646Q10.1279-34.0159 9.90896-34.4349Q9.69002-34.8538 9.69002-35.2539Q9.69002-36.0541 10.7658-37.0432L39.9209-64.3366Q40.0942-64.5098 40.3163-64.6776Q40.5384-64.8453 40.8361-64.8453Q41.4756-64.8453 41.4756-64.168L41.4756-47.3538Q41.4756-46.3001 42.5781-46.3001L45.974-46.3001Q53.0966-46.3001 58.8828-44.5785Q64.6689-42.8569 69.0178-39.5461Q73.3666-36.2352 76.3231-31.3918Q79.2795-26.5483 80.794-20.2503Q82.3085-13.9522 82.4124-6.30513Q82.4124-5.73652 81.9037-5.73652Q81.5682-5.73652 81.2437-6.48311Q77.5454-15.3163 68.8004-19.6352Q60.0554-23.9541 45.974-23.9541L42.5781-23.9541Q41.4756-23.9541 41.4756-22.8516L41.4756-6.50359Q41.4756-5.7885 40.8739-5.7885Z"/>
  </g>
  <g id="Ultralight-S" transform="matrix(1 0 0 1 513.388 696)">
   <path d="M41.3086-2.19727Q42.5293-2.19727 43.1641-3.00293Q43.7988-3.80859 43.7988-4.93164L43.7988-21.3379L45.5078-21.3379Q54.541-21.3379 61.1572-19.6289Q67.7734-17.9199 72.2656-14.1846Q76.7578-10.4492 79.3457-4.3457Q79.834-3.17383 80.4443-2.68555Q81.0547-2.19727 81.9824-2.19727Q82.959-2.19727 83.6426-2.9541Q84.3262-3.71094 84.3262-5.0293Q84.3262-20.4102 79.4678-30.0781Q74.6094-39.7461 65.8691-44.2627Q57.1289-48.7793 45.5078-48.7793L43.7988-48.7793L43.7988-65.5273Q43.7988-66.6992 43.1641-67.5049Q42.5293-68.3105 41.3086-68.3105Q40.4785-68.3105 39.7705-67.9199Q39.0625-67.5293 38.4766-66.9434L8.54492-39.1113Q7.08008-37.7441 6.68945-36.8896Q6.29883-36.0352 6.29883-35.2539Q6.29883-34.4727 6.68945-33.6182Q7.08008-32.7637 8.54492-31.3965L38.4766-3.56445Q39.0625-2.97852 39.7705-2.58789Q40.4785-2.19727 41.3086-2.19727ZM40.918-4.78516Q40.4785-4.78516 39.8438-5.32227L9.96094-33.0566Q9.17969-33.7402 8.91113-34.2529Q8.64258-34.7656 8.64258-35.2539Q8.64258-36.2305 9.96094-37.4512L39.8438-65.1855Q40.0391-65.3809 40.2832-65.5762Q40.5273-65.7715 40.8691-65.7715Q41.5527-65.7715 41.5527-65.0391L41.5527-47.6074Q41.5527-46.6309 42.5781-46.6309L45.3125-46.6309Q52.1484-46.6309 57.9346-45.0195Q63.7207-43.4082 68.2129-40.1855Q72.7051-36.9629 75.8545-32.0312Q79.0039-27.0996 80.6396-20.4102Q82.2754-13.7207 82.3242-5.22461Q82.3242-4.58984 81.7383-4.58984Q81.3477-4.58984 80.957-5.46875Q77.1484-14.9414 68.3594-19.2383Q59.5703-23.5352 45.3125-23.5352L42.5781-23.5352Q41.5527-23.5352 41.5527-22.5098L41.5527-5.56641Q41.5527-4.78516 40.918-4.78516Z"/>
  </g>
 </g>
</svg>
