<?xml version="1.0" encoding="UTF-8"?>
<!--Generator: Apple Native CoreSVG 175-->
<!DOCTYPE svg
PUBLIC "-//W3C//DTD SVG 1.1//EN"
       "http://www.w3.org/Graphics/SVG/1.1/DTD/svg11.dtd">
<svg version="1.1" xmlns="http://www.w3.org/2000/svg" xmlns:xlink="http://www.w3.org/1999/xlink" width="3300" height="2200">
 <!--glyph: "uni100194.medium", point size: 100.0, font version: "17.1d1e1", template writer version: "65.1"-->
 <g id="Notes">
  <rect height="2200" id="artboard" style="fill:white;opacity:1" width="3300" x="0" y="0"/>
  <line style="fill:none;stroke:black;opacity:1;stroke-width:0.5;" x1="263" x2="3036" y1="292" y2="292"/>
  <text style="stroke:none;fill:black;font-family:sans-serif;font-size:13;font-weight:bold;" transform="matrix(1 0 0 1 263 322)">Weight/Scale Variations</text>
  <text style="stroke:none;fill:black;font-family:sans-serif;font-size:13;text-anchor:middle;" transform="matrix(1 0 0 1 559.711 322)">Ultralight</text>
  <text style="stroke:none;fill:black;font-family:sans-serif;font-size:13;text-anchor:middle;" transform="matrix(1 0 0 1 856.422 322)">Thin</text>
  <text style="stroke:none;fill:black;font-family:sans-serif;font-size:13;text-anchor:middle;" transform="matrix(1 0 0 1 1153.13 322)">Light</text>
  <text style="stroke:none;fill:black;font-family:sans-serif;font-size:13;text-anchor:middle;" transform="matrix(1 0 0 1 1449.84 322)">Regular</text>
  <text style="stroke:none;fill:black;font-family:sans-serif;font-size:13;text-anchor:middle;" transform="matrix(1 0 0 1 1746.56 322)">Medium</text>
  <text style="stroke:none;fill:black;font-family:sans-serif;font-size:13;text-anchor:middle;" transform="matrix(1 0 0 1 2043.27 322)">Semibold</text>
  <text style="stroke:none;fill:black;font-family:sans-serif;font-size:13;text-anchor:middle;" transform="matrix(1 0 0 1 2339.98 322)">Bold</text>
  <text style="stroke:none;fill:black;font-family:sans-serif;font-size:13;text-anchor:middle;" transform="matrix(1 0 0 1 2636.69 322)">Heavy</text>
  <text style="stroke:none;fill:black;font-family:sans-serif;font-size:13;text-anchor:middle;" transform="matrix(1 0 0 1 2933.4 322)">Black</text>
  <line style="fill:none;stroke:black;opacity:1;stroke-width:0.5;" x1="263" x2="3036" y1="1903" y2="1903"/>
  <g transform="matrix(1 0 0 1 263 1933)">
   <path d="M9.24805 0.830078Q10.8691 0.830078 12.2949 0.214844Q13.7207-0.400391 14.8096-1.49414Q15.8984-2.58789 16.5186-4.01367Q17.1387-5.43945 17.1387-7.05078Q17.1387-8.66211 16.5186-10.0879Q15.8984-11.5137 14.8047-12.6074Q13.7109-13.7012 12.2852-14.3164Q10.8594-14.9316 9.23828-14.9316Q7.62695-14.9316 6.20117-14.3164Q4.77539-13.7012 3.69141-12.6074Q2.60742-11.5137 1.9873-10.0879Q1.36719-8.66211 1.36719-7.05078Q1.36719-5.43945 1.9873-4.01367Q2.60742-2.58789 3.69629-1.49414Q4.78516-0.400391 6.21094 0.214844Q7.63672 0.830078 9.24805 0.830078ZM9.24805-0.654297Q7.91992-0.654297 6.7627-1.14746Q5.60547-1.64062 4.73145-2.51953Q3.85742-3.39844 3.36426-4.56055Q2.87109-5.72266 2.87109-7.05078Q2.87109-8.37891 3.35938-9.54102Q3.84766-10.7031 4.72168-11.582Q5.5957-12.4609 6.75293-12.9541Q7.91016-13.4473 9.23828-13.4473Q10.5762-13.4473 11.7334-12.9541Q12.8906-12.4609 13.7695-11.582Q14.6484-10.7031 15.1465-9.54102Q15.6445-8.37891 15.6445-7.05078Q15.6445-5.72266 15.1514-4.56055Q14.6582-3.39844 13.7842-2.51953Q12.9102-1.64062 11.748-1.14746Q10.5859-0.654297 9.24805-0.654297ZM5.6543-7.05078Q5.6543-6.72852 5.85938-6.52832Q6.06445-6.32812 6.40625-6.32812L8.51562-6.32812L8.51562-4.20898Q8.51562-3.88672 8.71094-3.67676Q8.90625-3.4668 9.23828-3.4668Q9.56055-3.4668 9.77051-3.67676Q9.98047-3.88672 9.98047-4.20898L9.98047-6.32812L12.0898-6.32812Q12.4219-6.32812 12.627-6.52832Q12.832-6.72852 12.832-7.05078Q12.832-7.38281 12.627-7.58789Q12.4219-7.79297 12.0898-7.79297L9.98047-7.79297L9.98047-9.90234Q9.98047-10.2344 9.77051-10.4443Q9.56055-10.6543 9.23828-10.6543Q8.90625-10.6543 8.71094-10.4443Q8.51562-10.2344 8.51562-9.90234L8.51562-7.79297L6.40625-7.79297Q6.06445-7.79297 5.85938-7.58789Q5.6543-7.38281 5.6543-7.05078Z"/>
  </g>
  <g transform="matrix(1 0 0 1 281.867 1933)">
   <path d="M11.709 2.91016Q13.75 2.91016 15.5518 2.12891Q17.3535 1.34766 18.7305-0.0292969Q20.1074-1.40625 20.8887-3.20801Q21.6699-5.00977 21.6699-7.05078Q21.6699-9.0918 20.8887-10.8936Q20.1074-12.6953 18.7305-14.0723Q17.3535-15.4492 15.5469-16.2305Q13.7402-17.0117 11.6992-17.0117Q9.6582-17.0117 7.85645-16.2305Q6.05469-15.4492 4.68262-14.0723Q3.31055-12.6953 2.5293-10.8936Q1.74805-9.0918 1.74805-7.05078Q1.74805-5.00977 2.5293-3.20801Q3.31055-1.40625 4.6875-0.0292969Q6.06445 1.34766 7.86621 2.12891Q9.66797 2.91016 11.709 2.91016ZM11.709 1.25Q9.98047 1.25 8.47656 0.605469Q6.97266-0.0390625 5.83496-1.17676Q4.69727-2.31445 4.05762-3.81836Q3.41797-5.32227 3.41797-7.05078Q3.41797-8.7793 4.05762-10.2832Q4.69727-11.7871 5.83008-12.9297Q6.96289-14.0723 8.4668-14.7119Q9.9707-15.3516 11.6992-15.3516Q13.4277-15.3516 14.9316-14.7119Q16.4355-14.0723 17.5781-12.9297Q18.7207-11.7871 19.3652-10.2832Q20.0098-8.7793 20.0098-7.05078Q20.0098-5.32227 19.3701-3.81836Q18.7305-2.31445 17.5928-1.17676Q16.4551-0.0390625 14.9463 0.605469Q13.4375 1.25 11.709 1.25ZM7.17773-7.05078Q7.17773-6.69922 7.41211-6.47461Q7.64648-6.25 8.01758-6.25L10.8887-6.25L10.8887-3.36914Q10.8887-2.99805 11.1133-2.76855Q11.3379-2.53906 11.6895-2.53906Q12.0605-2.53906 12.29-2.76855Q12.5195-2.99805 12.5195-3.36914L12.5195-6.25L15.4004-6.25Q15.7715-6.25 16.001-6.47461Q16.2305-6.69922 16.2305-7.05078Q16.2305-7.42188 16.001-7.65137Q15.7715-7.88086 15.4004-7.88086L12.5195-7.88086L12.5195-10.752Q12.5195-11.1328 12.29-11.3623Q12.0605-11.5918 11.6895-11.5918Q11.3379-11.5918 11.1133-11.3574Q10.8887-11.123 10.8887-10.752L10.8887-7.88086L8.01758-7.88086Q7.63672-7.88086 7.40723-7.65137Q7.17773-7.42188 7.17773-7.05078Z"/>
  </g>
  <g transform="matrix(1 0 0 1 305.646 1933)">
   <path d="M14.9707 5.66406Q17.0605 5.66406 18.96 5.01465Q20.8594 4.36523 22.4512 3.19336Q24.043 2.02148 25.2197 0.429688Q26.3965-1.16211 27.0459-3.06641Q27.6953-4.9707 27.6953-7.05078Q27.6953-9.14062 27.0459-11.04Q26.3965-12.9395 25.2197-14.5312Q24.043-16.123 22.4512-17.2998Q20.8594-18.4766 18.9551-19.126Q17.0508-19.7754 14.9609-19.7754Q12.8711-19.7754 10.9717-19.126Q9.07227-18.4766 7.48535-17.2998Q5.89844-16.123 4.72168-14.5312Q3.54492-12.9395 2.90039-11.04Q2.25586-9.14062 2.25586-7.05078Q2.25586-4.9707 2.90527-3.06641Q3.55469-1.16211 4.72656 0.429688Q5.89844 2.02148 7.49023 3.19336Q9.08203 4.36523 10.9814 5.01465Q12.8809 5.66406 14.9707 5.66406ZM14.9707 3.84766Q13.1641 3.84766 11.5283 3.2959Q9.89258 2.74414 8.53516 1.74805Q7.17773 0.751953 6.17676-0.610352Q5.17578-1.97266 4.62891-3.6084Q4.08203-5.24414 4.08203-7.05078Q4.08203-8.86719 4.62891-10.5029Q5.17578-12.1387 6.17188-13.501Q7.16797-14.8633 8.52539-15.8594Q9.88281-16.8555 11.5186-17.4023Q13.1543-17.9492 14.9609-17.9492Q16.7773-17.9492 18.4131-17.4023Q20.0488-16.8555 21.4111-15.8594Q22.7734-14.8633 23.7695-13.501Q24.7656-12.1387 25.3174-10.5029Q25.8691-8.86719 25.8691-7.05078Q25.8789-5.24414 25.332-3.6084Q24.7852-1.97266 23.7842-0.610352Q22.7832 0.751953 21.4209 1.74805Q20.0586 2.74414 18.4229 3.2959Q16.7871 3.84766 14.9707 3.84766ZM9.19922-7.05078Q9.19922-6.66992 9.45801-6.4209Q9.7168-6.17188 10.1172-6.17188L14.0625-6.17188L14.0625-2.2168Q14.0625-1.81641 14.3115-1.55762Q14.5605-1.29883 14.9512-1.29883Q15.3516-1.29883 15.6104-1.55273Q15.8691-1.80664 15.8691-2.2168L15.8691-6.17188L19.8242-6.17188Q20.2246-6.17188 20.4785-6.4209Q20.7324-6.66992 20.7324-7.05078Q20.7324-7.46094 20.4785-7.71484Q20.2246-7.96875 19.8242-7.96875L15.8691-7.96875L15.8691-11.9141Q15.8691-12.3242 15.6104-12.583Q15.3516-12.8418 14.9512-12.8418Q14.5605-12.8418 14.3115-12.583Q14.0625-12.3242 14.0625-11.9141L14.0625-7.96875L10.1172-7.96875Q9.70703-7.96875 9.45312-7.71484Q9.19922-7.46094 9.19922-7.05078Z"/>
  </g>
  <text style="stroke:none;fill:black;font-family:sans-serif;font-size:13;font-weight:bold;" transform="matrix(1 0 0 1 263 1953)">Design Variations</text>
  <text style="stroke:none;fill:black;font-family:sans-serif;font-size:13;" transform="matrix(1 0 0 1 263 1971)">Symbols are supported in up to nine weights and three scales.</text>
  <text style="stroke:none;fill:black;font-family:sans-serif;font-size:13;" transform="matrix(1 0 0 1 263 1989)">For optimal layout with text and other symbols, vertically align</text>
  <text style="stroke:none;fill:black;font-family:sans-serif;font-size:13;" transform="matrix(1 0 0 1 263 2007)">symbols with the adjacent text.</text>
  <line style="fill:none;stroke:#00AEEF;stroke-width:0.5;opacity:1.0;" x1="776" x2="776" y1="1919" y2="1933"/>
  <g transform="matrix(1 0 0 1 776 1933)">
   <path d="M3.31055 0.15625Q3.70117 0.15625 3.91602-0.00976562Q4.13086-0.175781 4.26758-0.585938L5.52734-4.0332L11.2891-4.0332L12.5488-0.585938Q12.6855-0.175781 12.9004-0.00976562Q13.1152 0.15625 13.4961 0.15625Q13.8867 0.15625 14.1162-0.0585938Q14.3457-0.273438 14.3457-0.644531Q14.3457-0.869141 14.2383-1.17188L9.6582-13.3691Q9.48242-13.8184 9.17969-14.043Q8.87695-14.2676 8.4082-14.2676Q7.5-14.2676 7.17773-13.3789L2.59766-1.16211Q2.49023-0.859375 2.49023-0.634766Q2.49023-0.263672 2.70996-0.0537109Q2.92969 0.15625 3.31055 0.15625ZM6.00586-5.51758L8.37891-12.0898L8.42773-12.0898L10.8008-5.51758Z"/>
  </g>
  <line style="fill:none;stroke:#00AEEF;stroke-width:0.5;opacity:1.0;" x1="793.197" x2="793.197" y1="1919" y2="1933"/>
  <text style="stroke:none;fill:black;font-family:sans-serif;font-size:13;font-weight:bold;" transform="matrix(1 0 0 1 776 1953)">Margins</text>
  <text style="stroke:none;fill:black;font-family:sans-serif;font-size:13;" transform="matrix(1 0 0 1 776 1971)">Leading and trailing margins on the left and right side of each symbol</text>
  <text style="stroke:none;fill:black;font-family:sans-serif;font-size:13;" transform="matrix(1 0 0 1 776 1989)">can be adjusted by modifying the x-location of the margin guidelines.</text>
  <text style="stroke:none;fill:black;font-family:sans-serif;font-size:13;" transform="matrix(1 0 0 1 776 2007)">Modifications are automatically applied proportionally to all</text>
  <text style="stroke:none;fill:black;font-family:sans-serif;font-size:13;" transform="matrix(1 0 0 1 776 2025)">scales and weights.</text>
  <g transform="matrix(1 0 0 1 1289 1933)">
   <path d="M2.8418 1.86523L4.54102 3.57422Q5.18555 4.22852 5.90332 4.17969Q6.62109 4.13086 7.31445 3.35938L18.0078-8.42773L17.041-9.4043L6.42578 2.27539Q6.16211 2.57812 5.89355 2.61719Q5.625 2.65625 5.27344 2.30469L4.10156 1.14258Q3.75 0.791016 3.79395 0.522461Q3.83789 0.253906 4.14062-0.0195312L15.6152-10.8203L14.6387-11.7871L3.04688-0.898438Q2.30469-0.214844 2.25098 0.498047Q2.19727 1.21094 2.8418 1.86523ZM9.25781-16.3281Q8.94531-16.0254 8.90625-15.6348Q8.86719-15.2441 9.04297-14.9512Q9.21875-14.6777 9.55566-14.541Q9.89258-14.4043 10.3809-14.5215Q11.4746-14.7754 12.5977-14.7314Q13.7207-14.6875 14.7949-13.9844L14.209-12.5293Q13.9551-11.9043 14.0674-11.4404Q14.1797-10.9766 14.5801-10.5664L16.875-8.25195Q17.2363-7.88086 17.5781-7.82227Q17.9199-7.76367 18.3398-7.8418L19.4043-8.03711L20.0684-7.36328L20.0293-6.80664Q20-6.43555 20.1221-6.12305Q20.2441-5.81055 20.6055-5.44922L21.3672-4.70703Q21.7285-4.3457 22.1533-4.33105Q22.5781-4.31641 22.9297-4.66797L25.8398-7.58789Q26.1914-7.93945 26.1816-8.35449Q26.1719-8.76953 25.8105-9.13086L25.0391-9.89258Q24.6875-10.2539 24.3799-10.3857Q24.0723-10.5176 23.7109-10.4883L23.1348-10.4395L22.4902-11.0742L22.7344-12.1973Q22.832-12.6172 22.6953-12.9834Q22.5586-13.3496 22.1191-13.7891L19.9219-15.9766Q18.6719-17.2168 17.2607-17.8369Q15.8496-18.457 14.4189-18.4814Q12.9883-18.5059 11.665-17.959Q10.3418-17.4121 9.25781-16.3281ZM10.752-15.957Q11.6602-16.6211 12.7002-16.9043Q13.7402-17.1875 14.8047-17.085Q15.8691-16.9824 16.8701-16.5137Q17.8711-16.0449 18.7012-15.2051L21.1328-12.793Q21.3086-12.6172 21.3525-12.4512Q21.3965-12.2852 21.3379-12.0312L21.0156-10.5469L22.5195-9.0625L23.5059-9.12109Q23.6914-9.13086 23.7891-9.09668Q23.8867-9.0625 24.0332-8.91602L24.6094-8.33984L22.168-5.89844L21.5918-6.47461Q21.4453-6.62109 21.4062-6.71875Q21.3672-6.81641 21.377-7.01172L21.4453-7.98828L19.9512-9.47266L18.4277-9.21875Q18.1836-9.16992 18.042-9.2041Q17.9004-9.23828 17.7148-9.41406L15.7129-11.416Q15.5176-11.5918 15.4932-11.7529Q15.4688-11.9141 15.5859-12.1875L16.4648-14.2773Q15.293-15.3711 13.8281-15.791Q12.3633-16.2109 10.8398-15.7617Q10.7227-15.7324 10.6885-15.8057Q10.6543-15.8789 10.752-15.957Z"/>
  </g>
  <text style="stroke:none;fill:black;font-family:sans-serif;font-size:13;font-weight:bold;" transform="matrix(1 0 0 1 1289 1953)">Exporting</text>
  <text style="stroke:none;fill:black;font-family:sans-serif;font-size:13;" transform="matrix(1 0 0 1 1289 1971)">Symbols should be outlined when exporting to ensure the</text>
  <text style="stroke:none;fill:black;font-family:sans-serif;font-size:13;" transform="matrix(1 0 0 1 1289 1989)">design is preserved when submitting to Xcode.</text>
  <text id="template-version" style="stroke:none;fill:black;font-family:sans-serif;font-size:13;text-anchor:end;" transform="matrix(1 0 0 1 3036 1933)">Template v.3.0</text>
  <text style="stroke:none;fill:black;font-family:sans-serif;font-size:13;text-anchor:end;" transform="matrix(1 0 0 1 3036 1951)">Requires Xcode 13 or greater</text>
  <text id="descriptive-name" style="stroke:none;fill:black;font-family:sans-serif;font-size:13;text-anchor:end;" transform="matrix(1 0 0 1 3036 1969)">Generated from command</text>
  <text style="stroke:none;fill:black;font-family:sans-serif;font-size:13;text-anchor:end;" transform="matrix(1 0 0 1 3036 1987)">Typeset at 100 points</text>
  <text style="stroke:none;fill:black;font-family:sans-serif;font-size:13;" transform="matrix(1 0 0 1 263 726)">Small</text>
  <text style="stroke:none;fill:black;font-family:sans-serif;font-size:13;" transform="matrix(1 0 0 1 263 1156)">Medium</text>
  <text style="stroke:none;fill:black;font-family:sans-serif;font-size:13;" transform="matrix(1 0 0 1 263 1586)">Large</text>
 </g>
 <g id="Guides">
  <g id="H-reference" style="fill:#27AAE1;stroke:none;" transform="matrix(1 0 0 1 339 696)">
   <path d="M0.993347 0L3.6377 0L29.3282-67.1326L30.0301-67.1326L30.0301-70.459L28.1227-70.459ZM11.6882-24.4797L46.9818-24.4797L46.2311-26.7288L12.4382-26.7288ZM55.1193 0L57.7637 0L30.6381-70.459L29.4327-70.459L29.4327-67.1326Z"/>
  </g>
  <line id="Baseline-S" style="fill:none;stroke:#27AAE1;opacity:1;stroke-width:0.5;" x1="263" x2="3036" y1="696" y2="696"/>
  <line id="Capline-S" style="fill:none;stroke:#27AAE1;opacity:1;stroke-width:0.5;" x1="263" x2="3036" y1="625.541" y2="625.541"/>
  <g id="H-reference" style="fill:#27AAE1;stroke:none;" transform="matrix(1 0 0 1 339 1126)">
   <path d="M0.993347 0L3.6377 0L29.3282-67.1326L30.0301-67.1326L30.0301-70.459L28.1227-70.459ZM11.6882-24.4797L46.9818-24.4797L46.2311-26.7288L12.4382-26.7288ZM55.1193 0L57.7637 0L30.6381-70.459L29.4327-70.459L29.4327-67.1326Z"/>
  </g>
  <line id="Baseline-M" style="fill:none;stroke:#27AAE1;opacity:1;stroke-width:0.5;" x1="263" x2="3036" y1="1126" y2="1126"/>
  <line id="Capline-M" style="fill:none;stroke:#27AAE1;opacity:1;stroke-width:0.5;" x1="263" x2="3036" y1="1055.54" y2="1055.54"/>
  <g id="H-reference" style="fill:#27AAE1;stroke:none;" transform="matrix(1 0 0 1 339 1556)">
   <path d="M0.993347 0L3.6377 0L29.3282-67.1326L30.0301-67.1326L30.0301-70.459L28.1227-70.459ZM11.6882-24.4797L46.9818-24.4797L46.2311-26.7288L12.4382-26.7288ZM55.1193 0L57.7637 0L30.6381-70.459L29.4327-70.459L29.4327-67.1326Z"/>
  </g>
  <line id="Baseline-L" style="fill:none;stroke:#27AAE1;opacity:1;stroke-width:0.5;" x1="263" x2="3036" y1="1556" y2="1556"/>
  <line id="Capline-L" style="fill:none;stroke:#27AAE1;opacity:1;stroke-width:0.5;" x1="263" x2="3036" y1="1485.54" y2="1485.54"/>
  <line id="left-margin-Regular-M" style="fill:none;stroke:#00AEEF;stroke-width:0.5;opacity:1.0;" x1="1391.28" x2="1391.28" y1="1030.79" y2="1150.12"/>
  <line id="right-margin-Regular-M" style="fill:none;stroke:#00AEEF;stroke-width:0.5;opacity:1.0;" x1="1508.41" x2="1508.41" y1="1030.79" y2="1150.12"/>
 </g>
 <g id="Symbols">
  <g id="Black-L" transform="matrix(1 0 0 1 2855.57 1556)">
   <path d="M51.0561-44.3671L51.0561-25.9178L42.3106-25.8594Q35.0945-25.801 29.1181-22.293Q23.1416-18.785 19.6128-12.9164Q16.084-7.0478 16.084 0.248723Q16.084 7.40642 19.6128 13.3834Q23.1416 19.3604 29.1181 22.9289Q35.0945 26.4973 42.369 26.4973Q49.5851 26.4973 55.5037 22.8997Q61.4223 19.302 64.9798 13.3542Q68.5372 7.40642 68.5372 0.248723L68.5372-8.24357L87.1196-8.24357L87.1196 0.248723Q87.1196 7.40642 90.6881 13.3542Q94.2565 19.302 100.193 22.8997Q106.13 26.4973 113.289 26.4973Q120.622 26.4973 126.569 22.9289Q132.516 19.3604 136.045 13.3834Q139.574 7.40642 139.574 0.248723Q139.574-7.0478 136.045-12.9164Q132.516-18.785 126.569-22.293Q120.622-25.801 113.347-25.8594L104.623-25.9178L104.623-44.3671L113.347-44.4255Q120.622-44.484 126.569-47.992Q132.516-51.5 136.045-57.3978Q139.574-63.2956 139.574-70.5337Q139.574-77.7498 136.045-83.6976Q132.516-89.6454 126.569-93.2139Q120.622-96.7823 113.289-96.7823Q106.13-96.7823 100.193-93.2139Q94.2565-89.6454 90.6881-83.6684Q87.1196-77.6914 87.1196-70.5337L87.1196-62.0414L68.5372-62.0414L68.5372-70.5337Q68.5372-77.6914 64.9798-83.6684Q61.4223-89.6454 55.5037-93.2139Q49.5851-96.7823 42.369-96.7823Q35.0945-96.7823 29.1181-93.2139Q23.1416-89.6454 19.6128-83.6976Q16.084-77.7498 16.084-70.5337Q16.084-63.2956 19.6128-57.3978Q23.1416-51.5 29.1181-47.992Q35.0945-44.484 42.3106-44.4255ZM43.0115-61.883Q39.0885-61.883 36.4734-64.411Q33.8583-66.9391 33.8583-70.4753Q33.8583-74.0478 36.3566-76.5175Q38.8549-78.9872 42.369-78.9872Q45.8247-78.9872 48.382-76.3715Q50.9393-73.7558 50.9393-69.8328L50.9393-61.883ZM112.647-61.883L104.74-61.883L104.74-69.8328Q104.74-73.7558 107.286-76.3715Q109.833-78.9872 113.289-78.9872Q116.86-78.9872 119.33-76.5175Q121.8-74.0478 121.8-70.4753Q121.8-66.9391 119.184-64.411Q116.568-61.883 112.647-61.883ZM68.5956-25.8762L68.5956-44.4088L87.0612-44.4088L87.0612-25.8762ZM43.0115-8.42283L50.9393-8.42283L50.9393-0.472964Q50.9393 3.45003 48.382 6.06572Q45.8247 8.6814 42.369 8.6814Q38.8549 8.6814 36.3566 6.18253Q33.8583 3.68365 33.8583 0.169509Q33.8583-3.42506 36.4734-5.92394Q39.0885-8.42283 43.0115-8.42283ZM112.647-8.42283Q116.568-8.42283 119.184-5.92394Q121.8-3.42506 121.8 0.169509Q121.8 3.68365 119.33 6.18253Q116.86 8.6814 113.289 8.6814Q109.833 8.6814 107.286 6.06572Q104.74 3.45003 104.74-0.472964L104.74-8.42283Z"/>
  </g>
  <g id="Heavy-L" transform="matrix(1 0 0 1 2559.4 1556)">
   <path d="M51.1523-45.7663L51.1523-24.5644L41.3753-24.5198Q34.4145-24.4752 28.6548-21.0998Q22.8951-17.7244 19.4895-12.059Q16.084-6.39364 16.084 0.647524Q16.084 7.56365 19.4895 13.3261Q22.8951 19.0886 28.6548 22.5316Q34.4145 25.9746 41.4199 25.9746Q48.3807 25.9746 54.0985 22.5093Q59.8164 19.044 63.2415 13.3038Q66.6666 7.56365 66.6666 0.647524L66.6666-8.92638L87.9129-8.92638L87.9129 0.647524Q87.9129 7.56365 91.3559 13.3038Q94.7989 19.044 100.521 22.5093Q106.243 25.9746 113.165 25.9746Q120.215 25.9746 125.952 22.5316Q131.69 19.0886 135.095 13.3261Q138.501 7.56365 138.501 0.647524Q138.501-6.39364 135.095-12.059Q131.69-17.7244 125.952-21.0998Q120.215-24.4752 113.21-24.5198L103.463-24.5644L103.463-45.7663L113.21-45.8109Q120.215-45.8555 125.952-49.231Q131.69-52.6064 135.095-58.294Q138.501-63.9817 138.501-70.9783Q138.501-77.939 135.095-83.6792Q131.69-89.4194 125.952-92.8624Q120.215-96.3053 113.165-96.3053Q106.243-96.3053 100.521-92.8624Q94.7989-89.4194 91.3559-83.6569Q87.9129-77.8944 87.9129-70.9783L87.9129-61.4044L66.6666-61.4044L66.6666-70.9783Q66.6666-77.8944 63.2415-83.6569Q59.8164-89.4194 54.0985-92.8624Q48.3807-96.3053 41.4199-96.3053Q34.4145-96.3053 28.6548-92.8624Q22.8951-89.4194 19.4895-83.6792Q16.084-77.939 16.084-70.9783Q16.084-63.9817 19.4895-58.294Q22.8951-52.6064 28.6548-49.231Q34.4145-45.8555 41.3753-45.8109ZM41.9108-61.2548Q37.648-61.2548 34.7375-64.1011Q31.8271-66.9475 31.8271-70.9337Q31.8271-74.9287 34.6483-77.7304Q37.4695-80.5321 41.4199-80.5321Q45.3257-80.5321 48.1944-77.6188Q51.063-74.7056 51.063-70.4428L51.063-61.2548ZM112.674-61.2548L103.552-61.2548L103.552-70.4428Q103.552-74.7056 106.406-77.6188Q109.259-80.5321 113.165-80.5321Q117.155-80.5321 119.956-77.7304Q122.758-74.9287 122.758-70.9337Q122.758-66.9475 119.845-64.1011Q116.931-61.2548 112.674-61.2548ZM66.7112-24.504L66.7112-45.8267L87.8682-45.8267L87.8682-24.504ZM41.9108-9.10614L51.063-9.10614L51.063 0.0819134Q51.063 4.34469 48.1944 7.25792Q45.3257 10.1711 41.4199 10.1711Q37.4695 10.1711 34.6483 7.34717Q31.8271 4.52318 31.8271 0.572762Q31.8271-3.45808 34.7375-6.28211Q37.648-9.10614 41.9108-9.10614ZM112.674-9.10614Q116.931-9.10614 119.845-6.28211Q122.758-3.45808 122.758 0.572762Q122.758 4.52318 119.956 7.34717Q117.155 10.1711 113.165 10.1711Q109.259 10.1711 106.406 7.25792Q103.552 4.34469 103.552 0.0819134L103.552-9.10614Z"/>
  </g>
  <g id="Bold-L" transform="matrix(1 0 0 1 2263.3 1556)">
   <path d="M51.3348-47.5027L51.3348-22.8818L40.23-22.8526Q33.5841-22.8234 28.0897-19.6057Q22.5952-16.3881 19.3396-10.9688Q16.084-5.54944 16.084 1.17661Q16.084 7.79304 19.3396 13.2942Q22.5952 18.7953 28.0897 22.0846Q33.5841 25.3738 40.2592 25.3738Q46.9048 25.3738 52.3768 22.07Q57.8487 18.7661 61.1124 13.2796Q64.376 7.79304 64.376 1.17661L64.376-9.78657L88.9635-9.78657L88.9635 1.17661Q88.9635 7.79304 92.2528 13.2796Q95.542 18.7661 101.003 22.07Q106.464 25.3738 113.093 25.3738Q119.797 25.3738 125.277 22.0846Q130.757 18.7953 134.013 13.2942Q137.269 7.79304 137.269 1.17661Q137.269-5.54944 134.013-10.9688Q130.757-16.3881 125.277-19.6057Q119.797-22.8234 113.123-22.8526L102.056-22.8818L102.056-47.5027L113.123-47.5319Q119.797-47.5611 125.277-50.7789Q130.757-53.9966 134.013-59.4304Q137.269-64.8643 137.269-71.5613Q137.269-78.207 134.013-83.6935Q130.757-89.18 125.277-92.4692Q119.797-95.7583 113.093-95.7583Q106.464-95.7583 101.003-92.4692Q95.542-89.18 92.2528-83.6789Q88.9635-78.1777 88.9635-71.5613L88.9635-60.5981L64.376-60.5981L64.376-71.5613Q64.376-78.1777 61.1124-83.6789Q57.8487-89.18 52.3768-92.4692Q46.9048-95.7583 40.2592-95.7583Q33.5841-95.7583 28.0897-92.4692Q22.5952-89.18 19.3396-83.6935Q16.084-78.207 16.084-71.5613Q16.084-64.8643 19.3396-59.4304Q22.5952-53.9966 28.0897-50.7789Q33.5841-47.5611 40.23-47.5319ZM40.5804-60.4638Q35.8653-60.4638 32.5749-63.717Q29.2846-66.9702 29.2846-71.5321Q29.2846-76.0721 32.5165-79.2959Q35.7485-82.5198 40.2592-82.5198Q44.7407-82.5198 48.0085-79.2229Q51.2764-75.926 51.2764-71.2109L51.2764-60.4638ZM112.772-60.4638L102.114-60.4638L102.114-71.2109Q102.114-75.926 105.363-79.2229Q108.612-82.5198 113.093-82.5198Q117.62-82.5198 120.844-79.2959Q124.068-76.0721 124.068-71.5321Q124.068-66.9702 120.771-63.717Q117.474-60.4638 112.772-60.4638ZM64.4052-22.8058L64.4052-47.5787L88.9343-47.5787L88.9343-22.8058ZM40.5804-9.95884L51.2764-9.95884L51.2764 0.788292Q51.2764 5.50344 48.0085 8.80035Q44.7407 12.0973 40.2592 12.0973Q35.7485 12.0973 32.5165 8.85876Q29.2846 5.62026 29.2846 1.10953Q29.2846-3.48162 32.5749-6.72023Q35.8653-9.95884 40.5804-9.95884ZM112.772-9.95884Q117.474-9.95884 120.771-6.72023Q124.068-3.48162 124.068 1.10953Q124.068 5.62026 120.844 8.85876Q117.62 12.0973 113.093 12.0973Q108.612 12.0973 105.363 8.80035Q102.114 5.50344 102.114 0.788292L102.114-9.95884Z"/>
  </g>
  <g id="Semibold-L" transform="matrix(1 0 0 1 1967.02 1556)">
   <path d="M51.4606-48.6998L51.4606-21.7218L39.4404-21.7032Q33.0117-21.6846 27.7001-18.5758Q22.3885-15.4669 19.2362-10.2172Q16.084-4.96745 16.084 1.54136Q16.084 7.95118 19.2362 13.2721Q22.3885 18.5931 27.7001 21.7764Q33.0117 24.9597 39.459 24.9597Q45.8874 24.9597 51.1898 21.7671Q56.4921 18.5745 59.6445 13.2628Q62.7969 7.95118 62.7969 1.54136L62.7969-10.3796L89.6878-10.3796L89.6878 1.54136Q89.6878 7.95118 92.8711 13.2628Q96.0544 18.5745 101.335 21.7671Q106.616 24.9597 113.044 24.9597Q119.51 24.9597 124.812 21.7764Q130.114 18.5931 133.267 13.2721Q136.419 7.95118 136.419 1.54136Q136.419-4.96745 133.267-10.2172Q130.114-15.4669 124.812-18.5758Q119.51-21.6846 113.063-21.7032L101.086-21.7218L101.086-48.6998L113.063-48.7184Q119.51-48.737 124.812-51.846Q130.114-54.955 133.267-60.2139Q136.419-65.4727 136.419-71.9633Q136.419-78.3916 133.267-83.7033Q130.114-89.015 124.812-92.1981Q119.51-95.3813 113.044-95.3813Q106.616-95.3813 101.335-92.1981Q96.0544-89.015 92.8711-83.694Q89.6878-78.3731 89.6878-71.9633L89.6878-60.0423L62.7969-60.0423L62.7969-71.9633Q62.7969-78.3731 59.6445-83.694Q56.4921-89.015 51.1898-92.1981Q45.8874-95.3813 39.459-95.3813Q33.0117-95.3813 27.7001-92.1981Q22.3885-89.015 19.2362-83.7033Q16.084-78.3916 16.084-71.9633Q16.084-65.4727 19.2362-60.2139Q22.3885-54.955 27.7001-51.846Q33.0117-48.737 39.4404-48.7184ZM39.6633-59.9184Q34.6363-59.9184 31.0841-63.4521Q27.5318-66.9858 27.5318-71.9447Q27.5318-76.8603 31.0469-80.3752Q34.562-83.8902 39.459-83.8902Q44.3374-83.8902 47.8804-80.3288Q51.4234-76.7674 51.4234-71.7404L51.4234-59.9184ZM112.84-59.9184L101.123-59.9184L101.123-71.7404Q101.123-76.7674 104.644-80.3288Q108.166-83.8902 113.044-83.8902Q117.941-83.8902 121.456-80.3752Q124.971-76.8603 124.971-71.9447Q124.971-66.9858 121.41-63.4521Q117.848-59.9184 112.84-59.9184ZM62.8155-21.635L62.8155-48.7865L89.6692-48.7865L89.6692-21.635ZM39.6633-10.5467L51.4234-10.5467L51.4234 1.27526Q51.4234 6.30228 47.8804 9.86369Q44.3374 13.4251 39.459 13.4251Q34.562 13.4251 31.0469 9.90084Q27.5318 6.37657 27.5318 1.47957Q27.5318-3.49785 31.0841-7.02227Q34.6363-10.5467 39.6633-10.5467ZM112.84-10.5467Q117.848-10.5467 121.41-7.02227Q124.971-3.49785 124.971 1.47957Q124.971 6.37657 121.456 9.90084Q117.941 13.4251 113.044 13.4251Q108.166 13.4251 104.644 9.86369Q101.123 6.30228 101.123 1.27526L101.123-10.5467Z"/>
  </g>
  <g id="Medium-L" transform="matrix(1 0 0 1 1670.63 1556)">
   <path d="M51.556-49.6075L51.556-20.8422L38.8418-20.8317Q32.5777-20.8212 27.4047-17.7948Q22.2317-14.7684 19.1579-9.64726Q16.084-4.52616 16.084 1.81793Q16.084 8.07109 19.1579 13.2554Q22.2317 18.4397 27.4047 21.5427Q32.5777 24.6456 38.8523 24.6456Q45.116 24.6456 50.2898 21.5374Q55.4636 18.4292 58.5316 13.2501Q61.5996 8.07109 61.5996 1.81793L61.5996-10.8292L90.237-10.8292L90.237 1.81793Q90.237 8.07109 93.3399 13.2501Q96.4429 18.4292 101.587 21.5374Q106.731 24.6456 113.007 24.6456Q119.291 24.6456 124.459 21.5427Q129.627 18.4397 132.701 13.2554Q135.775 8.07109 135.775 1.81793Q135.775-4.52616 132.701-9.64726Q129.627-14.7684 124.459-17.7948Q119.291-20.8212 113.017-20.8317L100.35-20.8422L100.35-49.6075L113.017-49.618Q119.291-49.6285 124.459-52.6551Q129.627-55.6817 132.701-60.8079Q135.775-65.9341 135.775-72.268Q135.775-78.5317 132.701-83.7108Q129.627-88.8898 124.459-91.9926Q119.291-95.0953 113.007-95.0953Q106.731-95.0953 101.587-91.9926Q96.4429-88.8898 93.3399-83.7055Q90.237-78.5212 90.237-72.268L90.237-59.6209L61.5996-59.6209L61.5996-72.268Q61.5996-78.5212 58.5316-83.7055Q55.4636-88.8898 50.2898-91.9926Q45.116-95.0953 38.8523-95.0953Q32.5777-95.0953 27.4047-91.9926Q22.2317-88.8898 19.1579-83.7108Q16.084-78.5317 16.084-72.268Q16.084-65.9341 19.1579-60.8079Q22.2317-55.6817 27.4047-52.6551Q32.5777-49.6285 38.8418-49.618ZM38.9679-59.5049Q33.7044-59.5049 29.9536-63.2513Q26.2028-66.9977 26.2028-72.2575Q26.2028-77.4579 29.9326-81.1936Q33.6624-84.9293 38.8523-84.9293Q44.0317-84.9293 47.7833-81.1673Q51.5349-77.4053 51.5349-72.1419L51.5349-59.5049ZM112.891-59.5049L100.371-59.5049L100.371-72.1419Q100.371-77.4053 104.099-81.1673Q107.827-84.9293 113.007-84.9293Q118.185-84.9293 121.92-81.1936Q125.656-77.4579 125.656-72.2575Q125.656-66.9977 121.894-63.2513Q118.132-59.5049 112.891-59.5049ZM61.6101-20.7473L61.6101-49.7024L90.2265-49.7024L90.2265-20.7473ZM38.9679-10.9924L51.5349-10.9924L51.5349 1.64451Q51.5349 6.90799 47.7833 10.67Q44.0317 14.4319 38.8523 14.4319Q33.6624 14.4319 29.9326 10.691Q26.2028 6.95004 26.2028 1.76015Q26.2028-3.51015 29.9536-7.25129Q33.7044-10.9924 38.9679-10.9924ZM112.891-10.9924Q118.132-10.9924 121.894-7.25129Q125.656-3.51015 125.656 1.76015Q125.656 6.95004 121.92 10.691Q118.185 14.4319 113.007 14.4319Q107.827 14.4319 104.099 10.67Q100.371 6.90799 100.371 1.64451L100.371-10.9924Z"/>
  </g>
  <g id="Regular-L" transform="matrix(1 0 0 1 1374.34 1556)">
   <path d="M51.6804-50.7914L51.6804-19.695L38.0609-19.695Q32.0116-19.695 27.0194-16.7761Q22.0273-13.8573 19.0556-8.90391Q16.084-3.95057 16.084 2.17867Q16.084 8.22749 19.0556 13.2336Q22.0273 18.2397 27.0194 21.2379Q32.0116 24.236 38.0609 24.236Q44.1097 24.236 49.1158 21.2379Q54.1219 18.2397 57.0799 13.2336Q60.0378 8.22749 60.0378 2.17867L60.0378-11.4157L90.9533-11.4157L90.9533 2.17867Q90.9533 8.22749 93.9515 13.2336Q96.9496 18.2397 101.915 21.2379Q106.881 24.236 112.958 24.236Q119.006 24.236 123.999 21.2379Q128.991 18.2397 131.963 13.2336Q134.935 8.22749 134.935 2.17867Q134.935-3.95057 131.963-8.90391Q128.991-13.8573 123.999-16.7761Q119.006-19.695 112.958-19.695L99.3911-19.695L99.3911-50.7914L112.958-50.7914Q119.006-50.7914 123.999-53.7105Q128.991-56.6296 131.963-61.5827Q134.935-66.5358 134.935-72.6655Q134.935-78.7144 131.963-83.7205Q128.991-88.7266 123.999-91.7245Q119.006-94.7224 112.958-94.7224Q106.881-94.7224 101.915-91.7245Q96.9496-88.7266 93.9515-83.7205Q90.9533-78.7144 90.9533-72.6655L90.9533-59.0711L60.0378-59.0711L60.0378-72.6655Q60.0378-78.7144 57.0799-83.7205Q54.1219-88.7266 49.1158-91.7245Q44.1097-94.7224 38.0609-94.7224Q32.0116-94.7224 27.0194-91.7245Q22.0273-88.7266 19.0556-83.7205Q16.084-78.7144 16.084-72.6655Q16.084-66.5358 19.0556-61.5827Q22.0273-56.6296 27.0194-53.7105Q32.0116-50.7914 38.0609-50.7914ZM38.0609-58.9656Q32.489-58.9656 28.4791-62.9894Q24.4692-67.0132 24.4692-72.6655Q24.4692-78.2374 28.4791-82.261Q32.489-86.2846 38.0609-86.2846Q43.6328-86.2846 47.6566-82.261Q51.6804-78.2374 51.6804-72.6655L51.6804-58.9656ZM112.958-58.9656L99.3911-58.9656L99.3911-72.6655Q99.3911-78.2374 103.388-82.261Q107.386-86.2846 112.958-86.2846Q118.502-86.2846 122.526-82.261Q126.549-78.2374 126.549-72.6655Q126.549-67.0132 122.526-62.9894Q118.502-58.9656 112.958-58.9656ZM60.0378-19.5894L60.0378-50.897L90.9533-50.897L90.9533-19.5894ZM38.0609-11.5738L51.6804-11.5738L51.6804 2.12613Q51.6804 7.69804 47.6566 11.7216Q43.6328 15.7452 38.0609 15.7452Q32.489 15.7452 28.4791 11.7216Q24.4692 7.69804 24.4692 2.12613Q24.4692-3.5262 28.4791-7.55001Q32.489-11.5738 38.0609-11.5738ZM112.958-11.5738Q118.502-11.5738 122.526-7.55001Q126.549-3.5262 126.549 2.12613Q126.549 7.69804 122.526 11.7216Q118.502 15.7452 112.958 15.7452Q107.386 15.7452 103.388 11.7216Q99.3911 7.69804 99.3911 2.12613L99.3911-11.5738Z"/>
  </g>
  <g id="Light-L" transform="matrix(1 0 0 1 1077.74 1556)">
   <path d="M52.2149-52.0128L52.2149-18.4925L37.3548-18.4925Q31.5152-18.4925 26.6853-15.6405Q21.8554-12.7885 18.9697-7.96872Q16.084-3.14893 16.084 2.77028Q16.084 8.60907 18.9697 13.4626Q21.8554 18.316 26.6853 21.2188Q31.5152 24.1215 37.3548 24.1215Q43.1936 24.1215 48.0471 21.2188Q52.9006 18.316 55.7631 13.4626Q58.6256 8.60907 58.6256 2.77028L58.6256-12.1029L92.1176-12.1029L92.1176 2.77028Q92.1176 8.60907 95.0204 13.4626Q97.9231 18.316 102.736 21.2188Q107.549 24.1215 113.435 24.1215Q119.274 24.1215 124.103 21.2188Q128.933 18.316 131.819 13.4626Q134.706 8.60907 134.706 2.77028Q134.706-3.14893 131.819-7.96872Q128.933-12.7885 124.103-15.6405Q119.274-18.4925 113.435-18.4925L98.6087-18.4925L98.6087-52.0128L113.435-52.0128Q119.274-52.0128 124.103-54.8652Q128.933-57.7176 131.819-62.537Q134.706-67.3564 134.706-73.2764Q134.706-79.1152 131.819-83.9687Q128.933-88.8221 124.103-91.7245Q119.274-94.6268 113.435-94.6268Q107.549-94.6268 102.736-91.7245Q97.9231-88.8221 95.0204-83.9687Q92.1176-79.1152 92.1176-73.2764L92.1176-58.4032L58.6256-58.4032L58.6256-73.2764Q58.6256-79.1152 55.7631-83.9687Q52.9006-88.8221 48.0471-91.7245Q43.1936-94.6268 37.3548-94.6268Q31.5152-94.6268 26.6853-91.7245Q21.8554-88.8221 18.9697-83.9687Q16.084-79.1152 16.084-73.2764Q16.084-67.3564 18.9697-62.537Q21.8554-57.7176 26.6853-54.8652Q31.5152-52.0128 37.3548-52.0128ZM37.3548-58.3358Q31.2676-58.3358 26.9047-62.7223Q22.5418-67.1088 22.5418-73.2764Q22.5418-79.3636 26.9047-83.7497Q31.2676-88.1357 37.3548-88.1357Q43.442-88.1357 47.8285-83.7497Q52.2149-79.3636 52.2149-73.2764L52.2149-58.3358ZM113.435-58.3358L98.6087-58.3358L98.6087-73.2764Q98.6087-79.3636 102.978-83.7497Q107.348-88.1357 113.435-88.1357Q119.476-88.1357 123.862-83.7497Q128.248-79.3636 128.248-73.2764Q128.248-67.1088 123.862-62.7223Q119.476-58.3358 113.435-58.3358ZM58.6256-18.4251L58.6256-52.0802L92.1176-52.0802L92.1176-18.4251ZM37.3548-12.2036L52.2149-12.2036L52.2149 2.73698Q52.2149 8.82419 47.8285 13.2103Q43.442 17.5963 37.3548 17.5963Q31.2676 17.5963 26.9047 13.2103Q22.5418 8.82419 22.5418 2.73698Q22.5418-3.43065 26.9047-7.81711Q31.2676-12.2036 37.3548-12.2036ZM113.435-12.2036Q119.476-12.2036 123.862-7.81711Q128.248-3.43065 128.248 2.73698Q128.248 8.82419 123.862 13.2103Q119.476 17.5963 113.435 17.5963Q107.348 17.5963 102.978 13.2103Q98.6087 8.82419 98.6087 2.73698L98.6087-12.2036Z"/>
  </g>
  <g id="Thin-L" transform="matrix(1 0 0 1 781.179 1556)">
   <path d="M52.9219-53.6282L52.9219-16.9022L36.421-16.9022Q30.8587-16.9022 26.2434-14.1386Q21.6281-11.375 18.856-6.73185Q16.084-2.0887 16.084 3.55273Q16.084 9.11374 18.856 13.7654Q21.6281 18.417 26.2434 21.1935Q30.8587 23.9701 36.421 23.9701Q41.982 23.9701 46.6336 21.1935Q51.2852 18.417 54.0216 13.7654Q56.7579 9.11374 56.7579 3.55273L56.7579-13.0117L93.6575-13.0117L93.6575 3.55273Q93.6575 9.11374 96.4341 13.7654Q99.2106 18.417 103.821 21.1935Q108.432 23.9701 114.066 23.9701Q119.627 23.9701 124.242 21.1935Q128.857 18.417 131.63 13.7654Q134.403 9.11374 134.403 3.55273Q134.403-2.0887 131.63-6.73185Q128.857-11.375 124.242-14.1386Q119.627-16.9022 114.066-16.9022L97.5739-16.9022L97.5739-53.6282L114.066-53.6282Q119.627-53.6282 124.242-56.3924Q128.857-59.1565 131.63-63.7991Q134.403-68.4416 134.403-74.0843Q134.403-79.6453 131.63-84.2969Q128.857-88.9485 124.242-91.7245Q119.627-94.5005 114.066-94.5005Q108.432-94.5005 103.821-91.7245Q99.2106-88.9485 96.4341-84.2969Q93.6575-79.6453 93.6575-74.0843L93.6575-57.5198L56.7579-57.5198L56.7579-74.0843Q56.7579-79.6453 54.0216-84.2969Q51.2852-88.9485 46.6336-91.7245Q41.982-94.5005 36.421-94.5005Q30.8587-94.5005 26.2434-91.7245Q21.6281-88.9485 18.856-84.2969Q16.084-79.6453 16.084-74.0843Q16.084-68.4416 18.856-63.7991Q21.6281-59.1565 26.2434-56.3924Q30.8587-53.6282 36.421-53.6282ZM36.421-57.5029Q29.6522-57.5029 24.8224-62.369Q19.9926-67.2351 19.9926-74.0843Q19.9926-80.853 24.8224-85.7185Q29.6522-90.584 36.421-90.584Q43.1897-90.584 48.0558-85.7185Q52.9219-80.853 52.9219-74.0843L52.9219-57.5029ZM114.066-57.5029L97.5739-57.5029L97.5739-74.0843Q97.5739-80.853 102.436-85.7185Q107.297-90.584 114.066-90.584Q120.763-90.584 125.629-85.7185Q130.494-80.853 130.494-74.0843Q130.494-67.2351 125.629-62.369Q120.763-57.5029 114.066-57.5029ZM56.7579-16.8853L56.7579-53.6451L93.6575-53.6451L93.6575-16.8853ZM36.421-13.0365L52.9219-13.0365L52.9219 3.54488Q52.9219 10.3136 48.0558 15.1791Q43.1897 20.0446 36.421 20.0446Q29.6522 20.0446 24.8224 15.1791Q19.9926 10.3136 19.9926 3.54488Q19.9926-3.30427 24.8224-8.17038Q29.6522-13.0365 36.421-13.0365ZM114.066-13.0365Q120.763-13.0365 125.629-8.17038Q130.494-3.30427 130.494 3.54488Q130.494 10.3136 125.629 15.1791Q120.763 20.0446 114.066 20.0446Q107.297 20.0446 102.436 15.1791Q97.5739 10.3136 97.5739 3.54488L97.5739-13.0365Z"/>
  </g>
  <g id="Ultralight-L" transform="matrix(1 0 0 1 484.545 1556)">
   <path d="M53.284-54.4556L53.284-16.0876L35.9426-16.0876Q30.5225-16.0876 26.0171-13.3693Q21.5116-10.651 18.7978-6.09833Q16.084-1.54565 16.084 3.9535Q16.084 9.37223 18.7978 13.9204Q21.5116 18.4687 26.0171 21.1806Q30.5225 23.8926 35.9426 23.8926Q41.3614 23.8926 45.9096 21.1806Q50.4578 18.4687 53.1295 13.9204Q55.8013 9.37223 55.8013 3.9535L55.8013-13.4772L94.4462-13.4772L94.4462 3.9535Q94.4462 9.37223 97.1582 13.9204Q99.8701 18.4687 104.377 21.1806Q108.885 23.8926 114.389 23.8926Q119.808 23.8926 124.313 21.1806Q128.819 18.4687 131.533 13.9204Q134.248 9.37223 134.248 3.9535Q134.248-1.54565 131.533-6.09833Q128.819-10.651 124.313-13.3693Q119.808-16.0876 114.389-16.0876L97.0439-16.0876L97.0439-54.4556L114.389-54.4556Q119.808-54.4556 124.313-57.1746Q128.819-59.8936 131.533-64.4455Q134.248-68.9975 134.248-74.4981Q134.248-79.9168 131.533-84.465Q128.819-89.0132 124.313-91.7245Q119.808-94.4357 114.389-94.4357Q108.885-94.4357 104.377-91.7245Q99.8701-89.0132 97.1582-84.465Q94.4462-79.9168 94.4462-74.4981L94.4462-57.0674L55.8013-57.0674L55.8013-74.4981Q55.8013-79.9168 53.1295-84.465Q50.4578-89.0132 45.9096-91.7245Q41.3614-94.4357 35.9426-94.4357Q30.5225-94.4357 26.0171-91.7245Q21.5116-89.0132 18.7978-84.465Q16.084-79.9168 16.084-74.4981Q16.084-68.9975 18.7978-64.4455Q21.5116-59.8936 26.0171-57.1746Q30.5225-54.4556 35.9426-54.4556ZM35.9426-57.0763Q28.8248-57.0763 23.7559-62.1881Q18.6869-67.2999 18.6869-74.4981Q18.6869-81.6159 23.7559-86.727Q28.8248-91.838 35.9426-91.838Q43.0604-91.838 48.1722-86.727Q53.284-81.6159 53.284-74.4981L53.284-57.0763ZM114.389-57.0763L97.0439-57.0763L97.0439-74.4981Q97.0439-81.6159 102.158-86.727Q107.271-91.838 114.389-91.838Q121.423-91.838 126.534-86.727Q131.645-81.6159 131.645-74.4981Q131.645-67.2999 126.534-62.1881Q121.423-57.0763 114.389-57.0763ZM55.8013-16.0965L55.8013-54.4466L94.4462-54.4466L94.4462-16.0965ZM35.9426-13.4631L53.284-13.4631L53.284 3.95868Q53.284 11.0765 48.1722 16.1875Q43.0604 21.2986 35.9426 21.2986Q28.8248 21.2986 23.7559 16.1875Q18.6869 11.0765 18.6869 3.95868Q18.6869-3.23954 23.7559-8.35132Q28.8248-13.4631 35.9426-13.4631ZM114.389-13.4631Q121.423-13.4631 126.534-8.35132Q131.645-3.23954 131.645 3.95868Q131.645 11.0765 126.534 16.1875Q121.423 21.2986 114.389 21.2986Q107.271 21.2986 102.158 16.1875Q97.0439 11.0765 97.0439 3.95868L97.0439-13.4631Z"/>
  </g>
  <g id="Black-M" transform="matrix(1 0 0 1 2872.66 1126)">
   <path d="M39.5451-41.2718L39.5451-29.0156L33.4879-28.9585Q27.7063-28.9014 22.9119-26.0787Q18.1174-23.2559 15.2892-18.5527Q12.4609-13.8496 12.4609-8.00562Q12.4609-2.28108 15.2892 2.51324Q18.1174 7.30756 22.9119 10.1671Q27.7063 13.0266 33.545 13.0266Q39.3267 13.0266 44.0639 10.1385Q48.8011 7.25046 51.658 2.48469Q54.515-2.28108 54.515-8.00562L54.515-13.8286L66.9713-13.8286L66.9713-8.00562Q66.9713-2.28108 69.8308 2.48469Q72.6903 7.25046 77.4535 10.1385Q82.2167 13.0266 87.9409 13.0266Q93.8367 13.0266 98.6026 10.1671Q103.369 7.30756 106.197 2.51324Q109.025-2.28108 109.025-8.00562Q109.025-13.8496 106.197-18.5527Q103.369-23.2559 98.6026-26.0787Q93.8367-28.9014 87.998-28.9585L81.9463-29.0156L81.9463-41.2718L87.998-41.3289Q93.8367-41.386 98.6026-44.2088Q103.369-47.0315 106.197-51.7632Q109.025-56.495 109.025-62.2818Q109.025-68.0634 106.197-72.8292Q103.369-77.595 98.6026-80.4545Q93.8367-83.314 87.9409-83.314Q82.2167-83.314 77.4535-80.4545Q72.6903-77.595 69.8308-72.8006Q66.9713-68.0063 66.9713-62.2818L66.9713-56.4588L54.515-56.4588L54.515-62.2818Q54.515-68.0063 51.658-72.8006Q48.8011-77.595 44.0639-80.4545Q39.3267-83.314 33.545-83.314Q27.7063-83.314 22.9119-80.4545Q18.1174-77.595 15.2892-72.8292Q12.4609-68.0634 12.4609-62.2818Q12.4609-56.495 15.2892-51.7632Q18.1174-47.0315 22.9119-44.2088Q27.7063-41.386 33.4879-41.3289ZM34.1731-56.3336Q31.356-56.3336 29.536-58.0678Q27.716-59.8021 27.716-62.2247Q27.716-64.6992 29.4218-66.3764Q31.1276-68.0535 33.545-68.0535Q35.9054-68.0535 37.6682-66.2336Q39.4309-64.4137 39.4309-61.5966L39.4309-56.3336ZM87.3128-56.3336L82.0605-56.3336L82.0605-61.5966Q82.0605-64.4137 83.8205-66.2336Q85.5806-68.0535 87.9409-68.0535Q90.4157-68.0535 92.0928-66.3764Q93.77-64.6992 93.77-62.2247Q93.77-59.8021 91.9501-58.0678Q90.1302-56.3336 87.3128-56.3336ZM54.5721-29.0046L54.5721-41.2828L66.9142-41.2828L66.9142-29.0046ZM34.1731-13.9593L39.4309-13.9593L39.4309-8.69627Q39.4309-5.87917 37.6682-4.05929Q35.9054-2.2394 33.545-2.2394Q31.1276-2.2394 29.4218-3.94509Q27.716-5.65078 27.716-8.06821Q27.716-10.5479 29.536-12.2536Q31.356-13.9593 34.1731-13.9593ZM87.3128-13.9593Q90.1302-13.9593 91.9501-12.2536Q93.77-10.5479 93.77-8.06821Q93.77-5.65078 92.0928-3.94509Q90.4157-2.2394 87.9409-2.2394Q85.5806-2.2394 83.8205-4.05929Q82.0605-5.87917 82.0605-8.69627L82.0605-13.9593Z"/>
  </g>
  <g id="Heavy-M" transform="matrix(1 0 0 1 2576.46 1126)">
   <path d="M39.5898-42.5269L39.5898-27.8035L32.6388-27.7598Q27.0874-27.7162 22.4898-25.017Q17.8922-22.3177 15.1766-17.8009Q12.4609-13.284 12.4609-7.67034Q12.4609-2.16259 15.1766 2.43611Q17.8922 7.03481 22.4898 9.78049Q27.0874 12.5262 32.6824 12.5262Q38.2338 12.5262 42.7888 9.75868Q47.3439 6.99119 50.0803 2.4143Q52.8166-2.16259 52.8166-7.67034L52.8166-14.4327L67.6393-14.4327L67.6393-7.67034Q67.6393-2.16259 70.385 2.4143Q73.1307 6.99119 77.6982 9.75868Q82.2657 12.5262 87.7758 12.5262Q93.4144 12.5262 97.9901 9.78049Q102.566 7.03481 105.282 2.43611Q107.997-2.16259 107.997-7.67034Q107.997-13.284 105.282-17.8009Q102.566-22.3177 97.9901-25.017Q93.4144-27.7162 87.8194-27.7598L80.8848-27.8035L80.8848-42.5269L87.8194-42.5705Q93.4144-42.6142 97.9901-45.3134Q102.566-48.0127 105.282-52.5513Q107.997-57.09 107.997-62.6601Q107.997-68.2114 105.282-72.7883Q102.566-77.3652 97.9901-80.1109Q93.4144-82.8565 87.7758-82.8565Q82.2657-82.8565 77.6982-80.1109Q73.1307-77.3652 70.385-72.7665Q67.6393-68.1678 67.6393-62.6601L67.6393-55.8977L52.8166-55.8977L52.8166-62.6601Q52.8166-68.1678 50.0803-72.7665Q47.3439-77.3652 42.7888-80.1109Q38.2338-82.8565 32.6824-82.8565Q27.0874-82.8565 22.4898-80.1109Q17.8922-77.3652 15.1766-72.7883Q12.4609-68.2114 12.4609-62.6601Q12.4609-57.09 15.1766-52.5513Q17.8922-48.0127 22.4898-45.3134Q27.0874-42.6142 32.6388-42.5705ZM33.1622-55.7776Q30.0605-55.7776 27.9843-57.7895Q25.9081-59.8014 25.9081-62.6165Q25.9081-65.4564 27.8971-67.4247Q29.886-69.393 32.6824-69.393Q35.4351-69.393 37.4688-67.3156Q39.5026-65.2383 39.5026-62.1366L39.5026-55.7776ZM87.2959-55.7776L80.972-55.7776L80.972-62.1366Q80.972-65.2383 82.9975-67.3156Q85.023-69.393 87.7758-69.393Q90.6135-69.393 92.5818-67.4247Q94.55-65.4564 94.55-62.6165Q94.55-59.8014 92.4727-57.7895Q90.3954-55.7776 87.2959-55.7776ZM52.8602-27.7706L52.8602-42.5597L67.5957-42.5597L67.5957-27.7706ZM33.1622-14.5692L39.5026-14.5692L39.5026-8.21019Q39.5026-5.10846 37.4688-3.03116Q35.4351-0.953849 32.6824-0.953849Q29.886-0.953849 27.8971-2.94391Q25.9081-4.93398 25.9081-7.73035Q25.9081-10.589 27.9843-12.5791Q30.0605-14.5692 33.1622-14.5692ZM87.2959-14.5692Q90.3954-14.5692 92.4727-12.5791Q94.55-10.589 94.55-7.73035Q94.55-4.93398 92.5818-2.94391Q90.6135-0.953849 87.7758-0.953849Q85.023-0.953849 82.9975-3.03116Q80.972-5.10846 80.972-8.21019L80.972-14.5692Z"/>
  </g>
  <g id="Bold-M" transform="matrix(1 0 0 1 2280.32 1126)">
   <path d="M39.6398-43.9309L39.6398-26.4475L31.6888-26.419Q26.395-26.3904 22.0177-23.8293Q17.6404-21.2682 15.0507-16.9598Q12.4609-12.6514 12.4609-7.29528Q12.4609-2.03004 15.0507 2.34984Q17.6404 6.72971 22.0177 9.34804Q26.395 11.9664 31.7174 11.9664Q37.0112 11.9664 41.3625 9.33377Q45.7138 6.70116 48.3153 2.33556Q50.9167-2.03004 50.9167-7.29528L50.9167-15.1085L68.3866-15.1085L68.3866-7.29528Q68.3866-2.03004 71.0049 2.33556Q73.6232 6.70116 77.9719 9.33377Q82.3206 11.9664 87.591 11.9664Q92.9419 11.9664 97.3049 9.34804Q101.668 6.72971 104.258 2.34984Q106.847-2.03004 106.847-7.29528Q106.847-12.6514 104.258-16.9598Q101.668-21.2682 97.3049-23.8293Q92.9419-26.3904 87.6196-26.419L79.6973-26.4475L79.6973-43.9309L87.6196-43.9594Q92.9419-43.988 97.3049-46.5491Q101.668-49.1103 104.258-53.4329Q106.847-57.7556 106.847-63.0832Q106.847-68.377 104.258-72.7426Q101.668-77.1082 97.3049-79.7265Q92.9419-82.3448 87.591-82.3448Q82.3206-82.3448 77.9719-79.7265Q73.6232-77.1082 71.0049-72.7284Q68.3866-68.3485 68.3866-63.0832L68.3866-55.27L50.9167-55.27L50.9167-63.0832Q50.9167-68.3485 48.3153-72.7284Q45.7138-77.1082 41.3625-79.7265Q37.0112-82.3448 31.7174-82.3448Q26.395-82.3448 22.0177-79.7265Q17.6404-77.1082 15.0507-72.7426Q12.4609-68.377 12.4609-63.0832Q12.4609-57.7556 15.0507-53.4329Q17.6404-49.1103 22.0177-46.5491Q26.395-43.988 31.6888-43.9594ZM32.0314-55.1557Q28.6113-55.1557 26.2486-57.4781Q23.8858-59.8006 23.8858-63.0547Q23.8858-66.3035 26.1915-68.5974Q28.4971-70.8913 31.7174-70.8913Q34.9091-70.8913 37.2459-68.5261Q39.5827-66.1608 39.5827-62.7407L39.5827-55.1557ZM87.277-55.1557L79.7544-55.1557L79.7544-62.7407Q79.7544-66.1608 82.0768-68.5261Q84.3993-70.8913 87.591-70.8913Q90.8348-70.8913 93.1287-68.5974Q95.4226-66.3035 95.4226-63.0547Q95.4226-59.8006 93.0573-57.4781Q90.692-55.1557 87.277-55.1557ZM50.9453-26.3903L50.9453-43.9881L68.358-43.9881L68.358-26.3903ZM32.0314-15.2514L39.5827-15.2514L39.5827-7.66644Q39.5827-4.24632 37.2459-1.88105Q34.9091 0.484226 31.7174 0.484226Q28.4971 0.484226 26.1915-1.82395Q23.8858-4.13212 23.8858-7.35241Q23.8858-10.635 26.2486-12.9432Q28.6113-15.2514 32.0314-15.2514ZM87.277-15.2514Q90.692-15.2514 93.0573-12.9432Q95.4226-10.635 95.4226-7.35241Q95.4226-4.13212 93.1287-1.82395Q90.8348 0.484226 87.591 0.484226Q84.3993 0.484226 82.0768-1.88105Q79.7544-4.24632 79.7544-7.66644L79.7544-15.2514Z"/>
  </g>
  <g id="Semibold-M" transform="matrix(1 0 0 1 1984.01 1126)">
   <path d="M39.6742-44.8988L39.6742-25.5128L31.034-25.4946Q25.9176-25.4764 21.6922-23.0106Q17.4668-20.5447 14.9638-16.38Q12.4609-12.2152 12.4609-7.03672Q12.4609-1.93866 14.9638 2.29036Q17.4668 6.51937 21.6922 9.04991Q25.9176 11.5805 31.0521 11.5805Q36.1683 11.5805 40.3792 9.04083Q44.5901 6.50121 47.0985 2.28128Q49.607-1.93866 49.607-7.03672L49.607-15.5744L68.9017-15.5744L68.9017-7.03672Q68.9017-1.93866 71.4323 2.28128Q73.9628 6.50121 78.1606 9.04083Q82.3584 11.5805 87.4637 11.5805Q92.6162 11.5805 96.8325 9.04991Q101.049 6.51937 103.552 2.29036Q106.055-1.93866 106.055-7.03672Q106.055-12.2152 103.552-16.38Q101.049-20.5447 96.8325-23.0106Q92.6162-25.4764 87.4818-25.4946L78.8787-25.5128L78.8787-44.8988L87.4818-44.917Q92.6162-44.9351 96.8325-47.401Q101.049-49.867 103.552-54.0407Q106.055-58.2145 106.055-63.375Q106.055-68.4912 103.552-72.7111Q101.049-76.931 96.8325-79.4615Q92.6162-81.992 87.4637-81.992Q82.3584-81.992 78.1606-79.4615Q73.9628-76.931 71.4323-72.702Q68.9017-68.473 68.9017-63.375L68.9017-54.8373L49.607-54.8373L49.607-63.375Q49.607-68.473 47.0985-72.702Q44.5901-76.931 40.3792-79.4615Q36.1683-81.992 31.0521-81.992Q25.9176-81.992 21.6922-79.4615Q17.4668-76.931 14.9638-72.7111Q12.4609-68.4912 12.4609-63.375Q12.4609-58.2145 14.9638-54.0407Q17.4668-49.867 21.6922-47.401Q25.9176-44.9351 31.034-44.917ZM31.2518-54.7269Q27.6122-54.7269 25.0519-57.2635Q22.4917-59.8001 22.4917-63.3568Q22.4917-66.8875 25.0156-69.4059Q27.5396-71.9243 31.0521-71.9243Q34.5465-71.9243 37.0922-69.3605Q39.6379-66.7967 39.6379-63.1571L39.6379-54.7269ZM87.2639-54.7269L78.915-54.7269L78.915-63.1571Q78.915-66.7967 81.4421-69.3605Q83.9693-71.9243 87.4637-71.9243Q90.9873-71.9243 93.5057-69.4059Q96.0241-66.8875 96.0241-63.3568Q96.0241-59.8001 93.4603-57.2635Q90.8965-54.7269 87.2639-54.7269ZM49.6251-25.4387L49.6251-44.9729L68.8836-44.9729L68.8836-25.4387ZM31.2518-15.7218L39.6379-15.7218L39.6379-7.29159Q39.6379-3.65196 37.0922-1.08817Q34.5465 1.47563 31.0521 1.47563Q27.5396 1.47563 25.0156-1.05185Q22.4917-3.57933 22.4917-7.09186Q22.4917-10.6667 25.0519-13.1942Q27.6122-15.7218 31.2518-15.7218ZM87.2639-15.7218Q90.8965-15.7218 93.4603-13.1942Q96.0241-10.6667 96.0241-7.09186Q96.0241-3.57933 93.5057-1.05185Q90.9873 1.47563 87.4637 1.47563Q83.9693 1.47563 81.4421-1.08817Q78.915-3.65196 78.915-7.29159L78.915-15.7218Z"/>
  </g>
  <g id="Medium-M" transform="matrix(1 0 0 1 1687.6 1126)">
   <path d="M39.7003-45.6327L39.7003-24.804L30.5374-24.7937Q25.5557-24.7834 21.4454-22.3898Q17.3351-19.9961 14.898-15.9403Q12.4609-11.8846 12.4609-6.84067Q12.4609-1.86937 14.898 2.24526Q17.3351 6.35988 21.4454 8.82386Q25.5557 11.2878 30.5477 11.2878Q35.5293 11.2878 39.6336 8.81872Q43.738 6.34961 46.1759 2.24012Q48.6139-1.86937 48.6139-6.84067L48.6139-15.9276L69.2924-15.9276L69.2924-6.84067Q69.2924-1.86937 71.7563 2.24012Q74.2203 6.34961 78.3037 8.81872Q82.3871 11.2878 87.3671 11.2878Q92.3692 11.2878 96.4744 8.82386Q100.58 6.35988 103.017 2.24526Q105.454-1.86937 105.454-6.84067Q105.454-11.8846 103.017-15.9403Q100.58-19.9961 96.4744-22.3898Q92.3692-24.7834 87.3774-24.7937L78.258-24.804L78.258-45.6327L87.3774-45.643Q92.3692-45.6533 96.4744-48.047Q100.58-50.4407 103.017-54.5016Q105.454-58.5624 105.454-63.5962Q105.454-68.5777 103.017-72.6872Q100.58-76.7967 96.4744-79.2606Q92.3692-81.7245 87.3671-81.7245Q82.3871-81.7245 78.3037-79.2606Q74.2203-76.7967 71.7563-72.6821Q69.2924-68.5675 69.2924-63.5962L69.2924-54.5092L48.6139-54.5092L48.6139-63.5962Q48.6139-68.5675 46.1759-72.6821Q43.738-76.7967 39.6336-79.2606Q35.5293-81.7245 30.5477-81.7245Q25.5557-81.7245 21.4454-79.2606Q17.3351-76.7967 14.898-72.6872Q12.4609-68.5777 12.4609-63.5962Q12.4609-58.5624 14.898-54.5016Q17.3351-50.4407 21.4454-48.047Q25.5557-45.6533 30.5374-45.643ZM30.6607-54.4018Q26.8547-54.4018 24.1446-57.1008Q21.4346-59.7997 21.4346-63.5859Q21.4346-67.3303 24.1241-70.0189Q26.8136-72.7075 30.5477-72.7075Q34.2715-72.7075 36.9756-69.9932Q39.6798-67.2789 39.6798-63.4728L39.6798-54.4018ZM87.254-54.4018L78.2785-54.4018L78.2785-63.4728Q78.2785-67.2789 80.9609-69.9932Q83.6432-72.7075 87.3671-72.7075Q91.103-72.7075 93.7916-70.0189Q96.4802-67.3303 96.4802-63.5859Q96.4802-59.7997 93.7659-57.1008Q91.0516-54.4018 87.254-54.4018ZM48.6242-24.7171L48.6242-45.7196L69.2821-45.7196L69.2821-24.7171ZM30.6607-16.0784L39.6798-16.0784L39.6798-7.00735Q39.6798-3.20129 36.9756-0.486971Q34.2715 2.22735 30.5477 2.22735Q26.8136 2.22735 24.1241-0.466416Q21.4346-3.16018 21.4346-6.8943Q21.4346-10.6907 24.1446-13.3846Q26.8547-16.0784 30.6607-16.0784ZM87.254-16.0784Q91.0516-16.0784 93.7659-13.3846Q96.4802-10.6907 96.4802-6.8943Q96.4802-3.16018 93.7916-0.466416Q91.103 2.22735 87.3671 2.22735Q83.6432 2.22735 80.9609-0.486971Q78.2785-3.20129 78.2785-7.00735L78.2785-16.0784Z"/>
  </g>
  <g id="Regular-M" transform="matrix(1 0 0 1 1391.28 1126)">
   <path d="M39.7344-46.59L39.7344-23.8795L29.8897-23.8795Q25.0836-23.8795 21.1235-21.58Q17.1634-19.2805 14.8122-15.3669Q12.4609-11.4532 12.4609-6.58495Q12.4609-1.77899 14.8122 2.18643Q17.1634 6.15186 21.1235 8.529Q25.0836 10.9061 29.8897 10.9061Q34.6957 10.9061 38.6611 8.529Q42.6265 6.15186 44.9725 2.18643Q47.3185-1.77899 47.3185-6.58495L47.3185-16.3884L69.8019-16.3884L69.8019-6.58495Q69.8019-1.77899 72.179 2.18643Q74.5562 6.15186 78.4903 8.529Q82.4245 10.9061 87.2411 10.9061Q92.0471 10.9061 96.0072 8.529Q99.9673 6.15186 102.319 2.18643Q104.67-1.77899 104.67-6.58495Q104.67-11.4532 102.319-15.3669Q99.9673-19.2805 96.0072-21.58Q92.0471-23.8795 87.2411-23.8795L77.4483-23.8795L77.4483-46.59L87.2411-46.59Q92.0471-46.59 96.0072-48.8895Q99.9673-51.1891 102.319-55.1027Q104.67-59.0162 104.67-63.8847Q104.67-68.6906 102.319-72.6561Q99.9673-76.6215 96.0072-78.9985Q92.0471-81.3756 87.2411-81.3756Q82.4245-81.3756 78.4903-78.9985Q74.5562-76.6215 72.179-72.6561Q69.8019-68.6906 69.8019-63.8847L69.8019-54.0812L47.3185-54.0812L47.3185-63.8847Q47.3185-68.6906 44.9725-72.6561Q42.6265-76.6215 38.6611-78.9985Q34.6957-81.3756 29.8897-81.3756Q25.0836-81.3756 21.1235-78.9985Q17.1634-76.6215 14.8122-72.6561Q12.4609-68.6906 12.4609-63.8847Q12.4609-59.0162 14.8122-55.1027Q17.1634-51.1891 21.1235-48.8895Q25.0836-46.59 29.8897-46.59ZM29.8897-53.9777Q25.8666-53.9777 22.9611-56.8885Q20.0557-59.7992 20.0557-63.8847Q20.0557-67.9078 22.9611-70.8185Q25.8666-73.7291 29.8897-73.7291Q33.9129-73.7291 36.8236-70.8185Q39.7344-67.9078 39.7344-63.8847L39.7344-53.9777ZM87.2411-53.9777L77.4483-53.9777L77.4483-63.8847Q77.4483-67.9078 80.3331-70.8185Q83.218-73.7291 87.2411-73.7291Q91.2538-73.7291 94.1645-70.8185Q97.0751-67.9078 97.0751-63.8847Q97.0751-59.7992 94.1645-56.8885Q91.2538-53.9777 87.2411-53.9777ZM47.3185-23.776L47.3185-46.6935L69.8019-46.6935L69.8019-23.776ZM29.8897-16.5436L39.7344-16.5436L39.7344-6.63662Q39.7344-2.61346 36.8236 0.297196Q33.9129 3.20785 29.8897 3.20785Q25.8666 3.20785 22.9611 0.297196Q20.0557-2.61346 20.0557-6.63662Q20.0557-10.7221 22.9611-13.6328Q25.8666-16.5436 29.8897-16.5436ZM87.2411-16.5436Q91.2538-16.5436 94.1645-13.6328Q97.0751-10.7221 97.0751-6.63662Q97.0751-2.61346 94.1645 0.297196Q91.2538 3.20785 87.2411 3.20785Q83.218 3.20785 80.3331 0.297196Q77.4483-2.61346 77.4483-6.63662L77.4483-16.5436Z"/>
  </g>
  <g id="Light-M" transform="matrix(1 0 0 1 1094.67 1126)">
   <path d="M40.2136-47.685L40.2136-22.8014L29.2567-22.8014Q24.6386-22.8014 20.8239-20.5619Q17.0093-18.3224 14.7351-14.5284Q12.4609-10.7345 12.4609-6.05454Q12.4609-1.43688 14.7351 2.3917Q17.0093 6.22028 20.8239 8.5119Q24.6386 10.8035 29.2567 10.8035Q33.8743 10.8035 37.7029 8.5119Q41.5315 6.22028 43.792 2.3917Q46.0524-1.43688 46.0524-6.05454L46.0524-17.0045L70.8457-17.0045L70.8457-6.05454Q70.8457-1.43688 73.1373 2.3917Q75.429 6.22028 79.2262 8.5119Q83.0234 10.8035 87.6689 10.8035Q92.2866 10.8035 96.1012 8.5119Q99.9158 6.22028 102.19 2.3917Q104.465-1.43688 104.465-6.05454Q104.465-10.7345 102.19-14.5284Q99.9158-18.3224 96.1012-20.5619Q92.2866-22.8014 87.6689-22.8014L76.7469-22.8014L76.7469-47.685L87.6689-47.685Q92.2866-47.685 96.1012-49.9248Q99.9158-52.1645 102.19-55.9582Q104.465-59.7519 104.465-64.4323Q104.465-69.05 102.19-72.8786Q99.9158-76.7071 96.1012-78.9985Q92.2866-81.2899 87.6689-81.2899Q83.0234-81.2899 79.2262-78.9985Q75.429-76.7071 73.1373-72.8786Q70.8457-69.05 70.8457-64.4323L70.8457-53.4824L46.0524-53.4824L46.0524-64.4323Q46.0524-69.05 43.792-72.8786Q41.5315-76.7071 37.7029-78.9985Q33.8743-81.2899 29.2567-81.2899Q24.6386-81.2899 20.8239-78.9985Q17.0093-76.7071 14.7351-72.8786Q12.4609-69.05 12.4609-64.4323Q12.4609-59.7519 14.7351-55.9582Q17.0093-52.1645 20.8239-49.9248Q24.6386-47.685 29.2567-47.685ZM29.2567-53.4131Q24.7715-53.4131 21.5496-56.649Q18.3276-59.8849 18.3276-64.4323Q18.3276-68.9175 21.5496-72.1531Q24.7715-75.3888 29.2567-75.3888Q33.7418-75.3888 36.9777-72.1531Q40.2136-68.9175 40.2136-64.4323L40.2136-53.4131ZM87.6689-53.4131L76.7469-53.4131L76.7469-64.4323Q76.7469-68.9175 79.9653-72.1531Q83.1838-75.3888 87.6689-75.3888Q92.1266-75.3888 95.3623-72.1531Q98.5979-68.9175 98.5979-64.4323Q98.5979-59.8849 95.3623-56.649Q92.1266-53.4131 87.6689-53.4131ZM46.0524-22.7321L46.0524-47.7543L70.8457-47.7543L70.8457-22.7321ZM29.2567-17.1082L40.2136-17.1082L40.2136-6.08896Q40.2136-1.60382 36.9777 1.63184Q33.7418 4.8675 29.2567 4.8675Q24.7715 4.8675 21.5496 1.63184Q18.3276-1.60382 18.3276-6.08896Q18.3276-10.6364 21.5496-13.8723Q24.7715-17.1082 29.2567-17.1082ZM87.6689-17.1082Q92.1266-17.1082 95.3623-13.8723Q98.5979-10.6364 98.5979-6.08896Q98.5979-1.60382 95.3623 1.63184Q92.1266 4.8675 87.6689 4.8675Q83.1838 4.8675 79.9653 1.63184Q76.7469-1.60382 76.7469-6.08896L76.7469-17.1082Z"/>
  </g>
  <g id="Thin-M" transform="matrix(1 0 0 1 798.095 1126)">
   <path d="M40.8474-49.1333L40.8474-21.3756L28.4194-21.3756Q24.05-21.3756 20.4277-19.2153Q16.8055-17.0551 14.6332-13.4195Q12.4609-9.78395 12.4609-5.35303Q12.4609-0.98442 14.6332 2.66318Q16.8055 6.31077 20.4277 8.48927Q24.05 10.6678 28.4194 10.6678Q32.7881 10.6678 36.4356 8.48927Q40.0832 6.31077 42.2306 2.66318Q44.3779-0.98442 44.3779-5.35303L44.3779-17.8193L72.2263-17.8193L72.2263-5.35303Q72.2263-0.98442 74.4048 2.66318Q76.5833 6.31077 80.1993 8.48927Q83.8154 10.6678 88.2347 10.6678Q92.6033 10.6678 96.2255 8.48927Q99.8478 6.31077 102.02 2.66318Q104.193-0.98442 104.193-5.35303Q104.193-9.78395 102.02-13.4195Q99.8478-17.0551 96.2255-19.2153Q92.6033-21.3756 88.2347-21.3756L75.8191-21.3756L75.8191-49.1333L88.2347-49.1333Q92.6033-49.1333 96.2255-51.2939Q99.8478-53.4546 102.02-57.0897Q104.193-60.7249 104.193-65.1567Q104.193-69.5253 102.02-73.1729Q99.8478-76.8205 96.2255-78.9985Q92.6033-81.1766 88.2347-81.1766Q83.8154-81.1766 80.1993-78.9985Q76.5833-76.8205 74.4048-73.1729Q72.2263-69.5253 72.2263-65.1567L72.2263-52.6904L44.3779-52.6904L44.3779-65.1567Q44.3779-69.5253 42.2306-73.1729Q40.0832-76.8205 36.4356-78.9985Q32.7881-81.1766 28.4194-81.1766Q24.05-81.1766 20.4277-78.9985Q16.8055-76.8205 14.6332-73.1729Q12.4609-69.5253 12.4609-65.1567Q12.4609-60.7249 14.6332-57.0897Q16.8055-53.4546 20.4277-51.2939Q24.05-49.1333 28.4194-49.1333ZM28.4194-52.6663Q23.3233-52.6663 19.6827-56.3323Q16.0421-59.9982 16.0421-65.1567Q16.0421-70.2528 19.6827-73.9183Q23.3233-77.5838 28.4194-77.5838Q33.5156-77.5838 37.1815-73.9183Q40.8474-70.2528 40.8474-65.1567L40.8474-52.6663ZM88.2347-52.6663L75.8191-52.6663L75.8191-65.1567Q75.8191-70.2528 79.4788-73.9183Q83.1385-77.5838 88.2347-77.5838Q93.281-77.5838 96.9465-73.9183Q100.612-70.2528 100.612-65.1567Q100.612-59.9982 96.9465-56.3323Q93.281-52.6663 88.2347-52.6663ZM44.3779-21.3515L44.3779-49.1573L72.2263-49.1573L72.2263-21.3515ZM28.4194-17.8549L40.8474-17.8549L40.8474-5.36464Q40.8474-0.26848 37.1815 3.39702Q33.5156 7.06252 28.4194 7.06252Q23.3233 7.06252 19.6827 3.39702Q16.0421-0.26848 16.0421-5.36464Q16.0421-10.5231 19.6827-14.189Q23.3233-17.8549 28.4194-17.8549ZM88.2347-17.8549Q93.281-17.8549 96.9465-14.189Q100.612-10.5231 100.612-5.36464Q100.612-0.26848 96.9465 3.39702Q93.281 7.06252 88.2347 7.06252Q83.1385 7.06252 79.4788 3.39702Q75.8191-0.26848 75.8191-5.36464L75.8191-17.8549Z"/>
  </g>
  <g id="Ultralight-M" transform="matrix(1 0 0 1 501.454 1126)">
   <path d="M41.1721-49.8751L41.1721-20.6453L27.9906-20.6453Q23.7485-20.6453 20.2248-18.5256Q16.7011-16.406 14.581-12.8515Q12.4609-9.29708 12.4609-4.99372Q12.4609-0.75267 14.581 2.80223Q16.7011 6.35712 20.2248 8.47769Q23.7485 10.5983 27.9906 10.5983Q32.2317 10.5983 35.7866 8.47769Q39.3415 6.35712 41.4309 2.80223Q43.5203-0.75267 43.5203-4.99372L43.5203-18.2366L72.9334-18.2366L72.9334-4.99372Q72.9334-0.75267 75.054 2.80223Q77.1746 6.35712 80.6978 8.47769Q84.221 10.5983 88.5245 10.5983Q92.7655 10.5983 96.2892 8.47769Q99.8129 6.35712 101.934 2.80223Q104.054-0.75267 104.054-4.99372Q104.054-9.29708 101.934-12.8515Q99.8129-16.406 96.2892-18.5256Q92.7655-20.6453 88.5245-20.6453L75.3439-20.6453L75.3439-49.8751L88.5245-49.8751Q92.7655-49.8751 96.2892-51.9952Q99.8129-54.1154 101.934-57.6693Q104.054-61.2233 104.054-65.5276Q104.054-69.7687 101.934-73.3236Q99.8129-76.8785 96.2892-78.9985Q92.7655-81.1186 88.5245-81.1186Q84.221-81.1186 80.6978-78.9985Q77.1746-76.8785 75.054-73.3236Q72.9334-69.7687 72.9334-65.5276L72.9334-52.2847L43.5203-52.2847L43.5203-65.5276Q43.5203-69.7687 41.4309-73.3236Q39.3415-76.8785 35.7866-78.9985Q32.2317-81.1186 27.9906-81.1186Q23.7485-81.1186 20.2248-78.9985Q16.7011-76.8785 14.581-73.3236Q12.4609-69.7687 12.4609-65.5276Q12.4609-61.2233 14.581-57.6693Q16.7011-54.1154 20.2248-51.9952Q23.7485-49.8751 27.9906-49.8751ZM27.9906-52.2839Q22.5815-52.2839 18.7265-56.17Q14.8715-60.0562 14.8715-65.5276Q14.8715-70.9368 18.7265-74.8224Q22.5815-78.7081 27.9906-78.7081Q33.3997-78.7081 37.2859-74.8224Q41.1721-70.9368 41.1721-65.5276L41.1721-52.2839ZM88.5245-52.2839L75.3439-52.2839L75.3439-65.5276Q75.3439-70.9368 79.2296-74.8224Q83.1153-78.7081 88.5245-78.7081Q93.8722-78.7081 97.7579-74.8224Q101.644-70.9368 101.644-65.5276Q101.644-60.0562 97.7579-56.17Q93.8722-52.2839 88.5245-52.2839ZM43.5203-20.6444L43.5203-49.8759L72.9334-49.8759L72.9334-20.6444ZM27.9906-18.2374L41.1721-18.2374L41.1721-4.99364Q41.1721 0.415474 37.2859 4.30113Q33.3997 8.1868 27.9906 8.1868Q22.5815 8.1868 18.7265 4.30113Q14.8715 0.415474 14.8715-4.99364Q14.8715-10.4651 18.7265-14.3512Q22.5815-18.2374 27.9906-18.2374ZM88.5245-18.2374Q93.8722-18.2374 97.7579-14.3512Q101.644-10.4651 101.644-4.99364Q101.644 0.415474 97.7579 4.30113Q93.8722 8.1868 88.5245 8.1868Q83.1153 8.1868 79.2296 4.30113Q75.3439 0.415474 75.3439-4.99364L75.3439-18.2374Z"/>
  </g>
  <g id="Black-S" transform="matrix(1 0 0 1 2885.65 696)">
   <path d="M31.0059-39.6484L31.0059-30.6641L26.4648-30.6152Q21.875-30.5664 18.0664-28.3203Q14.2578-26.0742 12.0117-22.3389Q9.76562-18.6035 9.76562-13.9648Q9.76562-9.42383 12.0117-5.61523Q14.2578-1.80664 18.0664 0.463867Q21.875 2.73438 26.5137 2.73438Q31.1035 2.73438 34.8633 0.439453Q38.623-1.85547 40.8936-5.63965Q43.1641-9.42383 43.1641-13.9648L43.1641-18.3105L52.3438-18.3105L52.3438-13.9648Q52.3438-9.42383 54.6143-5.63965Q56.8848-1.85547 60.6689 0.439453Q64.4531 2.73438 68.9941 2.73438Q73.6816 2.73438 77.4658 0.463867Q81.25-1.80664 83.4961-5.61523Q85.7422-9.42383 85.7422-13.9648Q85.7422-18.6035 83.4961-22.3389Q81.25-26.0742 77.4658-28.3203Q73.6816-30.5664 69.043-30.6152L64.502-30.6641L64.502-39.6484L69.043-39.6973Q73.6816-39.7461 77.4658-41.9922Q81.25-44.2383 83.4961-47.998Q85.7422-51.7578 85.7422-56.3477Q85.7422-60.9375 83.4961-64.7217Q81.25-68.5059 77.4658-70.7764Q73.6816-73.0469 68.9941-73.0469Q64.4531-73.0469 60.6689-70.7764Q56.8848-68.5059 54.6143-64.6973Q52.3438-60.8887 52.3438-56.3477L52.3438-52.002L43.1641-52.002L43.1641-56.3477Q43.1641-60.8887 40.8936-64.6973Q38.623-68.5059 34.8633-70.7764Q31.1035-73.0469 26.5137-73.0469Q21.875-73.0469 18.0664-70.7764Q14.2578-68.5059 12.0117-64.7217Q9.76562-60.9375 9.76562-56.3477Q9.76562-51.7578 12.0117-47.998Q14.2578-44.2383 18.0664-41.9922Q21.875-39.7461 26.4648-39.6973ZM27.0508-51.9043Q24.9023-51.9043 23.5352-53.1982Q22.168-54.4922 22.168-56.2988Q22.168-58.1543 23.4375-59.3994Q24.707-60.6445 26.5137-60.6445Q28.2715-60.6445 29.5898-59.2773Q30.9082-57.9102 30.9082-55.7617L30.9082-51.9043ZM68.457-51.9043L64.5996-51.9043L64.5996-55.7617Q64.5996-57.9102 65.918-59.2773Q67.2363-60.6445 68.9941-60.6445Q70.8496-60.6445 72.0947-59.3994Q73.3398-58.1543 73.3398-56.2988Q73.3398-54.4922 71.9727-53.1982Q70.6055-51.9043 68.457-51.9043ZM43.2129-30.6641L43.2129-39.6484L52.2949-39.6484L52.2949-30.6641ZM27.0508-18.4082L30.9082-18.4082L30.9082-14.5508Q30.9082-12.4023 29.5898-11.0352Q28.2715-9.66797 26.5137-9.66797Q24.707-9.66797 23.4375-10.9375Q22.168-12.207 22.168-14.0137Q22.168-15.8691 23.5352-17.1387Q24.9023-18.4082 27.0508-18.4082ZM68.457-18.4082Q70.6055-18.4082 71.9727-17.1387Q73.3398-15.8691 73.3398-14.0137Q73.3398-12.207 72.0947-10.9375Q70.8496-9.66797 68.9941-9.66797Q67.2363-9.66797 65.918-11.0352Q64.5996-12.4023 64.5996-14.5508L64.5996-18.4082Z"/>
  </g>
  <g id="Heavy-S" transform="matrix(1 0 0 1 2589.36 696)">
   <path d="M30.9828-40.5819L30.9828-29.7652L25.8195-29.7279Q21.4025-29.6905 17.7437-27.5424Q14.0849-25.3943 11.9253-21.803Q9.76562-18.2117 9.76562-13.7459Q9.76562-9.36621 11.9253-5.70743Q14.0849-2.04865 17.7437 0.13542Q21.4025 2.31949 25.8568 2.31949Q30.2738 2.31949 33.8952 0.116768Q37.5167-2.08596 39.695-5.72608Q41.8733-9.36621 41.8733-13.7459L41.8733-18.7485L52.7817-18.7485L52.7817-13.7459Q52.7817-9.36621 54.9658-5.72608Q57.1498-2.08596 60.7842 0.116768Q64.4186 2.31949 68.7982 2.31949Q73.2898 2.31949 76.9299 0.13542Q80.5701-2.04865 82.7297-5.70743Q84.8894-9.36621 84.8894-13.7459Q84.8894-18.2117 82.7297-21.803Q80.5701-25.3943 76.9299-27.5424Q73.2898-29.6905 68.8355-29.7279L63.6837-29.7652L63.6837-40.5819L68.8355-40.6192Q73.2898-40.6565 76.9299-42.8047Q80.5701-44.9528 82.7297-48.5627Q84.8894-52.1727 84.8894-56.6012Q84.8894-61.0182 82.7297-64.6583Q80.5701-68.2984 76.9299-70.4825Q73.2898-72.6666 68.7982-72.6666Q64.4186-72.6666 60.7842-70.4825Q57.1498-68.2984 54.9658-64.6396Q52.7817-60.9809 52.7817-56.6012L52.7817-51.5986L41.8733-51.5986L41.8733-56.6012Q41.8733-60.9809 39.695-64.6396Q37.5167-68.2984 33.8952-70.4825Q30.2738-72.6666 25.8568-72.6666Q21.4025-72.6666 17.7437-70.4825Q14.0849-68.2984 11.9253-64.6583Q9.76562-61.0182 9.76562-56.6012Q9.76562-52.1727 11.9253-48.5627Q14.0849-44.9528 17.7437-42.8047Q21.4025-40.6565 25.8195-40.6192ZM26.2671-51.5009Q23.9343-51.5009 22.3885-52.9908Q20.8427-54.4807 20.8427-56.5639Q20.8427-58.6729 22.3139-60.1255Q23.7851-61.578 25.8568-61.578Q27.8912-61.578 29.3997-60.0322Q30.9082-58.4864 30.9082-56.1536L30.9082-51.5009ZM68.3879-51.5009L63.7583-51.5009L63.7583-56.1536Q63.7583-58.4864 65.2611-60.0322Q66.7638-61.578 68.7982-61.578Q70.9072-61.578 72.3598-60.1255Q73.8123-58.6729 73.8123-56.5639Q73.8123-54.4807 72.2665-52.9908Q70.7207-51.5009 68.3879-51.5009ZM41.9106-29.7421L41.9106-40.605L52.7444-40.605L52.7444-29.7421ZM26.2671-18.8577L30.9082-18.8577L30.9082-14.205Q30.9082-11.8722 29.3997-10.3264Q27.8912-8.78058 25.8568-8.78058Q23.7851-8.78058 22.3139-10.2518Q20.8427-11.723 20.8427-13.7947Q20.8427-15.9152 22.3885-17.3864Q23.9343-18.8577 26.2671-18.8577ZM68.3879-18.8577Q70.7207-18.8577 72.2665-17.3864Q73.8123-15.9152 73.8123-13.7947Q73.8123-11.723 72.3598-10.2518Q70.9072-8.78058 68.7982-8.78058Q66.7638-8.78058 65.2611-10.3264Q63.7583-11.8722 63.7583-14.205L63.7583-18.8577Z"/>
  </g>
  <g id="Bold-S" transform="matrix(1 0 0 1 2293.13 696)">
   <path d="M30.957-41.626L30.957-28.7598L25.0977-28.7354Q20.874-28.7109 17.3828-26.6724Q13.8916-24.6338 11.8286-21.2036Q9.76562-17.7734 9.76562-13.501Q9.76562-9.30176 11.8286-5.81055Q13.8916-2.31934 17.3828-0.231934Q20.874 1.85547 25.1221 1.85547Q29.3457 1.85547 32.8125-0.244141Q36.2793-2.34375 38.3545-5.82275Q40.4297-9.30176 40.4297-13.501L40.4297-19.2383L53.2715-19.2383L53.2715-13.501Q53.2715-9.30176 55.3589-5.82275Q57.4463-2.34375 60.9131-0.244141Q64.3799 1.85547 68.5791 1.85547Q72.8516 1.85547 76.3306-0.231934Q79.8096-2.31934 81.8726-5.81055Q83.9355-9.30176 83.9355-13.501Q83.9355-17.7734 81.8726-21.2036Q79.8096-24.6338 76.3306-26.6724Q72.8516-28.7109 68.6035-28.7354L62.7686-28.7598L62.7686-41.626L68.6035-41.6504Q72.8516-41.6748 76.3306-43.7134Q79.8096-45.752 81.8726-49.1943Q83.9355-52.6367 83.9355-56.8848Q83.9355-61.1084 81.8726-64.5874Q79.8096-68.0664 76.3306-70.1538Q72.8516-72.2412 68.5791-72.2412Q64.3799-72.2412 60.9131-70.1538Q57.4463-68.0664 55.3589-64.5752Q53.2715-61.084 53.2715-56.8848L53.2715-51.1475L40.4297-51.1475L40.4297-56.8848Q40.4297-61.084 38.3545-64.5752Q36.2793-68.0664 32.8125-70.1538Q29.3457-72.2412 25.1221-72.2412Q20.874-72.2412 17.3828-70.1538Q13.8916-68.0664 11.8286-64.5874Q9.76562-61.1084 9.76562-56.8848Q9.76562-52.6367 11.8286-49.1943Q13.8916-45.752 17.3828-43.7134Q20.874-41.6748 25.0977-41.6504ZM25.3906-51.0498Q22.8516-51.0498 21.106-52.7588Q19.3604-54.4678 19.3604-56.8604Q19.3604-59.2529 21.0571-60.9375Q22.7539-62.6221 25.1221-62.6221Q27.4658-62.6221 29.187-60.8765Q30.9082-59.1309 30.9082-56.5918L30.9082-51.0498ZM68.3105-51.0498L62.8174-51.0498L62.8174-56.5918Q62.8174-59.1309 64.5264-60.8765Q66.2354-62.6221 68.5791-62.6221Q70.9717-62.6221 72.6562-60.9375Q74.3408-59.2529 74.3408-56.8604Q74.3408-54.4678 72.5952-52.7588Q70.8496-51.0498 68.3105-51.0498ZM40.4541-28.7109L40.4541-41.6748L53.2471-41.6748L53.2471-28.7109ZM25.3906-19.3604L30.9082-19.3604L30.9082-13.8184Q30.9082-11.2793 29.187-9.53369Q27.4658-7.78809 25.1221-7.78809Q22.7539-7.78809 21.0571-9.48486Q19.3604-11.1816 19.3604-13.5498Q19.3604-15.9668 21.106-17.6636Q22.8516-19.3604 25.3906-19.3604ZM68.3105-19.3604Q70.8496-19.3604 72.5952-17.6636Q74.3408-15.9668 74.3408-13.5498Q74.3408-11.1816 72.6562-9.48486Q70.9717-7.78809 68.5791-7.78809Q66.2354-7.78809 64.5264-9.53369Q62.8174-11.2793 62.8174-13.8184L62.8174-19.3604Z"/>
  </g>
  <g id="Semibold-S" transform="matrix(1 0 0 1 1996.74 696)">
   <path d="M30.9393-42.3458L30.9393-28.0666L24.6-28.0511Q20.5097-28.0355 17.134-26.0725Q13.7583-24.1095 11.762-20.7904Q9.76562-17.4713 9.76562-13.3321Q9.76562-9.25732 11.762-5.88164Q13.7583-2.50596 17.134-0.485205Q20.5097 1.53555 24.6155 1.53555Q28.7059 1.53555 32.066-0.492969Q35.4262-2.52148 37.4303-5.8894Q39.4344-9.25732 39.4344-13.3321L39.4344-19.576L53.6092-19.576L53.6092-13.3321Q53.6092-9.25732 55.6299-5.8894Q57.6507-2.52148 61.002-0.492969Q64.3532 1.53555 68.428 1.53555Q72.5494 1.53555 75.9173-0.485205Q79.2853-2.50596 81.2816-5.88164Q83.2779-9.25732 83.2779-13.3321Q83.2779-17.4713 81.2816-20.7904Q79.2853-24.1095 75.9173-26.0725Q72.5494-28.0355 68.4436-28.0511L62.1376-28.0666L62.1376-42.3458L68.4436-42.3613Q72.5494-42.3769 75.9173-44.3399Q79.2853-46.3029 81.2816-49.6298Q83.2779-52.9566 83.2779-57.0803Q83.2779-61.1706 81.2816-64.5385Q79.2853-67.9064 75.9173-69.9272Q72.5494-71.9479 68.428-71.9479Q64.3532-71.9479 61.002-69.9272Q57.6507-67.9064 55.6299-64.5308Q53.6092-61.1551 53.6092-57.0803L53.6092-50.8364L39.4344-50.8364L39.4344-57.0803Q39.4344-61.1551 37.4303-64.5308Q35.4262-67.9064 32.066-69.9272Q28.7059-71.9479 24.6155-71.9479Q20.5097-71.9479 17.134-69.9272Q13.7583-67.9064 11.762-64.5385Q9.76562-61.1706 9.76562-57.0803Q9.76562-52.9566 11.762-49.6298Q13.7583-46.3029 17.134-44.3399Q20.5097-42.3769 24.6-42.3613ZM24.7863-50.7388Q22.1051-50.7388 20.2217-52.5988Q18.3384-54.4589 18.3384-57.0647Q18.3384-59.6528 20.1907-61.4974Q22.043-63.3419 24.6155-63.3419Q27.1726-63.3419 29.0404-61.4585Q30.9082-59.5752 30.9082-56.8939L30.9082-50.7388ZM68.2572-50.7388L62.1687-50.7388L62.1687-56.8939Q62.1687-59.5752 64.0198-61.4585Q65.871-63.3419 68.428-63.3419Q71.0161-63.3419 72.8606-61.4974Q74.7052-59.6528 74.7052-57.0647Q74.7052-54.4589 72.8218-52.5988Q70.9385-50.7388 68.2572-50.7388ZM39.4499-28L39.4499-42.4124L53.5937-42.4124L53.5937-28ZM24.7863-19.7069L30.9082-19.7069L30.9082-13.5518Q30.9082-10.8705 29.0404-8.98716Q27.1726-7.10381 24.6155-7.10381Q22.043-7.10381 20.1907-8.9561Q18.3384-10.8084 18.3384-13.381Q18.3384-16.0023 20.2217-17.8546Q22.1051-19.7069 24.7863-19.7069ZM68.2572-19.7069Q70.9385-19.7069 72.8218-17.8546Q74.7052-16.0023 74.7052-13.381Q74.7052-10.8084 72.8606-8.9561Q71.0161-7.10381 68.428-7.10381Q65.871-7.10381 64.0198-8.98716Q62.1687-10.8705 62.1687-13.5518L62.1687-19.7069Z"/>
  </g>
  <g id="Medium-S" transform="matrix(1 0 0 1 1700.28 696)">
   <path d="M30.9258-42.8916L30.9258-27.541L24.2227-27.5322Q20.2334-27.5234 16.9453-25.6177Q13.6572-23.7119 11.7114-20.4771Q9.76562-17.2422 9.76562-13.2041Q9.76562-9.22363 11.7114-5.93555Q13.6572-2.64746 16.9453-0.677246Q20.2334 1.29297 24.2314 1.29297Q28.2207 1.29297 31.5-0.681641Q34.7793-2.65625 36.7295-5.93994Q38.6797-9.22363 38.6797-13.2041L38.6797-19.832L53.8652-19.832L53.8652-13.2041Q53.8652-9.22363 55.8354-5.93994Q57.8057-2.65625 61.0693-0.681641Q64.333 1.29297 68.3135 1.29297Q72.3203 1.29297 75.604-0.677246Q78.8877-2.64746 80.8335-5.93555Q82.7793-9.22363 82.7793-13.2041Q82.7793-17.2422 80.8335-20.4771Q78.8877-23.7119 75.604-25.6177Q72.3203-27.5234 68.3223-27.5322L61.6592-27.541L61.6592-42.8916L68.3223-42.9004Q72.3203-42.9092 75.604-44.8149Q78.8877-46.7207 80.8335-49.96Q82.7793-53.1992 82.7793-57.2285Q82.7793-61.2178 80.8335-64.5015Q78.8877-67.7852 75.604-69.7554Q72.3203-71.7256 68.3135-71.7256Q64.333-71.7256 61.0693-69.7554Q57.8057-67.7852 55.8354-64.4971Q53.8652-61.209 53.8652-57.2285L53.8652-50.6006L38.6797-50.6006L38.6797-57.2285Q38.6797-61.209 36.7295-64.4971Q34.7793-67.7852 31.5-69.7554Q28.2207-71.7256 24.2314-71.7256Q20.2334-71.7256 16.9453-69.7554Q13.6572-67.7852 11.7114-64.5015Q9.76562-61.2178 9.76562-57.2285Q9.76562-53.1992 11.7114-49.96Q13.6572-46.7207 16.9453-44.8149Q20.2334-42.9092 24.2227-42.9004ZM24.3281-50.5029Q21.5391-50.5029 19.5513-52.4775Q17.5635-54.4521 17.5635-57.2197Q17.5635-59.9561 19.5337-61.9219Q21.5039-63.8877 24.2314-63.8877Q26.9502-63.8877 28.9292-61.8999Q30.9082-59.9121 30.9082-57.123L30.9082-50.5029ZM68.2168-50.5029L61.6768-50.5029L61.6768-57.123Q61.6768-59.9121 63.6357-61.8999Q65.5947-63.8877 68.3135-63.8877Q71.0498-63.8877 73.0156-61.9219Q74.9814-59.9561 74.9814-57.2197Q74.9814-54.4521 72.9937-52.4775Q71.0059-50.5029 68.2168-50.5029ZM38.6885-27.4609L38.6885-42.9717L53.8564-42.9717L53.8564-27.4609ZM24.3281-19.9697L30.9082-19.9697L30.9082-13.3496Q30.9082-10.5605 28.9292-8.57275Q26.9502-6.58496 24.2314-6.58496Q21.5039-6.58496 19.5337-8.55518Q17.5635-10.5254 17.5635-13.2529Q17.5635-16.0293 19.5513-17.9995Q21.5391-19.9697 24.3281-19.9697ZM68.2168-19.9697Q71.0059-19.9697 72.9937-17.9995Q74.9814-16.0293 74.9814-13.2529Q74.9814-10.5254 73.0156-8.55518Q71.0498-6.58496 68.3135-6.58496Q65.5947-6.58496 63.6357-8.57275Q61.6768-10.5605 61.6768-13.3496L61.6768-19.9697Z"/>
  </g>
  <g id="Regular-S" transform="matrix(1 0 0 1 1403.9 696)">
   <path d="M30.9082-43.6035L30.9082-26.8555L23.7305-26.8555Q19.873-26.8555 16.6992-25.0244Q13.5254-23.1934 11.6455-20.0684Q9.76562-16.9434 9.76562-13.0371Q9.76562-9.17969 11.6455-6.00586Q13.5254-2.83203 16.6992-0.927734Q19.873 0.976562 23.7305 0.976562Q27.5879 0.976562 30.7617-0.927734Q33.9355-2.83203 35.8154-6.00586Q37.6953-9.17969 37.6953-13.0371L37.6953-20.166L54.1992-20.166L54.1992-13.0371Q54.1992-9.17969 56.1035-6.00586Q58.0078-2.83203 61.1572-0.927734Q64.3066 0.976562 68.1641 0.976562Q72.0215 0.976562 75.1953-0.927734Q78.3691-2.83203 80.249-6.00586Q82.1289-9.17969 82.1289-13.0371Q82.1289-16.9434 80.249-20.0684Q78.3691-23.1934 75.1953-25.0244Q72.0215-26.8555 68.1641-26.8555L61.0352-26.8555L61.0352-43.6035L68.1641-43.6035Q72.0215-43.6035 75.1953-45.4346Q78.3691-47.2656 80.249-50.3906Q82.1289-53.5156 82.1289-57.4219Q82.1289-61.2793 80.249-64.4531Q78.3691-67.627 75.1953-69.5312Q72.0215-71.4355 68.1641-71.4355Q64.3066-71.4355 61.1572-69.5312Q58.0078-67.627 56.1035-64.4531Q54.1992-61.2793 54.1992-57.4219L54.1992-50.293L37.6953-50.293L37.6953-57.4219Q37.6953-61.2793 35.8154-64.4531Q33.9355-67.627 30.7617-69.5312Q27.5879-71.4355 23.7305-71.4355Q19.873-71.4355 16.6992-69.5312Q13.5254-67.627 11.6455-64.4531Q9.76562-61.2793 9.76562-57.4219Q9.76562-53.5156 11.6455-50.3906Q13.5254-47.2656 16.6992-45.4346Q19.873-43.6035 23.7305-43.6035ZM23.7305-50.1953Q20.8008-50.1953 18.6768-52.3193Q16.5527-54.4434 16.5527-57.4219Q16.5527-60.3516 18.6768-62.4756Q20.8008-64.5996 23.7305-64.5996Q26.6602-64.5996 28.7842-62.4756Q30.9082-60.3516 30.9082-57.4219L30.9082-50.1953ZM68.1641-50.1953L61.0352-50.1953L61.0352-57.4219Q61.0352-60.3516 63.1348-62.4756Q65.2344-64.5996 68.1641-64.5996Q71.0938-64.5996 73.2178-62.4756Q75.3418-60.3516 75.3418-57.4219Q75.3418-54.4434 73.2178-52.3193Q71.0938-50.1953 68.1641-50.1953ZM37.6953-26.7578L37.6953-43.7012L54.1992-43.7012L54.1992-26.7578ZM23.7305-20.3125L30.9082-20.3125L30.9082-13.0859Q30.9082-10.1562 28.7842-8.03223Q26.6602-5.9082 23.7305-5.9082Q20.8008-5.9082 18.6768-8.03223Q16.5527-10.1562 16.5527-13.0859Q16.5527-16.0645 18.6768-18.1885Q20.8008-20.3125 23.7305-20.3125ZM68.1641-20.3125Q71.0938-20.3125 73.2178-18.1885Q75.3418-16.0645 75.3418-13.0859Q75.3418-10.1562 73.2178-8.03223Q71.0938-5.9082 68.1641-5.9082Q65.2344-5.9082 63.1348-8.03223Q61.0352-10.1562 61.0352-13.0859L61.0352-20.3125Z"/>
  </g>
  <g id="Light-S" transform="matrix(1 0 0 1 1107.28 696)">
   <path d="M31.3321-44.5722L31.3321-25.9018L23.1705-25.9018Q19.4794-25.9018 16.4342-24.1238Q13.3891-22.3457 11.5774-19.3267Q9.76562-16.3076 9.76562-12.5679Q9.76562-8.87705 11.5774-5.82428Q13.3891-2.7715 16.4342-0.942866Q19.4794 0.885773 23.1705 0.885773Q26.8613 0.885773 29.9141-0.942866Q32.9669-2.7715 34.7711-5.82428Q36.5753-8.87705 36.5753-12.5679L36.5753-20.711L55.1226-20.711L55.1226-12.5679Q55.1226-8.87705 56.9513-5.82428Q58.7799-2.7715 61.8081-0.942866Q64.8364 0.885773 68.5425 0.885773Q72.2333 0.885773 75.2785-0.942866Q78.3236-2.7715 80.1355-5.82428Q81.9473-8.87705 81.9473-12.5679Q81.9473-16.3076 80.1355-19.3267Q78.3236-22.3457 75.2785-24.1238Q72.2333-25.9018 68.5425-25.9018L60.4146-25.9018L60.4146-44.5722L68.5425-44.5722Q72.2333-44.5722 75.2785-46.3504Q78.3236-48.1285 80.1355-51.1475Q81.9473-54.1664 81.9473-57.9063Q81.9473-61.5972 80.1355-64.65Q78.3236-67.7027 75.2785-69.5312Q72.2333-71.3598 68.5425-71.3598Q64.8364-71.3598 61.8081-69.5312Q58.7799-67.7027 56.9513-64.65Q55.1226-61.5972 55.1226-57.9063L55.1226-49.7632L36.5753-49.7632L36.5753-57.9063Q36.5753-61.5972 34.7711-64.65Q32.9669-67.7027 29.9141-69.5312Q26.8613-71.3598 23.1705-71.3598Q19.4794-71.3598 16.4342-69.5312Q13.3891-67.7027 11.5774-64.65Q9.76562-61.5972 9.76562-57.9063Q9.76562-54.1664 11.5774-51.1475Q13.3891-48.1285 16.4342-46.3504Q19.4794-44.5722 23.1705-44.5722ZM23.1705-49.6958Q19.8321-49.6958 17.4281-52.1075Q15.0241-54.5191 15.0241-57.9063Q15.0241-61.2447 17.4281-63.6562Q19.8321-66.0678 23.1705-66.0678Q26.5088-66.0678 28.9205-63.6562Q31.3321-61.2447 31.3321-57.9063L31.3321-49.6958ZM68.5425-49.6958L60.4146-49.6958L60.4146-57.9063Q60.4146-61.2447 62.8094-63.6562Q65.2041-66.0678 68.5425-66.0678Q71.8658-66.0678 74.2774-63.6562Q76.6889-61.2447 76.6889-57.9063Q76.6889-54.5191 74.2774-52.1075Q71.8658-49.6958 68.5425-49.6958ZM36.5753-25.8344L36.5753-44.6396L55.1226-44.6396L55.1226-25.8344ZM23.1705-20.812L31.3321-20.812L31.3321-12.6015Q31.3321-9.2631 28.9205-6.85158Q26.5088-4.44005 23.1705-4.44005Q19.8321-4.44005 17.4281-6.85158Q15.0241-9.2631 15.0241-12.6015Q15.0241-15.9887 17.4281-18.4003Q19.8321-20.812 23.1705-20.812ZM68.5425-20.812Q71.8658-20.812 74.2774-18.4003Q76.6889-15.9887 76.6889-12.6015Q76.6889-9.2631 74.2774-6.85158Q71.8658-4.44005 68.5425-4.44005Q65.2041-4.44005 62.8094-6.85158Q60.4146-9.2631 60.4146-12.6015L60.4146-20.812Z"/>
  </g>
  <g id="Thin-S" transform="matrix(1 0 0 1 810.686 696)">
   <path d="M31.8928-45.8534L31.8928-24.6405L22.4298-24.6405Q18.9587-24.6405 16.0837-22.9326Q13.2088-21.2247 11.4872-18.3457Q9.76562-15.4667 9.76562-11.9473Q9.76562-8.4768 11.4872-5.58413Q13.2088-2.69145 16.0837-0.962879Q18.9587 0.765696 22.4298 0.765696Q25.9004 0.765696 28.793-0.962879Q31.6857-2.69145 33.3899-5.58413Q35.094-8.4768 35.094-11.9473L35.094-21.4318L56.3439-21.4318L56.3439-11.9473Q56.3439-8.4768 58.0725-5.58413Q59.8011-2.69145 62.669-0.962879Q65.537 0.765696 69.043 0.765696Q72.5135 0.765696 75.3885-0.962879Q78.2634-2.69145 79.9853-5.58413Q81.7072-8.4768 81.7072-11.9473Q81.7072-15.4667 79.9853-18.3457Q78.2634-21.2247 75.3885-22.9326Q72.5135-24.6405 69.043-24.6405L59.5939-24.6405L59.5939-45.8534L69.043-45.8534Q72.5135-45.8534 75.3885-47.5615Q78.2634-49.2697 79.9853-52.1484Q81.7072-55.0271 81.7072-58.5471Q81.7072-62.0176 79.9853-64.9103Q78.2634-67.803 75.3885-69.5312Q72.5135-71.2595 69.043-71.2595Q65.537-71.2595 62.669-69.5312Q59.8011-67.803 58.0725-64.9103Q56.3439-62.0176 56.3439-58.5471L56.3439-49.0626L35.094-49.0626L35.094-58.5471Q35.094-62.0176 33.3899-64.9103Q31.6857-67.803 28.793-69.5312Q25.9004-71.2595 22.4298-71.2595Q18.9587-71.2595 16.0837-69.5312Q13.2088-67.803 11.4872-64.9103Q9.76562-62.0176 9.76562-58.5471Q9.76562-55.0271 11.4872-52.1484Q13.2088-49.2697 16.0837-47.5615Q18.9587-45.8534 22.4298-45.8534ZM22.4298-49.0353Q18.5509-49.0353 15.7766-51.8273Q13.0023-54.6194 13.0023-58.5471Q13.0023-62.426 15.7766-65.2177Q18.5509-68.0095 22.4298-68.0095Q26.3087-68.0095 29.1008-65.2177Q31.8928-62.426 31.8928-58.5471L31.8928-49.0353ZM69.043-49.0353L59.5939-49.0353L59.5939-58.5471Q59.5939-62.426 62.379-65.2177Q65.1641-68.0095 69.043-68.0095Q72.887-68.0095 75.6788-65.2177Q78.4705-62.426 78.4705-58.5471Q78.4705-54.6194 75.6788-51.8273Q72.887-49.0353 69.043-49.0353ZM35.094-24.6131L35.094-45.8807L56.3439-45.8807L56.3439-24.6131ZM22.4298-21.4726L31.8928-21.4726L31.8928-11.9607Q31.8928-8.08184 29.1008-5.29007Q26.3087-2.49831 22.4298-2.49831Q18.5509-2.49831 15.7766-5.29007Q13.0023-8.08184 13.0023-11.9607Q13.0023-15.8884 15.7766-18.6805Q18.5509-21.4726 22.4298-21.4726ZM69.043-21.4726Q72.887-21.4726 75.6788-18.6805Q78.4705-15.8884 78.4705-11.9607Q78.4705-8.08184 75.6788-5.29007Q72.887-2.49831 69.043-2.49831Q65.1641-2.49831 62.379-5.29007Q59.5939-8.08184 59.5939-11.9607L59.5939-21.4726Z"/>
  </g>
  <g id="Ultralight-S" transform="matrix(1 0 0 1 514.036 696)">
   <path d="M32.18-46.5096L32.18-23.9944L22.0505-23.9944Q18.692-23.9944 15.9042-22.3225Q13.1165-20.6505 11.441-17.8432Q9.76562-15.036 9.76562-11.6295Q9.76562-8.27179 11.441-5.46112Q13.1165-2.65045 15.9042-0.973129Q18.692 0.704193 22.0505 0.704193Q25.4082 0.704193 28.2188-0.973129Q31.0295-2.65045 32.6824-5.46112Q34.3353-8.27179 34.3353-11.6295L34.3353-21.801L56.9695-21.801L56.9695-11.6295Q56.9695-8.27179 58.6468-5.46112Q60.3241-2.65045 63.11-0.973129Q65.8958 0.704193 69.2993 0.704193Q72.657 0.704193 75.4448-0.973129Q78.2326-2.65045 79.9084-5.46112Q81.5842-8.27179 81.5842-11.6295Q81.5842-15.036 79.9084-17.8432Q78.2326-20.6505 75.4448-22.3225Q72.657-23.9944 69.2993-23.9944L59.1736-23.9944L59.1736-46.5096L69.2993-46.5096Q72.657-46.5096 75.4448-48.1819Q78.2326-49.8543 79.9084-52.6611Q81.5842-55.468 81.5842-58.8753Q81.5842-62.233 79.9084-65.0436Q78.2326-67.8543 75.4448-69.5312Q72.657-71.2082 69.2993-71.2082Q65.8958-71.2082 63.11-69.5312Q60.3241-67.8543 58.6468-65.0436Q56.9695-62.233 56.9695-58.8753L56.9695-48.7038L34.3353-48.7038L34.3353-58.8753Q34.3353-62.233 32.6824-65.0436Q31.0295-67.8543 28.2188-69.5312Q25.4082-71.2082 22.0505-71.2082Q18.692-71.2082 15.9042-69.5312Q13.1165-67.8543 11.441-65.0436Q9.76562-62.233 9.76562-58.8753Q9.76562-55.468 11.441-52.6611Q13.1165-49.8543 15.9042-48.1819Q18.692-46.5096 22.0505-46.5096ZM22.0505-48.6969Q17.8947-48.6969 14.9307-51.6838Q11.9667-54.6707 11.9667-58.8753Q11.9667-63.031 14.9307-66.0175Q17.8947-69.0041 22.0505-69.0041Q26.2062-69.0041 29.1931-66.0175Q32.18-63.031 32.18-58.8753L32.18-48.6969ZM69.2993-48.6969L59.1736-48.6969L59.1736-58.8753Q59.1736-63.031 62.1586-66.0175Q65.1436-69.0041 69.2993-69.0041Q73.41-69.0041 76.3966-66.0175Q79.3831-63.031 79.3831-58.8753Q79.3831-54.6707 76.3966-51.6838Q73.41-48.6969 69.2993-48.6969ZM34.3353-23.9876L34.3353-46.5164L56.9695-46.5164L56.9695-23.9876ZM22.0505-21.8109L32.18-21.8109L32.18-11.6325Q32.18-7.47681 29.1931-4.49028Q26.2062-1.50375 22.0505-1.50375Q17.8947-1.50375 14.9307-4.49028Q11.9667-7.47681 11.9667-11.6325Q11.9667-15.8371 14.9307-18.824Q17.8947-21.8109 22.0505-21.8109ZM69.2993-21.8109Q73.41-21.8109 76.3966-18.824Q79.3831-15.8371 79.3831-11.6325Q79.3831-7.47681 76.3966-4.49028Q73.41-1.50375 69.2993-1.50375Q65.1436-1.50375 62.1586-4.49028Q59.1736-7.47681 59.1736-11.6325L59.1736-21.8109Z"/>
  </g>
 </g>
</svg>
