<?xml version="1.0" encoding="UTF-8"?>
<!--Generator: Apple Native CoreSVG 175-->
<!DOCTYPE svg
PUBLIC "-//W3C//DTD SVG 1.1//EN"
       "http://www.w3.org/Graphics/SVG/1.1/DTD/svg11.dtd">
<svg version="1.1" xmlns="http://www.w3.org/2000/svg" xmlns:xlink="http://www.w3.org/1999/xlink" width="3300" height="2200">
 <!--glyph: "uni1012C1.medium", point size: 100.0, font version: "17.1d1e1", template writer version: "65.1"-->
 <g id="Notes">
  <rect height="2200" id="artboard" style="fill:white;opacity:1" width="3300" x="0" y="0"/>
  <line style="fill:none;stroke:black;opacity:1;stroke-width:0.5;" x1="263" x2="3036" y1="292" y2="292"/>
  <text style="stroke:none;fill:black;font-family:sans-serif;font-size:13;font-weight:bold;" transform="matrix(1 0 0 1 263 322)">Weight/Scale Variations</text>
  <text style="stroke:none;fill:black;font-family:sans-serif;font-size:13;text-anchor:middle;" transform="matrix(1 0 0 1 559.711 322)">Ultralight</text>
  <text style="stroke:none;fill:black;font-family:sans-serif;font-size:13;text-anchor:middle;" transform="matrix(1 0 0 1 856.422 322)">Thin</text>
  <text style="stroke:none;fill:black;font-family:sans-serif;font-size:13;text-anchor:middle;" transform="matrix(1 0 0 1 1153.13 322)">Light</text>
  <text style="stroke:none;fill:black;font-family:sans-serif;font-size:13;text-anchor:middle;" transform="matrix(1 0 0 1 1449.84 322)">Regular</text>
  <text style="stroke:none;fill:black;font-family:sans-serif;font-size:13;text-anchor:middle;" transform="matrix(1 0 0 1 1746.56 322)">Medium</text>
  <text style="stroke:none;fill:black;font-family:sans-serif;font-size:13;text-anchor:middle;" transform="matrix(1 0 0 1 2043.27 322)">Semibold</text>
  <text style="stroke:none;fill:black;font-family:sans-serif;font-size:13;text-anchor:middle;" transform="matrix(1 0 0 1 2339.98 322)">Bold</text>
  <text style="stroke:none;fill:black;font-family:sans-serif;font-size:13;text-anchor:middle;" transform="matrix(1 0 0 1 2636.69 322)">Heavy</text>
  <text style="stroke:none;fill:black;font-family:sans-serif;font-size:13;text-anchor:middle;" transform="matrix(1 0 0 1 2933.4 322)">Black</text>
  <line style="fill:none;stroke:black;opacity:1;stroke-width:0.5;" x1="263" x2="3036" y1="1903" y2="1903"/>
  <g transform="matrix(1 0 0 1 263 1933)">
   <path d="M9.24805 0.830078Q10.8691 0.830078 12.2949 0.214844Q13.7207-0.400391 14.8096-1.49414Q15.8984-2.58789 16.5186-4.01367Q17.1387-5.43945 17.1387-7.05078Q17.1387-8.66211 16.5186-10.0879Q15.8984-11.5137 14.8047-12.6074Q13.7109-13.7012 12.2852-14.3164Q10.8594-14.9316 9.23828-14.9316Q7.62695-14.9316 6.20117-14.3164Q4.77539-13.7012 3.69141-12.6074Q2.60742-11.5137 1.9873-10.0879Q1.36719-8.66211 1.36719-7.05078Q1.36719-5.43945 1.9873-4.01367Q2.60742-2.58789 3.69629-1.49414Q4.78516-0.400391 6.21094 0.214844Q7.63672 0.830078 9.24805 0.830078ZM9.24805-0.654297Q7.91992-0.654297 6.7627-1.14746Q5.60547-1.64062 4.73145-2.51953Q3.85742-3.39844 3.36426-4.56055Q2.87109-5.72266 2.87109-7.05078Q2.87109-8.37891 3.35938-9.54102Q3.84766-10.7031 4.72168-11.582Q5.5957-12.4609 6.75293-12.9541Q7.91016-13.4473 9.23828-13.4473Q10.5762-13.4473 11.7334-12.9541Q12.8906-12.4609 13.7695-11.582Q14.6484-10.7031 15.1465-9.54102Q15.6445-8.37891 15.6445-7.05078Q15.6445-5.72266 15.1514-4.56055Q14.6582-3.39844 13.7842-2.51953Q12.9102-1.64062 11.748-1.14746Q10.5859-0.654297 9.24805-0.654297ZM5.6543-7.05078Q5.6543-6.72852 5.85938-6.52832Q6.06445-6.32812 6.40625-6.32812L8.51562-6.32812L8.51562-4.20898Q8.51562-3.88672 8.71094-3.67676Q8.90625-3.4668 9.23828-3.4668Q9.56055-3.4668 9.77051-3.67676Q9.98047-3.88672 9.98047-4.20898L9.98047-6.32812L12.0898-6.32812Q12.4219-6.32812 12.627-6.52832Q12.832-6.72852 12.832-7.05078Q12.832-7.38281 12.627-7.58789Q12.4219-7.79297 12.0898-7.79297L9.98047-7.79297L9.98047-9.90234Q9.98047-10.2344 9.77051-10.4443Q9.56055-10.6543 9.23828-10.6543Q8.90625-10.6543 8.71094-10.4443Q8.51562-10.2344 8.51562-9.90234L8.51562-7.79297L6.40625-7.79297Q6.06445-7.79297 5.85938-7.58789Q5.6543-7.38281 5.6543-7.05078Z"/>
  </g>
  <g transform="matrix(1 0 0 1 281.867 1933)">
   <path d="M11.709 2.91016Q13.75 2.91016 15.5518 2.12891Q17.3535 1.34766 18.7305-0.0292969Q20.1074-1.40625 20.8887-3.20801Q21.6699-5.00977 21.6699-7.05078Q21.6699-9.0918 20.8887-10.8936Q20.1074-12.6953 18.7305-14.0723Q17.3535-15.4492 15.5469-16.2305Q13.7402-17.0117 11.6992-17.0117Q9.6582-17.0117 7.85645-16.2305Q6.05469-15.4492 4.68262-14.0723Q3.31055-12.6953 2.5293-10.8936Q1.74805-9.0918 1.74805-7.05078Q1.74805-5.00977 2.5293-3.20801Q3.31055-1.40625 4.6875-0.0292969Q6.06445 1.34766 7.86621 2.12891Q9.66797 2.91016 11.709 2.91016ZM11.709 1.25Q9.98047 1.25 8.47656 0.605469Q6.97266-0.0390625 5.83496-1.17676Q4.69727-2.31445 4.05762-3.81836Q3.41797-5.32227 3.41797-7.05078Q3.41797-8.7793 4.05762-10.2832Q4.69727-11.7871 5.83008-12.9297Q6.96289-14.0723 8.4668-14.7119Q9.9707-15.3516 11.6992-15.3516Q13.4277-15.3516 14.9316-14.7119Q16.4355-14.0723 17.5781-12.9297Q18.7207-11.7871 19.3652-10.2832Q20.0098-8.7793 20.0098-7.05078Q20.0098-5.32227 19.3701-3.81836Q18.7305-2.31445 17.5928-1.17676Q16.4551-0.0390625 14.9463 0.605469Q13.4375 1.25 11.709 1.25ZM7.17773-7.05078Q7.17773-6.69922 7.41211-6.47461Q7.64648-6.25 8.01758-6.25L10.8887-6.25L10.8887-3.36914Q10.8887-2.99805 11.1133-2.76855Q11.3379-2.53906 11.6895-2.53906Q12.0605-2.53906 12.29-2.76855Q12.5195-2.99805 12.5195-3.36914L12.5195-6.25L15.4004-6.25Q15.7715-6.25 16.001-6.47461Q16.2305-6.69922 16.2305-7.05078Q16.2305-7.42188 16.001-7.65137Q15.7715-7.88086 15.4004-7.88086L12.5195-7.88086L12.5195-10.752Q12.5195-11.1328 12.29-11.3623Q12.0605-11.5918 11.6895-11.5918Q11.3379-11.5918 11.1133-11.3574Q10.8887-11.123 10.8887-10.752L10.8887-7.88086L8.01758-7.88086Q7.63672-7.88086 7.40723-7.65137Q7.17773-7.42188 7.17773-7.05078Z"/>
  </g>
  <g transform="matrix(1 0 0 1 305.646 1933)">
   <path d="M14.9707 5.66406Q17.0605 5.66406 18.96 5.01465Q20.8594 4.36523 22.4512 3.19336Q24.043 2.02148 25.2197 0.429688Q26.3965-1.16211 27.0459-3.06641Q27.6953-4.9707 27.6953-7.05078Q27.6953-9.14062 27.0459-11.04Q26.3965-12.9395 25.2197-14.5312Q24.043-16.123 22.4512-17.2998Q20.8594-18.4766 18.9551-19.126Q17.0508-19.7754 14.9609-19.7754Q12.8711-19.7754 10.9717-19.126Q9.07227-18.4766 7.48535-17.2998Q5.89844-16.123 4.72168-14.5312Q3.54492-12.9395 2.90039-11.04Q2.25586-9.14062 2.25586-7.05078Q2.25586-4.9707 2.90527-3.06641Q3.55469-1.16211 4.72656 0.429688Q5.89844 2.02148 7.49023 3.19336Q9.08203 4.36523 10.9814 5.01465Q12.8809 5.66406 14.9707 5.66406ZM14.9707 3.84766Q13.1641 3.84766 11.5283 3.2959Q9.89258 2.74414 8.53516 1.74805Q7.17773 0.751953 6.17676-0.610352Q5.17578-1.97266 4.62891-3.6084Q4.08203-5.24414 4.08203-7.05078Q4.08203-8.86719 4.62891-10.5029Q5.17578-12.1387 6.17188-13.501Q7.16797-14.8633 8.52539-15.8594Q9.88281-16.8555 11.5186-17.4023Q13.1543-17.9492 14.9609-17.9492Q16.7773-17.9492 18.4131-17.4023Q20.0488-16.8555 21.4111-15.8594Q22.7734-14.8633 23.7695-13.501Q24.7656-12.1387 25.3174-10.5029Q25.8691-8.86719 25.8691-7.05078Q25.8789-5.24414 25.332-3.6084Q24.7852-1.97266 23.7842-0.610352Q22.7832 0.751953 21.4209 1.74805Q20.0586 2.74414 18.4229 3.2959Q16.7871 3.84766 14.9707 3.84766ZM9.19922-7.05078Q9.19922-6.66992 9.45801-6.4209Q9.7168-6.17188 10.1172-6.17188L14.0625-6.17188L14.0625-2.2168Q14.0625-1.81641 14.3115-1.55762Q14.5605-1.29883 14.9512-1.29883Q15.3516-1.29883 15.6104-1.55273Q15.8691-1.80664 15.8691-2.2168L15.8691-6.17188L19.8242-6.17188Q20.2246-6.17188 20.4785-6.4209Q20.7324-6.66992 20.7324-7.05078Q20.7324-7.46094 20.4785-7.71484Q20.2246-7.96875 19.8242-7.96875L15.8691-7.96875L15.8691-11.9141Q15.8691-12.3242 15.6104-12.583Q15.3516-12.8418 14.9512-12.8418Q14.5605-12.8418 14.3115-12.583Q14.0625-12.3242 14.0625-11.9141L14.0625-7.96875L10.1172-7.96875Q9.70703-7.96875 9.45312-7.71484Q9.19922-7.46094 9.19922-7.05078Z"/>
  </g>
  <text style="stroke:none;fill:black;font-family:sans-serif;font-size:13;font-weight:bold;" transform="matrix(1 0 0 1 263 1953)">Design Variations</text>
  <text style="stroke:none;fill:black;font-family:sans-serif;font-size:13;" transform="matrix(1 0 0 1 263 1971)">Symbols are supported in up to nine weights and three scales.</text>
  <text style="stroke:none;fill:black;font-family:sans-serif;font-size:13;" transform="matrix(1 0 0 1 263 1989)">For optimal layout with text and other symbols, vertically align</text>
  <text style="stroke:none;fill:black;font-family:sans-serif;font-size:13;" transform="matrix(1 0 0 1 263 2007)">symbols with the adjacent text.</text>
  <line style="fill:none;stroke:#00AEEF;stroke-width:0.5;opacity:1.0;" x1="776" x2="776" y1="1919" y2="1933"/>
  <g transform="matrix(1 0 0 1 776 1933)">
   <path d="M3.31055 0.15625Q3.70117 0.15625 3.91602-0.00976562Q4.13086-0.175781 4.26758-0.585938L5.52734-4.0332L11.2891-4.0332L12.5488-0.585938Q12.6855-0.175781 12.9004-0.00976562Q13.1152 0.15625 13.4961 0.15625Q13.8867 0.15625 14.1162-0.0585938Q14.3457-0.273438 14.3457-0.644531Q14.3457-0.869141 14.2383-1.17188L9.6582-13.3691Q9.48242-13.8184 9.17969-14.043Q8.87695-14.2676 8.4082-14.2676Q7.5-14.2676 7.17773-13.3789L2.59766-1.16211Q2.49023-0.859375 2.49023-0.634766Q2.49023-0.263672 2.70996-0.0537109Q2.92969 0.15625 3.31055 0.15625ZM6.00586-5.51758L8.37891-12.0898L8.42773-12.0898L10.8008-5.51758Z"/>
  </g>
  <line style="fill:none;stroke:#00AEEF;stroke-width:0.5;opacity:1.0;" x1="793.197" x2="793.197" y1="1919" y2="1933"/>
  <text style="stroke:none;fill:black;font-family:sans-serif;font-size:13;font-weight:bold;" transform="matrix(1 0 0 1 776 1953)">Margins</text>
  <text style="stroke:none;fill:black;font-family:sans-serif;font-size:13;" transform="matrix(1 0 0 1 776 1971)">Leading and trailing margins on the left and right side of each symbol</text>
  <text style="stroke:none;fill:black;font-family:sans-serif;font-size:13;" transform="matrix(1 0 0 1 776 1989)">can be adjusted by modifying the x-location of the margin guidelines.</text>
  <text style="stroke:none;fill:black;font-family:sans-serif;font-size:13;" transform="matrix(1 0 0 1 776 2007)">Modifications are automatically applied proportionally to all</text>
  <text style="stroke:none;fill:black;font-family:sans-serif;font-size:13;" transform="matrix(1 0 0 1 776 2025)">scales and weights.</text>
  <g transform="matrix(1 0 0 1 1289 1933)">
   <path d="M2.8418 1.86523L4.54102 3.57422Q5.18555 4.22852 5.90332 4.17969Q6.62109 4.13086 7.31445 3.35938L18.0078-8.42773L17.041-9.4043L6.42578 2.27539Q6.16211 2.57812 5.89355 2.61719Q5.625 2.65625 5.27344 2.30469L4.10156 1.14258Q3.75 0.791016 3.79395 0.522461Q3.83789 0.253906 4.14062-0.0195312L15.6152-10.8203L14.6387-11.7871L3.04688-0.898438Q2.30469-0.214844 2.25098 0.498047Q2.19727 1.21094 2.8418 1.86523ZM9.25781-16.3281Q8.94531-16.0254 8.90625-15.6348Q8.86719-15.2441 9.04297-14.9512Q9.21875-14.6777 9.55566-14.541Q9.89258-14.4043 10.3809-14.5215Q11.4746-14.7754 12.5977-14.7314Q13.7207-14.6875 14.7949-13.9844L14.209-12.5293Q13.9551-11.9043 14.0674-11.4404Q14.1797-10.9766 14.5801-10.5664L16.875-8.25195Q17.2363-7.88086 17.5781-7.82227Q17.9199-7.76367 18.3398-7.8418L19.4043-8.03711L20.0684-7.36328L20.0293-6.80664Q20-6.43555 20.1221-6.12305Q20.2441-5.81055 20.6055-5.44922L21.3672-4.70703Q21.7285-4.3457 22.1533-4.33105Q22.5781-4.31641 22.9297-4.66797L25.8398-7.58789Q26.1914-7.93945 26.1816-8.35449Q26.1719-8.76953 25.8105-9.13086L25.0391-9.89258Q24.6875-10.2539 24.3799-10.3857Q24.0723-10.5176 23.7109-10.4883L23.1348-10.4395L22.4902-11.0742L22.7344-12.1973Q22.832-12.6172 22.6953-12.9834Q22.5586-13.3496 22.1191-13.7891L19.9219-15.9766Q18.6719-17.2168 17.2607-17.8369Q15.8496-18.457 14.4189-18.4814Q12.9883-18.5059 11.665-17.959Q10.3418-17.4121 9.25781-16.3281ZM10.752-15.957Q11.6602-16.6211 12.7002-16.9043Q13.7402-17.1875 14.8047-17.085Q15.8691-16.9824 16.8701-16.5137Q17.8711-16.0449 18.7012-15.2051L21.1328-12.793Q21.3086-12.6172 21.3525-12.4512Q21.3965-12.2852 21.3379-12.0312L21.0156-10.5469L22.5195-9.0625L23.5059-9.12109Q23.6914-9.13086 23.7891-9.09668Q23.8867-9.0625 24.0332-8.91602L24.6094-8.33984L22.168-5.89844L21.5918-6.47461Q21.4453-6.62109 21.4062-6.71875Q21.3672-6.81641 21.377-7.01172L21.4453-7.98828L19.9512-9.47266L18.4277-9.21875Q18.1836-9.16992 18.042-9.2041Q17.9004-9.23828 17.7148-9.41406L15.7129-11.416Q15.5176-11.5918 15.4932-11.7529Q15.4688-11.9141 15.5859-12.1875L16.4648-14.2773Q15.293-15.3711 13.8281-15.791Q12.3633-16.2109 10.8398-15.7617Q10.7227-15.7324 10.6885-15.8057Q10.6543-15.8789 10.752-15.957Z"/>
  </g>
  <text style="stroke:none;fill:black;font-family:sans-serif;font-size:13;font-weight:bold;" transform="matrix(1 0 0 1 1289 1953)">Exporting</text>
  <text style="stroke:none;fill:black;font-family:sans-serif;font-size:13;" transform="matrix(1 0 0 1 1289 1971)">Symbols should be outlined when exporting to ensure the</text>
  <text style="stroke:none;fill:black;font-family:sans-serif;font-size:13;" transform="matrix(1 0 0 1 1289 1989)">design is preserved when submitting to Xcode.</text>
  <text id="template-version" style="stroke:none;fill:black;font-family:sans-serif;font-size:13;text-anchor:end;" transform="matrix(1 0 0 1 3036 1933)">Template v.3.0</text>
  <text style="stroke:none;fill:black;font-family:sans-serif;font-size:13;text-anchor:end;" transform="matrix(1 0 0 1 3036 1951)">Requires Xcode 13 or greater</text>
  <text id="descriptive-name" style="stroke:none;fill:black;font-family:sans-serif;font-size:13;text-anchor:end;" transform="matrix(1 0 0 1 3036 1969)">Generated from platter.filled.top.and.arrow.up.iphone</text>
  <text style="stroke:none;fill:black;font-family:sans-serif;font-size:13;text-anchor:end;" transform="matrix(1 0 0 1 3036 1987)">Typeset at 100 points</text>
  <text style="stroke:none;fill:black;font-family:sans-serif;font-size:13;" transform="matrix(1 0 0 1 263 726)">Small</text>
  <text style="stroke:none;fill:black;font-family:sans-serif;font-size:13;" transform="matrix(1 0 0 1 263 1156)">Medium</text>
  <text style="stroke:none;fill:black;font-family:sans-serif;font-size:13;" transform="matrix(1 0 0 1 263 1586)">Large</text>
 </g>
 <g id="Guides">
  <g id="H-reference" style="fill:#27AAE1;stroke:none;" transform="matrix(1 0 0 1 339 696)">
   <path d="M0.993347 0L3.6377 0L29.3282-67.1326L30.0301-67.1326L30.0301-70.459L28.1227-70.459ZM11.6882-24.4797L46.9818-24.4797L46.2311-26.7288L12.4382-26.7288ZM55.1193 0L57.7637 0L30.6381-70.459L29.4327-70.459L29.4327-67.1326Z"/>
  </g>
  <line id="Baseline-S" style="fill:none;stroke:#27AAE1;opacity:1;stroke-width:0.5;" x1="263" x2="3036" y1="696" y2="696"/>
  <line id="Capline-S" style="fill:none;stroke:#27AAE1;opacity:1;stroke-width:0.5;" x1="263" x2="3036" y1="625.541" y2="625.541"/>
  <g id="H-reference" style="fill:#27AAE1;stroke:none;" transform="matrix(1 0 0 1 339 1126)">
   <path d="M0.993347 0L3.6377 0L29.3282-67.1326L30.0301-67.1326L30.0301-70.459L28.1227-70.459ZM11.6882-24.4797L46.9818-24.4797L46.2311-26.7288L12.4382-26.7288ZM55.1193 0L57.7637 0L30.6381-70.459L29.4327-70.459L29.4327-67.1326Z"/>
  </g>
  <line id="Baseline-M" style="fill:none;stroke:#27AAE1;opacity:1;stroke-width:0.5;" x1="263" x2="3036" y1="1126" y2="1126"/>
  <line id="Capline-M" style="fill:none;stroke:#27AAE1;opacity:1;stroke-width:0.5;" x1="263" x2="3036" y1="1055.54" y2="1055.54"/>
  <g id="H-reference" style="fill:#27AAE1;stroke:none;" transform="matrix(1 0 0 1 339 1556)">
   <path d="M0.993347 0L3.6377 0L29.3282-67.1326L30.0301-67.1326L30.0301-70.459L28.1227-70.459ZM11.6882-24.4797L46.9818-24.4797L46.2311-26.7288L12.4382-26.7288ZM55.1193 0L57.7637 0L30.6381-70.459L29.4327-70.459L29.4327-67.1326Z"/>
  </g>
  <line id="Baseline-L" style="fill:none;stroke:#27AAE1;opacity:1;stroke-width:0.5;" x1="263" x2="3036" y1="1556" y2="1556"/>
  <line id="Capline-L" style="fill:none;stroke:#27AAE1;opacity:1;stroke-width:0.5;" x1="263" x2="3036" y1="1485.54" y2="1485.54"/>
  <line id="left-margin-Regular-M" style="fill:none;stroke:#00AEEF;stroke-width:0.5;opacity:1.0;" x1="1399.77" x2="1399.77" y1="1030.79" y2="1150.12"/>
  <line id="right-margin-Regular-M" style="fill:none;stroke:#00AEEF;stroke-width:0.5;opacity:1.0;" x1="1499.92" x2="1499.92" y1="1030.79" y2="1150.12"/>
 </g>
 <g id="Symbols">
  <g id="Black-L" transform="matrix(1 0 0 1 2861.61 1556)">
   <path d="M52.5047-34.3759Q52.5047-32.2938 53.8916-31.0061Q55.2785-29.7183 57.4179-29.7183Q59.7879-29.6975 61.3351-31.5952L64.9383-35.7604L66.469-38.0277L66.1509-32.7269L66.1509-17.5664Q66.1509-15.3287 67.7526-13.8145Q69.3544-12.3004 71.787-12.3004Q74.2195-12.3004 75.8109-13.8145Q77.4022-15.3287 77.4022-17.5664L77.4022-32.7269L77.0829-38.0277L78.6136-35.7604L82.2376-31.5952Q83.786-29.6975 86.1561-29.7183Q88.2746-29.7183 89.6609-31.0061Q91.0472-32.2938 91.0472-34.3759Q91.0472-36.5956 89.6417-38.0595L76.2888-52.7738Q74.4895-54.7483 71.787-54.7483Q69.0844-54.7483 67.2632-52.7738L53.931-38.0595Q52.5047-36.5956 52.5047-34.3759ZM55.3653-60.7875L88.1878-60.7875Q90.6844-60.7875 92.2124-62.3551Q93.7404-63.9227 93.7404-66.4986L93.7404-76.0836Q93.7404-78.6594 92.2124-80.227Q90.6844-81.7946 88.1878-81.7946L55.3653-81.7946Q52.8687-81.7946 51.3407-80.227Q49.8127-78.6594 49.8127-76.0836L49.8127-66.4986Q49.8127-63.9227 51.3407-62.3551Q52.8687-60.7875 55.3653-60.7875ZM21.2056 20.4185Q21.2056 29.6653 27.155 35.3965Q33.1044 41.1276 42.7474 41.1276L102.032 41.1276Q111.17 41.1276 116.769 35.3965Q122.368 29.6653 122.368 20.3601L122.368-91.1527Q122.368-100.458 116.769-106.189Q111.17-111.92 102.032-111.92L42.7474-111.92Q33.1044-111.92 27.155-106.218Q21.2056-100.516 21.2056-91.2112ZM41.1867 13.4149L41.1867-84.2076Q41.1867-87.1975 42.9177-88.809Q44.6487-90.4206 47.5842-90.4206L96.0273-90.4206Q98.9044-90.4206 100.635-88.7506Q102.366-87.0806 102.366-84.1492L102.366 13.3565Q102.366 16.2892 100.635 17.9592Q98.9044 19.6292 96.0273 19.6292L47.5842 19.6292Q44.6487 19.6292 42.9177 17.9884Q41.1867 16.3476 41.1867 13.4149Z"/>
  </g>
  <g id="Heavy-L" transform="matrix(1 0 0 1 2566.73 1556)">
   <path d="M51.1342-36.2976Q51.1342-34.3694 52.4053-33.1859Q53.6764-32.0025 55.6436-32.0025Q57.7489-31.9723 59.1781-33.6692L63.1957-38.0972L65.1812-40.8265L64.8763-34.9846L64.8763-18.9962Q64.8763-16.9587 66.3187-15.5833Q67.7611-14.2078 69.957-14.2078Q72.1529-14.2078 73.5802-15.5833Q75.0075-16.9587 75.0075-18.9962L75.0075-34.9846L74.6971-40.8265L76.6826-38.0972L80.7303-33.6692Q82.1651-31.9723 84.2705-32.0025Q86.2075-32.0025 87.4758-33.1859Q88.7441-34.3694 88.7441-36.2976Q88.7441-38.3453 87.4803-39.6537L73.9669-54.1833Q72.3402-55.9437 69.957-55.9437Q67.5738-55.9437 65.9114-54.1833L52.4281-39.6537Q51.1342-38.3453 51.1342-36.2976ZM53.4492-61.8094L86.4345-61.8094Q88.9444-61.8094 90.4724-63.3748Q92.0004-64.9402 92.0004-67.5249L92.0004-76.5854Q92.0004-79.17 90.4724-80.7355Q88.9444-82.3009 86.4345-82.3009L53.4492-82.3009Q50.9394-82.3009 49.4114-80.7355Q47.8835-79.17 47.8835-76.5854L47.8835-67.5249Q47.8835-64.9402 49.4114-63.3748Q50.9394-61.8094 53.4492-61.8094ZM21.8948 19.0601Q21.8948 27.8566 27.5346 33.2819Q33.1743 38.7072 42.3447 38.7072L98.4762 38.7072Q107.275 38.7072 112.647 33.2819Q118.019 27.8566 118.019 19.0155L118.019-89.758Q118.019-98.599 112.647-104.024Q107.275-109.45 98.4762-109.45L42.3447-109.45Q33.1743-109.45 27.5346-104.047Q21.8948-98.6436 21.8948-89.8026ZM39.3953 13.3524L39.3953-84.0949Q39.3953-87.3265 41.2416-89.0578Q43.0879-90.7891 46.3207-90.7891L93.6077-90.7891Q96.7959-90.7891 98.6423-89.0131Q100.489-87.2372 100.489-84.0503L100.489 13.3078Q100.489 16.5004 98.6423 18.2763Q96.7959 20.0522 93.6077 20.0522L46.3207 20.0522Q43.0879 20.0522 41.2416 18.2986Q39.3953 16.545 39.3953 13.3524Z"/>
  </g>
  <g id="Bold-L" transform="matrix(1 0 0 1 2272.32 1556)">
   <path d="M49.4137-38.5677Q49.4137-36.8465 50.5352-35.8011Q51.6566-34.7556 53.3939-34.7556Q55.1762-34.7177 56.4519-36.1687L61.0589-41.0163L63.5533-44.2249L63.2712-37.9678L63.2712-20.6518Q63.2712-18.8678 64.5138-17.6689Q65.7565-16.47 67.6529-16.47Q69.5494-16.47 70.7731-17.6689Q71.9969-18.8678 71.9969-20.6518L71.9969-37.9678L71.7016-44.2249L74.196-41.0163L78.8409-36.1687Q80.1297-34.7177 81.9122-34.7556Q83.6114-34.7556 84.7263-35.8011Q85.8412-36.8465 85.8412-38.5677Q85.8412-40.3854 84.7466-41.5092L71.0483-55.8457Q69.6442-57.3373 67.6529-57.3373Q65.6617-57.3373 64.2066-55.8457L50.5462-41.5092Q49.4137-40.3854 49.4137-38.5677ZM51.0301-63.0623L84.2376-63.0623Q86.7705-63.0623 88.2984-64.6239Q89.8264-66.1855 89.8264-68.7854L89.8264-77.2003Q89.8264-79.8001 88.2984-81.3618Q86.7705-82.9234 84.2376-82.9234L51.0301-82.9234Q48.4976-82.9234 46.9696-81.3618Q45.4416-79.8001 45.4416-77.2003L45.4416-68.7854Q45.4416-66.1855 46.9696-64.6239Q48.4976-63.0623 51.0301-63.0623ZM22.6658 17.3773Q22.6658 25.6726 27.9176 30.725Q33.1695 35.7775 41.8006 35.7775L94.0807 35.7775Q102.487 35.7775 107.563 30.725Q112.64 25.6726 112.64 17.3481L112.64-88.0291Q112.64-96.3536 107.563-101.406Q102.487-106.458 94.0807-106.458L41.8006-106.458Q33.1695-106.458 27.9176-101.421Q22.6658-96.3828 22.6658-88.0583ZM37.1076 13.1861L37.1076-83.8671Q37.1076-87.4654 39.111-89.3614Q41.1144-91.2574 44.7682-91.2574L90.529-91.2574Q94.1536-91.2574 96.157-89.3322Q98.1604-87.407 98.1604-83.8379L98.1604 13.1569Q98.1604 16.7394 96.157 18.6645Q94.1536 20.5896 90.529 20.5896L44.7682 20.5896Q41.1144 20.5896 39.111 18.6791Q37.1076 16.7686 37.1076 13.1861Z"/>
  </g>
  <g id="Semibold-L" transform="matrix(1 0 0 1 1977.2 1556)">
   <path d="M48.2277-40.1328Q48.2277-38.5543 49.2459-37.604Q50.2642-36.6536 51.8429-36.6536Q53.4026-36.6104 54.5725-37.8918L59.5858-43.0287L62.431-46.5678L62.1646-40.0245L62.1646-21.7932Q62.1646-20.1839 63.2696-19.1068Q64.3746-18.0296 66.0646-18.0296Q67.7545-18.0296 68.8379-19.1068Q69.9213-20.1839 69.9213-21.7932L69.9213-40.0245L69.6366-46.5678L72.4817-43.0287L77.5383-37.8918Q78.7265-36.6104 80.2865-36.6536Q81.8217-36.6536 82.8308-37.604Q83.8399-38.5543 83.8399-40.1328Q83.8399-41.7919 82.862-42.7884L69.0363-56.9917Q67.7855-58.298 66.0646-58.298Q64.3436-58.298 63.0313-56.9917L49.2488-42.7884Q48.2277-41.7919 48.2277-40.1328ZM49.3624-63.926L82.7231-63.926Q85.2717-63.926 86.7997-65.485Q88.3277-67.044 88.3277-69.6544L88.3277-77.6241Q88.3277-80.2345 86.7997-81.7936Q85.2717-83.3526 82.7231-83.3526L49.3624-83.3526Q46.8142-83.3526 45.2862-81.7936Q43.7582-80.2345 43.7582-77.6241L43.7582-69.6544Q43.7582-67.044 45.2862-65.485Q46.8142-63.926 49.3624-63.926ZM23.1973 16.2172Q23.1973 24.167 28.1817 28.9624Q33.1661 33.7578 41.4255 33.7578L91.0505 33.7578Q99.1859 33.7578 104.059 28.9624Q108.932 24.167 108.932 16.1986L108.932-86.8372Q108.932-94.8056 104.059-99.601Q99.1859-104.396 91.0505-104.396L41.4255-104.396Q33.1661-104.396 28.1817-99.6103Q23.1973-94.8241 23.1973-86.8558ZM35.5305 13.0714L35.5305-83.71Q35.5305-87.5612 37.6422-89.5708Q39.7539-91.5803 43.6979-91.5803L88.4066-91.5803Q92.332-91.5803 94.4437-89.5522Q96.5554-87.5241 96.5554-83.6915L96.5554 13.0529Q96.5554 16.9041 94.4437 18.9321Q92.332 20.96 88.4066 20.96L43.6979 20.96Q39.7539 20.96 37.6422 18.9414Q35.5305 16.9227 35.5305 13.0714Z"/>
  </g>
  <g id="Medium-L" transform="matrix(1 0 0 1 1681.7 1556)">
   <path d="M47.3283-41.3194Q47.3283-39.8491 48.2684-38.971Q49.2084-38.0928 50.6669-38.0928Q52.0578-38.0455 53.1475-39.1983L58.4689-44.5546L61.58-48.3442L61.3255-41.5839L61.3255-22.6587Q61.3255-21.1819 62.3262-20.197Q63.3268-19.2121 64.8602-19.2121Q66.3936-19.2121 67.3706-20.197Q68.3476-21.1819 68.3476-22.6587L68.3476-41.5839L68.0708-48.3442L71.1819-44.5546L76.5506-39.1983Q77.6626-38.0455 79.0538-38.0928Q80.4647-38.0928 81.3936-38.971Q82.3225-39.8491 82.3225-41.3194Q82.3225-42.8584 81.4331-43.7583L67.5107-57.8607Q66.3762-59.0264 64.8602-59.0264Q63.3441-59.0264 62.1401-57.8607L48.265-43.7583Q47.3283-42.8584 47.3283-41.3194ZM48.0979-64.5809L81.5748-64.5809Q84.1354-64.5809 85.6633-66.1379Q87.1913-67.695 87.1913-70.3133L87.1913-77.9456Q87.1913-80.5639 85.6633-82.121Q84.1354-83.678 81.5748-83.678L48.0979-83.678Q45.5377-83.678 44.0097-82.121Q42.4818-80.5639 42.4818-77.9456L42.4818-70.3133Q42.4818-67.695 44.0097-66.1379Q45.5377-64.5809 48.0979-64.5809ZM23.6003 15.3375Q23.6003 23.0253 28.382 27.6258Q33.1636 32.2264 41.141 32.2264L88.7528 32.2264Q96.6829 32.2264 101.401 27.6258Q106.12 23.0253 106.12 15.327L106.12-85.9335Q106.12-93.6318 101.401-98.2323Q96.6829-102.833 88.7528-102.833L41.141-102.833Q33.1636-102.833 28.382-98.2376Q23.6003-93.6423 23.6003-85.944ZM34.3346 12.9845L34.3346-83.5909Q34.3346-87.6339 36.5285-89.7295Q38.7223-91.8251 42.8863-91.8251L86.7973-91.8251Q90.9508-91.8251 93.1446-89.719Q95.3384-87.6128 95.3384-83.5804L95.3384 12.974Q95.3384 17.029 93.1446 19.135Q90.9508 21.241 86.7973 21.241L42.8863 21.241Q38.7223 21.241 36.5285 19.1403Q34.3346 17.0395 34.3346 12.9845Z"/>
  </g>
  <g id="Regular-L" transform="matrix(1 0 0 1 1386.56 1556)">
   <path d="M46.1553-42.8673Q46.1553-41.5381 46.9933-40.754Q47.8313-39.9699 49.133-39.9699Q50.3037-39.9174 51.2888-40.9025L57.012-46.5449L60.4701-50.6613L60.2311-43.618L60.2311-23.7875Q60.2311-22.4835 61.0956-21.619Q61.9601-20.7545 63.2892-20.7545Q64.6184-20.7545 65.4566-21.619Q66.2948-22.4835 66.2948-23.7875L66.2948-43.618L66.0285-50.6613L69.4865-46.5449L75.2623-40.9025Q76.2748-39.9174 77.4459-39.9699Q78.6946-39.9699 79.5189-40.754Q80.3432-41.5381 80.3432-42.8673Q80.3432-44.2494 79.5692-45.0235L65.5208-58.9941Q64.538-59.9765 63.2892-59.9765Q62.0405-59.9765 60.9777-58.9941L46.9819-45.0235Q46.1553-44.2494 46.1553-42.8673ZM46.4485-65.4351L80.0769-65.4351Q82.6531-65.4351 84.1811-66.9896Q85.7091-68.544 85.7091-71.1728L85.7091-78.3648Q85.7091-80.9935 84.1811-82.548Q82.6531-84.1025 80.0769-84.1025L46.4485-84.1025Q43.8728-84.1025 42.3448-82.548Q40.8169-80.9935 40.8169-78.3648L40.8169-71.1728Q40.8169-68.544 42.3448-66.9896Q43.8728-65.4351 46.4485-65.4351ZM24.126 14.1902Q24.126 21.5363 28.6431 25.8826Q33.1603 30.2288 40.77 30.2288L85.7559 30.2288Q93.4182 30.2288 97.9353 25.8826Q102.452 21.5363 102.452 14.1902L102.452-84.7547Q102.452-92.1008 97.9353-96.4471Q93.4182-100.793 85.7559-100.793L40.77-100.793Q33.1603-100.793 28.6431-96.4471Q24.126-92.1008 24.126-84.7547ZM32.7749 12.8711L32.7749-83.4356Q32.7749-87.7286 35.0758-89.9365Q37.3767-92.1445 41.8278-92.1445L84.6982-92.1445Q89.1492-92.1445 91.4502-89.9365Q93.7511-87.7286 93.7511-83.4356L93.7511 12.8711Q93.7511 17.192 91.4502 19.3997Q89.1492 21.6074 84.6982 21.6074L41.8278 21.6074Q37.3767 21.6074 35.0758 19.3997Q32.7749 17.192 32.7749 12.8711Z"/>
  </g>
  <g id="Light-L" transform="matrix(1 0 0 1 1091.68 1556)">
   <path d="M44.8195-43.726Q44.8195-42.645 45.5143-42.0136Q46.2091-41.3821 47.2437-41.3821Q48.2232-41.3488 49.0557-42.1813L55.6762-48.7205L59.1342-52.5699L58.9523-46.8816L58.9523-24.1884Q58.9523-23.0944 59.6642-22.3825Q60.376-21.6706 61.457-21.6706Q62.538-21.6706 63.2332-22.3825Q63.9284-23.0944 63.9284-24.1884L63.9284-46.8816L63.7002-52.5699L67.1582-48.7205L73.812-42.1813Q74.6908-41.3488 75.6711-41.3821Q76.6716-41.3821 77.3433-42.0136Q78.0149-42.645 78.0149-43.726Q78.0149-44.841 77.3172-45.5387L63.2307-59.605Q62.4576-60.3773 61.457-60.3773Q60.4565-60.3773 59.6037-59.605L45.5505-45.5387Q44.8195-44.841 44.8195-43.726ZM44.4826-66.2175L78.3973-66.2175Q81.0309-66.2175 82.5589-67.7625Q84.0869-69.3075 84.0869-71.9744L84.0869-78.7464Q84.0869-81.4133 82.5589-82.9583Q81.0309-84.5033 78.3973-84.5033L44.4826-84.5033Q41.8498-84.5033 40.3218-82.9583Q38.7938-81.4133 38.7938-78.7464L38.7938-71.9744Q38.7938-69.3075 40.3218-67.7625Q41.8498-66.2175 44.4826-66.2175ZM24.126 13.0259Q24.126 20.3912 28.3473 24.518Q32.5687 28.6448 40.1021 28.6448L82.7786 28.6448Q90.3453 28.6448 94.5667 24.518Q98.788 20.3912 98.788 13.0259L98.788-83.5522Q98.788-90.9176 94.5667-95.0444Q90.3453-99.1712 82.7786-99.1712L40.1021-99.1712Q32.5687-99.1712 28.3473-95.0444Q24.126-90.9176 24.126-83.5522ZM30.7519 12.1839L30.7519-82.7103Q30.7519-87.6905 33.2532-90.1179Q35.7545-92.5453 40.8353-92.5453L82.0454-92.5453Q87.1262-92.5453 89.6275-90.1179Q92.1289-87.6905 92.1289-82.7103L92.1289 12.1839Q92.1289 17.2112 89.6275 19.6382Q87.1262 22.0653 82.0454 22.0653L40.8353 22.0653Q35.7545 22.0653 33.2532 19.6382Q30.7519 17.2112 30.7519 12.1839Z"/>
  </g>
  <g id="Thin-L" transform="matrix(1 0 0 1 797.388 1556)">
   <path d="M43.0527-44.8617Q43.0527-44.109 43.5581-43.6794Q44.0636-43.2498 44.745-43.2498Q45.4717-43.242 46.1023-43.8726L53.9094-51.598L57.3674-55.0941L57.261-51.198L57.261-24.7185Q57.261-23.9022 57.771-23.3923Q58.281-22.8823 59.0337-22.8823Q59.7865-22.8823 60.2925-23.3923Q60.7986-23.9022 60.7986-24.7185L60.7986-51.198L60.6208-55.0941L64.0789-51.598L71.8938-43.8726Q72.5958-43.242 73.3237-43.2498Q73.996-43.2498 74.4658-43.6794Q74.9356-44.109 74.9356-44.8617Q74.9356-45.6235 74.3388-46.2203L60.2018-60.4129Q59.7061-60.9074 59.0337-60.9074Q58.3614-60.9074 57.7865-60.4129L43.6573-46.2203Q43.0527-45.6235 43.0527-44.8617ZM41.8825-67.2523L76.1759-67.2523Q78.8854-67.2523 80.4134-68.7848Q81.9414-70.3173 81.9414-73.0346L81.9414-79.251Q81.9414-81.9684 80.4134-83.5009Q78.8854-85.0334 76.1759-85.0334L41.8825-85.0334Q39.1742-85.0334 37.6462-83.5009Q36.1182-81.9684 36.1182-79.251L36.1182-73.0346Q36.1182-70.3173 37.6462-68.7848Q39.1742-67.2523 41.8825-67.2523ZM24.126 11.486Q24.126 18.8768 27.9561 22.7133Q31.7863 26.5498 39.2187 26.5498L78.8409 26.5498Q86.2812 26.5498 90.1114 22.7133Q93.9415 18.8768 93.9415 11.486L93.9415-81.9619Q93.9415-89.3527 90.1114-93.1892Q86.2812-97.0257 78.8409-97.0257L39.2187-97.0257Q31.7863-97.0257 27.9561-93.1892Q24.126-89.3527 24.126-81.9619ZM28.0763 11.2751L28.0763-81.751Q28.0763-87.64 30.8426-90.3577Q33.609-93.0754 39.5228-93.0754L78.5369-93.0754Q84.4506-93.0754 87.217-90.3577Q89.9834-87.64 89.9834-81.751L89.9834 11.2751Q89.9834 17.2367 87.217 19.9538Q84.4506 22.6709 78.5369 22.6709L39.5228 22.6709Q33.609 22.6709 30.8426 19.9538Q28.0763 17.2367 28.0763 11.2751Z"/>
  </g>
  <g id="Ultralight-L" transform="matrix(1 0 0 1 501.918 1556)">
   <path d="M42.1478-45.4434Q42.1478-44.8588 42.5562-44.5326Q42.9647-44.2064 43.4651-44.2064Q44.0624-44.2116 44.5896-44.7388L53.0045-53.0718L56.4625-56.3869L56.3948-53.4089L56.3948-24.99Q56.3948-24.3161 56.8014-23.9095Q57.208-23.5029 57.7926-23.5029Q58.3772-23.5029 58.7863-23.9095Q59.1955-24.3161 59.1955-24.99L59.1955-53.4089L59.0436-56.3869L62.5017-53.0718L70.9113-44.7388Q71.5227-44.2116 72.1214-44.2064Q72.6256-44.2064 72.992-44.5326Q73.3584-44.8588 73.3584-45.4434Q73.3584-46.0243 72.8133-46.5693L58.6504-60.8267Q58.2967-61.179 57.7926-61.179Q57.2884-61.179 56.8557-60.8267L42.6877-46.5693Q42.1478-46.0243 42.1478-45.4434ZM40.5507-67.7823L75.0381-67.7823Q77.7865-67.7823 79.3145-69.3084Q80.8425-70.8345 80.8425-73.5777L80.8425-79.5095Q80.8425-82.2527 79.3145-83.7788Q77.7865-85.3049 75.0381-85.3049L40.5507-85.3049Q37.8038-85.3049 36.2758-83.7788Q34.7478-82.2527 34.7478-79.5095L34.7478-73.5777Q34.7478-70.8345 36.2758-69.3084Q37.8038-67.7823 40.5507-67.7823ZM24.126 10.6973Q24.126 18.1011 27.7557 21.7889Q31.3855 25.4767 38.7663 25.4767L76.824 25.4767Q84.1996 25.4767 87.8294 21.7889Q91.4591 18.1011 91.4591 10.6973L91.4591-81.1473Q91.4591-88.5511 87.8294-92.239Q84.1996-95.9268 76.824-95.9268L38.7663-95.9268Q31.3855-95.9268 27.7557-92.239Q24.126-88.5511 24.126-81.1473ZM26.7058 10.8096L26.7058-81.2597Q26.7058-87.6141 29.608-90.4805Q32.5101-93.3469 38.8505-93.3469L76.7398-93.3469Q83.0802-93.3469 85.9823-90.4805Q88.8845-87.6141 88.8845-81.2597L88.8845 10.8096Q88.8845 17.2497 85.9823 20.1154Q83.0802 22.9811 76.7398 22.9811L38.8505 22.9811Q32.5101 22.9811 29.608 20.1154Q26.7058 17.2497 26.7058 10.8096Z"/>
  </g>
  <g id="Black-M" transform="matrix(1 0 0 1 2876.46 1126)">
   <path d="M41.6744-33.0329Q41.6744-31.3212 42.8291-30.2546Q43.9838-29.1881 45.7529-29.1881Q47.7908-29.1826 49.0702-30.8046L51.6272-33.9273L52.4221-35.2507L52.172-31.7924L52.172-20.3707Q52.172-18.4934 53.5293-17.2218Q54.8865-15.9502 56.9408-15.9502Q58.9952-15.9502 60.3497-17.2218Q61.7042-18.4934 61.7042-20.3707L61.7042-31.7924L61.4544-35.2507L62.2493-33.9273L64.8118-30.8046Q66.0909-29.1826 68.1288-29.1881Q69.8924-29.1881 71.0472-30.2546Q72.202-31.3212 72.202-33.0329Q72.202-34.8644 71.0017-36.1218L60.7893-47.6933Q59.2755-49.3784 56.9408-49.3784Q54.6062-49.3784 53.0872-47.6933L42.8803-36.1218Q41.6744-34.8644 41.6744-33.0329ZM44.2741-54.2582L69.6021-54.2582Q71.5327-54.2582 72.7164-55.4732Q73.9002-56.6883 73.9002-58.6815L73.9002-66.5013Q73.9002-68.4945 72.7164-69.7095Q71.5327-70.9246 69.6021-70.9246L44.2741-70.9246Q42.3435-70.9246 41.1598-69.7095Q39.976-68.4945 39.976-66.5013L39.976-58.6815Q39.976-56.6883 41.1598-55.4732Q42.3435-54.2582 44.2741-54.2582ZM15.8366 8.89302Q15.8366 16.4466 20.6719 21.1198Q25.5072 25.7931 33.3738 25.7931L81.7014 25.7931Q89.0596 25.7931 93.5524 21.1198Q98.0451 16.4466 98.0451 8.83592L98.0451-79.5914Q98.0451-87.2021 93.5524-91.8753Q89.0596-96.5485 81.7014-96.5485L33.3738-96.5485Q25.5072-96.5485 20.6719-91.9038Q15.8366-87.2592 15.8366-79.6485ZM33.1745 2.41804L33.1745-73.1735Q33.1745-75.3752 34.4437-76.5506Q35.7129-77.7261 37.8169-77.7261L76.1164-77.7261Q78.1633-77.7261 79.4325-76.4935Q80.7017-75.261 80.7017-73.1164L80.7017 2.36094Q80.7017 4.50528 79.4325 5.7378Q78.1633 6.97032 76.1164 6.97032L37.8169 6.97032Q35.7129 6.97032 34.4437 5.76635Q33.1745 4.56238 33.1745 2.41804Z"/>
  </g>
  <g id="Heavy-M" transform="matrix(1 0 0 1 2581.37 1126)">
   <path d="M40.4579-34.8323Q40.4579-33.2481 41.5125-32.2694Q42.5672-31.2907 44.1927-31.2907Q45.9894-31.2743 47.1675-32.7141L50.0468-36.0109L51.2864-37.8106L51.044-33.6984L51.044-21.7314Q51.044-20.0305 52.2595-18.8804Q53.475-17.7303 55.321-17.7303Q57.1669-17.7303 58.3742-18.8804Q59.5815-20.0305 59.5815-21.7314L59.5815-33.6984L59.3369-37.8106L60.5764-36.0109L63.4722-32.7141Q64.6525-31.2743 66.4492-31.2907Q68.0583-31.2907 69.1119-32.2694Q70.1654-33.2481 70.1654-34.8323Q70.1654-36.5202 69.0965-37.6326L58.7308-49.0148Q57.3663-50.5101 55.321-50.5101Q53.2756-50.5101 51.8925-49.0148L41.5432-37.6326Q40.4579-36.5202 40.4579-34.8323ZM42.5824-55.1849L68.043-55.1849Q69.9813-55.1849 71.1651-56.3987Q72.3489-57.6126 72.3489-59.6109L72.3489-66.9566Q72.3489-68.9549 71.1651-70.1687Q69.9813-71.3826 68.043-71.3826L42.5824-71.3826Q40.6442-71.3826 39.4604-70.1687Q38.2766-68.9549 38.2766-66.9566L38.2766-59.6109Q38.2766-57.6126 39.4604-56.3987Q40.6442-55.1849 42.5824-55.1849ZM16.5103 7.67253Q16.5103 14.7841 21.0702 19.1786Q25.6301 23.5731 33.0417 23.5731L78.4998 23.5731Q85.5353 23.5731 89.8334 19.1786Q94.1316 14.7841 94.1316 7.62891L94.1316-78.3388Q94.1316-85.494 89.8334-89.8885Q85.5353-94.283 78.4998-94.283L33.0417-94.283Q25.6301-94.283 21.0702-89.9103Q16.5103-85.5376 16.5103-78.3824ZM31.6099 2.4203L31.6099-73.1302Q31.6099-75.5048 32.9733-76.777Q34.3367-78.0492 36.6733-78.0492L73.9958-78.0492Q76.2888-78.0492 77.6522-76.7334Q79.0156-75.4176 79.0156-73.0866L79.0156 2.37668Q79.0156 4.70998 77.6522 6.02578Q76.2888 7.34159 73.9958 7.34159L36.6733 7.34159Q34.3367 7.34159 32.9733 6.04759Q31.6099 4.7536 31.6099 2.4203Z"/>
  </g>
  <g id="Bold-M" transform="matrix(1 0 0 1 2286.47 1126)">
   <path d="M39.0971-36.8452Q39.0971-35.4037 40.0398-34.5232Q40.9825-33.6427 42.4475-33.6427Q43.9743-33.6142 45.0391-34.8502L48.279-38.3418L50.016-40.6741L49.7821-35.8305L49.7821-23.2536Q49.7821-21.75 50.8391-20.7358Q51.8961-19.7216 53.5089-19.7216Q55.1216-19.7216 56.1643-20.7358Q57.207-21.75 57.207-23.2536L57.207-35.8305L56.9681-40.6741L58.7051-38.3418L61.9736-34.8502Q63.0435-33.6142 64.5704-33.6427Q66.0066-33.6427 66.9468-34.5232Q67.887-35.4037 67.887-36.8452Q67.887-38.3724 66.9653-39.3227L56.428-50.4931Q55.2306-51.776 53.5089-51.776Q51.7871-51.776 50.5561-50.4931L40.0474-39.3227Q39.0971-38.3724 39.0971-36.8452ZM40.69-56.2217L66.2991-56.2217Q68.2459-56.2217 69.4297-57.4341Q70.6135-58.6465 70.6135-60.6505L70.6135-67.466Q70.6135-69.47 69.4297-70.6824Q68.2459-71.8948 66.2991-71.8948L40.69-71.8948Q38.7432-71.8948 37.5594-70.6824Q36.3757-69.47 36.3757-67.466L36.3757-60.6505Q36.3757-58.6465 37.5594-57.4341Q38.7432-56.2217 40.69-56.2217ZM17.264 6.30724Q17.264 12.9242 21.5158 17.007Q25.7675 21.0898 32.6703 21.0898L74.9184 21.0898Q81.5928 21.0898 85.6733 17.007Q89.7538 12.9242 89.7538 6.27869L89.7538-76.9377Q89.7538-83.5832 85.6733-87.666Q81.5928-91.7487 74.9184-91.7487L32.6703-91.7487Q25.7675-91.7487 21.5158-87.6803Q17.264-83.6118 17.264-76.9662ZM29.8597 2.42283L29.8597-73.0818Q29.8597-75.6499 31.3285-77.0303Q32.7973-78.4108 35.3941-78.4108L71.6237-78.4108Q74.1919-78.4108 75.6607-77.0018Q77.1295-75.5928 77.1295-73.0533L77.1295 2.39428Q77.1295 4.93896 75.6607 6.34793Q74.1919 7.7569 71.6237 7.7569L35.3941 7.7569Q32.7973 7.7569 31.3285 6.36221Q29.8597 4.96751 29.8597 2.42283Z"/>
  </g>
  <g id="Semibold-M" transform="matrix(1 0 0 1 1991.01 1126)">
   <path d="M38.1589-38.2329Q38.1589-36.8898 39.0245-36.077Q39.8901-35.2642 41.2443-35.2642Q42.5851-35.2272 43.5718-36.3229L47.0603-39.9486L49.1402-42.6483L48.9122-37.3004L48.9122-24.303Q48.9122-22.9354 49.8599-22.0149Q50.8076-21.0944 52.2596-21.0944Q53.7117-21.0944 54.6409-22.0149Q55.5701-22.9354 55.5701-24.303L55.5701-37.3004L55.3351-42.6483L57.415-39.9486L60.9404-36.3229Q61.9342-35.2272 63.2751-35.2642Q64.5922-35.2642 65.4543-36.077Q66.3164-36.8898 66.3164-38.2329Q66.3164-39.6494 65.496-40.4879L54.8405-51.5122Q53.7583-52.6488 52.2596-52.6488Q50.761-52.6488 49.6347-51.5122L39.0162-40.4879Q38.1589-39.6494 38.1589-38.2329ZM39.3854-56.9364L65.0968-56.9364Q67.0496-56.9364 68.2334-58.1478Q69.4172-59.3592 69.4172-61.3672L69.4172-67.8172Q69.4172-69.8252 68.2334-71.0366Q67.0496-72.248 65.0968-72.248L39.3854-72.248Q37.4327-72.248 36.2489-71.0366Q35.0651-69.8252 35.0651-67.8172L35.0651-61.3672Q35.0651-59.3592 36.2489-58.1478Q37.4327-56.9364 39.3854-56.9364ZM17.7836 5.36602Q17.7836 11.6421 21.8229 15.5099Q25.8623 19.3778 32.4143 19.3778L72.4493 19.3778Q78.8749 19.3778 82.8053 15.5099Q86.7357 11.6421 86.7357 5.34786L86.7357-75.9717Q86.7357-82.2659 82.8053-86.1338Q78.8749-90.0016 72.4493-90.0016L32.4143-90.0016Q25.8623-90.0016 21.8229-86.1429Q17.7836-82.2841 17.7836-75.9899ZM28.6531 2.42458L28.6531-73.0484Q28.6531-75.7498 30.1946-77.2049Q31.736-78.66 34.5122-78.66L69.9883-78.66Q72.7463-78.66 74.2878-77.1868Q75.8292-75.7135 75.8292-73.0303L75.8292 2.40642Q75.8292 5.09683 74.2878 6.57002Q72.7463 8.04321 69.9883 8.04321L34.5122 8.04321Q31.736 8.04321 30.1946 6.5791Q28.6531 5.11498 28.6531 2.42458Z"/>
  </g>
  <g id="Medium-M" transform="matrix(1 0 0 1 1695.24 1126)">
   <path d="M37.4475-39.285Q37.4475-38.0165 38.2547-37.2551Q39.0618-36.4937 40.332-36.4937Q41.5318-36.4504 42.4592-37.4395L46.1362-41.167L48.4761-44.1452L48.2526-38.4149L48.2526-25.0987Q48.2526-23.8342 49.1174-22.9848Q49.9823-22.1354 51.3124-22.1354Q52.6426-22.1354 53.4857-22.9848Q54.3289-23.8342 54.3289-25.0987L54.3289-38.4149L54.0969-44.1452L56.4368-41.167L60.1571-37.4395Q61.0931-36.4504 62.293-36.4937Q63.5197-36.4937 64.3226-37.2551Q65.1254-38.0165 65.1254-39.285Q65.1254-40.6176 64.382-41.3713L53.6368-52.2849Q52.6419-53.3105 51.3124-53.3105Q49.9829-53.3105 48.9362-52.2849L38.2344-41.3713Q37.4475-40.6176 37.4475-39.285ZM38.3962-57.4783L64.1851-57.4783Q66.1425-57.4783 67.3262-58.689Q68.51-59.8997 68.51-61.9106L68.51-68.0835Q68.51-70.0944 67.3262-71.3051Q66.1425-72.5158 64.1851-72.5158L38.3962-72.5158Q36.439-72.5158 35.2553-71.3051Q34.0715-70.0944 34.0715-68.0835L34.0715-61.9106Q34.0715-59.8997 35.2553-58.689Q36.439-57.4783 38.3962-57.4783ZM18.1775 4.65235Q18.1775 10.6699 22.0558 14.3748Q25.9341 18.0797 32.2201 18.0797L70.5772 18.0797Q76.8141 18.0797 80.6307 14.3748Q84.4473 10.6699 84.4473 4.64207L84.4473-75.2393Q84.4473-81.2671 80.6307-84.972Q76.8141-88.6769 70.5772-88.6769L32.2201-88.6769Q25.9341-88.6769 22.0558-84.9772Q18.1775-81.2774 18.1775-75.2496ZM27.7382 2.4259L27.7382-73.0231Q27.7382-75.8256 29.3348-77.3373Q30.9313-78.849 33.8435-78.849L68.7483-78.849Q71.6502-78.849 73.2467-77.327Q74.8433-75.8051 74.8433-73.0129L74.8433 2.41563Q74.8433 5.21652 73.2467 6.73841Q71.6502 8.26031 68.7483 8.26031L33.8435 8.26031Q30.9313 8.26031 29.3348 6.74355Q27.7382 5.2268 27.7382 2.4259Z"/>
  </g>
  <g id="Regular-M" transform="matrix(1 0 0 1 1399.77 1126)">
   <path d="M36.5197-40.6574Q36.5197-39.4863 37.2505-38.7918Q37.9813-38.0974 39.142-38.0974Q40.1579-38.0457 41.0081-38.8959L44.9308-42.7562L47.6099-46.0976L47.3923-39.8686L47.3923-26.1365Q47.3923-25.0065 48.149-24.2498Q48.9057-23.4931 50.0769-23.4931Q51.2481-23.4931 51.979-24.2498Q52.7099-25.0065 52.7099-26.1365L52.7099-39.8686L52.4818-46.0976L55.1609-42.7562L59.1353-38.8959Q59.996-38.0457 61.012-38.0974Q62.1209-38.0974 62.8464-38.7918Q63.572-39.4863 63.572-40.6574Q63.572-41.8805 62.9289-42.5236L52.0667-53.2929Q51.1858-54.1736 50.0769-54.1736Q48.968-54.1736 48.025-53.2929L37.2145-42.5236Q36.5197-41.8805 36.5197-40.6574ZM37.1059-58.1852L62.9961-58.1852Q64.9592-58.1852 66.143-59.3949Q67.3268-60.6046 67.3268-62.6194L67.3268-68.4308Q67.3268-70.4456 66.143-71.6553Q64.9592-72.865 62.9961-72.865L37.1059-72.865Q35.1429-72.865 33.9591-71.6553Q32.7754-70.4456 32.7754-68.4308L32.7754-62.6194Q32.7754-60.6046 33.9591-59.3949Q35.1429-58.1852 37.1059-58.1852ZM18.6914 3.72147Q18.6914 9.40183 22.3596 12.8942Q26.0278 16.3865 31.9669 16.3865L68.1353 16.3865Q74.126 16.3865 77.7942 12.8942Q81.4624 9.40183 81.4624 3.72147L81.4624-74.284Q81.4624-79.9643 77.7942-83.4567Q74.126-86.949 68.1353-86.949L31.9669-86.949Q26.0278-86.949 22.3596-83.4567Q18.6914-79.9643 18.6914-74.284ZM26.5449 2.42763L26.5449-72.9901Q26.5449-75.9245 28.2133-77.51Q29.8817-79.0955 32.9713-79.0955L67.1309-79.0955Q70.2205-79.0955 71.8889-77.51Q73.5573-75.9245 73.5573-72.9901L73.5573 2.42763Q73.5573 5.37265 71.8889 6.95806Q70.2205 8.54347 67.1309 8.54347L32.9713 8.54347Q29.8817 8.54347 28.2133 6.95806Q26.5449 5.37265 26.5449 2.42763Z"/>
  </g>
  <g id="Light-M" transform="matrix(1 0 0 1 1104.7 1126)">
   <path d="M35.322-41.4273Q35.322-40.4786 35.9245-39.9211Q36.5269-39.3635 37.4482-39.3635Q38.2927-39.3291 39.006-40.0424L43.7332-44.7068L46.4123-47.8087L46.2458-42.7946L46.2458-26.4959Q46.2458-25.5542 46.8657-24.9343Q47.4856-24.3144 48.4342-24.3144Q49.3829-24.3144 49.9856-24.9343Q50.5883-25.5542 50.5883-26.4959L50.5883-42.7946L50.3944-47.8087L53.0735-44.7068L57.835-40.0424Q58.5758-39.3291 59.4207-39.3635Q60.3071-39.3635 60.8959-39.9211Q61.4846-40.4786 61.4846-41.4273Q61.4846-42.4109 60.9099-42.9856L50.0135-53.8405Q49.3206-54.533 48.4342-54.533Q47.5479-54.533 46.7931-53.8405L35.9312-42.9856Q35.322-42.4109 35.322-41.4273ZM35.3434-58.8866L61.4902-58.8866Q63.5049-58.8866 64.6887-60.0879Q65.8724-61.2891 65.8724-63.3382L65.8724-68.7729Q65.8724-70.8219 64.6887-72.0232Q63.5049-73.2244 61.4902-73.2244L35.3434-73.2244Q33.3292-73.2244 32.1454-72.0232Q30.9616-70.8219 30.9616-68.7729L30.9616-63.3382Q30.9616-61.2891 32.1454-60.0879Q33.3292-58.8866 35.3434-58.8866ZM18.6914 2.67761Q18.6914 8.37522 22.0944 11.6708Q25.4974 14.9663 31.368 14.9663L65.466 14.9663Q71.3711 14.9663 74.7741 11.6708Q78.1771 8.37522 78.1771 2.67761L78.1771-73.2059Q78.1771-78.9035 74.7741-82.1991Q71.3711-85.4946 65.466-85.4946L31.368-85.4946Q25.4974-85.4946 22.0944-82.1991Q18.6914-78.9035 18.6914-73.2059ZM24.7311 1.81155L24.7311-72.3398Q24.7311-75.8903 26.5792-77.6726Q28.4273-79.4549 32.0815-79.4549L64.7525-79.4549Q68.4067-79.4549 70.2548-77.6726Q72.1029-75.8903 72.1029-72.3398L72.1029 1.81155Q72.1029 5.3899 70.2548 7.17195Q68.4067 8.954 64.7525 8.954L32.0815 8.954Q28.4273 8.954 26.5792 7.17195Q24.7311 5.3899 24.7311 1.81155Z"/>
  </g>
  <g id="Thin-M" transform="matrix(1 0 0 1 810.16 1126)">
   <path d="M33.738-42.4456Q33.738-41.7912 34.1707-41.4146Q34.6034-41.038 35.2079-41.038Q35.8258-41.0264 36.3582-41.5587L42.1492-47.2866L44.8283-50.0718L44.7295-46.6645L44.7295-26.9712Q44.7295-26.2785 45.1684-25.8396Q45.6073-25.4007 46.2617-25.4007Q46.916-25.4007 47.3491-25.8396Q47.7822-26.2785 47.7822-26.9712L47.7822-46.6645L47.6336-50.0718L50.3127-47.2866L56.1153-41.5587Q56.6975-41.0264 57.3162-41.038Q57.9083-41.038 58.3161-41.4146Q58.7238-41.7912 58.7238-42.4456Q58.7238-43.1124 58.2396-43.5966L47.298-54.5649Q46.8537-55.0083 46.2617-55.0083Q45.6696-55.0083 45.1638-54.5649L34.2339-43.5966Q33.738-43.1124 33.738-42.4456ZM33.0122-59.8144L59.4986-59.8144Q61.5813-59.8144 62.7651-61.0044Q63.9489-62.1944 63.9489-64.2887L63.9489-69.2253Q63.9489-71.3196 62.7651-72.5097Q61.5813-73.6997 59.4986-73.6997L33.0122-73.6997Q30.9304-73.6997 29.7466-72.5097Q28.5628-71.3196 28.5628-69.2253L28.5628-64.2887Q28.5628-62.1944 29.7466-61.0044Q30.9304-59.8144 33.0122-59.8144ZM18.6914 1.29703Q18.6914 7.01745 21.7437 10.0527Q24.7959 13.088 30.576 13.088L61.9356 13.088Q67.7274 13.088 70.7796 10.0527Q73.8319 7.01745 73.8319 1.29703L73.8319-71.7801Q73.8319-77.5005 70.7796-80.5358Q67.7274-83.5711 61.9356-83.5711L30.576-83.5711Q24.7959-83.5711 21.7437-80.5358Q18.6914-77.5005 18.6914-71.7801ZM22.3323 0.996736L22.3323-71.4798Q22.3323-75.8451 24.4181-77.8876Q26.5038-79.9301 30.9047-79.9301L61.607-79.9301Q66.0079-79.9301 68.0936-77.8876Q70.1794-75.8451 70.1794-71.4798L70.1794 0.996736Q70.1794 5.41271 68.0936 7.45483Q66.0079 9.49696 61.607 9.49696L30.9047 9.49696Q26.5038 9.49696 24.4181 7.45483Q22.3323 5.41271 22.3323 0.996736Z"/>
  </g>
  <g id="Ultralight-M" transform="matrix(1 0 0 1 514.562 1126)">
   <path d="M32.9267-42.9671Q32.9267-42.4634 33.2724-42.1795Q33.6182-41.8956 34.0605-41.8956Q34.5623-41.8957 35.0019-42.3354L41.3378-48.6079L44.0169-51.2309L43.9528-48.6467L43.9528-27.2146Q43.9528-26.6495 44.299-26.3033Q44.6452-25.9571 45.1489-25.9571Q45.6525-25.9571 45.9988-26.3033Q46.345-26.6495 46.345-27.2146L46.345-48.6467L46.2195-51.2309L48.8986-48.6079L55.2344-42.3354Q55.7354-41.8957 56.2383-41.8956Q56.6796-41.8956 56.9947-42.1795Q57.3097-42.4634 57.3097-42.9671Q57.3097-43.4717 56.8719-43.9096L45.9071-54.9358Q45.5902-55.2517 45.1489-55.2517Q44.7075-55.2517 44.3294-54.9358L33.3645-43.9096Q32.9267-43.4717 32.9267-42.9671ZM31.8182-60.2896L58.4785-60.2896Q60.5961-60.2896 61.7799-61.4738Q62.9637-62.6581 62.9637-64.7756L62.9637-69.4571Q62.9637-71.5746 61.7799-72.7588Q60.5961-73.9431 58.4785-73.9431L31.8182-73.9431Q29.7017-73.9431 28.5179-72.7588Q27.3341-71.5746 27.3341-69.4571L27.3341-64.7756Q27.3341-62.6581 28.5179-61.4738Q29.7017-60.2896 31.8182-60.2896ZM18.6914 0.589901Q18.6914 6.32201 21.564 9.22399Q24.4366 12.126 30.1704 12.126L60.1274 12.126Q65.8611 12.126 68.7337 9.22399Q71.6063 6.32201 71.6063 0.589901L71.6063-71.0498Q71.6063-76.7819 68.7337-79.6839Q65.8611-82.5858 60.1274-82.5858L30.1704-82.5858Q24.4366-82.5858 21.564-79.6839Q18.6914-76.7819 18.6914-71.0498ZM21.1037 0.579392L21.1037-71.0393Q21.1037-75.8219 23.3111-77.9977Q25.5186-80.1736 30.302-80.1736L59.9958-80.1736Q64.7793-80.1736 66.9867-77.9977Q69.1941-75.8219 69.1941-71.0393L69.1941 0.579392Q69.1941 5.4244 66.9867 7.59973Q64.7793 9.77506 59.9958 9.77506L30.302 9.77506Q25.5186 9.77506 23.3111 7.59973Q21.1037 5.4244 21.1037 0.579392Z"/>
  </g>
  <g id="Black-S" transform="matrix(1 0 0 1 2888.38 696)">
   <path d="M32.959-33.0078Q32.959-31.6406 33.8867-30.7861Q34.8145-29.9316 36.2305-29.9316Q37.8906-29.9316 38.916-31.25L40.8691-33.6914L41.3574-34.5703L41.1621-32.1289L41.1621-23.1934Q41.1621-21.6797 42.2607-20.6543Q43.3594-19.6289 45.0195-19.6289Q46.6797-19.6289 47.7783-20.6543Q48.877-21.6797 48.877-23.1934L48.877-32.1289L48.6816-34.5703L49.1699-33.6914L51.123-31.25Q52.1484-29.9316 53.8086-29.9316Q55.2246-29.9316 56.1523-30.7861Q57.0801-31.6406 57.0801-33.0078Q57.0801-34.4727 56.1035-35.498L48.1445-44.6289Q46.9238-45.9961 45.0195-45.9961Q43.1152-45.9961 41.8945-44.6289L33.9355-35.498Q32.959-34.4727 32.959-33.0078ZM35.1074-49.9023L54.9316-49.9023Q56.4453-49.9023 57.373-50.8545Q58.3008-51.8066 58.3008-53.3691L58.3008-59.6191Q58.3008-61.1816 57.373-62.1338Q56.4453-63.0859 54.9316-63.0859L35.1074-63.0859Q33.5938-63.0859 32.666-62.1338Q31.7383-61.1816 31.7383-59.6191L31.7383-53.3691Q31.7383-51.8066 32.666-50.8545Q33.5938-49.9023 35.1074-49.9023ZM12.207-0.341797Q12.207 5.71289 16.0645 9.44824Q19.9219 13.1836 26.2207 13.1836L64.8438 13.1836Q70.7031 13.1836 74.2676 9.44824Q77.832 5.71289 77.832-0.390625L77.832-70.3125Q77.832-76.416 74.2676-80.1514Q70.7031-83.8867 64.8438-83.8867L26.2207-83.8867Q19.9219-83.8867 16.0645-80.1758Q12.207-76.4648 12.207-70.3613ZM26.3672-5.76172L26.3672-64.9414Q26.3672-66.6504 27.3438-67.5537Q28.3203-68.457 29.9316-68.457L60.1562-68.457Q61.7188-68.457 62.6953-67.5049Q63.6719-66.5527 63.6719-64.8926L63.6719-5.81055Q63.6719-4.15039 62.6953-3.19824Q61.7188-2.24609 60.1562-2.24609L29.9316-2.24609Q28.3203-2.24609 27.3438-3.17383Q26.3672-4.10156 26.3672-5.76172Z"/>
  </g>
  <g id="Heavy-S" transform="matrix(1 0 0 1 2592.84 696)">
   <path d="M32.0716-34.4484Q32.0716-33.1619 32.9302-32.365Q33.7888-31.5681 35.1126-31.5681Q36.5884-31.5566 37.5446-32.7367L39.6706-35.2242L40.5392-36.541L40.3439-33.3851L40.3439-24.3112Q40.3439-22.9243 41.3388-21.9854Q42.3337-21.0464 43.844-21.0464Q45.3544-21.0464 46.3435-21.9854Q47.3327-22.9243 47.3327-24.3112L47.3327-33.3851L47.1374-36.541L48.006-35.2242L50.1435-32.7367Q51.0997-31.5566 52.5755-31.5681Q53.8878-31.5681 54.7464-32.365Q55.6049-33.1619 55.6049-34.4484Q55.6049-35.821 54.7321-36.7312L46.6464-45.6892Q45.5294-46.9181 43.844-46.9181Q42.1587-46.9181 41.0302-45.6892L32.956-36.7312Q32.0716-35.821 32.0716-34.4484ZM33.8858-50.6053L53.7907-50.6053Q55.3044-50.6053 56.2321-51.5575Q57.1599-52.5096 57.1599-54.0721L57.1599-59.9649Q57.1599-61.5274 56.2321-62.4795Q55.3044-63.4317 53.7907-63.4317L33.8858-63.4317Q32.3722-63.4317 31.4444-62.4795Q30.5167-61.5274 30.5167-59.9649L30.5167-54.0721Q30.5167-52.5096 31.4444-51.5575Q32.3722-50.6053 33.8858-50.6053ZM12.7833-1.25223Q12.7833 4.42215 16.439 7.9443Q20.0947 11.4664 26.0133 11.4664L62.4467 11.4664Q68.041 11.4664 71.4729 7.9443Q74.9048 4.42215 74.9048-1.28953L74.9048-69.379Q74.9048-75.0907 71.4729-78.6129Q68.041-82.135 62.4467-82.135L26.0133-82.135Q20.0947-82.135 16.439-78.6315Q12.7833-75.128 12.7833-69.4163ZM25.2608-5.68105L25.2608-64.9875Q25.2608-66.7656 26.295-67.7266Q27.3292-68.6875 29.0673-68.6875L58.6465-68.6875Q60.3473-68.6875 61.3815-67.6893Q62.4157-66.691 62.4157-64.9502L62.4157-5.71835Q62.4157-3.97752 61.3815-2.97928Q60.3473-1.98103 58.6465-1.98103L29.0673-1.98103Q27.3292-1.98103 26.295-2.96063Q25.2608-3.94022 25.2608-5.68105Z"/>
  </g>
  <g id="Bold-S" transform="matrix(1 0 0 1 2297.45 696)">
   <path d="M31.0791-36.0596Q31.0791-34.8633 31.8604-34.1309Q32.6416-33.3984 33.8623-33.3984Q35.1318-33.374 36.0107-34.3994L38.3301-36.9385L39.624-38.7451L39.4287-34.79L39.4287-25.5615Q39.4287-24.3164 40.3076-23.4741Q41.1865-22.6318 42.5293-22.6318Q43.8721-22.6318 44.7388-23.4741Q45.6055-24.3164 45.6055-25.5615L45.6055-34.79L45.4102-38.7451L46.7041-36.9385L49.0479-34.3994Q49.9268-33.374 51.1963-33.3984Q52.3926-33.3984 53.1738-34.1309Q53.9551-34.8633 53.9551-36.0596Q53.9551-37.3291 53.1982-38.1104L44.9707-46.875Q43.9697-47.9492 42.5293-47.9492Q41.0889-47.9492 40.0635-46.875L31.8604-38.1104Q31.0791-37.3291 31.0791-36.0596ZM32.5195-51.3916L52.5146-51.3916Q54.0283-51.3916 54.9561-52.3438Q55.8838-53.2959 55.8838-54.8584L55.8838-60.3516Q55.8838-61.9141 54.9561-62.8662Q54.0283-63.8184 52.5146-63.8184L32.5195-63.8184Q31.0059-63.8184 30.0781-62.8662Q29.1504-61.9141 29.1504-60.3516L29.1504-54.8584Q29.1504-53.2959 30.0781-52.3438Q31.0059-51.3916 32.5195-51.3916ZM13.4277-2.27051Q13.4277 2.97852 16.8579 6.26221Q20.2881 9.5459 25.7812 9.5459L59.7656 9.5459Q65.0635 9.5459 68.3472 6.26221Q71.6309 2.97852 71.6309-2.29492L71.6309-68.335Q71.6309-73.6084 68.3472-76.8921Q65.0635-80.1758 59.7656-80.1758L25.7812-80.1758Q20.2881-80.1758 16.8579-76.9043Q13.4277-73.6328 13.4277-68.3594ZM24.0234-5.59082L24.0234-65.0391Q24.0234-66.8945 25.1221-67.9199Q26.2207-68.9453 28.1006-68.9453L56.958-68.9453Q58.8135-68.9453 59.9121-67.8955Q61.0107-66.8457 61.0107-65.0146L61.0107-5.61523Q61.0107-3.78418 59.9121-2.73438Q58.8135-1.68457 56.958-1.68457L28.1006-1.68457Q26.2207-1.68457 25.1221-2.72217Q24.0234-3.75977 24.0234-5.59082Z"/>
  </g>
  <g id="Semibold-S" transform="matrix(1 0 0 1 2001.64 696)">
   <path d="M30.3948-37.1704Q30.3948-36.0363 31.1228-35.3483Q31.8507-34.6604 33.0003-34.6604Q34.1276-34.6271 34.9532-35.5458L37.4059-38.1204L38.9931-40.2647L38.7978-35.7587L38.7978-26.4235Q38.7978-25.2762 39.5967-24.5005Q40.3956-23.7249 41.6229-23.7249Q42.8501-23.7249 43.6324-24.5005Q44.4146-25.2762 44.4146-26.4235L44.4146-35.7587L44.2193-40.2647L45.8065-38.1204L48.2925-35.5458Q49.1181-34.6271 50.2454-34.6604Q51.3617-34.6604 52.0896-35.3483Q52.8176-36.0363 52.8176-37.1704Q52.8176-38.3688 52.1407-39.0612L43.8154-47.6926Q42.8944-48.6602 41.6229-48.6602Q40.3513-48.6602 39.397-47.6926L31.105-39.0612Q30.3948-38.3688 30.3948-37.1704ZM31.5775-51.9337L51.6349-51.9337Q53.1485-51.9337 54.0763-52.8858Q55.004-53.838 55.004-55.4005L55.004-60.6182Q55.004-62.1807 54.0763-63.1328Q53.1485-64.085 51.6349-64.085L31.5775-64.085Q30.0639-64.085 29.1361-63.1328Q28.2084-62.1807 28.2084-60.6182L28.2084-55.4005Q28.2084-53.838 29.1361-52.8858Q30.0639-51.9337 31.5775-51.9337ZM13.8721-2.97256Q13.8721 1.9832 17.1467 5.10249Q20.4214 8.22178 25.6213 8.22178L57.9172 8.22178Q63.0106 8.22178 66.1921 5.10249Q69.3736 1.9832 69.3736-2.98809L69.3736-67.6151Q69.3736-72.5864 66.1921-75.7057Q63.0106-78.825 57.9172-78.825L25.6213-78.825Q20.4214-78.825 17.1467-75.7135Q13.8721-72.602 13.8721-67.6307ZM23.1703-5.52861L23.1703-65.0746Q23.1703-66.9834 24.3134-68.0532Q25.4564-69.123 27.4341-69.123L55.7938-69.123Q57.756-69.123 58.899-68.0377Q60.0421-66.9523 60.0421-65.0591L60.0421-5.54414Q60.0421-3.65088 58.899-2.56553Q57.756-1.48018 55.7938-1.48018L27.4341-1.48018Q25.4564-1.48018 24.3134-2.55776Q23.1703-3.63535 23.1703-5.52861Z"/>
  </g>
  <g id="Medium-S" transform="matrix(1 0 0 1 1705.62 696)">
   <path d="M29.876-38.0127Q29.876-36.9258 30.5635-36.2715Q31.251-35.6172 32.3467-35.6172Q33.3662-35.5771 34.1514-36.415L36.7051-39.0166L38.5146-41.417L38.3193-36.4932L38.3193-27.0771Q38.3193-26.0039 39.0576-25.2788Q39.7959-24.5537 40.9355-24.5537Q42.0752-24.5537 42.7935-25.2788Q43.5117-26.0039 43.5117-27.0771L43.5117-36.4932L43.3164-41.417L45.126-39.0166L47.7197-36.415Q48.5049-35.5771 49.5244-35.6172Q50.5801-35.6172 51.2676-36.2715Q51.9551-36.9258 51.9551-38.0127Q51.9551-39.1572 51.3389-39.7822L42.9395-48.3125Q42.0791-49.1992 40.9355-49.1992Q39.792-49.1992 38.8916-48.3125L30.5322-39.7822Q29.876-39.1572 29.876-38.0127ZM30.8633-52.3447L50.9678-52.3447Q52.4814-52.3447 53.4092-53.2969Q54.3369-54.249 54.3369-55.8115L54.3369-60.8203Q54.3369-62.3828 53.4092-63.335Q52.4814-64.2871 50.9678-64.2871L30.8633-64.2871Q29.3496-64.2871 28.4219-63.335Q27.4941-62.3828 27.4941-60.8203L27.4941-55.8115Q27.4941-54.249 28.4219-53.2969Q29.3496-52.3447 30.8633-52.3447ZM14.209-3.50488Q14.209 1.22852 17.3657 4.22314Q20.5225 7.21777 25.5 7.21777L56.5156 7.21777Q61.4541 7.21777 64.5581 4.22314Q67.6621 1.22852 67.6621-3.51367L67.6621-67.0693Q67.6621-71.8115 64.5581-74.8062Q61.4541-77.8008 56.5156-77.8008L25.5-77.8008Q20.5225-77.8008 17.3657-74.8105Q14.209-71.8203 14.209-67.0781ZM22.5234-5.48145L22.5234-65.1016Q22.5234-67.0508 23.7002-68.1543Q24.877-69.2578 26.9287-69.2578L54.9111-69.2578Q56.9541-69.2578 58.1309-68.1455Q59.3076-67.0332 59.3076-65.0928L59.3076-5.49023Q59.3076-3.5498 58.1309-2.4375Q56.9541-1.3252 54.9111-1.3252L26.9287-1.3252Q24.877-1.3252 23.7002-2.43311Q22.5234-3.54102 22.5234-5.48145Z"/>
  </g>
  <g id="Regular-S" transform="matrix(1 0 0 1 1409.81 696)">
   <path d="M29.1992-39.1113Q29.1992-38.0859 29.834-37.4756Q30.4688-36.8652 31.4941-36.8652Q32.373-36.8164 33.1055-37.5488L35.791-40.1855L37.8906-42.9199L37.6953-37.4512L37.6953-27.9297Q37.6953-26.9531 38.3545-26.2939Q39.0137-25.6348 40.0391-25.6348Q41.0645-25.6348 41.6992-26.2939Q42.334-26.9531 42.334-27.9297L42.334-37.4512L42.1387-42.9199L44.2383-40.1855L46.9727-37.5488Q47.7051-36.8164 48.584-36.8652Q49.5605-36.8652 50.1953-37.4756Q50.8301-38.0859 50.8301-39.1113Q50.8301-40.1855 50.293-40.7227L41.7969-49.1211Q41.0156-49.9023 40.0391-49.9023Q39.0625-49.9023 38.2324-49.1211L29.7852-40.7227Q29.1992-40.1855 29.1992-39.1113ZM29.9316-52.8809L50.0977-52.8809Q51.6113-52.8809 52.5391-53.833Q53.4668-54.7852 53.4668-56.3477L53.4668-61.084Q53.4668-62.6465 52.5391-63.5986Q51.6113-64.5508 50.0977-64.5508L29.9316-64.5508Q28.418-64.5508 27.4902-63.5986Q26.5625-62.6465 26.5625-61.084L26.5625-56.3477Q26.5625-54.7852 27.4902-53.833Q28.418-52.8809 29.9316-52.8809ZM14.6484-4.19922Q14.6484 0.244141 17.6514 3.07617Q20.6543 5.9082 25.3418 5.9082L54.6875 5.9082Q59.4238 5.9082 62.4268 3.07617Q65.4297 0.244141 65.4297-4.19922L65.4297-66.3574Q65.4297-70.8008 62.4268-73.6328Q59.4238-76.4648 54.6875-76.4648L25.3418-76.4648Q20.6543-76.4648 17.6514-73.6328Q14.6484-70.8008 14.6484-66.3574ZM21.6797-5.41992L21.6797-65.1367Q21.6797-67.1387 22.9004-68.2861Q24.1211-69.4336 26.2695-69.4336L53.7598-69.4336Q55.9082-69.4336 57.1289-68.2861Q58.3496-67.1387 58.3496-65.1367L58.3496-5.41992Q58.3496-3.41797 57.1289-2.27051Q55.9082-1.12305 53.7598-1.12305L26.2695-1.12305Q24.1211-1.12305 22.9004-2.27051Q21.6797-3.41797 21.6797-5.41992Z"/>
  </g>
  <g id="Light-S" transform="matrix(1 0 0 1 1114.55 696)">
   <path d="M28.1398-39.7924Q28.1398-38.9638 28.661-38.4745Q29.1822-37.9852 29.9957-37.9852Q30.7231-37.9517 31.3344-38.563L34.7315-41.9111L36.8312-44.4336L36.6811-40.0396L36.6811-28.2476Q36.6811-27.4376 37.2192-26.8995Q37.7574-26.3613 38.5859-26.3613Q39.4145-26.3613 39.9358-26.8995Q40.4572-27.4376 40.4572-28.2476L40.4572-40.0396L40.2921-44.4336L42.3917-41.9111L45.8224-38.563Q46.4488-37.9517 47.1764-37.9852Q47.9561-37.9852 48.4698-38.4745Q48.9835-38.9638 48.9835-39.7924Q48.9835-40.6548 48.5069-41.1313L39.9806-49.6056Q39.3656-50.2202 38.5859-50.2202Q37.8062-50.2202 37.1427-49.6056L28.6499-41.1313Q28.1398-40.6548 28.1398-39.7924ZM28.3724-53.5014L48.7656-53.5014Q50.3248-53.5014 51.2525-54.446Q52.1802-55.3907 52.1802-56.9834L52.1802-61.3866Q52.1802-62.9794 51.2525-63.924Q50.3248-64.8687 48.7656-64.8687L28.3724-64.8687Q26.8135-64.8687 25.8858-63.924Q24.958-62.9794 24.958-61.3866L24.958-56.9834Q24.958-55.3907 25.8858-54.446Q26.8135-53.5014 28.3724-53.5014ZM14.6484-5.12263Q14.6484-0.664012 17.4168 1.99394Q20.1851 4.6519 24.8121 4.6519L52.3262 4.6519Q56.9867 4.6519 59.7551 1.99394Q62.5234-0.664012 62.5234-5.12263L62.5234-65.4037Q62.5234-69.8624 59.7551-72.5203Q56.9867-75.1783 52.3262-75.1783L24.8121-75.1783Q20.1851-75.1783 17.4168-72.5203Q14.6484-69.8624 14.6484-65.4037ZM20.0752-5.96491L20.0752-64.5615Q20.0752-67.1084 21.4549-68.4299Q22.8345-69.7515 25.4824-69.7515L51.6558-69.7515Q54.3037-69.7515 55.6834-68.4299Q57.063-67.1084 57.063-64.5615L57.063-5.96491Q57.063-3.40271 55.6834-2.0813Q54.3037-0.759888 51.6558-0.759888L25.4824-0.759888Q22.8345-0.759888 21.4549-2.0813Q20.0752-3.40271 20.0752-5.96491Z"/>
  </g>
  <g id="Thin-S" transform="matrix(1 0 0 1 819.758 696)">
   <path d="M26.7385-40.6931Q26.7385-40.1249 27.1096-39.7957Q27.4806-39.4665 28.014-39.4665Q28.5408-39.4531 28.9921-39.9044L33.3303-44.1932L35.4299-46.4355L35.3397-43.4629L35.3397-28.668Q35.3397-28.0783 35.7178-27.7003Q36.0958-27.3223 36.664-27.3223Q37.2322-27.3223 37.6036-27.7003Q37.9749-28.0783 37.9749-28.668L37.9749-43.4629L37.8499-46.4355L39.9495-44.1932L44.3011-39.9044Q44.7872-39.4531 45.3147-39.4665Q45.8341-39.4665 46.1877-39.7957Q46.5413-40.1249 46.5413-40.6931Q46.5413-41.2753 46.1447-41.6719L37.5784-50.2463Q37.1834-50.6407 36.664-50.6407Q36.1446-50.6407 35.7014-50.2463L27.1484-41.6719Q26.7385-41.2753 26.7385-40.6931ZM26.3103-54.3221L47.0038-54.3221Q48.6232-54.3221 49.5509-55.2568Q50.4786-56.1915 50.4786-57.8243L50.4786-61.7869Q50.4786-63.4197 49.5509-64.3544Q48.6232-65.2891 47.0038-65.2891L26.3103-65.2891Q24.6915-65.2891 23.7637-64.3544Q22.836-63.4197 22.836-61.7869L22.836-57.8243Q22.836-56.1915 23.7637-55.2568Q24.6915-54.3221 26.3103-54.3221ZM14.6484-6.34392Q14.6484-1.86512 17.1065 0.562606Q19.5645 2.99033 24.1114 2.99033L49.2032 2.99033Q53.7635 2.99033 56.2215 0.562606Q58.6796-1.86512 58.6796-6.34392L58.6796-64.1424Q58.6796-68.6212 56.2215-71.049Q53.7635-73.4767 49.2032-73.4767L24.1114-73.4767Q19.5645-73.4767 17.1065-71.049Q14.6484-68.6212 14.6484-64.1424ZM17.9532-6.68571L17.9532-63.8006Q17.9532-67.0684 19.5431-68.6202Q21.1329-70.1719 24.4414-70.1719L48.8732-70.1719Q52.1817-70.1719 53.7716-68.6202Q55.3614-67.0684 55.3614-63.8006L55.3614-6.68571Q55.3614-3.38253 53.7716-1.83105Q52.1817-0.27958 48.8732-0.27958L24.4414-0.27958Q21.1329-0.27958 19.5431-1.83105Q17.9532-3.38253 17.9532-6.68571Z"/>
  </g>
  <g id="Ultralight-S" transform="matrix(1 0 0 1 524.031 696)">
   <path d="M26.0208-41.1545Q26.0208-40.7196 26.3149-40.4724Q26.609-40.2252 26.9989-40.2252Q27.4231-40.2222 27.7924-40.5914L32.6126-45.3621L34.7122-47.4609L34.6527-45.2164L34.6527-28.8834Q34.6527-28.4065 34.9487-28.1105Q35.2448-27.8145 35.6796-27.8145Q36.1145-27.8145 36.409-28.1105Q36.7035-28.4065 36.7035-28.8834L36.7035-45.2164L36.599-47.4609L38.6986-45.3621L43.5219-40.5914Q43.9362-40.2222 44.3611-40.2252Q44.7472-40.2252 45.0188-40.4724Q45.2904-40.7196 45.2904-41.1545Q45.2904-41.5932 44.9348-41.9487L36.348-50.5745Q36.0657-50.856 35.6796-50.856Q35.2936-50.856 34.9632-50.5745L26.3794-41.9487Q26.0208-41.5932 26.0208-41.1545ZM25.2541-54.7424L46.1014-54.7424Q47.7516-54.7424 48.6794-55.6721Q49.6071-56.6017 49.6071-58.255L49.6071-61.9919Q49.6071-63.6452 48.6794-64.5748Q47.7516-65.5045 46.1014-65.5045L25.2541-65.5045Q23.6046-65.5045 22.6768-64.5748Q21.7491-63.6452 21.7491-61.9919L21.7491-58.255Q21.7491-56.6017 22.6768-55.6721Q23.6046-54.7424 25.2541-54.7424ZM14.6484-6.96945Q14.6484-2.48032 16.9476-0.170517Q19.2467 2.13928 23.7526 2.13928L47.6036 2.13928Q52.1126 2.13928 54.4117-0.170517Q56.7108-2.48032 56.7108-6.96945L56.7108-63.4964Q56.7108-67.9855 54.4117-70.2953Q52.1126-72.6051 47.6036-72.6051L23.7526-72.6051Q19.2467-72.6051 16.9476-70.2953Q14.6484-67.9855 14.6484-63.4964ZM16.8663-7.0549L16.8663-63.4109Q16.8663-67.0479 18.5638-68.7176Q20.2614-70.3873 23.9082-70.3873L47.448-70.3873Q51.0948-70.3873 52.7924-68.7176Q54.4899-67.0479 54.4899-63.4109L54.4899-7.0549Q54.4899-3.37219 52.7924-1.70288Q51.0948-0.0335693 47.448-0.0335693L23.9082-0.0335693Q20.2614-0.0335693 18.5638-1.70288Q16.8663-3.37219 16.8663-7.0549Z"/>
  </g>
 </g>
</svg>
